M48
; DRILL file {KiCad (6.0.0-0)} date Tuesday, August 01, 2023 at 09:00:23 PM
; FORMAT={-:-/ absolute / metric / decimal}
; #@! TF.CreationDate,2023-08-01T21:00:23-07:00
; #@! TF.GenerationSoftware,Kicad,Pcbnew,(6.0.0-0)
; #@! TF.FileFunction,NonPlated,1,2,NPTH
FMAT,2
METRIC
; #@! TA.AperFunction,NonPlated,NPTH,ComponentDrill
T1C1.270
; #@! TA.AperFunction,NonPlated,NPTH,ComponentDrill
T2C1.900
; #@! TA.AperFunction,NonPlated,NPTH,ComponentDrill
T3C2.200
; #@! TA.AperFunction,NonPlated,NPTH,ComponentDrill
T4C2.930
; #@! TA.AperFunction,NonPlated,NPTH,ComponentDrill
T5C3.000
; #@! TA.AperFunction,NonPlated,NPTH,ComponentDrill
T6C4.000
%
G90
G05
T1
X198.231Y-55.699
X198.231Y-58.239
X200.771Y-55.699
X200.771Y-58.239
T2
X74.254Y-111.281
X74.256Y-92.329
X74.756Y-73.329
X85.246Y-91.849
X85.248Y-110.897
X85.746Y-72.849
X96.022Y-72.069
X97.822Y-91.069
X98.004Y-109.781
X106.98Y-71.11
X108.78Y-90.11
X108.998Y-109.397
X112.022Y-128.11
X115.009Y-64.877
X116.209Y-83.877
X117.002Y-102.685
X122.98Y-129.069
X125.994Y-64.302
X127.194Y-83.302
X128.0Y-102.493
X134.801Y-63.089
X134.885Y-127.844
X135.201Y-82.089
X136.001Y-101.289
X145.718Y-125.934
X145.801Y-63.089
X146.201Y-82.089
X147.001Y-101.289
X154.722Y-83.11
X154.756Y-103.149
X155.322Y-64.11
X157.501Y-125.089
X165.68Y-84.069
X165.746Y-103.629
X166.28Y-65.069
X168.501Y-125.089
X173.504Y-105.397
X173.522Y-85.61
X174.022Y-66.31
X181.938Y-128.539
X184.48Y-86.569
X184.498Y-105.781
X184.98Y-67.269
X191.464Y-134.039
T3
X101.168Y-124.689
X107.391Y-58.445
X141.72Y-114.51
X187.1Y-55.9
X193.0Y-113.2
X212.7Y-56.0
X212.7Y-113.2
T4
X76.032Y-113.761
X76.056Y-94.793
X76.556Y-75.793
X77.39Y-116.255
X77.435Y-97.275
X77.935Y-78.275
X82.467Y-116.078
X82.51Y-97.054
X83.01Y-78.054
X83.647Y-113.495
X83.668Y-94.461
X84.168Y-75.461
X97.927Y-74.452
X99.414Y-76.871
X99.727Y-93.452
X99.782Y-112.261
X101.14Y-114.755
X101.214Y-95.871
X104.474Y-76.429
X105.518Y-73.788
X106.217Y-114.578
X106.274Y-95.429
X107.318Y-92.788
X107.397Y-111.995
X113.484Y-130.788
X114.528Y-133.429
X116.829Y-67.325
X118.029Y-86.325
X118.23Y-69.795
X118.736Y-105.195
X119.43Y-88.795
X119.589Y-133.871
X120.05Y-107.713
X121.075Y-131.452
X123.303Y-69.529
X124.439Y-66.927
X124.503Y-88.529
X125.129Y-107.624
X125.639Y-85.927
X126.355Y-105.063
X136.491Y-65.629
X136.891Y-84.629
X136.99Y-130.052
X137.691Y-103.829
X137.761Y-68.169
X138.161Y-87.169
X138.682Y-132.333
X138.961Y-106.369
X142.841Y-68.169
X143.241Y-87.169
X143.685Y-131.451
X144.041Y-106.369
X144.111Y-65.629
X144.494Y-128.729
X144.511Y-84.629
X145.311Y-103.829
X156.184Y-85.788
X156.334Y-105.761
X156.784Y-66.788
X157.228Y-88.429
X157.492Y-108.354
X157.828Y-69.429
X159.191Y-127.629
X160.461Y-130.169
X162.289Y-88.871
X162.567Y-108.575
X162.889Y-69.871
X163.775Y-86.452
X163.947Y-106.093
X164.375Y-67.452
X165.541Y-130.169
X166.811Y-127.629
X174.984Y-88.288
X175.105Y-107.995
X175.484Y-68.988
X176.028Y-90.929
X176.285Y-110.578
X176.528Y-71.629
X181.089Y-91.371
X181.362Y-110.755
X181.589Y-72.071
X181.961Y-134.419
X182.132Y-131.584
X182.575Y-88.952
X182.72Y-108.261
X183.075Y-69.652
X186.361Y-136.959
X188.731Y-135.394
T5
X74.592Y-88.561
X74.623Y-107.516
X75.092Y-69.561
X79.492Y-86.145
X79.543Y-105.143
X79.992Y-67.145
X84.583Y-88.125
X84.617Y-107.167
X85.083Y-69.125
X96.193Y-68.289
X97.993Y-87.289
X98.373Y-106.016
X100.983Y-65.662
X102.783Y-84.662
X103.293Y-103.643
X106.155Y-67.418
X107.955Y-86.418
X108.367Y-105.667
X112.847Y-124.418
X115.312Y-61.106
X116.512Y-80.106
X117.436Y-98.927
X118.02Y-122.662
X120.19Y-58.648
X121.39Y-77.648
X122.397Y-96.64
X122.809Y-125.289
X125.298Y-60.583
X126.498Y-79.583
X127.435Y-98.753
X134.726Y-124.065
X135.301Y-59.339
X135.701Y-78.339
X136.501Y-97.539
X139.268Y-121.03
X140.301Y-57.139
X140.701Y-76.139
X141.501Y-95.339
X144.574Y-122.328
X145.301Y-59.339
X145.701Y-78.339
X146.501Y-97.539
X155.419Y-99.425
X155.547Y-79.418
X156.147Y-60.418
X158.001Y-121.339
X160.511Y-97.445
X160.72Y-77.662
X161.32Y-58.662
X163.001Y-119.139
X165.41Y-99.861
X165.509Y-80.289
X166.109Y-61.289
X168.001Y-121.339
X174.135Y-101.667
X174.347Y-81.918
X174.847Y-62.618
X179.209Y-99.643
X179.52Y-80.162
X180.02Y-60.862
X184.129Y-102.016
X184.246Y-125.542
X184.309Y-82.789
X184.809Y-63.489
X189.676Y-126.137
X192.906Y-130.542
T6
X79.751Y-92.089
X79.751Y-111.089
X80.251Y-73.089
X101.501Y-71.589
X103.301Y-90.589
X103.501Y-109.589
X117.501Y-128.589
X120.501Y-64.589
X121.701Y-83.589
X122.501Y-102.589
X140.301Y-63.089
X140.301Y-126.889
X140.701Y-82.089
X141.501Y-101.289
X160.201Y-83.589
X160.251Y-103.389
X160.801Y-64.589
X163.001Y-125.089
X179.001Y-86.089
X179.001Y-105.589
X179.501Y-66.789
X186.701Y-131.289
T0
M30
