%TF.GenerationSoftware,KiCad,Pcbnew,(6.0.0-0)*%
%TF.CreationDate,2023-08-01T21:22:35-07:00*%
%TF.ProjectId,xobdox_seeed,786f6264-6f78-45f7-9365-6565642e6b69,rev?*%
%TF.SameCoordinates,Original*%
%TF.FileFunction,Paste,Bot*%
%TF.FilePolarity,Positive*%
%FSLAX46Y46*%
G04 Gerber Fmt 4.6, Leading zero omitted, Abs format (unit mm)*
G04 Created by KiCad (PCBNEW (6.0.0-0)) date 2023-08-01 21:22:35*
%MOMM*%
%LPD*%
G01*
G04 APERTURE LIST*
G04 Aperture macros list*
%AMRoundRect*
0 Rectangle with rounded corners*
0 $1 Rounding radius*
0 $2 $3 $4 $5 $6 $7 $8 $9 X,Y pos of 4 corners*
0 Add a 4 corners polygon primitive as box body*
4,1,4,$2,$3,$4,$5,$6,$7,$8,$9,$2,$3,0*
0 Add four circle primitives for the rounded corners*
1,1,$1+$1,$2,$3*
1,1,$1+$1,$4,$5*
1,1,$1+$1,$6,$7*
1,1,$1+$1,$8,$9*
0 Add four rect primitives between the rounded corners*
20,1,$1+$1,$2,$3,$4,$5,0*
20,1,$1+$1,$4,$5,$6,$7,0*
20,1,$1+$1,$6,$7,$8,$9,0*
20,1,$1+$1,$8,$9,$2,$3,0*%
%AMRotRect*
0 Rectangle, with rotation*
0 The origin of the aperture is its center*
0 $1 length*
0 $2 width*
0 $3 Rotation angle, in degrees counterclockwise*
0 Add horizontal line*
21,1,$1,$2,0,0,$3*%
G04 Aperture macros list end*
%ADD10R,1.300000X1.150000*%
%ADD11RotRect,1.150000X1.300000X358.000000*%
%ADD12RotRect,1.150000X1.300000X357.500000*%
%ADD13R,1.150000X1.300000*%
%ADD14RotRect,1.150000X1.300000X355.000000*%
%ADD15RotRect,1.150000X1.300000X10.000000*%
%ADD16RotRect,1.150000X1.300000X330.000000*%
%ADD17RotRect,2.550000X2.500000X183.000000*%
%ADD18RotRect,2.600000X2.600000X3.000000*%
%ADD19RotRect,2.600000X2.600000X5.000000*%
%ADD20RotRect,2.550000X2.500000X185.000000*%
%ADD21RotRect,2.550000X2.500000X150.000000*%
%ADD22RotRect,2.600000X2.600000X330.000000*%
%ADD23RotRect,2.550000X2.500000X175.000000*%
%ADD24RotRect,2.600000X2.600000X355.000000*%
%ADD25RotRect,2.600000X2.600000X2.500000*%
%ADD26RotRect,2.550000X2.500000X182.500000*%
%ADD27R,2.550000X2.500000*%
%ADD28R,2.600000X2.600000*%
%ADD29RotRect,2.550000X2.500000X178.000000*%
%ADD30RotRect,2.600000X2.600000X358.000000*%
%ADD31RotRect,2.600000X2.600000X357.500000*%
%ADD32RotRect,2.550000X2.500000X177.500000*%
%ADD33RotRect,2.600000X2.600000X10.000000*%
%ADD34RotRect,2.550000X2.500000X190.000000*%
%ADD35RotRect,2.600000X2.600000X2.000000*%
%ADD36RotRect,2.550000X2.500000X182.000000*%
%ADD37RotRect,2.550000X2.500000X181.000000*%
%ADD38RotRect,2.600000X2.600000X1.000000*%
%ADD39RotRect,1.550000X1.000000X45.000000*%
%ADD40RoundRect,0.500000X0.875000X0.500000X-0.875000X0.500000X-0.875000X-0.500000X0.875000X-0.500000X0*%
%ADD41R,2.286000X1.270000*%
%ADD42R,1.270000X3.086000*%
G04 APERTURE END LIST*
D10*
%TO.C,D1*%
X90855800Y-79553400D03*
X90855800Y-76453400D03*
%TD*%
D11*
%TO.C,D18*%
X171322656Y-104143294D03*
X168224544Y-104035106D03*
%TD*%
D12*
%TO.C,D17*%
X152373725Y-101743810D03*
X149276675Y-101608590D03*
%TD*%
D13*
%TO.C,D10*%
X132741000Y-82067400D03*
X129641000Y-82067400D03*
%TD*%
%TO.C,D14*%
X94310800Y-109245400D03*
X91210800Y-109245400D03*
%TD*%
%TO.C,D8*%
X94056800Y-90779600D03*
X90956800Y-90779600D03*
%TD*%
%TO.C,D22*%
X154280200Y-124688600D03*
X151180200Y-124688600D03*
%TD*%
%TO.C,D2*%
X93091600Y-71907400D03*
X89991600Y-71907400D03*
%TD*%
D14*
%TO.C,D5*%
X152674102Y-63050891D03*
X149585898Y-62780709D03*
%TD*%
D10*
%TO.C,D13*%
X91160600Y-115621400D03*
X91160600Y-112521400D03*
%TD*%
D13*
%TO.C,D4*%
X132029800Y-62966600D03*
X128929800Y-62966600D03*
%TD*%
D15*
%TO.C,D21*%
X131777652Y-127924645D03*
X128724748Y-128462955D03*
%TD*%
D13*
%TO.C,D3*%
X112471800Y-64287400D03*
X109371800Y-64287400D03*
%TD*%
%TO.C,D16*%
X133680800Y-101193600D03*
X130580800Y-101193600D03*
%TD*%
%TO.C,D15*%
X114757800Y-102285800D03*
X111657800Y-102285800D03*
%TD*%
D14*
%TO.C,D11*%
X152242302Y-81999291D03*
X149154098Y-81729109D03*
%TD*%
D13*
%TO.C,D19*%
X199670000Y-107543600D03*
X196570000Y-107543600D03*
%TD*%
D14*
%TO.C,D6*%
X171998204Y-65446582D03*
X168910000Y-65176400D03*
%TD*%
D16*
%TO.C,D24*%
X194052139Y-123457000D03*
X191367461Y-121907000D03*
%TD*%
D10*
%TO.C,D7*%
X90982800Y-97231800D03*
X90982800Y-94131800D03*
%TD*%
D14*
%TO.C,D20*%
X108884502Y-127211291D03*
X105796298Y-126941109D03*
%TD*%
D16*
%TO.C,D23*%
X179066139Y-126149400D03*
X176381461Y-124599400D03*
%TD*%
D13*
%TO.C,D9*%
X114224400Y-83312000D03*
X111124400Y-83312000D03*
%TD*%
D14*
%TO.C,D12*%
X171139902Y-84386891D03*
X168051698Y-84116709D03*
%TD*%
D17*
%TO.C,S9*%
X115620676Y-88995019D03*
D18*
X118119189Y-77818941D03*
X129768500Y-79411445D03*
D17*
X129448584Y-85726843D03*
%TD*%
D19*
%TO.C,S8*%
X99519986Y-84947463D03*
D20*
X97413034Y-96203930D03*
D19*
X111217777Y-86132442D03*
D20*
X111118460Y-92455158D03*
%TD*%
D21*
%TO.C,S22*%
X178657509Y-132511295D03*
D22*
X186839867Y-124499035D03*
D21*
X192034544Y-137301591D03*
D22*
X195742460Y-132179291D03*
%TD*%
D23*
%TO.C,S19*%
X110727532Y-133096180D03*
D24*
X114757139Y-122376592D03*
D23*
X124875709Y-131784283D03*
D24*
X126071445Y-125574870D03*
%TD*%
D25*
%TO.C,S1*%
X76719679Y-67287906D03*
D26*
X74123732Y-78441755D03*
X87979633Y-75294374D03*
D25*
X88354648Y-68982008D03*
%TD*%
D24*
%TO.C,S11*%
X157457139Y-77376592D03*
D23*
X153427532Y-88096180D03*
X167575709Y-86784283D03*
D24*
X168771445Y-80574870D03*
%TD*%
D17*
%TO.C,S3*%
X114420676Y-69995019D03*
D18*
X116919189Y-58818941D03*
D17*
X128248584Y-66726843D03*
D18*
X128568500Y-60411445D03*
%TD*%
D27*
%TO.C,S10*%
X134346100Y-87169386D03*
D28*
X137426100Y-76139386D03*
X148976100Y-78339386D03*
D27*
X148326100Y-84629386D03*
%TD*%
D29*
%TO.C,S18*%
X172472682Y-110444505D03*
D30*
X175935747Y-99528715D03*
X187401932Y-102130464D03*
D29*
X186532810Y-108393947D03*
%TD*%
D28*
%TO.C,S4*%
X137026100Y-57139386D03*
D27*
X133946100Y-68169386D03*
X147926100Y-65629386D03*
D28*
X148576100Y-59339386D03*
%TD*%
D31*
%TO.C,S17*%
X157238752Y-97302196D03*
D32*
X153680562Y-108187350D03*
D31*
X168681797Y-100003906D03*
D32*
X167758049Y-106259566D03*
%TD*%
D23*
%TO.C,S5*%
X154027532Y-69096180D03*
D24*
X158057139Y-58376592D03*
X169371445Y-61574870D03*
D23*
X168175709Y-67784283D03*
%TD*%
D33*
%TO.C,S20*%
X136042648Y-121598478D03*
D34*
X134924779Y-132995744D03*
X148251325Y-128066730D03*
D33*
X147799203Y-121759418D03*
%TD*%
D35*
%TO.C,S13*%
X76270443Y-105257306D03*
D36*
X73577261Y-116388078D03*
D35*
X87890186Y-107052877D03*
D36*
X87460100Y-113361730D03*
%TD*%
D27*
%TO.C,S16*%
X135146100Y-106369386D03*
D28*
X138226100Y-95339386D03*
D27*
X149126100Y-103829386D03*
D28*
X149776100Y-97539386D03*
%TD*%
D37*
%TO.C,S15*%
X116235726Y-107779522D03*
D38*
X119122757Y-96697449D03*
D37*
X130169268Y-104995925D03*
D38*
X130709393Y-98695538D03*
%TD*%
D36*
%TO.C,S14*%
X97327261Y-114888078D03*
D35*
X100020443Y-103757306D03*
X111640186Y-105552877D03*
D36*
X111210100Y-111861730D03*
%TD*%
D20*
%TO.C,S2*%
X95613034Y-77203930D03*
D19*
X97719986Y-65947463D03*
D20*
X109318460Y-73455158D03*
D19*
X109417777Y-67132442D03*
%TD*%
D23*
%TO.C,S12*%
X172227532Y-90596180D03*
D24*
X176257139Y-79876592D03*
X187571445Y-83074870D03*
D23*
X186375709Y-89284283D03*
%TD*%
D26*
%TO.C,S7*%
X73623735Y-97441752D03*
D25*
X76219682Y-86287903D03*
D26*
X87479636Y-94294371D03*
D25*
X87854651Y-87982005D03*
%TD*%
D39*
%TO.C,S24*%
X198494021Y-140934461D03*
X202206332Y-137222150D03*
X197291939Y-139732379D03*
X201004250Y-136020068D03*
%TD*%
D23*
%TO.C,S6*%
X172727532Y-71296180D03*
D24*
X176757139Y-60576592D03*
D23*
X186875709Y-69984283D03*
D24*
X188071445Y-63774870D03*
%TD*%
D28*
%TO.C,S21*%
X159726100Y-119139386D03*
D27*
X156646100Y-130169386D03*
D28*
X171276100Y-121339386D03*
D27*
X170626100Y-127629386D03*
%TD*%
D40*
%TO.C,U2*%
X207556100Y-56629386D03*
X207556100Y-59169386D03*
X207556100Y-61709386D03*
X207556100Y-64249386D03*
X207556100Y-66789386D03*
X207556100Y-69329386D03*
X207556100Y-71869386D03*
X191391100Y-71869386D03*
X191391100Y-69329386D03*
X191391100Y-66789386D03*
X191391100Y-64249386D03*
X191391100Y-61709386D03*
X191391100Y-59169386D03*
X191391100Y-56629386D03*
D41*
X203946100Y-63954386D03*
X203946100Y-62049386D03*
D42*
X195691100Y-73879386D03*
X193786100Y-73879386D03*
%TD*%
M02*
