%TF.GenerationSoftware,KiCad,Pcbnew,(6.0.0-0)*%
%TF.CreationDate,2023-10-27T21:44:22-07:00*%
%TF.ProjectId,xobdox_seeed,786f6264-6f78-45f7-9365-6565642e6b69,rev?*%
%TF.SameCoordinates,Original*%
%TF.FileFunction,Soldermask,Top*%
%TF.FilePolarity,Negative*%
%FSLAX46Y46*%
G04 Gerber Fmt 4.6, Leading zero omitted, Abs format (unit mm)*
G04 Created by KiCad (PCBNEW (6.0.0-0)) date 2023-10-27 21:44:22*
%MOMM*%
%LPD*%
G01*
G04 APERTURE LIST*
G04 Aperture macros list*
%AMRoundRect*
0 Rectangle with rounded corners*
0 $1 Rounding radius*
0 $2 $3 $4 $5 $6 $7 $8 $9 X,Y pos of 4 corners*
0 Add a 4 corners polygon primitive as box body*
4,1,4,$2,$3,$4,$5,$6,$7,$8,$9,$2,$3,0*
0 Add four circle primitives for the rounded corners*
1,1,$1+$1,$2,$3*
1,1,$1+$1,$4,$5*
1,1,$1+$1,$6,$7*
1,1,$1+$1,$8,$9*
0 Add four rect primitives between the rounded corners*
20,1,$1+$1,$2,$3,$4,$5,0*
20,1,$1+$1,$4,$5,$6,$7,0*
20,1,$1+$1,$6,$7,$8,$9,0*
20,1,$1+$1,$8,$9,$2,$3,0*%
%AMRotRect*
0 Rectangle, with rotation*
0 The origin of the aperture is its center*
0 $1 length*
0 $2 width*
0 $3 Rotation angle, in degrees counterclockwise*
0 Add horizontal line*
21,1,$1,$2,0,0,$3*%
G04 Aperture macros list end*
%ADD10C,0.381000*%
%ADD11C,3.000000*%
%ADD12C,2.930000*%
%ADD13C,4.000000*%
%ADD14C,1.900000*%
%ADD15RoundRect,0.101600X1.207833X1.315015X-1.338673X1.181559X-1.207833X-1.315015X1.338673X-1.181559X0*%
%ADD16RotRect,2.600000X2.600000X3.000000*%
%ADD17RoundRect,0.101600X1.161204X1.356367X-1.379093X1.134120X-1.161204X-1.356367X1.379093X-1.134120X0*%
%ADD18RotRect,2.600000X2.600000X5.000000*%
%ADD19R,1.300000X1.150000*%
%ADD20RotRect,1.150000X1.300000X358.000000*%
%ADD21C,2.200000*%
%ADD22RotRect,2.600000X2.600000X330.000000*%
%ADD23RoundRect,0.101600X1.729182X0.445032X-0.479182X1.720032X-1.729182X-0.445032X0.479182X-1.720032X0*%
%ADD24RotRect,2.600000X2.600000X355.000000*%
%ADD25RoundRect,0.101600X1.379093X1.134120X-1.161204X1.356367X-1.379093X-1.134120X1.161204X-1.356367X0*%
%ADD26RotRect,1.150000X1.300000X357.500000*%
%ADD27C,1.270000*%
%ADD28RoundRect,0.601600X-0.875000X-0.500000X0.875000X-0.500000X0.875000X0.500000X-0.875000X0.500000X0*%
%ADD29RoundRect,0.101600X-1.143000X-0.635000X1.143000X-0.635000X1.143000X0.635000X-1.143000X0.635000X0*%
%ADD30RoundRect,0.401600X-0.700000X-0.300000X0.700000X-0.300000X0.700000X0.300000X-0.700000X0.300000X0*%
%ADD31RoundRect,0.101600X0.635000X-1.543000X0.635000X1.543000X-0.635000X1.543000X-0.635000X-1.543000X0*%
%ADD32RoundRect,0.101600X-0.600000X-1.100000X0.600000X-1.100000X0.600000X1.100000X-0.600000X1.100000X0*%
%ADD33C,1.400000*%
%ADD34R,1.150000X1.300000*%
%ADD35RoundRect,0.101600X1.219262X1.304425X-1.328311X1.193196X-1.219262X-1.304425X1.328311X-1.193196X0*%
%ADD36RotRect,2.600000X2.600000X2.500000*%
%ADD37C,1.778000*%
%ADD38C,2.100000*%
%ADD39RotRect,1.150000X1.300000X355.000000*%
%ADD40RoundRect,0.101600X1.275000X1.250000X-1.275000X1.250000X-1.275000X-1.250000X1.275000X-1.250000X0*%
%ADD41R,2.600000X2.600000*%
%ADD42RotRect,2.600000X2.600000X358.000000*%
%ADD43RoundRect,0.101600X1.317848X1.204742X-1.230599X1.293735X-1.317848X-1.204742X1.230599X-1.293735X0*%
%ADD44RotRect,1.150000X1.300000X10.000000*%
%ADD45RotRect,2.600000X2.600000X357.500000*%
%ADD46RoundRect,0.101600X1.328311X1.193196X-1.219262X1.304425X-1.328311X-1.193196X1.219262X-1.304425X0*%
%ADD47RotRect,2.600000X2.600000X10.000000*%
%ADD48RoundRect,0.101600X1.038570X1.452411X-1.472690X1.009608X-1.038570X-1.452411X1.472690X-1.009608X0*%
%ADD49RoundRect,0.101600X1.230599X1.293735X-1.317848X1.204742X-1.230599X-1.293735X1.317848X-1.204742X0*%
%ADD50RotRect,2.600000X2.600000X2.000000*%
%ADD51RoundRect,0.250000X0.625000X-0.350000X0.625000X0.350000X-0.625000X0.350000X-0.625000X-0.350000X0*%
%ADD52O,1.750000X1.200000*%
%ADD53RotRect,1.150000X1.300000X330.000000*%
%ADD54RotRect,2.000000X2.000000X335.000000*%
%ADD55C,2.000000*%
%ADD56RotRect,3.000000X2.500000X335.000000*%
%ADD57RoundRect,0.101600X1.252990X1.272061X-1.296621X1.227558X-1.252990X-1.272061X1.296621X-1.227558X0*%
%ADD58RotRect,2.600000X2.600000X1.000000*%
%ADD59C,1.511200*%
%ADD60C,2.003200*%
%ADD61C,2.453200*%
%ADD62C,1.711200*%
%ADD63RoundRect,0.250000X-0.350000X-0.625000X0.350000X-0.625000X0.350000X0.625000X-0.350000X0.625000X0*%
%ADD64O,1.200000X1.750000*%
%ADD65RotRect,1.550000X1.000000X45.000000*%
%ADD66R,2.000000X2.000000*%
%ADD67R,2.500000X3.000000*%
%ADD68RoundRect,0.401600X0.700000X0.300000X-0.700000X0.300000X-0.700000X-0.300000X0.700000X-0.300000X0*%
%ADD69RoundRect,0.101600X0.600000X1.100000X-0.600000X1.100000X-0.600000X-1.100000X0.600000X-1.100000X0*%
%ADD70RoundRect,0.250000X-0.625000X0.350000X-0.625000X-0.350000X0.625000X-0.350000X0.625000X0.350000X0*%
G04 APERTURE END LIST*
D10*
X123553713Y-113865990D02*
X123408570Y-113793418D01*
X123190856Y-113793418D01*
X122973141Y-113865990D01*
X122827999Y-114011132D01*
X122755427Y-114156275D01*
X122682856Y-114446561D01*
X122682856Y-114664275D01*
X122755427Y-114954561D01*
X122827999Y-115099704D01*
X122973141Y-115244847D01*
X123190856Y-115317418D01*
X123335999Y-115317418D01*
X123553713Y-115244847D01*
X123626284Y-115172275D01*
X123626284Y-114664275D01*
X123335999Y-114664275D01*
X124279427Y-115317418D02*
X124279427Y-114301418D01*
X124279427Y-113793418D02*
X124206856Y-113865990D01*
X124279427Y-113938561D01*
X124351999Y-113865990D01*
X124279427Y-113793418D01*
X124279427Y-113938561D01*
X124787427Y-114301418D02*
X125367999Y-114301418D01*
X125005141Y-113793418D02*
X125005141Y-115099704D01*
X125077713Y-115244847D01*
X125222856Y-115317418D01*
X125367999Y-115317418D01*
X125875999Y-115317418D02*
X125875999Y-113793418D01*
X125875999Y-114519132D02*
X126746856Y-114519132D01*
X126746856Y-115317418D02*
X126746856Y-113793418D01*
X128125713Y-114301418D02*
X128125713Y-115317418D01*
X127472570Y-114301418D02*
X127472570Y-115099704D01*
X127545141Y-115244847D01*
X127690284Y-115317418D01*
X127907999Y-115317418D01*
X128053141Y-115244847D01*
X128125713Y-115172275D01*
X128851427Y-115317418D02*
X128851427Y-113793418D01*
X128851427Y-114373990D02*
X128996570Y-114301418D01*
X129286856Y-114301418D01*
X129431999Y-114373990D01*
X129504570Y-114446561D01*
X129577141Y-114591704D01*
X129577141Y-115027132D01*
X129504570Y-115172275D01*
X129431999Y-115244847D01*
X129286856Y-115317418D01*
X128996570Y-115317418D01*
X128851427Y-115244847D01*
X118582570Y-117771058D02*
X119380856Y-116755058D01*
X118582570Y-116755058D02*
X119380856Y-117771058D01*
X120614570Y-116755058D02*
X120614570Y-118279058D01*
X120614570Y-117698487D02*
X120469427Y-117771058D01*
X120179141Y-117771058D01*
X120033998Y-117698487D01*
X119961427Y-117625915D01*
X119888856Y-117480772D01*
X119888856Y-117045344D01*
X119961427Y-116900201D01*
X120033998Y-116827630D01*
X120179141Y-116755058D01*
X120469427Y-116755058D01*
X120614570Y-116827630D01*
X121340284Y-117771058D02*
X121340284Y-116755058D01*
X121340284Y-116247058D02*
X121267713Y-116319630D01*
X121340284Y-116392201D01*
X121412856Y-116319630D01*
X121340284Y-116247058D01*
X121340284Y-116392201D01*
X122065998Y-116755058D02*
X122065998Y-117771058D01*
X122065998Y-116900201D02*
X122138570Y-116827630D01*
X122283713Y-116755058D01*
X122501427Y-116755058D01*
X122646570Y-116827630D01*
X122719141Y-116972772D01*
X122719141Y-117771058D01*
X123299713Y-117771058D02*
X124097998Y-116755058D01*
X123299713Y-116755058D02*
X124097998Y-117771058D01*
X125767141Y-116174487D02*
X124460856Y-118133915D01*
X126129998Y-117771058D02*
X126928284Y-116755058D01*
X126129998Y-116755058D02*
X126928284Y-117771058D01*
X127726570Y-117771058D02*
X127581427Y-117698487D01*
X127508856Y-117625915D01*
X127436284Y-117480772D01*
X127436284Y-117045344D01*
X127508856Y-116900201D01*
X127581427Y-116827630D01*
X127726570Y-116755058D01*
X127944284Y-116755058D01*
X128089427Y-116827630D01*
X128161998Y-116900201D01*
X128234570Y-117045344D01*
X128234570Y-117480772D01*
X128161998Y-117625915D01*
X128089427Y-117698487D01*
X127944284Y-117771058D01*
X127726570Y-117771058D01*
X128887713Y-117771058D02*
X128887713Y-116247058D01*
X128887713Y-116827630D02*
X129032856Y-116755058D01*
X129323141Y-116755058D01*
X129468284Y-116827630D01*
X129540856Y-116900201D01*
X129613427Y-117045344D01*
X129613427Y-117480772D01*
X129540856Y-117625915D01*
X129468284Y-117698487D01*
X129323141Y-117771058D01*
X129032856Y-117771058D01*
X128887713Y-117698487D01*
X130919713Y-117771058D02*
X130919713Y-116247058D01*
X130919713Y-117698487D02*
X130774570Y-117771058D01*
X130484284Y-117771058D01*
X130339141Y-117698487D01*
X130266570Y-117625915D01*
X130193998Y-117480772D01*
X130193998Y-117045344D01*
X130266570Y-116900201D01*
X130339141Y-116827630D01*
X130484284Y-116755058D01*
X130774570Y-116755058D01*
X130919713Y-116827630D01*
X131863141Y-117771058D02*
X131717998Y-117698487D01*
X131645427Y-117625915D01*
X131572856Y-117480772D01*
X131572856Y-117045344D01*
X131645427Y-116900201D01*
X131717998Y-116827630D01*
X131863141Y-116755058D01*
X132080856Y-116755058D01*
X132225998Y-116827630D01*
X132298570Y-116900201D01*
X132371141Y-117045344D01*
X132371141Y-117480772D01*
X132298570Y-117625915D01*
X132225998Y-117698487D01*
X132080856Y-117771058D01*
X131863141Y-117771058D01*
X132879141Y-117771058D02*
X133677427Y-116755058D01*
X132879141Y-116755058D02*
X133677427Y-117771058D01*
D11*
%TO.C,S9*%
X116511692Y-80106205D03*
X126497988Y-79582845D03*
D12*
X119430448Y-88795357D03*
D11*
X121389701Y-77647540D03*
D13*
X121701100Y-83589386D03*
D14*
X116208638Y-83877234D03*
D12*
X118029255Y-86325305D03*
X124503486Y-88529491D03*
X125638812Y-85926505D03*
D14*
X127193562Y-83301538D03*
D15*
X114219483Y-86524967D03*
D16*
X113241181Y-80277605D03*
D15*
X128313257Y-88329829D03*
D16*
X124660213Y-77476140D03*
%TD*%
D14*
%TO.C,S8*%
X97822029Y-91068743D03*
X108780171Y-90110029D03*
D11*
X107955239Y-86417877D03*
D12*
X106274186Y-95428679D03*
X107317977Y-92787657D03*
D13*
X103301100Y-90589386D03*
D12*
X101213517Y-95871431D03*
X99726974Y-93451784D03*
D11*
X97993292Y-87289435D03*
X102782523Y-84662028D03*
D17*
X95926491Y-93784283D03*
D18*
X94730755Y-87574870D03*
X106045061Y-84376592D03*
D17*
X110074668Y-95096180D03*
%TD*%
D19*
%TO.C,D1*%
X90855800Y-79553400D03*
X90855800Y-76453400D03*
%TD*%
D20*
%TO.C,D18*%
X171322656Y-104143294D03*
X168224544Y-104035106D03*
%TD*%
D21*
%TO.C,H3*%
X101168200Y-124688600D03*
%TD*%
D13*
%TO.C,S22*%
X186701100Y-131289386D03*
D14*
X181937960Y-128539386D03*
D12*
X186360805Y-136958795D03*
X188730657Y-135394091D03*
D14*
X191464240Y-134039386D03*
D12*
X181961395Y-134418795D03*
D11*
X189676100Y-126136535D03*
X184245973Y-125541791D03*
X192906227Y-130541791D03*
D12*
X182131543Y-131584091D03*
D22*
X181409740Y-123904291D03*
D23*
X178827656Y-129676591D03*
X189664691Y-138866295D03*
D22*
X192512333Y-127774035D03*
%TD*%
D11*
%TO.C,S19*%
X122808908Y-125289435D03*
D14*
X122980171Y-129068743D03*
D12*
X121075226Y-131451784D03*
D13*
X117501100Y-128589386D03*
D12*
X113484223Y-130787657D03*
D14*
X112022029Y-128110029D03*
D11*
X112846961Y-124417877D03*
D12*
X114528014Y-133428679D03*
D11*
X118019677Y-122662028D03*
D12*
X119588683Y-133871431D03*
D24*
X109584423Y-124132442D03*
D25*
X109683740Y-130455158D03*
X123389166Y-134203930D03*
D24*
X121282214Y-122947463D03*
%TD*%
D26*
%TO.C,D17*%
X152373725Y-101743810D03*
X149276675Y-101608590D03*
%TD*%
D27*
%TO.C,U1*%
X198231100Y-58239386D03*
X200771100Y-55699386D03*
X198231100Y-55699386D03*
X200771100Y-58239386D03*
D28*
X191446100Y-56629386D03*
X191446100Y-59169386D03*
X191446100Y-61709386D03*
X191446100Y-64249386D03*
X191446100Y-66789386D03*
X191446100Y-69329386D03*
X191446100Y-71869386D03*
X207611100Y-71869386D03*
X207611100Y-69329386D03*
X207611100Y-66789386D03*
X207611100Y-64249386D03*
X207611100Y-61709386D03*
X207611100Y-59169386D03*
X207611100Y-56629386D03*
D29*
X195056100Y-63954386D03*
D30*
X195456100Y-63954386D03*
D29*
X195056100Y-62049386D03*
D30*
X195456100Y-62049386D03*
D31*
X203311100Y-73879386D03*
D32*
X203311100Y-73479386D03*
D31*
X205216100Y-73879386D03*
D32*
X205216100Y-73479386D03*
%TD*%
D33*
%TO.C,J3*%
X204597000Y-84429600D03*
%TD*%
D34*
%TO.C,D10*%
X132741000Y-82067400D03*
X129641000Y-82067400D03*
%TD*%
%TO.C,D14*%
X94310800Y-109245400D03*
X91210800Y-109245400D03*
%TD*%
D12*
%TO.C,S1*%
X77935101Y-78275347D03*
X76555517Y-75793161D03*
D14*
X85745862Y-72849482D03*
D13*
X80251097Y-73089389D03*
D14*
X74756332Y-73329296D03*
D11*
X79991562Y-67145052D03*
X85082765Y-69124861D03*
D12*
X83010266Y-78053761D03*
D11*
X75092283Y-69561055D03*
D12*
X84168264Y-75460782D03*
D35*
X72744148Y-75959569D03*
D36*
X71820400Y-69703909D03*
D35*
X86821635Y-77887353D03*
D36*
X83263445Y-67002199D03*
%TD*%
D34*
%TO.C,D8*%
X94056800Y-90779600D03*
X90956800Y-90779600D03*
%TD*%
D37*
%TO.C,S23*%
X199179078Y-138173212D03*
X202714612Y-134637678D03*
D38*
X196704204Y-137112552D03*
X201653952Y-132162804D03*
%TD*%
D34*
%TO.C,D22*%
X154280200Y-124688600D03*
X151180200Y-124688600D03*
%TD*%
%TO.C,D2*%
X93091600Y-71907400D03*
X89991600Y-71907400D03*
%TD*%
D12*
%TO.C,S11*%
X162288683Y-88871431D03*
D11*
X165508908Y-80289435D03*
D12*
X157228014Y-88428679D03*
D14*
X154722029Y-83110029D03*
X165680171Y-84068743D03*
D11*
X160719677Y-77662028D03*
D12*
X163775226Y-86451784D03*
D11*
X155546961Y-79417877D03*
D13*
X160201100Y-83589386D03*
D12*
X156184223Y-85787657D03*
D24*
X152284423Y-79132442D03*
D25*
X152383740Y-85455158D03*
D24*
X163982214Y-77947463D03*
D25*
X166089166Y-89203930D03*
%TD*%
D39*
%TO.C,D5*%
X152674102Y-63050891D03*
X149585898Y-62780709D03*
%TD*%
D19*
%TO.C,D13*%
X91160600Y-115621400D03*
X91160600Y-112521400D03*
%TD*%
D13*
%TO.C,S3*%
X120501100Y-64589386D03*
D14*
X125993562Y-64301538D03*
D12*
X118230448Y-69795357D03*
D11*
X120189701Y-58647540D03*
D12*
X124438812Y-66926505D03*
D14*
X115008638Y-64877234D03*
D12*
X116829255Y-67325305D03*
D11*
X115311692Y-61106205D03*
X125297988Y-60582845D03*
D12*
X123303486Y-69529491D03*
D15*
X113019483Y-67524967D03*
D16*
X112041181Y-61277605D03*
D15*
X127113257Y-69329829D03*
D16*
X123460213Y-58476140D03*
%TD*%
D11*
%TO.C,S10*%
X145701100Y-78339386D03*
X135701100Y-78339386D03*
D12*
X144511100Y-84629386D03*
D11*
X140701100Y-76139386D03*
D14*
X135201100Y-82089386D03*
D12*
X138161100Y-87169386D03*
D13*
X140701100Y-82089386D03*
D12*
X143241100Y-87169386D03*
X136891100Y-84629386D03*
D14*
X146201100Y-82089386D03*
D40*
X133076100Y-84629386D03*
D41*
X132426100Y-78339386D03*
X143976100Y-76139386D03*
D40*
X147056100Y-87169386D03*
%TD*%
D11*
%TO.C,S18*%
X184128927Y-102016168D03*
D14*
X184497750Y-105781333D03*
D11*
X179208752Y-99643011D03*
D12*
X181362263Y-110754936D03*
X176285358Y-110577647D03*
X175104776Y-107994872D03*
D11*
X174135019Y-101667173D03*
D14*
X173504450Y-105397439D03*
D12*
X182720134Y-108260806D03*
D13*
X179001100Y-105589386D03*
D42*
X170862014Y-101552877D03*
D43*
X171292100Y-107861730D03*
D42*
X182481757Y-99757306D03*
D43*
X185174939Y-110888078D03*
%TD*%
D34*
%TO.C,D4*%
X132029800Y-62966600D03*
X128929800Y-62966600D03*
%TD*%
D44*
%TO.C,D21*%
X131777652Y-127924645D03*
X128724748Y-128462955D03*
%TD*%
D34*
%TO.C,D3*%
X112471800Y-64287400D03*
X109371800Y-64287400D03*
%TD*%
D12*
%TO.C,S4*%
X142841100Y-68169386D03*
D14*
X134801100Y-63089386D03*
X145801100Y-63089386D03*
D12*
X136491100Y-65629386D03*
D13*
X140301100Y-63089386D03*
D11*
X140301100Y-57139386D03*
X135301100Y-59339386D03*
D12*
X144111100Y-65629386D03*
X137761100Y-68169386D03*
D11*
X145301100Y-59339386D03*
D40*
X132676100Y-65629386D03*
D41*
X132026100Y-59339386D03*
X143576100Y-57139386D03*
D40*
X146656100Y-68169386D03*
%TD*%
D13*
%TO.C,S17*%
X160251100Y-103389386D03*
D11*
X155419432Y-99424858D03*
D12*
X163946680Y-106093158D03*
D11*
X160510635Y-97445049D03*
D14*
X154756335Y-103149479D03*
D12*
X156333933Y-105760779D03*
D14*
X165745865Y-103629293D03*
D12*
X157491931Y-108353758D03*
X162567096Y-108575344D03*
D11*
X165409914Y-99861052D03*
D45*
X152147549Y-99282005D03*
D46*
X152522564Y-105594371D03*
D45*
X163782518Y-97587903D03*
D46*
X166378465Y-108741752D03*
%TD*%
D14*
%TO.C,S5*%
X166280171Y-65068743D03*
D11*
X156146961Y-60417877D03*
D12*
X157828014Y-69428679D03*
D11*
X161319677Y-58662028D03*
D13*
X160801100Y-64589386D03*
D12*
X164375226Y-67451784D03*
D11*
X166108908Y-61289435D03*
D12*
X162888683Y-69871431D03*
D14*
X155322029Y-64110029D03*
D12*
X156784223Y-66787657D03*
D24*
X152884423Y-60132442D03*
D25*
X152983740Y-66455158D03*
D24*
X164582214Y-58947463D03*
D25*
X166689166Y-70203930D03*
%TD*%
D34*
%TO.C,D16*%
X133680800Y-101193600D03*
X130580800Y-101193600D03*
%TD*%
%TO.C,D15*%
X114757800Y-102285800D03*
X111657800Y-102285800D03*
%TD*%
D12*
%TO.C,S20*%
X136990049Y-130052397D03*
D14*
X134884657Y-127844451D03*
D12*
X143684644Y-131451143D03*
D14*
X145717543Y-125934321D03*
D11*
X134725881Y-124064598D03*
D12*
X138681821Y-132333276D03*
D11*
X144573958Y-122328116D03*
X139267893Y-121029780D03*
D12*
X144494284Y-128729198D03*
D13*
X140301100Y-126889386D03*
D47*
X131500635Y-124633296D03*
D48*
X133233007Y-130714865D03*
X147441686Y-130788675D03*
D47*
X142493139Y-120461082D03*
%TD*%
D21*
%TO.C,H8*%
X141720000Y-114510000D03*
%TD*%
%TO.C,H5*%
X187100000Y-55900000D03*
%TD*%
D39*
%TO.C,D11*%
X152242302Y-81999291D03*
X149154098Y-81729109D03*
%TD*%
D13*
%TO.C,S13*%
X79751100Y-111089386D03*
D14*
X74254450Y-111281333D03*
D11*
X84617181Y-107167173D03*
D12*
X76032066Y-113760806D03*
X82466842Y-116077647D03*
X77389937Y-116254936D03*
X83647424Y-113494872D03*
D11*
X74623273Y-107516168D03*
X79543448Y-105143011D03*
D14*
X85247750Y-110897439D03*
D49*
X72219390Y-113893947D03*
D50*
X71350268Y-107630464D03*
X82816453Y-105028715D03*
D49*
X86279518Y-115944505D03*
%TD*%
D51*
%TO.C,J1*%
X208000000Y-80750000D03*
D52*
X208000000Y-78750000D03*
%TD*%
D21*
%TO.C,H6*%
X212700000Y-56000000D03*
%TD*%
D14*
%TO.C,S16*%
X147001100Y-101289386D03*
D12*
X137691100Y-103829386D03*
D11*
X141501100Y-95339386D03*
D14*
X136001100Y-101289386D03*
D12*
X144041100Y-106369386D03*
X138961100Y-106369386D03*
X145311100Y-103829386D03*
D13*
X141501100Y-101289386D03*
D11*
X136501100Y-97539386D03*
X146501100Y-97539386D03*
D41*
X133226100Y-97539386D03*
D40*
X133876100Y-103829386D03*
X147856100Y-106369386D03*
D41*
X144776100Y-95339386D03*
%TD*%
D34*
%TO.C,D19*%
X199670000Y-107543600D03*
X196570000Y-107543600D03*
%TD*%
D39*
%TO.C,D6*%
X171998204Y-65446582D03*
X168910000Y-65176400D03*
%TD*%
D53*
%TO.C,D24*%
X194052139Y-123457000D03*
X191367461Y-121907000D03*
%TD*%
D54*
%TO.C,ENC1*%
X200685815Y-116770248D03*
D55*
X198572724Y-121301787D03*
X199629269Y-119036017D03*
D56*
X204059915Y-127280978D03*
X208793240Y-117130331D03*
%TD*%
D11*
%TO.C,S15*%
X117436415Y-98927219D03*
D12*
X120050145Y-107712941D03*
D14*
X128000262Y-102493398D03*
X117001938Y-102685374D03*
D12*
X125129371Y-107624283D03*
X126354849Y-105062505D03*
D11*
X122397258Y-96640292D03*
D12*
X118736009Y-105195493D03*
D11*
X127434892Y-98752695D03*
D13*
X122501100Y-102589386D03*
D57*
X114921590Y-105262074D03*
D58*
X114161914Y-98984376D03*
X125671759Y-96583136D03*
D57*
X128943790Y-107557702D03*
%TD*%
D19*
%TO.C,D7*%
X90982800Y-97231800D03*
X90982800Y-94131800D03*
%TD*%
D11*
%TO.C,S14*%
X103293448Y-103643011D03*
D14*
X98004450Y-109781333D03*
D12*
X99782066Y-112260806D03*
D14*
X108997750Y-109397439D03*
D11*
X108367181Y-105667173D03*
X98373273Y-106016168D03*
D13*
X103501100Y-109589386D03*
D12*
X107397424Y-111994872D03*
X101139937Y-114754936D03*
X106216842Y-114577647D03*
D50*
X95100268Y-106130464D03*
D49*
X95969390Y-112393947D03*
X110029518Y-114444505D03*
D50*
X106566453Y-103528715D03*
%TD*%
D59*
%TO.C,SW1*%
X213000000Y-63500000D03*
X213000000Y-65500000D03*
X213000000Y-61500000D03*
D60*
X213000000Y-67500000D03*
X213000000Y-59500000D03*
%TD*%
D39*
%TO.C,D20*%
X108884502Y-127211291D03*
X105796298Y-126941109D03*
%TD*%
D14*
%TO.C,S2*%
X96022029Y-72068743D03*
D12*
X99413517Y-76871431D03*
D11*
X100982523Y-65662028D03*
D12*
X97926974Y-74451784D03*
X105517977Y-73787657D03*
D14*
X106980171Y-71110029D03*
D11*
X106155239Y-67417877D03*
D12*
X104474186Y-76428679D03*
D13*
X101501100Y-71589386D03*
D11*
X96193292Y-68289435D03*
D17*
X94126491Y-74784283D03*
D18*
X92930755Y-68574870D03*
X104245061Y-65376592D03*
D17*
X108274668Y-76096180D03*
%TD*%
D53*
%TO.C,D23*%
X179066139Y-126149400D03*
X176381461Y-124599400D03*
%TD*%
D12*
%TO.C,S12*%
X174984223Y-88287657D03*
X176028014Y-90928679D03*
X182575226Y-88951784D03*
D11*
X184308908Y-82789435D03*
D14*
X173522029Y-85610029D03*
D11*
X174346961Y-81917877D03*
D13*
X179001100Y-86089386D03*
D12*
X181088683Y-91371431D03*
D14*
X184480171Y-86568743D03*
D11*
X179519677Y-80162028D03*
D24*
X171084423Y-81632442D03*
D25*
X171183740Y-87955158D03*
D24*
X182782214Y-80447463D03*
D25*
X184889166Y-91703930D03*
%TD*%
D14*
%TO.C,S7*%
X85245865Y-91849479D03*
X74256335Y-92329293D03*
D11*
X84582768Y-88124858D03*
D12*
X83668267Y-94460779D03*
D11*
X74592286Y-88561052D03*
D12*
X76055520Y-94793158D03*
D11*
X79491565Y-86145049D03*
D13*
X79751100Y-92089386D03*
D12*
X77435104Y-97275344D03*
X82510269Y-97053758D03*
D35*
X72244151Y-94959566D03*
D36*
X71320403Y-88703906D03*
X82763448Y-86002196D03*
D35*
X86321638Y-96887350D03*
%TD*%
D60*
%TO.C,JOY1*%
X202050000Y-102250000D03*
X208550000Y-102250000D03*
X202050000Y-106750000D03*
X208550000Y-106750000D03*
D61*
X198975000Y-91500000D03*
X211625000Y-91500000D03*
X198975000Y-101500000D03*
X211625000Y-101500000D03*
D62*
X207800000Y-87770000D03*
X205300000Y-87770000D03*
X202800000Y-87770000D03*
X214030000Y-99000000D03*
X196570000Y-99000000D03*
X214030000Y-96500000D03*
X196570000Y-96500000D03*
X214030000Y-94000000D03*
X196570000Y-94000000D03*
%TD*%
D63*
%TO.C,BAT1*%
X211580000Y-72980000D03*
D64*
X214120000Y-72980000D03*
%TD*%
D65*
%TO.C,S24*%
X198490485Y-140937996D03*
X202202796Y-137225685D03*
X197288404Y-139735915D03*
X201000715Y-136023604D03*
%TD*%
D21*
%TO.C,H2*%
X107391200Y-58445400D03*
%TD*%
D34*
%TO.C,D9*%
X114224400Y-83312000D03*
X111124400Y-83312000D03*
%TD*%
D66*
%TO.C,ENC2*%
X207822800Y-90220800D03*
D55*
X202822800Y-90220800D03*
X205322800Y-90220800D03*
D67*
X199722800Y-97720800D03*
X210922800Y-97720800D03*
D55*
X207822800Y-104720800D03*
X202822800Y-104720800D03*
%TD*%
D39*
%TO.C,D12*%
X171139902Y-84386891D03*
X168051698Y-84116709D03*
%TD*%
D21*
%TO.C,H4*%
X193000000Y-113200000D03*
%TD*%
%TO.C,H7*%
X212700000Y-113200000D03*
%TD*%
D11*
%TO.C,S6*%
X174846961Y-62617877D03*
D12*
X175484223Y-68987657D03*
D11*
X180019677Y-60862028D03*
D14*
X174022029Y-66310029D03*
D12*
X176528014Y-71628679D03*
D11*
X184808908Y-63489435D03*
D13*
X179501100Y-66789386D03*
D12*
X183075226Y-69651784D03*
D14*
X184980171Y-67268743D03*
D12*
X181588683Y-72071431D03*
D25*
X171683740Y-68655158D03*
D24*
X171584423Y-62332442D03*
D25*
X185389166Y-72403930D03*
D24*
X183282214Y-61147463D03*
%TD*%
D13*
%TO.C,S21*%
X163001100Y-125089386D03*
D12*
X165541100Y-130169386D03*
X159191100Y-127629386D03*
D11*
X158001100Y-121339386D03*
D14*
X157501100Y-125089386D03*
D11*
X168001100Y-121339386D03*
D12*
X166811100Y-127629386D03*
D11*
X163001100Y-119139386D03*
D14*
X168501100Y-125089386D03*
D12*
X160461100Y-130169386D03*
D41*
X154726100Y-121339386D03*
D40*
X155376100Y-127629386D03*
D41*
X166276100Y-119139386D03*
D40*
X169356100Y-130169386D03*
%TD*%
D68*
%TO.C,U2*%
X203546100Y-63954386D03*
X203546100Y-62049386D03*
D69*
X195691100Y-73479386D03*
X193786100Y-73479386D03*
%TD*%
D70*
%TO.C,J2*%
X208000000Y-80750000D03*
D52*
X208000000Y-82750000D03*
%TD*%
M02*
