%TF.GenerationSoftware,KiCad,Pcbnew,(6.0.0-0)*%
%TF.CreationDate,2022-11-22T13:30:14-08:00*%
%TF.ProjectId,xobdox_seeed,786f6264-6f78-45f7-9365-6565642e6b69,rev?*%
%TF.SameCoordinates,Original*%
%TF.FileFunction,Legend,Bot*%
%TF.FilePolarity,Positive*%
%FSLAX46Y46*%
G04 Gerber Fmt 4.6, Leading zero omitted, Abs format (unit mm)*
G04 Created by KiCad (PCBNEW (6.0.0-0)) date 2022-11-22 13:30:14*
%MOMM*%
%LPD*%
G01*
G04 APERTURE LIST*
%ADD10C,0.200000*%
%ADD11C,0.381000*%
%ADD12C,0.300000*%
%ADD13C,0.150000*%
%ADD14C,0.048768*%
%ADD15C,0.127000*%
%ADD16C,0.120000*%
%ADD17C,0.254000*%
G04 APERTURE END LIST*
D10*
X180543085Y-54670400D02*
X180657371Y-54613257D01*
X180828800Y-54613257D01*
X181000228Y-54670400D01*
X181114514Y-54784685D01*
X181171657Y-54898971D01*
X181228800Y-55127542D01*
X181228800Y-55298971D01*
X181171657Y-55527542D01*
X181114514Y-55641828D01*
X181000228Y-55756114D01*
X180828800Y-55813257D01*
X180714514Y-55813257D01*
X180543085Y-55756114D01*
X180485942Y-55698971D01*
X180485942Y-55298971D01*
X180714514Y-55298971D01*
X179971657Y-55813257D02*
X179971657Y-54613257D01*
X179285942Y-55813257D01*
X179285942Y-54613257D01*
X178714514Y-55813257D02*
X178714514Y-54613257D01*
X178428800Y-54613257D01*
X178257371Y-54670400D01*
X178143085Y-54784685D01*
X178085942Y-54898971D01*
X178028800Y-55127542D01*
X178028800Y-55298971D01*
X178085942Y-55527542D01*
X178143085Y-55641828D01*
X178257371Y-55756114D01*
X178428800Y-55813257D01*
X178714514Y-55813257D01*
D11*
X205006121Y-67892990D02*
X203875216Y-66453657D01*
X205006121Y-66453657D02*
X203875216Y-67892990D01*
X202744311Y-67892990D02*
X202949930Y-67790180D01*
X203052740Y-67687371D01*
X203155550Y-67481752D01*
X203155550Y-66864895D01*
X203052740Y-66659276D01*
X202949930Y-66556466D01*
X202744311Y-66453657D01*
X202435883Y-66453657D01*
X202230264Y-66556466D01*
X202127454Y-66659276D01*
X202024645Y-66864895D01*
X202024645Y-67481752D01*
X202127454Y-67687371D01*
X202230264Y-67790180D01*
X202435883Y-67892990D01*
X202744311Y-67892990D01*
X201099359Y-67892990D02*
X201099359Y-65733990D01*
X201099359Y-66556466D02*
X200893740Y-66453657D01*
X200482502Y-66453657D01*
X200276883Y-66556466D01*
X200174073Y-66659276D01*
X200071264Y-66864895D01*
X200071264Y-67481752D01*
X200174073Y-67687371D01*
X200276883Y-67790180D01*
X200482502Y-67892990D01*
X200893740Y-67892990D01*
X201099359Y-67790180D01*
X198220692Y-67892990D02*
X198220692Y-65733990D01*
X198220692Y-67790180D02*
X198426311Y-67892990D01*
X198837550Y-67892990D01*
X199043169Y-67790180D01*
X199145978Y-67687371D01*
X199248788Y-67481752D01*
X199248788Y-66864895D01*
X199145978Y-66659276D01*
X199043169Y-66556466D01*
X198837550Y-66453657D01*
X198426311Y-66453657D01*
X198220692Y-66556466D01*
X196884169Y-67892990D02*
X197089788Y-67790180D01*
X197192597Y-67687371D01*
X197295407Y-67481752D01*
X197295407Y-66864895D01*
X197192597Y-66659276D01*
X197089788Y-66556466D01*
X196884169Y-66453657D01*
X196575740Y-66453657D01*
X196370121Y-66556466D01*
X196267311Y-66659276D01*
X196164502Y-66864895D01*
X196164502Y-67481752D01*
X196267311Y-67687371D01*
X196370121Y-67790180D01*
X196575740Y-67892990D01*
X196884169Y-67892990D01*
X195444835Y-67892990D02*
X194313930Y-66453657D01*
X195444835Y-66453657D02*
X194313930Y-67892990D01*
D12*
X214238257Y-68821561D02*
X213857304Y-68821561D01*
X213666828Y-68916800D01*
X213476352Y-69107276D01*
X213381114Y-69488228D01*
X213381114Y-70154895D01*
X213476352Y-70535847D01*
X213666828Y-70726323D01*
X213857304Y-70821561D01*
X214238257Y-70821561D01*
X214428733Y-70726323D01*
X214619209Y-70535847D01*
X214714447Y-70154895D01*
X214714447Y-69488228D01*
X214619209Y-69107276D01*
X214428733Y-68916800D01*
X214238257Y-68821561D01*
X212523971Y-70821561D02*
X212523971Y-68821561D01*
X211381114Y-70821561D01*
X211381114Y-68821561D01*
D13*
%TO.C,S9*%
X123545242Y-92209446D02*
X123405073Y-92264476D01*
X123167304Y-92276937D01*
X123069704Y-92234368D01*
X123019658Y-92189306D01*
X122967120Y-92096691D01*
X122962135Y-92001583D01*
X123004705Y-91903984D01*
X123049766Y-91853938D01*
X123142382Y-91801399D01*
X123330105Y-91743877D01*
X123422720Y-91691339D01*
X123467782Y-91641293D01*
X123510351Y-91543693D01*
X123505367Y-91448585D01*
X123452829Y-91355970D01*
X123402783Y-91310908D01*
X123305183Y-91268339D01*
X123067414Y-91280800D01*
X122927245Y-91335830D01*
X122501551Y-92311828D02*
X122311336Y-92321797D01*
X122213736Y-92279227D01*
X122163690Y-92234166D01*
X122061106Y-92096489D01*
X122003583Y-91908766D01*
X121983646Y-91528335D01*
X122026215Y-91430736D01*
X122071277Y-91380690D01*
X122163892Y-91328152D01*
X122354107Y-91318183D01*
X122451707Y-91360752D01*
X122501753Y-91405814D01*
X122554291Y-91498429D01*
X122566752Y-91736198D01*
X122524183Y-91833798D01*
X122479121Y-91883844D01*
X122386506Y-91936382D01*
X122196290Y-91946351D01*
X122098691Y-91903781D01*
X122048645Y-91858720D01*
X121996107Y-91766104D01*
X121630629Y-92071365D02*
X121155091Y-92096286D01*
X121740690Y-92351703D02*
X121355478Y-91370519D01*
X121074937Y-92386594D01*
%TO.C,S8*%
X105444955Y-99139835D02*
X105306792Y-99199724D01*
X105069602Y-99220475D01*
X104970576Y-99181338D01*
X104918988Y-99138050D01*
X104863250Y-99047325D01*
X104854949Y-98952449D01*
X104894087Y-98853423D01*
X104937374Y-98801835D01*
X105028100Y-98746097D01*
X105213701Y-98682058D01*
X105304426Y-98626320D01*
X105347714Y-98574731D01*
X105386851Y-98475706D01*
X105378551Y-98380830D01*
X105322812Y-98290104D01*
X105271224Y-98246817D01*
X105172198Y-98207680D01*
X104935009Y-98228431D01*
X104796846Y-98288320D01*
X104260794Y-98717626D02*
X104351519Y-98661887D01*
X104394807Y-98610299D01*
X104433944Y-98511273D01*
X104429794Y-98463835D01*
X104374055Y-98373110D01*
X104322467Y-98329822D01*
X104223441Y-98290685D01*
X104033690Y-98307286D01*
X103942964Y-98363025D01*
X103899677Y-98414613D01*
X103860540Y-98513639D01*
X103864690Y-98561076D01*
X103920428Y-98651802D01*
X103972016Y-98695089D01*
X104071042Y-98734227D01*
X104260794Y-98717626D01*
X104359820Y-98756763D01*
X104411408Y-98800050D01*
X104467146Y-98890776D01*
X104483747Y-99080527D01*
X104444610Y-99179553D01*
X104401322Y-99231141D01*
X104310597Y-99286880D01*
X104120846Y-99303481D01*
X104021820Y-99264344D01*
X103970231Y-99221056D01*
X103914493Y-99130331D01*
X103897892Y-98940579D01*
X103937029Y-98841553D01*
X103980317Y-98789965D01*
X104071042Y-98734227D01*
X103526690Y-99068657D02*
X103052311Y-99110160D01*
X103646467Y-99344984D02*
X103227246Y-98377841D01*
X102982337Y-99403087D01*
%TO.C,D1*%
X92303419Y-79170066D02*
X93303419Y-79170066D01*
X93303419Y-78931971D01*
X93255800Y-78789114D01*
X93160561Y-78693876D01*
X93065323Y-78646257D01*
X92874847Y-78598638D01*
X92731990Y-78598638D01*
X92541514Y-78646257D01*
X92446276Y-78693876D01*
X92351038Y-78789114D01*
X92303419Y-78931971D01*
X92303419Y-79170066D01*
X92303419Y-77646257D02*
X92303419Y-78217685D01*
X92303419Y-77931971D02*
X93303419Y-77931971D01*
X93160561Y-78027209D01*
X93065323Y-78122447D01*
X93017704Y-78217685D01*
X92589133Y-77265304D02*
X92589133Y-76789114D01*
X92303419Y-77360542D02*
X93303419Y-77027209D01*
X92303419Y-76693876D01*
%TO.C,D18*%
X171374268Y-102896840D02*
X171409167Y-101897449D01*
X171171217Y-101889140D01*
X171026785Y-101931744D01*
X170928281Y-102023600D01*
X170877368Y-102117118D01*
X170823130Y-102305817D01*
X170818144Y-102448587D01*
X170859087Y-102640609D01*
X170903353Y-102737451D01*
X170995210Y-102835955D01*
X171136318Y-102888530D01*
X171374268Y-102896840D01*
X169851387Y-102843660D02*
X170422467Y-102863602D01*
X170136927Y-102853631D02*
X170171826Y-101854240D01*
X170262021Y-102000334D01*
X170353877Y-102098838D01*
X170447395Y-102149752D01*
X169300249Y-102252637D02*
X169397091Y-102208370D01*
X169446343Y-102162442D01*
X169497257Y-102068924D01*
X169498918Y-102021334D01*
X169454652Y-101924492D01*
X169408724Y-101875240D01*
X169315206Y-101824326D01*
X169124846Y-101817679D01*
X169028004Y-101861945D01*
X168978752Y-101907873D01*
X168927838Y-102001391D01*
X168926176Y-102048981D01*
X168970442Y-102145823D01*
X169016370Y-102195075D01*
X169109889Y-102245989D01*
X169300249Y-102252637D01*
X169393767Y-102303550D01*
X169439695Y-102352802D01*
X169483961Y-102449644D01*
X169477314Y-102640004D01*
X169426400Y-102733523D01*
X169377148Y-102779451D01*
X169280306Y-102823717D01*
X169089946Y-102817069D01*
X168996428Y-102766156D01*
X168950500Y-102716904D01*
X168906233Y-102620062D01*
X168912881Y-102429702D01*
X168963795Y-102336183D01*
X169013047Y-102290255D01*
X169109889Y-102245989D01*
X168528837Y-102511587D02*
X168052937Y-102494968D01*
X168614046Y-102800451D02*
X168315815Y-101789427D01*
X167947785Y-102777184D01*
%TO.C,S22*%
X176094594Y-133721067D02*
X175947067Y-133690878D01*
X175740870Y-133571830D01*
X175682201Y-133482972D01*
X175664771Y-133417923D01*
X175671151Y-133311635D01*
X175718770Y-133229156D01*
X175807629Y-133170487D01*
X175872677Y-133153057D01*
X175978965Y-133159437D01*
X176167732Y-133213436D01*
X176274020Y-133219816D01*
X176339069Y-133202386D01*
X176427928Y-133143717D01*
X176475547Y-133061238D01*
X176481926Y-132954950D01*
X176464497Y-132889901D01*
X176405827Y-132801043D01*
X176199631Y-132681995D01*
X176052104Y-132651806D01*
X175698380Y-132502569D02*
X175680950Y-132437520D01*
X175622281Y-132348662D01*
X175416084Y-132229614D01*
X175309796Y-132223234D01*
X175244747Y-132240664D01*
X175155889Y-132299333D01*
X175108270Y-132381812D01*
X175078081Y-132529339D01*
X175287238Y-133309925D01*
X174751127Y-133000401D01*
X174873593Y-132026378D02*
X174856164Y-131961330D01*
X174797495Y-131872471D01*
X174591298Y-131753424D01*
X174485010Y-131747044D01*
X174419961Y-131764474D01*
X174331103Y-131823143D01*
X174283484Y-131905621D01*
X174253294Y-132053149D01*
X174462452Y-132833735D01*
X173926341Y-132524211D01*
X173739284Y-132086299D02*
X173326890Y-131848204D01*
X173678905Y-132381354D02*
X173890230Y-131348662D01*
X173101555Y-132048021D01*
%TO.C,S19*%
X108813047Y-134584281D02*
X108666583Y-134619268D01*
X108429394Y-134598516D01*
X108338668Y-134542778D01*
X108295381Y-134491190D01*
X108256243Y-134392164D01*
X108264544Y-134297288D01*
X108320282Y-134206563D01*
X108371870Y-134163275D01*
X108470896Y-134124138D01*
X108664798Y-134093301D01*
X108763824Y-134054164D01*
X108815412Y-134010876D01*
X108871151Y-133920151D01*
X108879451Y-133825275D01*
X108840314Y-133726249D01*
X108797026Y-133674661D01*
X108706301Y-133618923D01*
X108469112Y-133598171D01*
X108322648Y-133633158D01*
X107290885Y-134498910D02*
X107860140Y-134548713D01*
X107575512Y-134523811D02*
X107662668Y-133527617D01*
X107745093Y-133678231D01*
X107831668Y-133781407D01*
X107922394Y-133837145D01*
X106816507Y-134457407D02*
X106626756Y-134440806D01*
X106536030Y-134385068D01*
X106492743Y-134333479D01*
X106410318Y-134182865D01*
X106379481Y-133988964D01*
X106412683Y-133609461D01*
X106468422Y-133518736D01*
X106520010Y-133475448D01*
X106619036Y-133436311D01*
X106808787Y-133452912D01*
X106899512Y-133508650D01*
X106942800Y-133560238D01*
X106981937Y-133659264D01*
X106961186Y-133896454D01*
X106905448Y-133987179D01*
X106853859Y-134030467D01*
X106754834Y-134069604D01*
X106565082Y-134053003D01*
X106474357Y-133997264D01*
X106431069Y-133945676D01*
X106391932Y-133846650D01*
X105987527Y-134098075D02*
X105513149Y-134056572D01*
X106057502Y-134391003D02*
X105812592Y-133365756D01*
X105393372Y-134332899D01*
%TO.C,D17*%
X152649960Y-100548810D02*
X152693580Y-99549762D01*
X152455711Y-99539377D01*
X152310913Y-99580719D01*
X152211611Y-99671712D01*
X152159883Y-99764782D01*
X152104001Y-99953000D01*
X152097770Y-100095721D01*
X152137035Y-100288093D01*
X152180455Y-100385318D01*
X152271448Y-100484620D01*
X152412092Y-100538425D01*
X152649960Y-100548810D01*
X151127601Y-100482343D02*
X151698486Y-100507268D01*
X151413044Y-100494805D02*
X151456663Y-99495757D01*
X151545579Y-99642633D01*
X151636572Y-99741934D01*
X151729643Y-99793662D01*
X150838205Y-99468755D02*
X150172172Y-99439675D01*
X150556717Y-100457417D01*
X149808000Y-100138741D02*
X149332262Y-100117970D01*
X149890684Y-100428338D02*
X149601288Y-99414750D01*
X149224652Y-100399258D01*
D14*
%TO.C,U1A*%
X201174393Y-54476267D02*
X201201100Y-54502973D01*
X201281219Y-54529679D01*
X201334631Y-54529679D01*
X201414750Y-54502973D01*
X201468163Y-54449560D01*
X201494869Y-54396148D01*
X201521575Y-54289323D01*
X201521575Y-54209204D01*
X201494869Y-54102379D01*
X201468163Y-54048966D01*
X201414750Y-53995554D01*
X201334631Y-53968847D01*
X201281219Y-53968847D01*
X201201100Y-53995554D01*
X201174393Y-54022260D01*
X200666974Y-54529679D02*
X200934037Y-54529679D01*
X200934037Y-53968847D01*
X200480030Y-54529679D02*
X200480030Y-53968847D01*
X200159555Y-54529679D02*
X200399911Y-54209204D01*
X200159555Y-53968847D02*
X200480030Y-54289323D01*
X198446869Y-54529679D02*
X198446869Y-53968847D01*
X198072981Y-53968847D02*
X197966156Y-53968847D01*
X197912743Y-53995554D01*
X197859331Y-54048966D01*
X197832624Y-54155791D01*
X197832624Y-54342735D01*
X197859331Y-54449560D01*
X197912743Y-54502973D01*
X197966156Y-54529679D01*
X198072981Y-54529679D01*
X198126393Y-54502973D01*
X198179806Y-54449560D01*
X198206512Y-54342735D01*
X198206512Y-54155791D01*
X198179806Y-54048966D01*
X198126393Y-53995554D01*
X198072981Y-53968847D01*
X201328100Y-59456554D02*
X201381512Y-59429847D01*
X201461631Y-59429847D01*
X201541750Y-59456554D01*
X201595163Y-59509966D01*
X201621869Y-59563379D01*
X201648575Y-59670204D01*
X201648575Y-59750323D01*
X201621869Y-59857148D01*
X201595163Y-59910560D01*
X201541750Y-59963973D01*
X201461631Y-59990679D01*
X201408219Y-59990679D01*
X201328100Y-59963973D01*
X201301393Y-59937267D01*
X201301393Y-59750323D01*
X201408219Y-59750323D01*
X201061037Y-59990679D02*
X201061037Y-59429847D01*
X200740561Y-59990679D01*
X200740561Y-59429847D01*
X200473499Y-59990679D02*
X200473499Y-59429847D01*
X200339967Y-59429847D01*
X200259848Y-59456554D01*
X200206436Y-59509966D01*
X200179729Y-59563379D01*
X200153023Y-59670204D01*
X200153023Y-59750323D01*
X200179729Y-59857148D01*
X200206436Y-59910560D01*
X200259848Y-59963973D01*
X200339967Y-59990679D01*
X200473499Y-59990679D01*
X198634393Y-59990679D02*
X198821337Y-59723616D01*
X198954869Y-59990679D02*
X198954869Y-59429847D01*
X198741219Y-59429847D01*
X198687806Y-59456554D01*
X198661100Y-59483260D01*
X198634393Y-59536672D01*
X198634393Y-59616791D01*
X198661100Y-59670204D01*
X198687806Y-59696910D01*
X198741219Y-59723616D01*
X198954869Y-59723616D01*
X198420743Y-59963973D02*
X198340624Y-59990679D01*
X198207093Y-59990679D01*
X198153680Y-59963973D01*
X198126974Y-59937267D01*
X198100268Y-59883854D01*
X198100268Y-59830442D01*
X198126974Y-59777029D01*
X198153680Y-59750323D01*
X198207093Y-59723616D01*
X198313918Y-59696910D01*
X198367331Y-59670204D01*
X198394037Y-59643498D01*
X198420743Y-59590085D01*
X198420743Y-59536672D01*
X198394037Y-59483260D01*
X198367331Y-59456554D01*
X198313918Y-59429847D01*
X198180387Y-59429847D01*
X198100268Y-59456554D01*
X197940030Y-59429847D02*
X197619555Y-59429847D01*
X197779792Y-59990679D02*
X197779792Y-59429847D01*
D13*
%TO.C,D10*%
X133164057Y-84221580D02*
X133164057Y-83221580D01*
X132925961Y-83221580D01*
X132783104Y-83269200D01*
X132687866Y-83364438D01*
X132640247Y-83459676D01*
X132592628Y-83650152D01*
X132592628Y-83793009D01*
X132640247Y-83983485D01*
X132687866Y-84078723D01*
X132783104Y-84173961D01*
X132925961Y-84221580D01*
X133164057Y-84221580D01*
X131640247Y-84221580D02*
X132211676Y-84221580D01*
X131925961Y-84221580D02*
X131925961Y-83221580D01*
X132021199Y-83364438D01*
X132116438Y-83459676D01*
X132211676Y-83507295D01*
X131021199Y-83221580D02*
X130925961Y-83221580D01*
X130830723Y-83269200D01*
X130783104Y-83316819D01*
X130735485Y-83412057D01*
X130687866Y-83602533D01*
X130687866Y-83840628D01*
X130735485Y-84031104D01*
X130783104Y-84126342D01*
X130830723Y-84173961D01*
X130925961Y-84221580D01*
X131021199Y-84221580D01*
X131116438Y-84173961D01*
X131164057Y-84126342D01*
X131211676Y-84031104D01*
X131259295Y-83840628D01*
X131259295Y-83602533D01*
X131211676Y-83412057D01*
X131164057Y-83316819D01*
X131116438Y-83269200D01*
X131021199Y-83221580D01*
X130306914Y-83935866D02*
X129830723Y-83935866D01*
X130402152Y-84221580D02*
X130068819Y-83221580D01*
X129735485Y-84221580D01*
%TO.C,D14*%
X93794057Y-107945180D02*
X93794057Y-106945180D01*
X93555961Y-106945180D01*
X93413104Y-106992800D01*
X93317866Y-107088038D01*
X93270247Y-107183276D01*
X93222628Y-107373752D01*
X93222628Y-107516609D01*
X93270247Y-107707085D01*
X93317866Y-107802323D01*
X93413104Y-107897561D01*
X93555961Y-107945180D01*
X93794057Y-107945180D01*
X92270247Y-107945180D02*
X92841676Y-107945180D01*
X92555961Y-107945180D02*
X92555961Y-106945180D01*
X92651199Y-107088038D01*
X92746438Y-107183276D01*
X92841676Y-107230895D01*
X91413104Y-107278514D02*
X91413104Y-107945180D01*
X91651199Y-106897561D02*
X91889295Y-107611847D01*
X91270247Y-107611847D01*
X90936914Y-107659466D02*
X90460723Y-107659466D01*
X91032152Y-107945180D02*
X90698819Y-106945180D01*
X90365485Y-107945180D01*
%TO.C,S1*%
X82019946Y-81725213D02*
X81879302Y-81779018D01*
X81641433Y-81789404D01*
X81544209Y-81745984D01*
X81494558Y-81700488D01*
X81442830Y-81607418D01*
X81438676Y-81512270D01*
X81482095Y-81415045D01*
X81527592Y-81365395D01*
X81620662Y-81313667D01*
X81808880Y-81257785D01*
X81901950Y-81206057D01*
X81947447Y-81156406D01*
X81990866Y-81059181D01*
X81986712Y-80964034D01*
X81934984Y-80870963D01*
X81885333Y-80825467D01*
X81788109Y-80782047D01*
X81550240Y-80792433D01*
X81409596Y-80846238D01*
X80499664Y-81839255D02*
X81070549Y-81814329D01*
X80785106Y-81826792D02*
X80741487Y-80827744D01*
X80842866Y-80966311D01*
X80942167Y-81057304D01*
X81039392Y-81100723D01*
X80106612Y-81570429D02*
X79630874Y-81591200D01*
X80214222Y-81851717D02*
X79837586Y-80867209D01*
X79548190Y-81880797D01*
%TO.C,D8*%
X92657466Y-89504780D02*
X92657466Y-88504780D01*
X92419371Y-88504780D01*
X92276514Y-88552400D01*
X92181276Y-88647638D01*
X92133657Y-88742876D01*
X92086038Y-88933352D01*
X92086038Y-89076209D01*
X92133657Y-89266685D01*
X92181276Y-89361923D01*
X92276514Y-89457161D01*
X92419371Y-89504780D01*
X92657466Y-89504780D01*
X91514609Y-88933352D02*
X91609847Y-88885733D01*
X91657466Y-88838114D01*
X91705085Y-88742876D01*
X91705085Y-88695257D01*
X91657466Y-88600019D01*
X91609847Y-88552400D01*
X91514609Y-88504780D01*
X91324133Y-88504780D01*
X91228895Y-88552400D01*
X91181276Y-88600019D01*
X91133657Y-88695257D01*
X91133657Y-88742876D01*
X91181276Y-88838114D01*
X91228895Y-88885733D01*
X91324133Y-88933352D01*
X91514609Y-88933352D01*
X91609847Y-88980971D01*
X91657466Y-89028590D01*
X91705085Y-89123828D01*
X91705085Y-89314304D01*
X91657466Y-89409542D01*
X91609847Y-89457161D01*
X91514609Y-89504780D01*
X91324133Y-89504780D01*
X91228895Y-89457161D01*
X91181276Y-89409542D01*
X91133657Y-89314304D01*
X91133657Y-89123828D01*
X91181276Y-89028590D01*
X91228895Y-88980971D01*
X91324133Y-88933352D01*
X90752704Y-89219066D02*
X90276514Y-89219066D01*
X90847942Y-89504780D02*
X90514609Y-88504780D01*
X90181276Y-89504780D01*
%TO.C,LIPO1*%
X195357142Y-76952380D02*
X195833333Y-76952380D01*
X195833333Y-75952380D01*
X195023809Y-76952380D02*
X195023809Y-75952380D01*
X194547619Y-76952380D02*
X194547619Y-75952380D01*
X194166666Y-75952380D01*
X194071428Y-76000000D01*
X194023809Y-76047619D01*
X193976190Y-76142857D01*
X193976190Y-76285714D01*
X194023809Y-76380952D01*
X194071428Y-76428571D01*
X194166666Y-76476190D01*
X194547619Y-76476190D01*
X193357142Y-75952380D02*
X193166666Y-75952380D01*
X193071428Y-76000000D01*
X192976190Y-76095238D01*
X192928571Y-76285714D01*
X192928571Y-76619047D01*
X192976190Y-76809523D01*
X193071428Y-76904761D01*
X193166666Y-76952380D01*
X193357142Y-76952380D01*
X193452380Y-76904761D01*
X193547619Y-76809523D01*
X193595238Y-76619047D01*
X193595238Y-76285714D01*
X193547619Y-76095238D01*
X193452380Y-76000000D01*
X193357142Y-75952380D01*
X191976190Y-76952380D02*
X192547619Y-76952380D01*
X192261904Y-76952380D02*
X192261904Y-75952380D01*
X192357142Y-76095238D01*
X192452380Y-76190476D01*
X192547619Y-76238095D01*
X191595238Y-76666666D02*
X191119047Y-76666666D01*
X191690476Y-76952380D02*
X191357142Y-75952380D01*
X191023809Y-76952380D01*
%TO.C,S23*%
X207585721Y-132457698D02*
X207518377Y-132592385D01*
X207350018Y-132760744D01*
X207249003Y-132794416D01*
X207181660Y-132794416D01*
X207080644Y-132760744D01*
X207013301Y-132693400D01*
X206979629Y-132592385D01*
X206979629Y-132525042D01*
X207013301Y-132424026D01*
X207114316Y-132255668D01*
X207147988Y-132154652D01*
X207147988Y-132087309D01*
X207114316Y-131986294D01*
X207046973Y-131918950D01*
X206945957Y-131885278D01*
X206878614Y-131885278D01*
X206777599Y-131918950D01*
X206609240Y-132087309D01*
X206541896Y-132221996D01*
X206306194Y-132525042D02*
X206238851Y-132525042D01*
X206137835Y-132558713D01*
X205969477Y-132727072D01*
X205935805Y-132828087D01*
X205935805Y-132895431D01*
X205969477Y-132996446D01*
X206036820Y-133063790D01*
X206171507Y-133131133D01*
X206979629Y-133131133D01*
X206541896Y-133568866D01*
X205599087Y-133097461D02*
X205161355Y-133535194D01*
X205666431Y-133568866D01*
X205565416Y-133669881D01*
X205531744Y-133770896D01*
X205531744Y-133838240D01*
X205565416Y-133939255D01*
X205733774Y-134107614D01*
X205834790Y-134141286D01*
X205902133Y-134141286D01*
X206003148Y-134107614D01*
X206205179Y-133905583D01*
X206238851Y-133804568D01*
X206238851Y-133737225D01*
X205397057Y-134309644D02*
X205060339Y-134646362D01*
X205666431Y-134444331D02*
X204723622Y-133972927D01*
X205195026Y-134915736D01*
%TO.C,D22*%
X154271457Y-123515380D02*
X154271457Y-122515380D01*
X154033361Y-122515380D01*
X153890504Y-122563000D01*
X153795266Y-122658238D01*
X153747647Y-122753476D01*
X153700028Y-122943952D01*
X153700028Y-123086809D01*
X153747647Y-123277285D01*
X153795266Y-123372523D01*
X153890504Y-123467761D01*
X154033361Y-123515380D01*
X154271457Y-123515380D01*
X153319076Y-122610619D02*
X153271457Y-122563000D01*
X153176219Y-122515380D01*
X152938123Y-122515380D01*
X152842885Y-122563000D01*
X152795266Y-122610619D01*
X152747647Y-122705857D01*
X152747647Y-122801095D01*
X152795266Y-122943952D01*
X153366695Y-123515380D01*
X152747647Y-123515380D01*
X152366695Y-122610619D02*
X152319076Y-122563000D01*
X152223838Y-122515380D01*
X151985742Y-122515380D01*
X151890504Y-122563000D01*
X151842885Y-122610619D01*
X151795266Y-122705857D01*
X151795266Y-122801095D01*
X151842885Y-122943952D01*
X152414314Y-123515380D01*
X151795266Y-123515380D01*
X151414314Y-123229666D02*
X150938123Y-123229666D01*
X151509552Y-123515380D02*
X151176219Y-122515380D01*
X150842885Y-123515380D01*
%TO.C,D2*%
X92327266Y-74010780D02*
X92327266Y-73010780D01*
X92089171Y-73010780D01*
X91946314Y-73058400D01*
X91851076Y-73153638D01*
X91803457Y-73248876D01*
X91755838Y-73439352D01*
X91755838Y-73582209D01*
X91803457Y-73772685D01*
X91851076Y-73867923D01*
X91946314Y-73963161D01*
X92089171Y-74010780D01*
X92327266Y-74010780D01*
X91374885Y-73106019D02*
X91327266Y-73058400D01*
X91232028Y-73010780D01*
X90993933Y-73010780D01*
X90898695Y-73058400D01*
X90851076Y-73106019D01*
X90803457Y-73201257D01*
X90803457Y-73296495D01*
X90851076Y-73439352D01*
X91422504Y-74010780D01*
X90803457Y-74010780D01*
X90422504Y-73725066D02*
X89946314Y-73725066D01*
X90517742Y-74010780D02*
X90184409Y-73010780D01*
X89851076Y-74010780D01*
%TO.C,S11*%
X161301993Y-92423714D02*
X161155529Y-92458701D01*
X160918340Y-92437949D01*
X160827614Y-92382211D01*
X160784327Y-92330623D01*
X160745189Y-92231597D01*
X160753490Y-92136721D01*
X160809228Y-92045996D01*
X160860816Y-92002708D01*
X160959842Y-91963571D01*
X161153744Y-91932734D01*
X161252770Y-91893597D01*
X161304358Y-91850309D01*
X161360097Y-91759584D01*
X161368397Y-91664708D01*
X161329260Y-91565682D01*
X161285972Y-91514094D01*
X161195247Y-91458356D01*
X160958058Y-91437604D01*
X160811594Y-91472591D01*
X159779831Y-92338343D02*
X160349086Y-92388146D01*
X160064458Y-92363244D02*
X160151614Y-91367050D01*
X160234039Y-91517664D01*
X160320614Y-91620840D01*
X160411340Y-91676578D01*
X158831075Y-92255337D02*
X159400329Y-92305141D01*
X159115702Y-92280239D02*
X159202857Y-91284044D01*
X159285282Y-91434658D01*
X159371857Y-91537835D01*
X159462583Y-91593573D01*
X158476473Y-91937508D02*
X158002095Y-91896005D01*
X158546448Y-92230436D02*
X158301538Y-91205189D01*
X157882318Y-92172332D01*
%TO.C,D5*%
X152278199Y-65271541D02*
X152365355Y-64275346D01*
X152128166Y-64254595D01*
X151981702Y-64289582D01*
X151878526Y-64376157D01*
X151822787Y-64466882D01*
X151758748Y-64652483D01*
X151746297Y-64794797D01*
X151777134Y-64988698D01*
X151816271Y-65087724D01*
X151902847Y-65190901D01*
X152041010Y-65250789D01*
X152278199Y-65271541D01*
X150894782Y-64146688D02*
X151369160Y-64188190D01*
X151375095Y-64666719D01*
X151331808Y-64615131D01*
X151241082Y-64559392D01*
X151003893Y-64538641D01*
X150904867Y-64577778D01*
X150853279Y-64621066D01*
X150797541Y-64711791D01*
X150776789Y-64948981D01*
X150815926Y-65048007D01*
X150859214Y-65099595D01*
X150949939Y-65155333D01*
X151187129Y-65176084D01*
X151286155Y-65136947D01*
X151337743Y-65093660D01*
X150405587Y-64820903D02*
X149931209Y-64779400D01*
X150475561Y-65113830D02*
X150230652Y-64088584D01*
X149811431Y-65055726D01*
%TO.C,D13*%
X92608219Y-115714257D02*
X93608219Y-115714257D01*
X93608219Y-115476161D01*
X93560600Y-115333304D01*
X93465361Y-115238066D01*
X93370123Y-115190447D01*
X93179647Y-115142828D01*
X93036790Y-115142828D01*
X92846314Y-115190447D01*
X92751076Y-115238066D01*
X92655838Y-115333304D01*
X92608219Y-115476161D01*
X92608219Y-115714257D01*
X92608219Y-114190447D02*
X92608219Y-114761876D01*
X92608219Y-114476161D02*
X93608219Y-114476161D01*
X93465361Y-114571399D01*
X93370123Y-114666638D01*
X93322504Y-114761876D01*
X93608219Y-113857114D02*
X93608219Y-113238066D01*
X93227266Y-113571399D01*
X93227266Y-113428542D01*
X93179647Y-113333304D01*
X93132028Y-113285685D01*
X93036790Y-113238066D01*
X92798695Y-113238066D01*
X92703457Y-113285685D01*
X92655838Y-113333304D01*
X92608219Y-113428542D01*
X92608219Y-113714257D01*
X92655838Y-113809495D01*
X92703457Y-113857114D01*
X92893933Y-112857114D02*
X92893933Y-112380923D01*
X92608219Y-112952352D02*
X93608219Y-112619019D01*
X92608219Y-112285685D01*
%TO.C,S3*%
X122345242Y-73209446D02*
X122205073Y-73264476D01*
X121967304Y-73276937D01*
X121869704Y-73234368D01*
X121819658Y-73189306D01*
X121767120Y-73096691D01*
X121762135Y-73001583D01*
X121804705Y-72903984D01*
X121849766Y-72853938D01*
X121942382Y-72801399D01*
X122130105Y-72743877D01*
X122222720Y-72691339D01*
X122267782Y-72641293D01*
X122310351Y-72543693D01*
X122305367Y-72448585D01*
X122252829Y-72355970D01*
X122202783Y-72310908D01*
X122105183Y-72268339D01*
X121867414Y-72280800D01*
X121727245Y-72335830D01*
X121391876Y-72305722D02*
X120773677Y-72338120D01*
X121126491Y-72701105D01*
X120983829Y-72708582D01*
X120891214Y-72761120D01*
X120846152Y-72811166D01*
X120803583Y-72908766D01*
X120816044Y-73146535D01*
X120868582Y-73239150D01*
X120918628Y-73284212D01*
X121016228Y-73326781D01*
X121301551Y-73311828D01*
X121394166Y-73259290D01*
X121439228Y-73209244D01*
X120430629Y-73071365D02*
X119955091Y-73096286D01*
X120540690Y-73351703D02*
X120155478Y-72370519D01*
X119874937Y-73386594D01*
%TO.C,S10*%
X142567766Y-90794147D02*
X142424909Y-90841766D01*
X142186814Y-90841766D01*
X142091576Y-90794147D01*
X142043957Y-90746528D01*
X141996338Y-90651290D01*
X141996338Y-90556052D01*
X142043957Y-90460814D01*
X142091576Y-90413195D01*
X142186814Y-90365576D01*
X142377290Y-90317957D01*
X142472528Y-90270338D01*
X142520147Y-90222719D01*
X142567766Y-90127481D01*
X142567766Y-90032243D01*
X142520147Y-89937005D01*
X142472528Y-89889386D01*
X142377290Y-89841766D01*
X142139195Y-89841766D01*
X141996338Y-89889386D01*
X141043957Y-90841766D02*
X141615385Y-90841766D01*
X141329671Y-90841766D02*
X141329671Y-89841766D01*
X141424909Y-89984624D01*
X141520147Y-90079862D01*
X141615385Y-90127481D01*
X140424909Y-89841766D02*
X140329671Y-89841766D01*
X140234433Y-89889386D01*
X140186814Y-89937005D01*
X140139195Y-90032243D01*
X140091576Y-90222719D01*
X140091576Y-90460814D01*
X140139195Y-90651290D01*
X140186814Y-90746528D01*
X140234433Y-90794147D01*
X140329671Y-90841766D01*
X140424909Y-90841766D01*
X140520147Y-90794147D01*
X140567766Y-90746528D01*
X140615385Y-90651290D01*
X140663004Y-90460814D01*
X140663004Y-90222719D01*
X140615385Y-90032243D01*
X140567766Y-89937005D01*
X140520147Y-89889386D01*
X140424909Y-89841766D01*
X139710623Y-90556052D02*
X139234433Y-90556052D01*
X139805861Y-90841766D02*
X139472528Y-89841766D01*
X139139195Y-90841766D01*
%TO.C,S18*%
X180562837Y-114353991D02*
X180418405Y-114396595D01*
X180180455Y-114388286D01*
X180086936Y-114337372D01*
X180041008Y-114288120D01*
X179996742Y-114191278D01*
X180000066Y-114096098D01*
X180050980Y-114002580D01*
X180100232Y-113956652D01*
X180197074Y-113912385D01*
X180389096Y-113871443D01*
X180485938Y-113827176D01*
X180535189Y-113781248D01*
X180586103Y-113687730D01*
X180589427Y-113592550D01*
X180545161Y-113495708D01*
X180499233Y-113446456D01*
X180405714Y-113395542D01*
X180167764Y-113387233D01*
X180023332Y-113429837D01*
X179038294Y-114348401D02*
X179609374Y-114368343D01*
X179323834Y-114358372D02*
X179358733Y-113358981D01*
X179448928Y-113505075D01*
X179540784Y-113603579D01*
X179634302Y-113654492D01*
X178487156Y-113757377D02*
X178583998Y-113713111D01*
X178633250Y-113667183D01*
X178684164Y-113573665D01*
X178685825Y-113526075D01*
X178641559Y-113429233D01*
X178595631Y-113379981D01*
X178502113Y-113329067D01*
X178311753Y-113322420D01*
X178214911Y-113366686D01*
X178165659Y-113412614D01*
X178114745Y-113506132D01*
X178113083Y-113553722D01*
X178157349Y-113650564D01*
X178203277Y-113699816D01*
X178296796Y-113750730D01*
X178487156Y-113757377D01*
X178580674Y-113808291D01*
X178626602Y-113857543D01*
X178670868Y-113954385D01*
X178664221Y-114144745D01*
X178613307Y-114238264D01*
X178564055Y-114284192D01*
X178467213Y-114328458D01*
X178276853Y-114321810D01*
X178183335Y-114270897D01*
X178137407Y-114221645D01*
X178093140Y-114124803D01*
X178099788Y-113934443D01*
X178150702Y-113840924D01*
X178199954Y-113794996D01*
X178296796Y-113750730D01*
X177715744Y-114016328D02*
X177239844Y-113999709D01*
X177800953Y-114305192D02*
X177502722Y-113294168D01*
X177134692Y-114281925D01*
%TO.C,D4*%
X132179866Y-65247780D02*
X132179866Y-64247780D01*
X131941771Y-64247780D01*
X131798914Y-64295400D01*
X131703676Y-64390638D01*
X131656057Y-64485876D01*
X131608438Y-64676352D01*
X131608438Y-64819209D01*
X131656057Y-65009685D01*
X131703676Y-65104923D01*
X131798914Y-65200161D01*
X131941771Y-65247780D01*
X132179866Y-65247780D01*
X130751295Y-64581114D02*
X130751295Y-65247780D01*
X130989390Y-64200161D02*
X131227485Y-64914447D01*
X130608438Y-64914447D01*
X130275104Y-64962066D02*
X129798914Y-64962066D01*
X130370342Y-65247780D02*
X130037009Y-64247780D01*
X129703676Y-65247780D01*
%TO.C,D21*%
X131668253Y-126626829D02*
X131494605Y-125642021D01*
X131260127Y-125683366D01*
X131127709Y-125755068D01*
X131050456Y-125865397D01*
X131020098Y-125967457D01*
X131006278Y-126163309D01*
X131031085Y-126303996D01*
X131111057Y-126483309D01*
X131174490Y-126568831D01*
X131284819Y-126646085D01*
X131433775Y-126668173D01*
X131668253Y-126626829D01*
X130573231Y-125901191D02*
X130518066Y-125862565D01*
X130416006Y-125832207D01*
X130181528Y-125873552D01*
X130096006Y-125936985D01*
X130057379Y-125992150D01*
X130027021Y-126094210D01*
X130043559Y-126188001D01*
X130115262Y-126320419D01*
X130777237Y-126783939D01*
X130167594Y-126891435D01*
X129229682Y-127056815D02*
X129792429Y-126957587D01*
X129511055Y-127007201D02*
X129337407Y-126022393D01*
X129456005Y-126146542D01*
X129566334Y-126223795D01*
X129668394Y-126254153D01*
X128804903Y-126841593D02*
X128335947Y-126924282D01*
X128948308Y-127106428D02*
X128446390Y-126179503D01*
X128291769Y-127222194D01*
%TO.C,D3*%
X111783666Y-63012580D02*
X111783666Y-62012580D01*
X111545571Y-62012580D01*
X111402714Y-62060200D01*
X111307476Y-62155438D01*
X111259857Y-62250676D01*
X111212238Y-62441152D01*
X111212238Y-62584009D01*
X111259857Y-62774485D01*
X111307476Y-62869723D01*
X111402714Y-62964961D01*
X111545571Y-63012580D01*
X111783666Y-63012580D01*
X110878904Y-62012580D02*
X110259857Y-62012580D01*
X110593190Y-62393533D01*
X110450333Y-62393533D01*
X110355095Y-62441152D01*
X110307476Y-62488771D01*
X110259857Y-62584009D01*
X110259857Y-62822104D01*
X110307476Y-62917342D01*
X110355095Y-62964961D01*
X110450333Y-63012580D01*
X110736047Y-63012580D01*
X110831285Y-62964961D01*
X110878904Y-62917342D01*
X109878904Y-62726866D02*
X109402714Y-62726866D01*
X109974142Y-63012580D02*
X109640809Y-62012580D01*
X109307476Y-63012580D01*
%TO.C,S4*%
X141691576Y-71794147D02*
X141548719Y-71841766D01*
X141310623Y-71841766D01*
X141215385Y-71794147D01*
X141167766Y-71746528D01*
X141120147Y-71651290D01*
X141120147Y-71556052D01*
X141167766Y-71460814D01*
X141215385Y-71413195D01*
X141310623Y-71365576D01*
X141501100Y-71317957D01*
X141596338Y-71270338D01*
X141643957Y-71222719D01*
X141691576Y-71127481D01*
X141691576Y-71032243D01*
X141643957Y-70937005D01*
X141596338Y-70889386D01*
X141501100Y-70841766D01*
X141263004Y-70841766D01*
X141120147Y-70889386D01*
X140263004Y-71175100D02*
X140263004Y-71841766D01*
X140501100Y-70794147D02*
X140739195Y-71508433D01*
X140120147Y-71508433D01*
X139786814Y-71556052D02*
X139310623Y-71556052D01*
X139882052Y-71841766D02*
X139548719Y-70841766D01*
X139215385Y-71841766D01*
%TO.C,S17*%
X161736293Y-112167285D02*
X161591495Y-112208628D01*
X161353626Y-112198242D01*
X161260556Y-112146514D01*
X161215060Y-112096863D01*
X161171640Y-111999639D01*
X161175794Y-111904491D01*
X161227522Y-111811421D01*
X161277173Y-111765924D01*
X161374398Y-111722505D01*
X161566770Y-111683239D01*
X161663994Y-111639820D01*
X161713645Y-111594323D01*
X161765373Y-111501253D01*
X161769527Y-111406106D01*
X161726108Y-111308881D01*
X161680611Y-111259230D01*
X161587541Y-111207502D01*
X161349672Y-111197117D01*
X161204874Y-111238459D01*
X160211857Y-112148391D02*
X160782742Y-112173317D01*
X160497299Y-112160854D02*
X160540919Y-111161806D01*
X160629835Y-111308681D01*
X160720828Y-111407983D01*
X160813898Y-111459711D01*
X159922460Y-111134803D02*
X159256428Y-111105724D01*
X159640972Y-112123466D01*
X158892255Y-111804790D02*
X158416518Y-111784019D01*
X158974940Y-112094386D02*
X158685544Y-111080798D01*
X158308908Y-112065307D01*
%TO.C,S5*%
X161427614Y-73382211D02*
X161281150Y-73417198D01*
X161043961Y-73396447D01*
X160953236Y-73340708D01*
X160909948Y-73289120D01*
X160870811Y-73190094D01*
X160879111Y-73095219D01*
X160934850Y-73004493D01*
X160986438Y-72961206D01*
X161085464Y-72922068D01*
X161279366Y-72891231D01*
X161378392Y-72852094D01*
X161429980Y-72808807D01*
X161485718Y-72718081D01*
X161494019Y-72623206D01*
X161454881Y-72524180D01*
X161411594Y-72472591D01*
X161320868Y-72416853D01*
X161083679Y-72396102D01*
X160937215Y-72431089D01*
X160040047Y-72304796D02*
X160514425Y-72346298D01*
X160520360Y-72824827D01*
X160477073Y-72773239D01*
X160386347Y-72717501D01*
X160149158Y-72696749D01*
X160050132Y-72735887D01*
X159998544Y-72779174D01*
X159942805Y-72869900D01*
X159922054Y-73107089D01*
X159961191Y-73206115D01*
X160004479Y-73257703D01*
X160095204Y-73313441D01*
X160332394Y-73334193D01*
X160431420Y-73295055D01*
X160483008Y-73251768D01*
X159550852Y-72979011D02*
X159076473Y-72937508D01*
X159620826Y-73271938D02*
X159375917Y-72246692D01*
X158956696Y-73213835D01*
%TO.C,D16*%
X133849857Y-103500180D02*
X133849857Y-102500180D01*
X133611761Y-102500180D01*
X133468904Y-102547800D01*
X133373666Y-102643038D01*
X133326047Y-102738276D01*
X133278428Y-102928752D01*
X133278428Y-103071609D01*
X133326047Y-103262085D01*
X133373666Y-103357323D01*
X133468904Y-103452561D01*
X133611761Y-103500180D01*
X133849857Y-103500180D01*
X132326047Y-103500180D02*
X132897476Y-103500180D01*
X132611761Y-103500180D02*
X132611761Y-102500180D01*
X132706999Y-102643038D01*
X132802238Y-102738276D01*
X132897476Y-102785895D01*
X131468904Y-102500180D02*
X131659380Y-102500180D01*
X131754619Y-102547800D01*
X131802238Y-102595419D01*
X131897476Y-102738276D01*
X131945095Y-102928752D01*
X131945095Y-103309704D01*
X131897476Y-103404942D01*
X131849857Y-103452561D01*
X131754619Y-103500180D01*
X131564142Y-103500180D01*
X131468904Y-103452561D01*
X131421285Y-103404942D01*
X131373666Y-103309704D01*
X131373666Y-103071609D01*
X131421285Y-102976371D01*
X131468904Y-102928752D01*
X131564142Y-102881133D01*
X131754619Y-102881133D01*
X131849857Y-102928752D01*
X131897476Y-102976371D01*
X131945095Y-103071609D01*
X130992714Y-103214466D02*
X130516523Y-103214466D01*
X131087952Y-103500180D02*
X130754619Y-102500180D01*
X130421285Y-103500180D01*
%TO.C,D15*%
X114774457Y-101087180D02*
X114774457Y-100087180D01*
X114536361Y-100087180D01*
X114393504Y-100134800D01*
X114298266Y-100230038D01*
X114250647Y-100325276D01*
X114203028Y-100515752D01*
X114203028Y-100658609D01*
X114250647Y-100849085D01*
X114298266Y-100944323D01*
X114393504Y-101039561D01*
X114536361Y-101087180D01*
X114774457Y-101087180D01*
X113250647Y-101087180D02*
X113822076Y-101087180D01*
X113536361Y-101087180D02*
X113536361Y-100087180D01*
X113631599Y-100230038D01*
X113726838Y-100325276D01*
X113822076Y-100372895D01*
X112345885Y-100087180D02*
X112822076Y-100087180D01*
X112869695Y-100563371D01*
X112822076Y-100515752D01*
X112726838Y-100468133D01*
X112488742Y-100468133D01*
X112393504Y-100515752D01*
X112345885Y-100563371D01*
X112298266Y-100658609D01*
X112298266Y-100896704D01*
X112345885Y-100991942D01*
X112393504Y-101039561D01*
X112488742Y-101087180D01*
X112726838Y-101087180D01*
X112822076Y-101039561D01*
X112869695Y-100991942D01*
X111917314Y-100801466D02*
X111441123Y-100801466D01*
X112012552Y-101087180D02*
X111679219Y-100087180D01*
X111345885Y-101087180D01*
%TO.C,S20*%
X143650973Y-135137760D02*
X143518555Y-135209462D01*
X143284077Y-135250807D01*
X143182017Y-135220449D01*
X143126852Y-135181822D01*
X143063419Y-135096300D01*
X143046881Y-135002509D01*
X143077239Y-134900449D01*
X143115865Y-134845284D01*
X143201387Y-134781851D01*
X143380701Y-134701879D01*
X143466223Y-134638446D01*
X143504850Y-134583281D01*
X143535207Y-134481221D01*
X143518670Y-134387430D01*
X143455236Y-134301908D01*
X143400071Y-134263281D01*
X143298011Y-134232923D01*
X143063533Y-134274268D01*
X142931115Y-134345971D01*
X142564219Y-134459018D02*
X142509055Y-134420391D01*
X142406995Y-134390033D01*
X142172517Y-134431378D01*
X142086994Y-134494812D01*
X142048368Y-134549976D01*
X142018010Y-134652037D01*
X142034548Y-134745828D01*
X142106251Y-134878246D01*
X142768225Y-135341765D01*
X142158582Y-135449262D01*
X141375291Y-134571951D02*
X141281500Y-134588489D01*
X141195978Y-134651922D01*
X141157351Y-134707087D01*
X141126994Y-134809147D01*
X141113174Y-135004998D01*
X141154519Y-135239476D01*
X141234490Y-135418790D01*
X141297924Y-135504312D01*
X141353088Y-135542939D01*
X141455148Y-135573296D01*
X141548940Y-135556758D01*
X141634462Y-135493325D01*
X141673088Y-135438160D01*
X141703446Y-135336100D01*
X141717266Y-135140249D01*
X141675921Y-134905771D01*
X141595950Y-134726457D01*
X141532516Y-134640935D01*
X141477352Y-134602308D01*
X141375291Y-134571951D01*
X140795892Y-135399419D02*
X140326936Y-135482109D01*
X140939297Y-135664255D02*
X140437379Y-134737330D01*
X140282758Y-135780020D01*
%TO.C,D11*%
X152955777Y-80908643D02*
X153042933Y-79912449D01*
X152805744Y-79891697D01*
X152659280Y-79926684D01*
X152556104Y-80013260D01*
X152500366Y-80103985D01*
X152436327Y-80289586D01*
X152423876Y-80431900D01*
X152454713Y-80625801D01*
X152493850Y-80724827D01*
X152580425Y-80828003D01*
X152718588Y-80887892D01*
X152955777Y-80908643D01*
X151437767Y-80775835D02*
X152007021Y-80825638D01*
X151722394Y-80800736D02*
X151809549Y-79804542D01*
X151891974Y-79955156D01*
X151978549Y-80058332D01*
X152069275Y-80114070D01*
X150489010Y-80692829D02*
X151058264Y-80742633D01*
X150773637Y-80717731D02*
X150860792Y-79721536D01*
X150943217Y-79872150D01*
X151029792Y-79975326D01*
X151120518Y-80031065D01*
X150134409Y-80375000D02*
X149660030Y-80333497D01*
X150204383Y-80667928D02*
X149959473Y-79642681D01*
X149540253Y-80609824D01*
%TO.C,S13*%
X91087777Y-118659549D02*
X90946669Y-118712125D01*
X90708718Y-118720434D01*
X90611876Y-118676168D01*
X90562625Y-118630240D01*
X90511711Y-118536721D01*
X90508387Y-118441541D01*
X90552653Y-118344699D01*
X90598581Y-118295447D01*
X90692100Y-118244534D01*
X90880798Y-118190296D01*
X90974316Y-118139382D01*
X91020244Y-118090130D01*
X91064511Y-117993288D01*
X91061187Y-117898108D01*
X91010273Y-117804590D01*
X90961021Y-117758662D01*
X90864179Y-117714396D01*
X90626229Y-117722705D01*
X90485121Y-117775281D01*
X89566557Y-118760319D02*
X90137638Y-118740377D01*
X89852098Y-118750348D02*
X89817198Y-117750957D01*
X89917364Y-117890403D01*
X90015868Y-117982260D01*
X90112710Y-118026526D01*
X89198528Y-117772562D02*
X88579857Y-117794166D01*
X88926283Y-118163253D01*
X88783512Y-118168239D01*
X88689994Y-118219153D01*
X88644066Y-118268405D01*
X88599800Y-118365246D01*
X88608109Y-118603197D01*
X88659023Y-118696715D01*
X88708275Y-118742643D01*
X88805117Y-118786909D01*
X89090657Y-118776938D01*
X89184175Y-118726024D01*
X89230103Y-118676772D01*
X88224065Y-118521312D02*
X87748165Y-118537930D01*
X88329216Y-118803528D02*
X87961187Y-117815770D01*
X87662956Y-118826794D01*
%TO.C,S16*%
X143367766Y-109994147D02*
X143224909Y-110041766D01*
X142986814Y-110041766D01*
X142891576Y-109994147D01*
X142843957Y-109946528D01*
X142796338Y-109851290D01*
X142796338Y-109756052D01*
X142843957Y-109660814D01*
X142891576Y-109613195D01*
X142986814Y-109565576D01*
X143177290Y-109517957D01*
X143272528Y-109470338D01*
X143320147Y-109422719D01*
X143367766Y-109327481D01*
X143367766Y-109232243D01*
X143320147Y-109137005D01*
X143272528Y-109089386D01*
X143177290Y-109041766D01*
X142939195Y-109041766D01*
X142796338Y-109089386D01*
X141843957Y-110041766D02*
X142415385Y-110041766D01*
X142129671Y-110041766D02*
X142129671Y-109041766D01*
X142224909Y-109184624D01*
X142320147Y-109279862D01*
X142415385Y-109327481D01*
X140986814Y-109041766D02*
X141177290Y-109041766D01*
X141272528Y-109089386D01*
X141320147Y-109137005D01*
X141415385Y-109279862D01*
X141463004Y-109470338D01*
X141463004Y-109851290D01*
X141415385Y-109946528D01*
X141367766Y-109994147D01*
X141272528Y-110041766D01*
X141082052Y-110041766D01*
X140986814Y-109994147D01*
X140939195Y-109946528D01*
X140891576Y-109851290D01*
X140891576Y-109613195D01*
X140939195Y-109517957D01*
X140986814Y-109470338D01*
X141082052Y-109422719D01*
X141272528Y-109422719D01*
X141367766Y-109470338D01*
X141415385Y-109517957D01*
X141463004Y-109613195D01*
X140510623Y-109756052D02*
X140034433Y-109756052D01*
X140605861Y-110041766D02*
X140272528Y-109041766D01*
X139939195Y-110041766D01*
%TO.C,D19*%
X199762857Y-106095980D02*
X199762857Y-105095980D01*
X199524761Y-105095980D01*
X199381904Y-105143600D01*
X199286666Y-105238838D01*
X199239047Y-105334076D01*
X199191428Y-105524552D01*
X199191428Y-105667409D01*
X199239047Y-105857885D01*
X199286666Y-105953123D01*
X199381904Y-106048361D01*
X199524761Y-106095980D01*
X199762857Y-106095980D01*
X198239047Y-106095980D02*
X198810476Y-106095980D01*
X198524761Y-106095980D02*
X198524761Y-105095980D01*
X198620000Y-105238838D01*
X198715238Y-105334076D01*
X198810476Y-105381695D01*
X197762857Y-106095980D02*
X197572380Y-106095980D01*
X197477142Y-106048361D01*
X197429523Y-106000742D01*
X197334285Y-105857885D01*
X197286666Y-105667409D01*
X197286666Y-105286457D01*
X197334285Y-105191219D01*
X197381904Y-105143600D01*
X197477142Y-105095980D01*
X197667619Y-105095980D01*
X197762857Y-105143600D01*
X197810476Y-105191219D01*
X197858095Y-105286457D01*
X197858095Y-105524552D01*
X197810476Y-105619790D01*
X197762857Y-105667409D01*
X197667619Y-105715028D01*
X197477142Y-105715028D01*
X197381904Y-105667409D01*
X197334285Y-105619790D01*
X197286666Y-105524552D01*
X196905714Y-105810266D02*
X196429523Y-105810266D01*
X197000952Y-106095980D02*
X196667619Y-105095980D01*
X196334285Y-106095980D01*
%TO.C,D6*%
X172318799Y-64306341D02*
X172405955Y-63310146D01*
X172168766Y-63289395D01*
X172022302Y-63324382D01*
X171919126Y-63410957D01*
X171863387Y-63501682D01*
X171799348Y-63687283D01*
X171786897Y-63829597D01*
X171817734Y-64023498D01*
X171856871Y-64122524D01*
X171943447Y-64225701D01*
X172081610Y-64285589D01*
X172318799Y-64306341D01*
X170982820Y-63185638D02*
X171172571Y-63202239D01*
X171263296Y-63257977D01*
X171306584Y-63309565D01*
X171389009Y-63460179D01*
X171419845Y-63654081D01*
X171386643Y-64033584D01*
X171330905Y-64124309D01*
X171279317Y-64167597D01*
X171180291Y-64206734D01*
X170990539Y-64190133D01*
X170899814Y-64134395D01*
X170856526Y-64082807D01*
X170817389Y-63983781D01*
X170838141Y-63746591D01*
X170893879Y-63655866D01*
X170945467Y-63612578D01*
X171044493Y-63573441D01*
X171234244Y-63590042D01*
X171324970Y-63645781D01*
X171368257Y-63697369D01*
X171407395Y-63796395D01*
X170446187Y-63855703D02*
X169971809Y-63814200D01*
X170516161Y-64148630D02*
X170271252Y-63123384D01*
X169852031Y-64090526D01*
%TO.C,D24*%
X194856365Y-122249753D02*
X195356365Y-121383728D01*
X195150169Y-121264680D01*
X195002641Y-121234491D01*
X194872543Y-121269351D01*
X194783685Y-121328020D01*
X194647208Y-121469168D01*
X194575779Y-121592885D01*
X194521780Y-121781652D01*
X194515401Y-121887940D01*
X194550260Y-122018038D01*
X194650169Y-122130706D01*
X194856365Y-122249753D01*
X194483960Y-120990016D02*
X194466530Y-120924967D01*
X194407861Y-120836109D01*
X194201665Y-120717061D01*
X194095376Y-120710682D01*
X194030328Y-120728111D01*
X193941469Y-120786781D01*
X193893850Y-120869259D01*
X193863661Y-121016787D01*
X194072818Y-121797373D01*
X193536707Y-121487849D01*
X193127733Y-120481927D02*
X192794400Y-121059277D01*
X193524406Y-120271060D02*
X193373460Y-121008697D01*
X192837349Y-120699174D01*
X192524864Y-120573746D02*
X192112471Y-120335651D01*
X192464485Y-120868801D02*
X192675810Y-119836109D01*
X191887135Y-120535468D01*
%TO.C,ENC1*%
X201162275Y-127560874D02*
X200860172Y-127420001D01*
X200509328Y-127834360D02*
X200940903Y-128035606D01*
X201363521Y-127129299D01*
X200931946Y-126928052D01*
X200120910Y-127653238D02*
X200543529Y-126746930D01*
X199603020Y-127411741D01*
X200025639Y-126505434D01*
X198693804Y-126882683D02*
X198716837Y-126945966D01*
X198826185Y-127049497D01*
X198912500Y-127089747D01*
X199062097Y-127106963D01*
X199188662Y-127060897D01*
X199272068Y-126994707D01*
X199395725Y-126842202D01*
X199456099Y-126712729D01*
X199493440Y-126519974D01*
X199490532Y-126413535D01*
X199444466Y-126286970D01*
X199335118Y-126183439D01*
X199248803Y-126143189D01*
X199099206Y-126125973D01*
X199035924Y-126149006D01*
X197790405Y-126566505D02*
X198308295Y-126808001D01*
X198049350Y-126687253D02*
X198471968Y-125780945D01*
X198497909Y-125950667D01*
X198543975Y-126077231D01*
X198610165Y-126160638D01*
X197565893Y-126146562D02*
X197134317Y-125945316D01*
X197531460Y-126445757D02*
X197651975Y-125398576D01*
X196927254Y-126164011D01*
%TO.C,S15*%
X124519401Y-111260243D02*
X124377397Y-111310348D01*
X124139338Y-111314504D01*
X124043283Y-111268554D01*
X123994841Y-111221773D01*
X123945567Y-111127381D01*
X123943905Y-111032157D01*
X123989854Y-110936103D01*
X124036635Y-110887660D01*
X124131027Y-110838386D01*
X124320644Y-110787450D01*
X124415036Y-110738176D01*
X124461817Y-110689733D01*
X124507766Y-110593678D01*
X124506104Y-110498455D01*
X124456830Y-110404062D01*
X124408388Y-110357281D01*
X124312333Y-110311332D01*
X124074274Y-110315487D01*
X123932270Y-110365592D01*
X122996655Y-111334449D02*
X123567997Y-111324477D01*
X123282326Y-111329463D02*
X123264873Y-110329615D01*
X123362590Y-110470789D01*
X123459476Y-110564350D01*
X123555531Y-110610300D01*
X122074579Y-110350392D02*
X122550696Y-110342081D01*
X122606619Y-110817368D01*
X122558176Y-110770587D01*
X122462121Y-110724638D01*
X122224062Y-110728793D01*
X122129670Y-110778067D01*
X122082889Y-110826510D01*
X122036940Y-110922565D01*
X122041095Y-111160624D01*
X122090369Y-111255016D01*
X122138812Y-111301797D01*
X122234866Y-111347746D01*
X122472925Y-111343591D01*
X122567318Y-111294317D01*
X122614099Y-111245874D01*
X121658538Y-111072048D02*
X121182420Y-111080359D01*
X121758748Y-111356057D02*
X121408013Y-110362027D01*
X121092183Y-111367692D01*
%TO.C,D7*%
X92430419Y-96848466D02*
X93430419Y-96848466D01*
X93430419Y-96610371D01*
X93382800Y-96467514D01*
X93287561Y-96372276D01*
X93192323Y-96324657D01*
X93001847Y-96277038D01*
X92858990Y-96277038D01*
X92668514Y-96324657D01*
X92573276Y-96372276D01*
X92478038Y-96467514D01*
X92430419Y-96610371D01*
X92430419Y-96848466D01*
X93430419Y-95943704D02*
X93430419Y-95277038D01*
X92430419Y-95705609D01*
X92716133Y-94943704D02*
X92716133Y-94467514D01*
X92430419Y-95038942D02*
X93430419Y-94705609D01*
X92430419Y-94372276D01*
%TO.C,S14*%
X105670421Y-118223699D02*
X105529313Y-118276275D01*
X105291362Y-118284584D01*
X105194520Y-118240318D01*
X105145269Y-118194390D01*
X105094355Y-118100871D01*
X105091031Y-118005691D01*
X105135297Y-117908849D01*
X105181225Y-117859597D01*
X105274744Y-117808684D01*
X105463442Y-117754446D01*
X105556960Y-117703532D01*
X105602888Y-117654280D01*
X105647155Y-117557438D01*
X105643831Y-117462258D01*
X105592917Y-117368740D01*
X105543665Y-117322812D01*
X105446823Y-117278546D01*
X105208873Y-117286855D01*
X105067765Y-117339431D01*
X104149201Y-118324469D02*
X104720282Y-118304527D01*
X104434742Y-118314498D02*
X104399842Y-117315107D01*
X104500008Y-117454553D01*
X104598512Y-117546410D01*
X104695354Y-117590676D01*
X103269314Y-117688123D02*
X103292581Y-118354383D01*
X103493970Y-117299093D02*
X103756848Y-118004634D01*
X103138177Y-118026238D01*
X102806709Y-118085462D02*
X102330809Y-118102080D01*
X102911860Y-118367678D02*
X102543831Y-117379920D01*
X102245600Y-118390944D01*
%TO.C,SW1*%
X210504761Y-59688095D02*
X210552380Y-59830952D01*
X210552380Y-60069047D01*
X210504761Y-60164285D01*
X210457142Y-60211904D01*
X210361904Y-60259523D01*
X210266666Y-60259523D01*
X210171428Y-60211904D01*
X210123809Y-60164285D01*
X210076190Y-60069047D01*
X210028571Y-59878571D01*
X209980952Y-59783333D01*
X209933333Y-59735714D01*
X209838095Y-59688095D01*
X209742857Y-59688095D01*
X209647619Y-59735714D01*
X209600000Y-59783333D01*
X209552380Y-59878571D01*
X209552380Y-60116666D01*
X209600000Y-60259523D01*
X209552380Y-60592857D02*
X210552380Y-60830952D01*
X209838095Y-61021428D01*
X210552380Y-61211904D01*
X209552380Y-61450000D01*
X210552380Y-62354761D02*
X210552380Y-61783333D01*
X210552380Y-62069047D02*
X209552380Y-62069047D01*
X209695238Y-61973809D01*
X209790476Y-61878571D01*
X209838095Y-61783333D01*
X210266666Y-62735714D02*
X210266666Y-63211904D01*
X210552380Y-62640476D02*
X209552380Y-62973809D01*
X210552380Y-63307142D01*
%TO.C,D20*%
X108937577Y-125942845D02*
X109024733Y-124946651D01*
X108787544Y-124925899D01*
X108641080Y-124960886D01*
X108537904Y-125047462D01*
X108482166Y-125138187D01*
X108418127Y-125323788D01*
X108405676Y-125466102D01*
X108436513Y-125660003D01*
X108475650Y-125759029D01*
X108562225Y-125862205D01*
X108700388Y-125922094D01*
X108937577Y-125942845D01*
X108067676Y-124958521D02*
X108024388Y-124906933D01*
X107933663Y-124851194D01*
X107696474Y-124830443D01*
X107597448Y-124869580D01*
X107545860Y-124912868D01*
X107490121Y-125003593D01*
X107481821Y-125098469D01*
X107516808Y-125244933D01*
X108036258Y-125863990D01*
X107419567Y-125810037D01*
X106890030Y-124759888D02*
X106795155Y-124751588D01*
X106696129Y-124790725D01*
X106644541Y-124834013D01*
X106588802Y-124924738D01*
X106524763Y-125110339D01*
X106504012Y-125347528D01*
X106534849Y-125541430D01*
X106573986Y-125640456D01*
X106617273Y-125692044D01*
X106707999Y-125747783D01*
X106802875Y-125756083D01*
X106901901Y-125716946D01*
X106953489Y-125673658D01*
X107009227Y-125582933D01*
X107073266Y-125397332D01*
X107094017Y-125160143D01*
X107063181Y-124966241D01*
X107024043Y-124867215D01*
X106980756Y-124815627D01*
X106890030Y-124759888D01*
X106116209Y-125409202D02*
X105641830Y-125367699D01*
X106186183Y-125702130D02*
X105941273Y-124676883D01*
X105522053Y-125644026D01*
%TO.C,S2*%
X103644955Y-80139835D02*
X103506792Y-80199724D01*
X103269602Y-80220475D01*
X103170576Y-80181338D01*
X103118988Y-80138050D01*
X103063250Y-80047325D01*
X103054949Y-79952449D01*
X103094087Y-79853423D01*
X103137374Y-79801835D01*
X103228100Y-79746097D01*
X103413701Y-79682058D01*
X103504426Y-79626320D01*
X103547714Y-79574731D01*
X103586851Y-79475706D01*
X103578551Y-79380830D01*
X103522812Y-79290104D01*
X103471224Y-79246817D01*
X103372198Y-79207680D01*
X103135009Y-79228431D01*
X102996846Y-79288320D01*
X102621493Y-79368960D02*
X102569905Y-79325672D01*
X102470879Y-79286535D01*
X102233690Y-79307286D01*
X102142964Y-79363025D01*
X102099677Y-79414613D01*
X102060540Y-79513639D01*
X102068840Y-79608514D01*
X102128729Y-79746678D01*
X102747786Y-80266128D01*
X102131094Y-80320082D01*
X101726690Y-80068657D02*
X101252311Y-80110160D01*
X101846467Y-80344984D02*
X101427246Y-79377841D01*
X101182337Y-80403087D01*
%TO.C,D23*%
X179555365Y-125012801D02*
X180055365Y-124146776D01*
X179849169Y-124027728D01*
X179701641Y-123997539D01*
X179571543Y-124032399D01*
X179482685Y-124091068D01*
X179346208Y-124232216D01*
X179274779Y-124355933D01*
X179220780Y-124544700D01*
X179214401Y-124650988D01*
X179249260Y-124781086D01*
X179349169Y-124893754D01*
X179555365Y-125012801D01*
X179182960Y-123753064D02*
X179165530Y-123688015D01*
X179106861Y-123599157D01*
X178900665Y-123480109D01*
X178794376Y-123473730D01*
X178729328Y-123491159D01*
X178640469Y-123549829D01*
X178592850Y-123632307D01*
X178562661Y-123779835D01*
X178771818Y-124560421D01*
X178235707Y-124250897D01*
X178447032Y-123218205D02*
X177910921Y-122908681D01*
X178009120Y-123405262D01*
X177885402Y-123333833D01*
X177779114Y-123327454D01*
X177714065Y-123344883D01*
X177625207Y-123403552D01*
X177506159Y-123609749D01*
X177499780Y-123716037D01*
X177517209Y-123781086D01*
X177575878Y-123869944D01*
X177823314Y-124012801D01*
X177929602Y-124019181D01*
X177994651Y-124001751D01*
X177223864Y-123336794D02*
X176811471Y-123098699D01*
X177163485Y-123631849D02*
X177374810Y-122599157D01*
X176586135Y-123298516D01*
%TO.C,S12*%
X180101993Y-94923714D02*
X179955529Y-94958701D01*
X179718340Y-94937949D01*
X179627614Y-94882211D01*
X179584327Y-94830623D01*
X179545189Y-94731597D01*
X179553490Y-94636721D01*
X179609228Y-94545996D01*
X179660816Y-94502708D01*
X179759842Y-94463571D01*
X179953744Y-94432734D01*
X180052770Y-94393597D01*
X180104358Y-94350309D01*
X180160097Y-94259584D01*
X180168397Y-94164708D01*
X180129260Y-94065682D01*
X180085972Y-94014094D01*
X179995247Y-93958356D01*
X179758058Y-93937604D01*
X179611594Y-93972591D01*
X178579831Y-94838343D02*
X179149086Y-94888146D01*
X178864458Y-94863244D02*
X178951614Y-93867050D01*
X179034039Y-94017664D01*
X179120614Y-94120840D01*
X179211340Y-94176578D01*
X178279184Y-93903822D02*
X178235896Y-93852234D01*
X178145171Y-93796495D01*
X177907982Y-93775744D01*
X177808956Y-93814881D01*
X177757368Y-93858169D01*
X177701629Y-93948894D01*
X177693329Y-94043770D01*
X177728316Y-94190234D01*
X178247767Y-94809291D01*
X177631075Y-94755337D01*
X177276473Y-94437508D02*
X176802095Y-94396005D01*
X177346448Y-94730436D02*
X177101538Y-93705189D01*
X176682318Y-94672332D01*
%TO.C,S7*%
X81519949Y-100725210D02*
X81379305Y-100779015D01*
X81141436Y-100789401D01*
X81044212Y-100745981D01*
X80994561Y-100700485D01*
X80942833Y-100607415D01*
X80938679Y-100512267D01*
X80982098Y-100415042D01*
X81027595Y-100365392D01*
X81120665Y-100313664D01*
X81308883Y-100257782D01*
X81401953Y-100206054D01*
X81447450Y-100156403D01*
X81490869Y-100059178D01*
X81486715Y-99964031D01*
X81434987Y-99870960D01*
X81385336Y-99825464D01*
X81288112Y-99782044D01*
X81050243Y-99792430D01*
X80909599Y-99846235D01*
X80574506Y-99813201D02*
X79908474Y-99842281D01*
X80380257Y-100822635D01*
X79606615Y-100570426D02*
X79130877Y-100591197D01*
X79714225Y-100851714D02*
X79337589Y-99867206D01*
X79048193Y-100880794D01*
%TO.C,JOY1*%
X206134690Y-108324780D02*
X206134690Y-109039066D01*
X206182309Y-109181923D01*
X206277547Y-109277161D01*
X206420404Y-109324780D01*
X206515642Y-109324780D01*
X205468023Y-108324780D02*
X205277547Y-108324780D01*
X205182309Y-108372400D01*
X205087071Y-108467638D01*
X205039452Y-108658114D01*
X205039452Y-108991447D01*
X205087071Y-109181923D01*
X205182309Y-109277161D01*
X205277547Y-109324780D01*
X205468023Y-109324780D01*
X205563261Y-109277161D01*
X205658500Y-109181923D01*
X205706119Y-108991447D01*
X205706119Y-108658114D01*
X205658500Y-108467638D01*
X205563261Y-108372400D01*
X205468023Y-108324780D01*
X204420404Y-108848590D02*
X204420404Y-109324780D01*
X204753738Y-108324780D02*
X204420404Y-108848590D01*
X204087071Y-108324780D01*
X203229928Y-109324780D02*
X203801357Y-109324780D01*
X203515642Y-109324780D02*
X203515642Y-108324780D01*
X203610880Y-108467638D01*
X203706119Y-108562876D01*
X203801357Y-108610495D01*
%TO.C,BAT1*%
X209850028Y-74617057D02*
X209802409Y-74474200D01*
X209754790Y-74426580D01*
X209659552Y-74378961D01*
X209516695Y-74378961D01*
X209421457Y-74426580D01*
X209373838Y-74474200D01*
X209326219Y-74569438D01*
X209326219Y-74950390D01*
X210326219Y-74950390D01*
X210326219Y-74617057D01*
X210278600Y-74521819D01*
X210230980Y-74474200D01*
X210135742Y-74426580D01*
X210040504Y-74426580D01*
X209945266Y-74474200D01*
X209897647Y-74521819D01*
X209850028Y-74617057D01*
X209850028Y-74950390D01*
X209611933Y-73998009D02*
X209611933Y-73521819D01*
X209326219Y-74093247D02*
X210326219Y-73759914D01*
X209326219Y-73426580D01*
X210326219Y-73236104D02*
X210326219Y-72664676D01*
X209326219Y-72950390D02*
X210326219Y-72950390D01*
X209326219Y-71807533D02*
X209326219Y-72378961D01*
X209326219Y-72093247D02*
X210326219Y-72093247D01*
X210183361Y-72188485D01*
X210088123Y-72283723D01*
X210040504Y-72378961D01*
X209611933Y-71426580D02*
X209611933Y-70950390D01*
X209326219Y-71521819D02*
X210326219Y-71188485D01*
X209326219Y-70855152D01*
%TO.C,S24*%
X200594721Y-134697698D02*
X200527377Y-134832385D01*
X200359018Y-135000744D01*
X200258003Y-135034416D01*
X200190660Y-135034416D01*
X200089644Y-135000744D01*
X200022301Y-134933400D01*
X199988629Y-134832385D01*
X199988629Y-134765042D01*
X200022301Y-134664026D01*
X200123316Y-134495668D01*
X200156988Y-134394652D01*
X200156988Y-134327309D01*
X200123316Y-134226294D01*
X200055973Y-134158950D01*
X199954957Y-134125278D01*
X199887614Y-134125278D01*
X199786599Y-134158950D01*
X199618240Y-134327309D01*
X199550896Y-134461996D01*
X199315194Y-134765042D02*
X199247851Y-134765042D01*
X199146835Y-134798713D01*
X198978477Y-134967072D01*
X198944805Y-135068087D01*
X198944805Y-135135431D01*
X198978477Y-135236446D01*
X199045820Y-135303790D01*
X199180507Y-135371133D01*
X199988629Y-135371133D01*
X199550896Y-135808866D01*
X198473400Y-135943553D02*
X198944805Y-136414957D01*
X198372385Y-135505820D02*
X199045820Y-135842538D01*
X198608087Y-136280270D01*
X198406057Y-136549644D02*
X198069339Y-136886362D01*
X198675431Y-136684331D02*
X197732622Y-136212927D01*
X198204026Y-137155736D01*
%TO.C,D9*%
X113714066Y-82113380D02*
X113714066Y-81113380D01*
X113475971Y-81113380D01*
X113333114Y-81161000D01*
X113237876Y-81256238D01*
X113190257Y-81351476D01*
X113142638Y-81541952D01*
X113142638Y-81684809D01*
X113190257Y-81875285D01*
X113237876Y-81970523D01*
X113333114Y-82065761D01*
X113475971Y-82113380D01*
X113714066Y-82113380D01*
X112666447Y-82113380D02*
X112475971Y-82113380D01*
X112380733Y-82065761D01*
X112333114Y-82018142D01*
X112237876Y-81875285D01*
X112190257Y-81684809D01*
X112190257Y-81303857D01*
X112237876Y-81208619D01*
X112285495Y-81161000D01*
X112380733Y-81113380D01*
X112571209Y-81113380D01*
X112666447Y-81161000D01*
X112714066Y-81208619D01*
X112761685Y-81303857D01*
X112761685Y-81541952D01*
X112714066Y-81637190D01*
X112666447Y-81684809D01*
X112571209Y-81732428D01*
X112380733Y-81732428D01*
X112285495Y-81684809D01*
X112237876Y-81637190D01*
X112190257Y-81541952D01*
X111809304Y-81827666D02*
X111333114Y-81827666D01*
X111904542Y-82113380D02*
X111571209Y-81113380D01*
X111237876Y-82113380D01*
%TO.C,ENC2*%
X207476457Y-92206771D02*
X207143123Y-92206771D01*
X207000266Y-92730580D02*
X207476457Y-92730580D01*
X207476457Y-91730580D01*
X207000266Y-91730580D01*
X206571695Y-92730580D02*
X206571695Y-91730580D01*
X206000266Y-92730580D01*
X206000266Y-91730580D01*
X204952647Y-92635342D02*
X205000266Y-92682961D01*
X205143123Y-92730580D01*
X205238361Y-92730580D01*
X205381219Y-92682961D01*
X205476457Y-92587723D01*
X205524076Y-92492485D01*
X205571695Y-92302009D01*
X205571695Y-92159152D01*
X205524076Y-91968676D01*
X205476457Y-91873438D01*
X205381219Y-91778200D01*
X205238361Y-91730580D01*
X205143123Y-91730580D01*
X205000266Y-91778200D01*
X204952647Y-91825819D01*
X204571695Y-91825819D02*
X204524076Y-91778200D01*
X204428838Y-91730580D01*
X204190742Y-91730580D01*
X204095504Y-91778200D01*
X204047885Y-91825819D01*
X204000266Y-91921057D01*
X204000266Y-92016295D01*
X204047885Y-92159152D01*
X204619314Y-92730580D01*
X204000266Y-92730580D01*
X203619314Y-92444866D02*
X203143123Y-92444866D01*
X203714552Y-92730580D02*
X203381219Y-91730580D01*
X203047885Y-92730580D01*
%TO.C,D12*%
X171396177Y-83220043D02*
X171483333Y-82223849D01*
X171246144Y-82203097D01*
X171099680Y-82238084D01*
X170996504Y-82324660D01*
X170940766Y-82415385D01*
X170876727Y-82600986D01*
X170864276Y-82743300D01*
X170895113Y-82937201D01*
X170934250Y-83036227D01*
X171020825Y-83139403D01*
X171158988Y-83199292D01*
X171396177Y-83220043D01*
X169878167Y-83087235D02*
X170447421Y-83137038D01*
X170162794Y-83112136D02*
X170249949Y-82115942D01*
X170332374Y-82266556D01*
X170418949Y-82369732D01*
X170509675Y-82425470D01*
X169577519Y-82152713D02*
X169534231Y-82101125D01*
X169443506Y-82045387D01*
X169206317Y-82024636D01*
X169107291Y-82063773D01*
X169055703Y-82107060D01*
X168999964Y-82197786D01*
X168991664Y-82292662D01*
X169026651Y-82439125D01*
X169546102Y-83058183D01*
X168929410Y-83004229D01*
X168574809Y-82686400D02*
X168100430Y-82644897D01*
X168644783Y-82979328D02*
X168399873Y-81954081D01*
X167980653Y-82921224D01*
%TO.C,S6*%
X180127614Y-75582211D02*
X179981150Y-75617198D01*
X179743961Y-75596447D01*
X179653236Y-75540708D01*
X179609948Y-75489120D01*
X179570811Y-75390094D01*
X179579111Y-75295219D01*
X179634850Y-75204493D01*
X179686438Y-75161206D01*
X179785464Y-75122068D01*
X179979366Y-75091231D01*
X180078392Y-75052094D01*
X180129980Y-75008807D01*
X180185718Y-74918081D01*
X180194019Y-74823206D01*
X180154881Y-74724180D01*
X180111594Y-74672591D01*
X180020868Y-74616853D01*
X179783679Y-74596102D01*
X179637215Y-74631089D01*
X178787484Y-74508946D02*
X178977236Y-74525547D01*
X179067961Y-74581285D01*
X179111249Y-74632874D01*
X179193674Y-74783488D01*
X179224510Y-74977389D01*
X179191308Y-75356892D01*
X179135570Y-75447617D01*
X179083982Y-75490905D01*
X178984956Y-75530042D01*
X178795204Y-75513441D01*
X178704479Y-75457703D01*
X178661191Y-75406115D01*
X178622054Y-75307089D01*
X178642805Y-75069900D01*
X178698544Y-74979174D01*
X178750132Y-74935887D01*
X178849158Y-74896749D01*
X179038909Y-74913350D01*
X179129635Y-74969089D01*
X179172922Y-75020677D01*
X179212060Y-75119703D01*
X178250852Y-75179011D02*
X177776473Y-75137508D01*
X178320826Y-75471938D02*
X178075917Y-74446692D01*
X177656696Y-75413835D01*
%TO.C,S21*%
X164867766Y-133794147D02*
X164724909Y-133841766D01*
X164486814Y-133841766D01*
X164391576Y-133794147D01*
X164343957Y-133746528D01*
X164296338Y-133651290D01*
X164296338Y-133556052D01*
X164343957Y-133460814D01*
X164391576Y-133413195D01*
X164486814Y-133365576D01*
X164677290Y-133317957D01*
X164772528Y-133270338D01*
X164820147Y-133222719D01*
X164867766Y-133127481D01*
X164867766Y-133032243D01*
X164820147Y-132937005D01*
X164772528Y-132889386D01*
X164677290Y-132841766D01*
X164439195Y-132841766D01*
X164296338Y-132889386D01*
X163915385Y-132937005D02*
X163867766Y-132889386D01*
X163772528Y-132841766D01*
X163534433Y-132841766D01*
X163439195Y-132889386D01*
X163391576Y-132937005D01*
X163343957Y-133032243D01*
X163343957Y-133127481D01*
X163391576Y-133270338D01*
X163963004Y-133841766D01*
X163343957Y-133841766D01*
X162391576Y-133841766D02*
X162963004Y-133841766D01*
X162677290Y-133841766D02*
X162677290Y-132841766D01*
X162772528Y-132984624D01*
X162867766Y-133079862D01*
X162963004Y-133127481D01*
X162010623Y-133556052D02*
X161534433Y-133556052D01*
X162105861Y-133841766D02*
X161772528Y-132841766D01*
X161439195Y-133841766D01*
%TO.C,U1*%
X210230404Y-53994180D02*
X210230404Y-54803704D01*
X210182785Y-54898942D01*
X210135166Y-54946561D01*
X210039928Y-54994180D01*
X209849452Y-54994180D01*
X209754214Y-54946561D01*
X209706595Y-54898942D01*
X209658976Y-54803704D01*
X209658976Y-53994180D01*
X208658976Y-54994180D02*
X209230404Y-54994180D01*
X208944690Y-54994180D02*
X208944690Y-53994180D01*
X209039928Y-54137038D01*
X209135166Y-54232276D01*
X209230404Y-54279895D01*
%TO.C,J2*%
X213286933Y-85151980D02*
X213286933Y-85866266D01*
X213334552Y-86009123D01*
X213429790Y-86104361D01*
X213572647Y-86151980D01*
X213667885Y-86151980D01*
X212858361Y-85247219D02*
X212810742Y-85199600D01*
X212715504Y-85151980D01*
X212477409Y-85151980D01*
X212382171Y-85199600D01*
X212334552Y-85247219D01*
X212286933Y-85342457D01*
X212286933Y-85437695D01*
X212334552Y-85580552D01*
X212905980Y-86151980D01*
X212286933Y-86151980D01*
D15*
%TO.C,S9*%
X114856385Y-90557160D02*
X114824983Y-89957982D01*
X129144993Y-76590211D02*
X129176395Y-77189388D01*
X114733326Y-76744671D02*
X118528118Y-76545794D01*
D13*
X116837095Y-86888470D02*
X117046439Y-90882988D01*
X116075674Y-90893808D02*
X115077045Y-90946144D01*
X128367024Y-77031531D02*
X123873191Y-77267043D01*
X120009513Y-79972961D02*
X122506086Y-79842121D01*
X128028252Y-87763970D02*
X127901076Y-85337300D01*
X124082535Y-81261561D02*
X124119170Y-81960602D01*
D15*
X124089042Y-75653535D02*
X124120444Y-76252713D01*
X119313158Y-91525237D02*
X115518366Y-91724114D01*
X124874082Y-90632978D02*
X124905483Y-91232156D01*
D13*
X121720393Y-86632547D02*
X116837095Y-86888470D01*
D15*
X118528118Y-76545794D02*
X120325652Y-76451589D01*
X129205248Y-89204344D02*
X129804426Y-89172943D01*
X129804426Y-89172943D02*
X129835828Y-89772120D01*
D13*
X120686443Y-90692223D02*
X125624666Y-90433422D01*
X119774001Y-75479128D02*
X122769889Y-75322120D01*
D15*
X121079289Y-90831855D02*
X119281756Y-90926059D01*
X114701925Y-76145493D02*
X118496717Y-75946616D01*
D13*
X123347708Y-76793896D02*
X123295372Y-75795267D01*
D15*
X123076548Y-90727183D02*
X121079289Y-90831855D01*
D13*
X124119170Y-81960602D02*
X128613003Y-81725090D01*
X120701423Y-90691438D02*
X117046439Y-90882988D01*
D15*
X124874082Y-90632978D02*
X123076548Y-90727183D01*
X114257207Y-90588561D02*
X114225805Y-89989384D01*
D13*
X129057858Y-90213441D02*
X128059229Y-90265777D01*
X114396678Y-77963960D02*
X114344342Y-76965331D01*
D15*
X120273316Y-75452960D02*
X120325652Y-76451589D01*
X128668874Y-90434101D02*
X124874082Y-90632978D01*
D13*
X119484030Y-79499814D02*
X120009513Y-79972961D01*
D15*
X114196952Y-77974428D02*
X114165550Y-77375250D01*
X114824983Y-89957982D02*
X114196952Y-77974428D01*
X114196952Y-77974428D02*
X113597774Y-78005829D01*
D13*
X127818908Y-83769451D02*
X124123979Y-83963094D01*
D15*
X120325652Y-76451589D02*
X122322911Y-76346917D01*
X122270575Y-75348288D02*
X120273316Y-75452960D01*
D13*
X122769889Y-75322120D02*
X123295372Y-75795267D01*
X115077045Y-90946144D02*
X115024709Y-89947515D01*
D15*
X119281756Y-90926059D02*
X119313158Y-91525237D01*
X113597774Y-78005829D02*
X113566372Y-77406652D01*
D13*
X129005522Y-89214812D02*
X129057858Y-90213441D01*
D15*
X129205248Y-89204344D02*
X129236650Y-89803522D01*
D13*
X128398425Y-77630709D02*
X128367024Y-77031531D01*
D15*
X128577217Y-77220790D02*
X129176395Y-77189388D01*
D13*
X119300854Y-76004610D02*
X119774001Y-75479128D01*
D15*
X118496717Y-75946616D02*
X118528118Y-76545794D01*
X128700275Y-91033279D02*
X124905483Y-91232156D01*
X122322911Y-76346917D02*
X124120444Y-76252713D01*
X124089042Y-75653535D02*
X127883834Y-75454658D01*
X128545815Y-76621612D02*
X128577217Y-77220790D01*
X114824983Y-89957982D02*
X114225805Y-89989384D01*
X128577217Y-77220790D02*
X129205248Y-89204344D01*
D13*
X128613003Y-81725090D02*
X128586835Y-81225775D01*
D15*
X124120444Y-76252713D02*
X127915236Y-76053836D01*
D13*
X127903692Y-85387231D02*
X127818908Y-83769451D01*
X114344342Y-76965331D02*
X115342971Y-76912995D01*
X127326526Y-76284964D02*
X128325155Y-76232628D01*
X128325155Y-76232628D02*
X128377491Y-77231257D01*
D15*
X122270575Y-75348288D02*
X122322911Y-76346917D01*
X119281756Y-90926059D02*
X115486964Y-91124936D01*
X128668874Y-90434102D02*
G75*
G03*
X129236650Y-89803522I-31402J599178D01*
G01*
X128545816Y-76621612D02*
G75*
G03*
X127915236Y-76053836I-599178J-31402D01*
G01*
D13*
X125624666Y-90433422D02*
G75*
G03*
X128028252Y-87763970I-132934J2536520D01*
G01*
D15*
X128700275Y-91033280D02*
G75*
G03*
X129835828Y-89772120I-62803J1198356D01*
G01*
X114733326Y-76744670D02*
G75*
G03*
X114165550Y-77375250I31402J-599178D01*
G01*
X114257206Y-90588561D02*
G75*
G03*
X115518366Y-91724114I1198356J62803D01*
G01*
D13*
X124082534Y-81261561D02*
G75*
G03*
X122506086Y-79842121I-1497945J-78505D01*
G01*
D15*
X114856384Y-90557160D02*
G75*
G03*
X115486964Y-91124936I599178J31402D01*
G01*
D13*
X123347708Y-76793896D02*
G75*
G03*
X123873191Y-77267043I499316J26169D01*
G01*
D15*
X114701925Y-76145492D02*
G75*
G03*
X113566372Y-77406652I62803J-1198356D01*
G01*
D13*
X121720392Y-86632546D02*
G75*
G03*
X124123979Y-83963094I-132931J2536518D01*
G01*
D15*
X129144994Y-76590211D02*
G75*
G03*
X127883834Y-75454658I-1198356J-62803D01*
G01*
%TO.C,S8*%
X101139276Y-98006024D02*
X101191570Y-98603741D01*
X104924816Y-97674832D02*
X102932427Y-97849144D01*
X103669773Y-83329628D02*
X105462924Y-83172748D01*
D13*
X96937827Y-98172839D02*
X96850672Y-97176644D01*
D15*
X110503506Y-97186760D02*
X106717967Y-97517952D01*
X96046400Y-83394295D02*
X99831940Y-83063103D01*
D13*
X100942656Y-86579680D02*
X101484332Y-87034199D01*
D15*
X105410630Y-82575031D02*
X109196170Y-82243839D01*
D13*
X109770089Y-94540612D02*
X109558300Y-92119859D01*
X95804803Y-85222308D02*
X95717647Y-84226113D01*
X105660853Y-88877205D02*
X110143729Y-88485004D01*
D15*
X103582618Y-82333434D02*
X101590228Y-82507745D01*
D13*
X102549890Y-97722000D02*
X98903817Y-98040990D01*
X104080715Y-82289856D02*
X104622390Y-82744375D01*
X109734097Y-83802889D02*
X105251221Y-84195090D01*
X101484332Y-87034199D02*
X103974818Y-86816310D01*
X101092131Y-82551323D02*
X104080715Y-82289856D01*
D15*
X101191570Y-98603741D02*
X97406030Y-98934933D01*
X96098694Y-83992012D02*
X99884233Y-83660820D01*
D13*
X102534947Y-97723307D02*
X107461130Y-97292322D01*
D15*
X106717967Y-97517952D02*
X104924816Y-97674832D01*
X99831940Y-83063103D02*
X99884233Y-83660820D01*
X96651433Y-97194076D02*
X95605564Y-85239739D01*
X105410630Y-82575031D02*
X105462924Y-83172748D01*
D13*
X109664373Y-83005933D02*
X109751528Y-84002128D01*
D15*
X103582618Y-82333434D02*
X103669773Y-83329628D01*
X110555800Y-97784477D02*
X106770260Y-98115669D01*
X110996636Y-95939033D02*
X111048930Y-96536750D01*
X105462924Y-83172748D02*
X109248464Y-82841556D01*
D13*
X100637611Y-83092998D02*
X101092131Y-82551323D01*
D15*
X96651433Y-97194076D02*
X96053716Y-97246369D01*
X101139276Y-98006024D02*
X97353736Y-98337216D01*
X110996636Y-95939033D02*
X111594353Y-95886739D01*
X106717967Y-97517952D02*
X106770260Y-98115669D01*
D13*
X105599844Y-88179868D02*
X105660853Y-88877205D01*
X103426586Y-93630020D02*
X98555194Y-94056211D01*
D15*
X101677384Y-83503940D02*
X103669773Y-83329628D01*
D13*
X109421466Y-90555833D02*
X105735545Y-90878310D01*
X110797397Y-95956464D02*
X110884553Y-96952659D01*
D15*
X109950767Y-83984696D02*
X110996636Y-95939033D01*
X95007847Y-85292033D02*
X94955553Y-84694316D01*
D13*
X110884553Y-96952659D02*
X109888358Y-97039814D01*
D15*
X95605564Y-85239739D02*
X95007847Y-85292033D01*
X102932427Y-97849144D02*
X101139276Y-98006024D01*
D13*
X109786391Y-84400605D02*
X109734097Y-83802889D01*
D15*
X109898474Y-83386980D02*
X109950767Y-83984696D01*
D13*
X109562658Y-92169669D02*
X109421466Y-90555833D01*
D15*
X96703726Y-97791792D02*
X96651433Y-97194076D01*
X101590228Y-82507745D02*
X101677384Y-83503940D01*
X109950767Y-83984696D02*
X110548484Y-83932403D01*
X110496191Y-83334686D02*
X110548484Y-83932403D01*
X111594353Y-95886739D02*
X111646647Y-96484456D01*
X96106009Y-97844086D02*
X96053716Y-97246369D01*
D13*
X110143729Y-88485004D02*
X110100151Y-87986906D01*
X95717647Y-84226113D02*
X96713842Y-84138958D01*
X104709546Y-83740570D02*
X104622390Y-82744375D01*
X98555194Y-94056211D02*
X98903817Y-98040990D01*
D15*
X99884233Y-83660820D02*
X101677384Y-83503940D01*
X95605564Y-85239739D02*
X95553270Y-84642022D01*
D13*
X108668178Y-83093089D02*
X109664373Y-83005933D01*
X97934022Y-98085683D02*
X96937827Y-98172839D01*
X104709545Y-83740570D02*
G75*
G03*
X105251221Y-84195090I498099J43579D01*
G01*
D15*
X96046400Y-83394295D02*
G75*
G03*
X94955553Y-84694316I104587J-1195434D01*
G01*
D13*
X107461130Y-97292322D02*
G75*
G03*
X109770089Y-94540612I-221377J2530335D01*
G01*
D15*
X96098694Y-83992012D02*
G75*
G03*
X95553270Y-84642022I52293J-597717D01*
G01*
D13*
X103426585Y-93630018D02*
G75*
G03*
X105735545Y-90878310I-221373J2530333D01*
G01*
D15*
X110503506Y-97186760D02*
G75*
G03*
X111048930Y-96536750I-52293J597717D01*
G01*
X109898474Y-83386980D02*
G75*
G03*
X109248464Y-82841556I-597717J-52293D01*
G01*
X110496191Y-83334686D02*
G75*
G03*
X109196170Y-82243839I-1195434J-104587D01*
G01*
X110555800Y-97784477D02*
G75*
G03*
X111646647Y-96484456I-104587J1195434D01*
G01*
X96703726Y-97791792D02*
G75*
G03*
X97353736Y-98337216I597717J52293D01*
G01*
X96106009Y-97844086D02*
G75*
G03*
X97406030Y-98934933I1195434J104587D01*
G01*
D13*
X105599844Y-88179868D02*
G75*
G03*
X103974818Y-86816310I-1494293J-130735D01*
G01*
D16*
%TO.C,D1*%
X89855800Y-75778400D02*
X89855800Y-79628400D01*
X89855800Y-75778400D02*
X91855800Y-75778400D01*
X91855800Y-75778400D02*
X91855800Y-79628400D01*
%TO.C,D18*%
X167584855Y-103012158D02*
X171432510Y-103146521D01*
X167515056Y-105010939D02*
X167584855Y-103012158D01*
X167515056Y-105010939D02*
X171362711Y-105145303D01*
D15*
%TO.C,S22*%
X189936483Y-140085538D02*
X190456098Y-140385538D01*
X176646102Y-133105154D02*
X176946102Y-132585538D01*
D13*
X189733855Y-138236500D02*
X190948855Y-136132059D01*
D15*
X177165717Y-133405154D02*
X177465717Y-132885538D01*
D13*
X189616164Y-131240348D02*
X193513278Y-133490348D01*
D15*
X191667125Y-124687978D02*
X191167125Y-125554003D01*
X188516868Y-141344384D02*
X185225971Y-139444384D01*
D13*
X187252062Y-127335092D02*
X189417125Y-128585092D01*
D15*
X189936483Y-140085538D02*
X189636483Y-140605154D01*
X187876229Y-123654003D02*
X189435075Y-124554003D01*
X183967125Y-138024769D02*
X182235075Y-137024769D01*
D13*
X181994645Y-136701205D02*
X178824992Y-134871205D01*
X191783151Y-126487016D02*
X192283151Y-125620990D01*
X192100138Y-124937978D02*
X192283151Y-125620990D01*
D15*
X196236483Y-129173618D02*
X195936483Y-129693234D01*
X180676229Y-136124769D02*
X180376229Y-136644384D01*
X192725971Y-126454003D02*
X196016868Y-128354003D01*
X184885332Y-121234388D02*
X188176229Y-123134388D01*
X188816868Y-140824769D02*
X185525971Y-138924769D01*
D13*
X195863278Y-129420028D02*
X191966164Y-127170028D01*
D15*
X183465717Y-122493234D02*
X183765717Y-121973618D01*
X196756098Y-129473618D02*
X196456098Y-129993234D01*
X193025971Y-125934388D02*
X192725971Y-126454003D01*
X177465717Y-132885538D02*
X176946102Y-132585538D01*
X183465717Y-122493234D02*
X182946102Y-122193234D01*
X189935075Y-123687978D02*
X189435075Y-124554003D01*
X182946102Y-122193234D02*
X183246102Y-121673618D01*
X185525971Y-138924769D02*
X185225971Y-139444384D01*
D13*
X183638922Y-122593234D02*
X184138922Y-121727208D01*
X195563278Y-129939644D02*
X195863278Y-129420028D01*
X189763278Y-139985538D02*
X189263278Y-140851564D01*
D15*
X184585332Y-121754003D02*
X187876229Y-123654003D01*
D13*
X181981655Y-136693705D02*
X186264150Y-139166205D01*
X190923855Y-136175360D02*
X191733855Y-134772399D01*
D15*
X180676229Y-136124769D02*
X177385332Y-134224769D01*
D13*
X196263278Y-128727208D02*
X195763278Y-129593234D01*
X195397252Y-128227208D02*
X196263278Y-128727208D01*
X187069049Y-126652079D02*
X187252062Y-127335092D01*
X193513278Y-133490348D02*
X193763278Y-133057335D01*
X188819049Y-123620990D02*
X189502062Y-123437978D01*
D15*
X195936483Y-129693234D02*
X189936483Y-140085538D01*
X180376229Y-136644384D02*
X177085332Y-134744384D01*
D13*
X185059856Y-133852103D02*
X180824992Y-131407103D01*
X184138922Y-121727208D02*
X185004948Y-122227208D01*
D15*
X195936483Y-129693234D02*
X196456098Y-129993234D01*
D13*
X180824992Y-131407103D02*
X178824992Y-134871205D01*
D15*
X189435075Y-124554003D02*
X191167125Y-125554003D01*
X182235075Y-137024769D02*
X180676229Y-136124769D01*
X191667125Y-124687978D02*
X189935075Y-123687978D01*
X190456098Y-140385538D02*
X190156098Y-140905154D01*
D13*
X189263278Y-140851564D02*
X188397252Y-140351564D01*
D15*
X191167125Y-125554003D02*
X192725971Y-126454003D01*
X193025971Y-125934388D02*
X196316868Y-127834388D01*
D13*
X177138922Y-133851564D02*
X177638922Y-132985538D01*
X189966164Y-130634130D02*
X189616164Y-131240348D01*
X191733855Y-134772399D02*
X188529561Y-132922399D01*
D15*
X177465717Y-132885538D02*
X183465717Y-122493234D01*
X188176229Y-123134388D02*
X187876229Y-123654003D01*
D13*
X178004948Y-134351564D02*
X177138922Y-133851564D01*
X189502062Y-123437978D02*
X192100138Y-124937978D01*
D15*
X185525971Y-138924769D02*
X183967125Y-138024769D01*
D13*
X191783151Y-126487016D02*
G75*
G03*
X191966164Y-127170028I433014J-249999D01*
G01*
D15*
X188516868Y-141344384D02*
G75*
G03*
X190156098Y-140905154I600000J1039230D01*
G01*
D13*
X186264150Y-139166205D02*
G75*
G03*
X189733855Y-138236500I1270000J2199706D01*
G01*
D15*
X188816868Y-140824769D02*
G75*
G03*
X189636483Y-140605154I300000J519615D01*
G01*
X176646102Y-133105154D02*
G75*
G03*
X177085332Y-134744384I1039230J-600000D01*
G01*
D13*
X185059856Y-133852103D02*
G75*
G03*
X188529561Y-132922399I1270001J2199704D01*
G01*
D15*
X184885332Y-121234388D02*
G75*
G03*
X183246102Y-121673618I-600000J-1039230D01*
G01*
D13*
X189966163Y-130634129D02*
G75*
G03*
X189417125Y-128585092I-1299039J749999D01*
G01*
D15*
X184585332Y-121754003D02*
G75*
G03*
X183765717Y-121973618I-300000J-519615D01*
G01*
X196756098Y-129473618D02*
G75*
G03*
X196316868Y-127834388I-1039230J600000D01*
G01*
X177165717Y-133405154D02*
G75*
G03*
X177385332Y-134224769I519615J-300000D01*
G01*
X196236483Y-129173618D02*
G75*
G03*
X196016868Y-128354003I-519615J300000D01*
G01*
%TO.C,S19*%
X109753270Y-134536750D02*
X109805564Y-133939033D01*
X114031940Y-136115669D02*
X110246400Y-135784477D01*
D13*
X116329284Y-124772732D02*
X118819771Y-124990621D01*
D15*
X119211972Y-120507745D02*
X117219582Y-120333434D01*
D13*
X123864373Y-136172839D02*
X122868178Y-136085683D01*
D15*
X110851433Y-121984696D02*
X110253716Y-121932403D01*
X125846647Y-122694316D02*
X125794353Y-123292033D01*
X123448464Y-136337216D02*
X119662924Y-136006024D01*
D13*
X109917647Y-134952659D02*
X110004803Y-133956464D01*
D15*
X124150767Y-135194076D02*
X124748484Y-135246369D01*
X119662924Y-136006024D02*
X117869773Y-135849144D01*
X115391570Y-120575031D02*
X115339276Y-121172748D01*
D13*
X123393117Y-131232969D02*
X123534310Y-129619133D01*
D15*
X110851433Y-121984696D02*
X110903726Y-121386980D01*
X111553736Y-120841556D02*
X115339276Y-121172748D01*
D13*
X112225287Y-131179424D02*
X111876664Y-135164203D01*
D15*
X125248930Y-122642022D02*
X125196636Y-123239739D01*
D13*
X124962535Y-123620786D02*
X125014828Y-123023069D01*
X111050672Y-122002128D02*
X111137827Y-121005933D01*
D15*
X119662924Y-136006024D02*
X119610630Y-136603741D01*
X119124816Y-121503940D02*
X120917967Y-121660820D01*
X109805564Y-133939033D02*
X110851433Y-121984696D01*
X109155553Y-134484456D02*
X109207847Y-133886739D01*
D13*
X125014828Y-123023069D02*
X120531952Y-122630868D01*
X123534310Y-129619133D02*
X119848389Y-129296657D01*
X120183329Y-126615647D02*
X120122320Y-127312983D01*
X123951528Y-135176644D02*
X123864373Y-136172839D01*
D15*
X125196636Y-123239739D02*
X125794353Y-123292033D01*
X120917967Y-121660820D02*
X124703506Y-121992012D01*
D13*
X120122320Y-127312983D02*
X124605197Y-127705184D01*
X117096679Y-131605616D02*
X112225287Y-131179424D01*
X124088358Y-122138958D02*
X125084553Y-122226113D01*
X119710069Y-120551323D02*
X120164589Y-121092998D01*
X111137827Y-121005933D02*
X112134022Y-121093089D01*
X124605197Y-127705184D02*
X124648774Y-127207087D01*
D15*
X125196636Y-123239739D02*
X124150767Y-135194076D01*
X123396170Y-136934933D02*
X119610630Y-136603741D01*
D13*
X115507794Y-135481886D02*
X120433977Y-135912871D01*
D15*
X114084233Y-135517952D02*
X114031940Y-136115669D01*
D13*
X120077433Y-122089193D02*
X120164589Y-121092998D01*
D15*
X124748484Y-135246369D02*
X124696191Y-135844086D01*
X119211972Y-120507745D02*
X119124816Y-121503940D01*
X117132427Y-121329628D02*
X119124816Y-121503940D01*
D13*
X116179810Y-120744375D02*
X116721485Y-120289856D01*
X123185687Y-133603912D02*
X123397475Y-131183159D01*
D15*
X110253716Y-121932403D02*
X110306009Y-121334686D01*
X120970260Y-121063103D02*
X124755800Y-121394295D01*
X115339276Y-121172748D02*
X117132427Y-121329628D01*
X115877384Y-135674832D02*
X114084233Y-135517952D01*
D13*
X115522737Y-135483193D02*
X111876664Y-135164203D01*
D15*
X111606030Y-120243839D02*
X115391570Y-120575031D01*
X120970260Y-121063103D02*
X120917967Y-121660820D01*
X114084233Y-135517952D02*
X110298694Y-135186760D01*
X109805564Y-133939033D02*
X109207847Y-133886739D01*
X117219582Y-120333434D02*
X117132427Y-121329628D01*
D13*
X115874765Y-124231057D02*
X116329284Y-124772732D01*
X125084553Y-122226113D02*
X124997397Y-123222308D01*
X116721485Y-120289856D02*
X119710069Y-120551323D01*
D15*
X124150767Y-135194076D02*
X124098474Y-135791792D01*
X117869773Y-135849144D02*
X115877384Y-135674832D01*
D13*
X110913842Y-135039814D02*
X109917647Y-134952659D01*
D15*
X111606030Y-120243839D02*
G75*
G03*
X110306009Y-121334686I-104587J-1195434D01*
G01*
D13*
X117096678Y-131605614D02*
G75*
G03*
X119848389Y-129296657I221378J2530332D01*
G01*
X120183329Y-126615647D02*
G75*
G03*
X118819771Y-124990621I-1494293J130733D01*
G01*
D15*
X125846647Y-122694316D02*
G75*
G03*
X124755800Y-121394295I-1195434J104587D01*
G01*
X111553736Y-120841556D02*
G75*
G03*
X110903726Y-121386980I-52293J-597717D01*
G01*
D13*
X120077433Y-122089193D02*
G75*
G03*
X120531952Y-122630868I498098J-43577D01*
G01*
D15*
X109155553Y-134484456D02*
G75*
G03*
X110246400Y-135784477I1195434J-104587D01*
G01*
X123448464Y-136337216D02*
G75*
G03*
X124098474Y-135791792I52293J597717D01*
G01*
X109753270Y-134536750D02*
G75*
G03*
X110298694Y-135186760I597717J-52293D01*
G01*
X125248930Y-122642022D02*
G75*
G03*
X124703506Y-121992012I-597717J52293D01*
G01*
D13*
X120433977Y-135912872D02*
G75*
G03*
X123185687Y-133603912I221374J2530336D01*
G01*
D15*
X123396170Y-136934933D02*
G75*
G03*
X124696191Y-135844086I104587J1195434D01*
G01*
D16*
%TO.C,D17*%
X148558698Y-102578195D02*
X148645937Y-100580099D01*
X148645937Y-100580099D02*
X152492273Y-100748033D01*
X148558698Y-102578195D02*
X152405034Y-102746130D01*
%TO.C,D10*%
X128966000Y-83067400D02*
X132816000Y-83067400D01*
X128966000Y-81067400D02*
X132816000Y-81067400D01*
X128966000Y-83067400D02*
X128966000Y-81067400D01*
%TO.C,D14*%
X90535800Y-108245400D02*
X94385800Y-108245400D01*
X90535800Y-110245400D02*
X94385800Y-110245400D01*
X90535800Y-110245400D02*
X90535800Y-108245400D01*
D13*
%TO.C,S1*%
X72952424Y-66401387D02*
X73951472Y-66357768D01*
D15*
X81564205Y-80238917D02*
X79566108Y-80326156D01*
X77113531Y-65418947D02*
X77139702Y-66018376D01*
D13*
X87179005Y-71285481D02*
X87157196Y-70785957D01*
D15*
X80892466Y-64853574D02*
X78894370Y-64940813D01*
D13*
X78069799Y-68980625D02*
X78591133Y-69458340D01*
D15*
X87705961Y-78769619D02*
X88305389Y-78743447D01*
D13*
X78591133Y-69458340D02*
X81088753Y-69349291D01*
D15*
X77793993Y-81004099D02*
X73997610Y-81169853D01*
D13*
X87549770Y-79777391D02*
X86550722Y-79821010D01*
X82683288Y-71481768D02*
X87179005Y-71285481D01*
X86973994Y-66589954D02*
X82478277Y-66786242D01*
D15*
X77139702Y-66018376D02*
X78937989Y-65939861D01*
X80892466Y-64853574D02*
X80936086Y-65852622D01*
X82734372Y-65774108D02*
X86530756Y-65608354D01*
X87185046Y-80594077D02*
X83388663Y-80759831D01*
X82708201Y-65174679D02*
X86504584Y-65008925D01*
X73343319Y-66184130D02*
X77139702Y-66018376D01*
D13*
X86367101Y-73322835D02*
X82670622Y-73484227D01*
D15*
X83362492Y-80160402D02*
X81564205Y-80238917D01*
X77767822Y-80404670D02*
X73971438Y-80570424D01*
X73319666Y-79397738D02*
X72796233Y-67409159D01*
D13*
X74562143Y-80344443D02*
X73563095Y-80388062D01*
D15*
X77767822Y-80404670D02*
X77793993Y-81004099D01*
X72796233Y-67409159D02*
X72196805Y-67435331D01*
D13*
X87506151Y-78778343D02*
X87549770Y-79777391D01*
X85940051Y-65834335D02*
X86939099Y-65790716D01*
X86437764Y-74941293D02*
X86367101Y-73322835D01*
X77917131Y-65483956D02*
X78394846Y-64962623D01*
D15*
X87158875Y-79994648D02*
X83362492Y-80160402D01*
D13*
X82652755Y-70782434D02*
X82683288Y-71481768D01*
D15*
X80936086Y-65852622D02*
X82734372Y-65774108D01*
D13*
X80243833Y-76132602D02*
X75358487Y-76345901D01*
D15*
X87156356Y-66181611D02*
X87182528Y-66781040D01*
X87182528Y-66781040D02*
X87705961Y-78769619D01*
X72196805Y-67435331D02*
X72170633Y-66835902D01*
D13*
X87000166Y-67189383D02*
X86973994Y-66589954D01*
D15*
X83362492Y-80160402D02*
X83388663Y-80759831D01*
X82708201Y-65174679D02*
X82734372Y-65774108D01*
X88305389Y-78743447D02*
X88331561Y-79342876D01*
D13*
X81391990Y-64831765D02*
X81913324Y-65309479D01*
D15*
X78937989Y-65939861D02*
X80936086Y-65852622D01*
D13*
X79189481Y-80182447D02*
X75532965Y-80342094D01*
X78394846Y-64962623D02*
X81391990Y-64831765D01*
X81956944Y-66308527D02*
X81913324Y-65309479D01*
D15*
X87755785Y-66155440D02*
X87781957Y-66754868D01*
D13*
X86541578Y-77319028D02*
X86435583Y-74891341D01*
D15*
X72746409Y-80023338D02*
X72720237Y-79423910D01*
D13*
X75358487Y-76345901D02*
X75532965Y-80342094D01*
D15*
X73317148Y-65584701D02*
X77113531Y-65418947D01*
X87182528Y-66781040D02*
X87781957Y-66754868D01*
X73345838Y-79997167D02*
X73319666Y-79397738D01*
X72796233Y-67409159D02*
X72770062Y-66809730D01*
X79566108Y-80326156D02*
X77767822Y-80404670D01*
X73319666Y-79397738D02*
X72720237Y-79423910D01*
X87705961Y-78769619D02*
X87732132Y-79369048D01*
D13*
X72996043Y-67400435D02*
X72952424Y-66401387D01*
X79174496Y-80183101D02*
X84114789Y-79967403D01*
D15*
X78894370Y-64940813D02*
X78937989Y-65939861D01*
D13*
X86939099Y-65790716D02*
X86982718Y-66789764D01*
X73563095Y-80388062D02*
X73519476Y-79389014D01*
X80243832Y-76132602D02*
G75*
G03*
X82670622Y-73484227I-110791J2537582D01*
G01*
D15*
X72746409Y-80023338D02*
G75*
G03*
X73997610Y-81169853I1198858J52343D01*
G01*
D13*
X82652756Y-70782434D02*
G75*
G03*
X81088753Y-69349291I-1498574J-65431D01*
G01*
D15*
X73345838Y-79997167D02*
G75*
G03*
X73971438Y-80570424I599429J26172D01*
G01*
X73343319Y-66184130D02*
G75*
G03*
X72770062Y-66809730I26172J-599429D01*
G01*
X87755785Y-66155440D02*
G75*
G03*
X86504584Y-65008925I-1198858J-52343D01*
G01*
D13*
X81956943Y-66308527D02*
G75*
G03*
X82478277Y-66786242I499526J21811D01*
G01*
D15*
X73317148Y-65584701D02*
G75*
G03*
X72170633Y-66835902I52343J-1198858D01*
G01*
D13*
X84114789Y-79967402D02*
G75*
G03*
X86541578Y-77319028I-110794J2537582D01*
G01*
D15*
X87185046Y-80594077D02*
G75*
G03*
X88331561Y-79342876I-52343J1198858D01*
G01*
X87158875Y-79994648D02*
G75*
G03*
X87732132Y-79369048I-26172J599429D01*
G01*
X87156356Y-66181611D02*
G75*
G03*
X86530756Y-65608354I-599429J-26172D01*
G01*
D16*
%TO.C,D8*%
X90281800Y-91779600D02*
X90281800Y-89779600D01*
X90281800Y-89779600D02*
X94131800Y-89779600D01*
X90281800Y-91779600D02*
X94131800Y-91779600D01*
%TO.C,LIPO1*%
X189500000Y-75500000D02*
X214500000Y-75500000D01*
X214500000Y-75500000D02*
X214500000Y-110500000D01*
X214500000Y-110500000D02*
X189500000Y-110500000D01*
X189500000Y-110500000D02*
X189500000Y-75500000D01*
%TO.C,S23*%
X202608546Y-132905266D02*
X205224841Y-135521562D01*
X200062962Y-140683441D02*
X197446666Y-138067146D01*
X196244585Y-136087247D02*
X200593292Y-131738540D01*
X205224841Y-135521562D02*
X200062962Y-140683441D01*
%TO.C,D22*%
X150505200Y-125688600D02*
X154355200Y-125688600D01*
X150505200Y-125688600D02*
X150505200Y-123688600D01*
X150505200Y-123688600D02*
X154355200Y-123688600D01*
%TO.C,D2*%
X89316600Y-70907400D02*
X93166600Y-70907400D01*
X89316600Y-72907400D02*
X93166600Y-72907400D01*
X89316600Y-72907400D02*
X89316600Y-70907400D01*
D15*
%TO.C,S11*%
X153551433Y-76984696D02*
X153603726Y-76386980D01*
X158039276Y-76172748D02*
X159832427Y-76329628D01*
D13*
X167662535Y-78620786D02*
X167714828Y-78023069D01*
X166564373Y-91172839D02*
X165568178Y-91085683D01*
D15*
X166850767Y-90194076D02*
X166798474Y-90791792D01*
X152505564Y-88939033D02*
X151907847Y-88886739D01*
D13*
X158879810Y-75744375D02*
X159421485Y-75289856D01*
X162822320Y-82312983D02*
X167305197Y-82705184D01*
D15*
X167448484Y-90246369D02*
X167396191Y-90844086D01*
D13*
X166788358Y-77138958D02*
X167784553Y-77226113D01*
X158222737Y-90483193D02*
X154576664Y-90164203D01*
D15*
X163617967Y-76660820D02*
X167403506Y-76992012D01*
X158091570Y-75575031D02*
X158039276Y-76172748D01*
D13*
X162410069Y-75551323D02*
X162864589Y-76092998D01*
D15*
X156784233Y-90517952D02*
X152998694Y-90186760D01*
D13*
X152617647Y-89952659D02*
X152704803Y-88956464D01*
D15*
X153551433Y-76984696D02*
X152953716Y-76932403D01*
D13*
X153837827Y-76005933D02*
X154834022Y-76093089D01*
X165885687Y-88603912D02*
X166097475Y-86183159D01*
X158207794Y-90481886D02*
X163133977Y-90912871D01*
X162883329Y-81615647D02*
X162822320Y-82312983D01*
D15*
X160569773Y-90849144D02*
X158577384Y-90674832D01*
X159832427Y-76329628D02*
X161824816Y-76503940D01*
X154306030Y-75243839D02*
X158091570Y-75575031D01*
X168546647Y-77694316D02*
X168494353Y-78292033D01*
D13*
X167784553Y-77226113D02*
X167697397Y-78222308D01*
D15*
X161911972Y-75507745D02*
X159919582Y-75333434D01*
D13*
X166093117Y-86232969D02*
X166234310Y-84619133D01*
D15*
X163670260Y-76063103D02*
X163617967Y-76660820D01*
D13*
X158574765Y-79231057D02*
X159029284Y-79772732D01*
D15*
X166148464Y-91337216D02*
X162362924Y-91006024D01*
X166096170Y-91934933D02*
X162310630Y-91603741D01*
D13*
X159029284Y-79772732D02*
X161519771Y-79990621D01*
X159796679Y-86605616D02*
X154925287Y-86179424D01*
D15*
X167896636Y-78239739D02*
X166850767Y-90194076D01*
D13*
X167305197Y-82705184D02*
X167348774Y-82207087D01*
D15*
X151855553Y-89484456D02*
X151907847Y-88886739D01*
X162362924Y-91006024D02*
X162310630Y-91603741D01*
X166850767Y-90194076D02*
X167448484Y-90246369D01*
X152953716Y-76932403D02*
X153006009Y-76334686D01*
X167948930Y-77642022D02*
X167896636Y-78239739D01*
X154253736Y-75841556D02*
X158039276Y-76172748D01*
X159919582Y-75333434D02*
X159832427Y-76329628D01*
X163670260Y-76063103D02*
X167455800Y-76394295D01*
X156784233Y-90517952D02*
X156731940Y-91115669D01*
D13*
X162777433Y-77089193D02*
X162864589Y-76092998D01*
D15*
X152505564Y-88939033D02*
X153551433Y-76984696D01*
X161824816Y-76503940D02*
X163617967Y-76660820D01*
X158577384Y-90674832D02*
X156784233Y-90517952D01*
D13*
X154925287Y-86179424D02*
X154576664Y-90164203D01*
D15*
X161911972Y-75507745D02*
X161824816Y-76503940D01*
D13*
X153613842Y-90039814D02*
X152617647Y-89952659D01*
X159421485Y-75289856D02*
X162410069Y-75551323D01*
D15*
X156731940Y-91115669D02*
X152946400Y-90784477D01*
X162362924Y-91006024D02*
X160569773Y-90849144D01*
X167896636Y-78239739D02*
X168494353Y-78292033D01*
D13*
X166651528Y-90176644D02*
X166564373Y-91172839D01*
X167714828Y-78023069D02*
X163231952Y-77630868D01*
D15*
X152453270Y-89536750D02*
X152505564Y-88939033D01*
D13*
X153750672Y-77002128D02*
X153837827Y-76005933D01*
X166234310Y-84619133D02*
X162548389Y-84296657D01*
D15*
X154253736Y-75841556D02*
G75*
G03*
X153603726Y-76386980I-52293J-597717D01*
G01*
D13*
X162883329Y-81615647D02*
G75*
G03*
X161519771Y-79990621I-1494293J130733D01*
G01*
D15*
X166148464Y-91337216D02*
G75*
G03*
X166798474Y-90791792I52293J597717D01*
G01*
X166096170Y-91934933D02*
G75*
G03*
X167396191Y-90844086I104587J1195434D01*
G01*
X154306030Y-75243839D02*
G75*
G03*
X153006009Y-76334686I-104587J-1195434D01*
G01*
X167948930Y-77642022D02*
G75*
G03*
X167403506Y-76992012I-597717J52293D01*
G01*
X151855553Y-89484456D02*
G75*
G03*
X152946400Y-90784477I1195434J-104587D01*
G01*
X152453270Y-89536750D02*
G75*
G03*
X152998694Y-90186760I597717J-52293D01*
G01*
D13*
X163133977Y-90912872D02*
G75*
G03*
X165885687Y-88603912I221374J2530336D01*
G01*
X159796678Y-86605614D02*
G75*
G03*
X162548389Y-84296657I221378J2530332D01*
G01*
X162777433Y-77089193D02*
G75*
G03*
X163231952Y-77630868I498098J-43577D01*
G01*
D15*
X168546647Y-77694316D02*
G75*
G03*
X167455800Y-76394295I-1195434J104587D01*
G01*
D16*
%TO.C,D5*%
X149000623Y-61725684D02*
X152835972Y-62061233D01*
X148826311Y-63718073D02*
X149000623Y-61725684D01*
X148826311Y-63718073D02*
X152661661Y-64053623D01*
%TO.C,D13*%
X90160600Y-111846400D02*
X92160600Y-111846400D01*
X92160600Y-111846400D02*
X92160600Y-115696400D01*
X90160600Y-111846400D02*
X90160600Y-115696400D01*
D15*
%TO.C,S3*%
X121070575Y-56348288D02*
X121122911Y-57346917D01*
X127500275Y-72033279D02*
X123705483Y-72232156D01*
D13*
X127125155Y-57232628D02*
X127177491Y-58231257D01*
D15*
X117328118Y-57545794D02*
X119125652Y-57451589D01*
X119879289Y-71831855D02*
X118081756Y-71926059D01*
D13*
X113877045Y-71946144D02*
X113824709Y-70947515D01*
D15*
X127377217Y-58220790D02*
X127976395Y-58189388D01*
D13*
X120520393Y-67632547D02*
X115637095Y-67888470D01*
D15*
X119073316Y-56452960D02*
X119125652Y-57451589D01*
D13*
X113144342Y-57965331D02*
X114142971Y-57912995D01*
X119486443Y-71692223D02*
X124424666Y-71433422D01*
D15*
X119125652Y-57451589D02*
X121122911Y-57346917D01*
X127944993Y-57590211D02*
X127976395Y-58189388D01*
X113057207Y-71588561D02*
X113025805Y-70989384D01*
X127345815Y-57621612D02*
X127377217Y-58220790D01*
D13*
X126126526Y-57284964D02*
X127125155Y-57232628D01*
D15*
X127468874Y-71434101D02*
X123674082Y-71632978D01*
D13*
X126828252Y-68763970D02*
X126701076Y-66337300D01*
D15*
X113533326Y-57744671D02*
X117328118Y-57545794D01*
X112996952Y-58974428D02*
X112965550Y-58375250D01*
X117296717Y-56946616D02*
X117328118Y-57545794D01*
X113656385Y-71557160D02*
X113624983Y-70957982D01*
X112397774Y-59005829D02*
X112366372Y-58406652D01*
X121122911Y-57346917D02*
X122920444Y-57252713D01*
D13*
X118284030Y-60499814D02*
X118809513Y-60972961D01*
D15*
X118081756Y-71926059D02*
X114286964Y-72124936D01*
X123674082Y-71632978D02*
X123705483Y-72232156D01*
D13*
X127198425Y-58630709D02*
X127167024Y-58031531D01*
X127413003Y-62725090D02*
X127386835Y-62225775D01*
D15*
X118081756Y-71926059D02*
X118113158Y-72525237D01*
D13*
X122919170Y-62960602D02*
X127413003Y-62725090D01*
D15*
X128005248Y-70204344D02*
X128036650Y-70803522D01*
X122889042Y-56653535D02*
X126683834Y-56454658D01*
X122889042Y-56653535D02*
X122920444Y-57252713D01*
X121070575Y-56348288D02*
X119073316Y-56452960D01*
X113624983Y-70957982D02*
X112996952Y-58974428D01*
D13*
X118574001Y-56479128D02*
X121569889Y-56322120D01*
D15*
X113501925Y-57145493D02*
X117296717Y-56946616D01*
D13*
X127857858Y-71213441D02*
X126859229Y-71265777D01*
X113196678Y-58963960D02*
X113144342Y-57965331D01*
D15*
X113624983Y-70957982D02*
X113025805Y-70989384D01*
X123674082Y-71632978D02*
X121876548Y-71727183D01*
D13*
X127805522Y-70214812D02*
X127857858Y-71213441D01*
D15*
X118113158Y-72525237D02*
X114318366Y-72724114D01*
D13*
X121569889Y-56322120D02*
X122095372Y-56795267D01*
D15*
X121876548Y-71727183D02*
X119879289Y-71831855D01*
D13*
X119501423Y-71691438D02*
X115846439Y-71882988D01*
X114875674Y-71893808D02*
X113877045Y-71946144D01*
X118809513Y-60972961D02*
X121306086Y-60842121D01*
D15*
X127377217Y-58220790D02*
X128005248Y-70204344D01*
X128604426Y-70172943D02*
X128635828Y-70772120D01*
D13*
X118100854Y-57004610D02*
X118574001Y-56479128D01*
X115637095Y-67888470D02*
X115846439Y-71882988D01*
X122882535Y-62261561D02*
X122919170Y-62960602D01*
X127167024Y-58031531D02*
X122673191Y-58267043D01*
D15*
X128005248Y-70204344D02*
X128604426Y-70172943D01*
D13*
X126618908Y-64769451D02*
X122923979Y-64963094D01*
D15*
X112996952Y-58974428D02*
X112397774Y-59005829D01*
D13*
X126703692Y-66387231D02*
X126618908Y-64769451D01*
D15*
X122920444Y-57252713D02*
X126715236Y-57053836D01*
D13*
X122147708Y-57793896D02*
X122095372Y-56795267D01*
D15*
X113057206Y-71588561D02*
G75*
G03*
X114318366Y-72724114I1198356J62803D01*
G01*
X113656384Y-71557160D02*
G75*
G03*
X114286964Y-72124936I599178J31402D01*
G01*
X113533326Y-57744670D02*
G75*
G03*
X112965550Y-58375250I31402J-599178D01*
G01*
X127500275Y-72033280D02*
G75*
G03*
X128635828Y-70772120I-62803J1198356D01*
G01*
X127468874Y-71434102D02*
G75*
G03*
X128036650Y-70803522I-31402J599178D01*
G01*
D13*
X120520392Y-67632546D02*
G75*
G03*
X122923979Y-64963094I-132931J2536518D01*
G01*
X124424666Y-71433422D02*
G75*
G03*
X126828252Y-68763970I-132934J2536520D01*
G01*
X122882534Y-62261561D02*
G75*
G03*
X121306086Y-60842121I-1497945J-78505D01*
G01*
D15*
X127345816Y-57621612D02*
G75*
G03*
X126715236Y-57053836I-599178J-31402D01*
G01*
D13*
X122147708Y-57793896D02*
G75*
G03*
X122673191Y-58267043I499316J26169D01*
G01*
D15*
X127944994Y-57590211D02*
G75*
G03*
X126683834Y-56454658I-1198356J-62803D01*
G01*
X113501925Y-57145492D02*
G75*
G03*
X112366372Y-58406652I62803J-1198356D01*
G01*
D13*
%TO.C,S10*%
X138701100Y-74389386D02*
X139201100Y-73889386D01*
X142701100Y-75389386D02*
X142701100Y-74389386D01*
D15*
X133501100Y-88089386D02*
X132901100Y-88089386D01*
X137901100Y-89289386D02*
X137901100Y-89889386D01*
D13*
X142201100Y-73889386D02*
X142701100Y-74389386D01*
D15*
X143501100Y-74289386D02*
X143501100Y-74889386D01*
X137901100Y-89889386D02*
X134101100Y-89889386D01*
D13*
X146801100Y-86589386D02*
X146801100Y-84159386D01*
X147701100Y-76489386D02*
X147701100Y-75889386D01*
X140561100Y-85129386D02*
X135671100Y-85129386D01*
D15*
X137901100Y-74889386D02*
X139701100Y-74889386D01*
X139701100Y-89289386D02*
X137901100Y-89289386D01*
D13*
X147701100Y-75089386D02*
X147701100Y-76089386D01*
D15*
X134101100Y-74889386D02*
X137901100Y-74889386D01*
D13*
X139201100Y-78389386D02*
X141701100Y-78389386D01*
X146801100Y-84209386D02*
X146801100Y-82589386D01*
X133701100Y-89089386D02*
X133701100Y-88089386D01*
D15*
X137901100Y-89289386D02*
X134101100Y-89289386D01*
X132901100Y-88689386D02*
X132901100Y-88089386D01*
D13*
X138701100Y-77889386D02*
X139201100Y-78389386D01*
D15*
X141701100Y-73889386D02*
X139701100Y-73889386D01*
X134101100Y-74289386D02*
X137901100Y-74289386D01*
X133501100Y-88089386D02*
X133501100Y-76089386D01*
X137901100Y-74289386D02*
X137901100Y-74889386D01*
X141701100Y-73889386D02*
X141701100Y-74889386D01*
D13*
X133701100Y-76089386D02*
X133701100Y-75089386D01*
D15*
X141701100Y-74889386D02*
X143501100Y-74889386D01*
X147901100Y-88089386D02*
X148501100Y-88089386D01*
X139701100Y-73889386D02*
X139701100Y-74889386D01*
X141701100Y-89289386D02*
X139701100Y-89289386D01*
X147901100Y-76089386D02*
X147901100Y-88089386D01*
D13*
X133701100Y-75089386D02*
X134701100Y-75089386D01*
X134701100Y-89089386D02*
X133701100Y-89089386D01*
D15*
X147301100Y-89889386D02*
X143501100Y-89889386D01*
D13*
X146801100Y-82589386D02*
X143101100Y-82589386D01*
D15*
X147901100Y-75489386D02*
X147901100Y-76089386D01*
D13*
X146701100Y-75089386D02*
X147701100Y-75089386D01*
X147701100Y-80589386D02*
X147701100Y-80089386D01*
X139316100Y-89129386D02*
X144261100Y-89129386D01*
D15*
X143501100Y-74289386D02*
X147301100Y-74289386D01*
X133501100Y-76089386D02*
X132901100Y-76089386D01*
D13*
X143201100Y-80589386D02*
X147701100Y-80589386D01*
D15*
X143501100Y-74889386D02*
X147301100Y-74889386D01*
X133501100Y-76089386D02*
X133501100Y-75489386D01*
X148501100Y-88089386D02*
X148501100Y-88689386D01*
X132901100Y-76089386D02*
X132901100Y-75489386D01*
X147301100Y-89289386D02*
X143501100Y-89289386D01*
X133501100Y-88689386D02*
X133501100Y-88089386D01*
D13*
X143201100Y-79889386D02*
X143201100Y-80589386D01*
X147701100Y-75889386D02*
X143201100Y-75889386D01*
X135671100Y-85129386D02*
X135671100Y-89129386D01*
D15*
X148501100Y-75489386D02*
X148501100Y-76089386D01*
X147901100Y-76089386D02*
X148501100Y-76089386D01*
D13*
X147701100Y-88089386D02*
X147701100Y-89089386D01*
D15*
X147901100Y-88089386D02*
X147901100Y-88689386D01*
X143501100Y-89289386D02*
X141701100Y-89289386D01*
X139701100Y-74889386D02*
X141701100Y-74889386D01*
D13*
X147701100Y-89089386D02*
X146701100Y-89089386D01*
X139331100Y-89129386D02*
X135671100Y-89129386D01*
X139201100Y-73889386D02*
X142201100Y-73889386D01*
D15*
X143501100Y-89289386D02*
X143501100Y-89889386D01*
X147301100Y-89889386D02*
G75*
G03*
X148501100Y-88689386I0J1200000D01*
G01*
D13*
X144261100Y-89129386D02*
G75*
G03*
X146801100Y-86589386I-1J2540001D01*
G01*
X140561099Y-85129385D02*
G75*
G03*
X143101100Y-82589386I2J2539999D01*
G01*
D15*
X148501100Y-75489386D02*
G75*
G03*
X147301100Y-74289386I-1200000J0D01*
G01*
X147901100Y-75489386D02*
G75*
G03*
X147301100Y-74889386I-600000J0D01*
G01*
X132901100Y-88689386D02*
G75*
G03*
X134101100Y-89889386I1200000J0D01*
G01*
D13*
X142701100Y-75389386D02*
G75*
G03*
X143201100Y-75889386I500001J1D01*
G01*
D15*
X133501100Y-88689386D02*
G75*
G03*
X134101100Y-89289386I600000J0D01*
G01*
X147301100Y-89289386D02*
G75*
G03*
X147901100Y-88689386I0J600000D01*
G01*
X134101100Y-74889386D02*
G75*
G03*
X133501100Y-75489386I0J-600000D01*
G01*
D13*
X143201100Y-79889386D02*
G75*
G03*
X141701100Y-78389386I-1500001J-1D01*
G01*
D15*
X134101100Y-74289386D02*
G75*
G03*
X132901100Y-75489386I0J-1200000D01*
G01*
%TO.C,S18*%
X172656397Y-98163435D02*
X176454082Y-98296053D01*
X176454082Y-98296053D02*
X178252986Y-98358873D01*
X171575149Y-111934089D02*
X171596089Y-111334455D01*
D13*
X185752539Y-112829418D02*
X184753148Y-112794519D01*
X185787439Y-111830027D02*
X185752539Y-112829418D01*
D15*
X185987317Y-111837007D02*
X186586951Y-111857947D01*
X187026685Y-99265623D02*
X187005745Y-99865257D01*
D13*
X181551926Y-104177549D02*
X186049185Y-104334596D01*
X186049185Y-104334596D02*
X186066635Y-103834901D01*
D15*
X180286667Y-97429281D02*
X180251767Y-98428672D01*
D13*
X172760459Y-112375725D02*
X171761068Y-112340825D01*
X171761068Y-112340825D02*
X171795967Y-111341434D01*
X177271044Y-97824278D02*
X177788190Y-97342032D01*
D15*
X170975515Y-111913149D02*
X170996455Y-111313515D01*
X175951529Y-112687281D02*
X175930590Y-113286916D01*
D13*
X181576356Y-103477975D02*
X181551926Y-104177549D01*
D15*
X186406111Y-99844317D02*
X185987317Y-111837007D01*
D13*
X184940336Y-110299532D02*
X185025142Y-107871012D01*
D15*
X178252986Y-98358873D02*
X180251767Y-98428672D01*
D13*
X177788190Y-97342032D02*
X180786362Y-97446730D01*
D15*
X172677337Y-97563801D02*
X176475022Y-97696419D01*
D13*
X178755091Y-108622648D02*
X173868070Y-108451990D01*
X172249661Y-98349354D02*
X173249052Y-98384253D01*
D15*
X176475022Y-97696419D02*
X176454082Y-98296053D01*
X177750433Y-112750100D02*
X175951529Y-112687281D01*
X186406111Y-99844317D02*
X187005745Y-99865257D01*
X182050671Y-98491491D02*
X185848356Y-98624109D01*
D13*
X177371251Y-112576762D02*
X182313239Y-112749340D01*
D15*
X175930590Y-113286916D02*
X172132904Y-113154298D01*
D13*
X186241132Y-98837947D02*
X186206233Y-99837338D01*
D15*
X178287885Y-97359482D02*
X178252986Y-98358873D01*
X185987317Y-111837007D02*
X185966377Y-112436642D01*
D13*
X172214761Y-99348745D02*
X172249661Y-98349354D01*
D15*
X180251767Y-98428672D02*
X182050671Y-98491491D01*
X182071610Y-97891856D02*
X182050671Y-98491491D01*
X171415249Y-99320825D02*
X171436188Y-98721190D01*
X171596089Y-111334455D02*
X172014883Y-99341765D01*
X181548118Y-112882719D02*
X179749214Y-112819899D01*
D13*
X185079934Y-106301968D02*
X181382188Y-106172840D01*
X173868070Y-108451990D02*
X173728472Y-112449553D01*
D15*
X172014883Y-99341765D02*
X171415249Y-99320825D01*
X182071610Y-97891856D02*
X185869296Y-98024474D01*
X180286667Y-97429281D02*
X178287885Y-97359482D01*
D13*
X185241741Y-98803047D02*
X186241132Y-98837947D01*
D15*
X171596089Y-111334455D02*
X170996455Y-111313515D01*
X186427051Y-99244683D02*
X186406111Y-99844317D01*
D13*
X177386242Y-112577285D02*
X173728472Y-112449553D01*
D15*
X172014883Y-99341765D02*
X172035823Y-98742130D01*
D13*
X177148896Y-101322146D02*
X177631142Y-101839291D01*
X181233708Y-98963266D02*
X181268608Y-97963876D01*
D15*
X175951529Y-112687281D02*
X172153844Y-112554663D01*
D13*
X186213213Y-99637459D02*
X181715954Y-99480412D01*
D15*
X186586951Y-111857947D02*
X186566012Y-112457582D01*
X185345803Y-113015337D02*
X181548118Y-112882719D01*
D13*
X186192273Y-100237094D02*
X186213213Y-99637459D01*
D15*
X179749214Y-112819899D02*
X177750433Y-112750100D01*
X185324863Y-113614971D02*
X181527178Y-113482353D01*
D13*
X177631142Y-101839291D02*
X180129619Y-101926539D01*
X185023397Y-107920981D02*
X185079934Y-106301968D01*
D15*
X181548118Y-112882719D02*
X181527178Y-113482353D01*
D13*
X180786362Y-97446730D02*
X181268608Y-97963876D01*
D15*
X171575150Y-111934089D02*
G75*
G03*
X172153844Y-112554663I599634J-20940D01*
G01*
X185324863Y-113614971D02*
G75*
G03*
X186566012Y-112457582I41880J1199269D01*
G01*
X172677337Y-97563801D02*
G75*
G03*
X171436188Y-98721190I-41880J-1199269D01*
G01*
X185345803Y-113015336D02*
G75*
G03*
X185966377Y-112436642I20940J599634D01*
G01*
X172656397Y-98163436D02*
G75*
G03*
X172035823Y-98742130I-20940J-599634D01*
G01*
X187026685Y-99265623D02*
G75*
G03*
X185869296Y-98024474I-1199269J41880D01*
G01*
D13*
X182313239Y-112749339D02*
G75*
G03*
X184940336Y-110299532I88644J2538453D01*
G01*
X181576357Y-103477975D02*
G75*
G03*
X180129619Y-101926539I-1499088J52348D01*
G01*
X178755090Y-108622647D02*
G75*
G03*
X181382188Y-106172840I88647J2538451D01*
G01*
D15*
X186427050Y-99244683D02*
G75*
G03*
X185848356Y-98624109I-599634J20940D01*
G01*
X170975515Y-111913149D02*
G75*
G03*
X172132904Y-113154298I1199269J-41880D01*
G01*
D13*
X181233708Y-98963266D02*
G75*
G03*
X181715954Y-99480412I499697J-17449D01*
G01*
D16*
%TO.C,D4*%
X128254800Y-61966600D02*
X132104800Y-61966600D01*
X128254800Y-63966600D02*
X128254800Y-61966600D01*
X128254800Y-63966600D02*
X132104800Y-63966600D01*
%TO.C,D21*%
X127886355Y-127595359D02*
X131677864Y-126926814D01*
X128233651Y-129564975D02*
X127886355Y-127595359D01*
X128233651Y-129564975D02*
X132025161Y-128896429D01*
%TO.C,D3*%
X108696800Y-65287400D02*
X112546800Y-65287400D01*
X108696800Y-65287400D02*
X108696800Y-63287400D01*
X108696800Y-63287400D02*
X112546800Y-63287400D01*
D15*
%TO.C,S4*%
X143101100Y-70289386D02*
X141301100Y-70289386D01*
D13*
X133301100Y-56089386D02*
X134301100Y-56089386D01*
D15*
X137501100Y-70889386D02*
X133701100Y-70889386D01*
D13*
X147301100Y-56889386D02*
X142801100Y-56889386D01*
D15*
X132501100Y-69689386D02*
X132501100Y-69089386D01*
X141301100Y-54889386D02*
X139301100Y-54889386D01*
D13*
X140161100Y-66129386D02*
X135271100Y-66129386D01*
D15*
X137501100Y-70289386D02*
X137501100Y-70889386D01*
D13*
X146301100Y-56089386D02*
X147301100Y-56089386D01*
X138931100Y-70129386D02*
X135271100Y-70129386D01*
D15*
X133101100Y-57089386D02*
X133101100Y-56489386D01*
X133101100Y-69089386D02*
X133101100Y-57089386D01*
X139301100Y-70289386D02*
X137501100Y-70289386D01*
D13*
X146401100Y-63589386D02*
X142701100Y-63589386D01*
D15*
X147501100Y-56489386D02*
X147501100Y-57089386D01*
D13*
X142801100Y-60889386D02*
X142801100Y-61589386D01*
X147301100Y-57489386D02*
X147301100Y-56889386D01*
D15*
X143101100Y-55289386D02*
X146901100Y-55289386D01*
X147501100Y-57089386D02*
X147501100Y-69089386D01*
D13*
X134301100Y-70089386D02*
X133301100Y-70089386D01*
X146401100Y-65209386D02*
X146401100Y-63589386D01*
D15*
X148101100Y-69089386D02*
X148101100Y-69689386D01*
D13*
X146401100Y-67589386D02*
X146401100Y-65159386D01*
X147301100Y-61589386D02*
X147301100Y-61089386D01*
D15*
X148101100Y-56489386D02*
X148101100Y-57089386D01*
D13*
X138301100Y-55389386D02*
X138801100Y-54889386D01*
X135271100Y-66129386D02*
X135271100Y-70129386D01*
D15*
X139301100Y-55889386D02*
X141301100Y-55889386D01*
X147501100Y-69089386D02*
X148101100Y-69089386D01*
X143101100Y-55889386D02*
X146901100Y-55889386D01*
X132501100Y-57089386D02*
X132501100Y-56489386D01*
D13*
X133301100Y-57089386D02*
X133301100Y-56089386D01*
X138301100Y-58889386D02*
X138801100Y-59389386D01*
D15*
X133101100Y-69689386D02*
X133101100Y-69089386D01*
D13*
X138801100Y-54889386D02*
X141801100Y-54889386D01*
X141801100Y-54889386D02*
X142301100Y-55389386D01*
D15*
X141301100Y-54889386D02*
X141301100Y-55889386D01*
X147501100Y-57089386D02*
X148101100Y-57089386D01*
X143101100Y-55289386D02*
X143101100Y-55889386D01*
D13*
X133301100Y-70089386D02*
X133301100Y-69089386D01*
D15*
X141301100Y-55889386D02*
X143101100Y-55889386D01*
D13*
X138916100Y-70129386D02*
X143861100Y-70129386D01*
D15*
X133701100Y-55889386D02*
X137501100Y-55889386D01*
X137501100Y-55289386D02*
X137501100Y-55889386D01*
X139301100Y-54889386D02*
X139301100Y-55889386D01*
X147501100Y-69089386D02*
X147501100Y-69689386D01*
X146901100Y-70889386D02*
X143101100Y-70889386D01*
X146901100Y-70289386D02*
X143101100Y-70289386D01*
X143101100Y-70289386D02*
X143101100Y-70889386D01*
D13*
X147301100Y-69089386D02*
X147301100Y-70089386D01*
X147301100Y-56089386D02*
X147301100Y-57089386D01*
D15*
X133701100Y-55289386D02*
X137501100Y-55289386D01*
X133101100Y-69089386D02*
X132501100Y-69089386D01*
D13*
X142301100Y-56389386D02*
X142301100Y-55389386D01*
D15*
X133101100Y-57089386D02*
X132501100Y-57089386D01*
D13*
X142801100Y-61589386D02*
X147301100Y-61589386D01*
D15*
X137501100Y-55889386D02*
X139301100Y-55889386D01*
X137501100Y-70289386D02*
X133701100Y-70289386D01*
X141301100Y-70289386D02*
X139301100Y-70289386D01*
D13*
X147301100Y-70089386D02*
X146301100Y-70089386D01*
X138801100Y-59389386D02*
X141301100Y-59389386D01*
D15*
X147501100Y-56489386D02*
G75*
G03*
X146901100Y-55889386I-600000J0D01*
G01*
D13*
X142801100Y-60889386D02*
G75*
G03*
X141301100Y-59389386I-1500001J-1D01*
G01*
D15*
X148101100Y-56489386D02*
G75*
G03*
X146901100Y-55289386I-1200000J0D01*
G01*
X133701100Y-55889386D02*
G75*
G03*
X133101100Y-56489386I0J-600000D01*
G01*
X146901100Y-70889386D02*
G75*
G03*
X148101100Y-69689386I0J1200000D01*
G01*
D13*
X143861100Y-70129386D02*
G75*
G03*
X146401100Y-67589386I-1J2540001D01*
G01*
D15*
X133101100Y-69689386D02*
G75*
G03*
X133701100Y-70289386I600000J0D01*
G01*
X146901100Y-70289386D02*
G75*
G03*
X147501100Y-69689386I0J600000D01*
G01*
X132501100Y-69689386D02*
G75*
G03*
X133701100Y-70889386I1200000J0D01*
G01*
D13*
X140161099Y-66129385D02*
G75*
G03*
X142701100Y-63589386I2J2539999D01*
G01*
D15*
X133701100Y-55289386D02*
G75*
G03*
X132501100Y-56489386I0J-1200000D01*
G01*
D13*
X142301100Y-56389386D02*
G75*
G03*
X142801100Y-56889386I500001J1D01*
G01*
%TO.C,S17*%
X152952427Y-110077388D02*
X152996046Y-109078340D01*
D15*
X152720240Y-97054865D02*
X152746412Y-96455437D01*
X153319669Y-97081037D02*
X152720240Y-97054865D01*
D13*
X167514878Y-97500623D02*
X163019161Y-97304335D01*
D15*
X159566111Y-96152619D02*
X161564208Y-96239858D01*
D13*
X159978630Y-106420386D02*
X155093285Y-106207087D01*
D15*
X166504587Y-111469850D02*
X162708204Y-111304096D01*
D13*
X158575323Y-110362927D02*
X154918807Y-110203280D01*
X155093285Y-106207087D02*
X154918807Y-110203280D01*
X166149007Y-108151181D02*
X166255002Y-105723494D01*
D15*
X152170636Y-109642873D02*
X152196808Y-109043444D01*
X167732135Y-97109727D02*
X167705964Y-97709156D01*
X153997613Y-95308922D02*
X157793996Y-95474676D01*
D13*
X167488706Y-98100052D02*
X167514878Y-97500623D01*
D15*
X157113534Y-111059828D02*
X153317151Y-110894074D01*
D13*
X158436205Y-99106145D02*
X158913919Y-99627478D01*
X162844683Y-101300528D02*
X162814150Y-101999862D01*
D15*
X162734375Y-110704667D02*
X160936089Y-110626153D01*
X160936089Y-110626153D02*
X158937992Y-110538914D01*
D13*
X166323484Y-104154988D02*
X162627006Y-103993597D01*
X159110207Y-95131762D02*
X162107351Y-95262620D01*
D15*
X167182531Y-109697735D02*
X167781960Y-109723907D01*
D13*
X153519479Y-97089761D02*
X153563098Y-96090713D01*
X158588873Y-95609476D02*
X159110207Y-95131762D01*
D15*
X167705964Y-97709156D02*
X168305392Y-97735328D01*
D13*
X153951475Y-110121007D02*
X152952427Y-110077388D01*
D15*
X167182531Y-109697735D02*
X167156359Y-110297164D01*
X152770065Y-109669045D02*
X152796236Y-109069616D01*
X161607827Y-95240810D02*
X161564208Y-96239858D01*
X168331564Y-97135899D02*
X168305392Y-97735328D01*
D13*
X153563098Y-96090713D02*
X154562146Y-96134332D01*
D15*
X152796236Y-109069616D02*
X152196808Y-109043444D01*
X167781960Y-109723907D02*
X167755788Y-110323335D01*
X157793996Y-95474676D02*
X157767825Y-96074105D01*
D13*
X166252821Y-105773446D02*
X166323484Y-104154988D01*
X162107351Y-95262620D02*
X162585066Y-95783953D01*
D15*
X167705964Y-97709156D02*
X167182531Y-109697735D01*
D13*
X166939102Y-110688059D02*
X165940054Y-110644440D01*
D15*
X161564208Y-96239858D02*
X163362495Y-96318373D01*
D13*
X162814150Y-101999862D02*
X167309867Y-102196149D01*
D15*
X153319669Y-97081037D02*
X153345841Y-96481608D01*
D13*
X167309867Y-102196149D02*
X167331676Y-101696625D01*
X158913919Y-99627478D02*
X161411540Y-99736527D01*
X166550725Y-96657765D02*
X167549773Y-96701384D01*
D15*
X159609731Y-95153571D02*
X159566111Y-96152619D01*
X152796236Y-109069616D02*
X153319669Y-97081037D01*
X161607827Y-95240810D02*
X159609731Y-95153571D01*
X157139705Y-110460399D02*
X157113534Y-111059828D01*
X166530759Y-110870421D02*
X162734375Y-110704667D01*
X157139705Y-110460399D02*
X153343322Y-110294645D01*
D13*
X158560338Y-110362273D02*
X163500631Y-110577970D01*
D15*
X162734375Y-110704667D02*
X162708204Y-111304096D01*
X163362495Y-96318373D02*
X167158878Y-96484127D01*
X157767825Y-96074105D02*
X159566111Y-96152619D01*
D13*
X162541446Y-96783002D02*
X162585066Y-95783953D01*
D15*
X163388666Y-95718944D02*
X167185049Y-95884698D01*
D13*
X167549773Y-96701384D02*
X167506154Y-97700432D01*
D15*
X158937992Y-110538914D02*
X157139705Y-110460399D01*
X153971441Y-95908351D02*
X157767825Y-96074105D01*
X163388666Y-95718944D02*
X163362495Y-96318373D01*
D13*
X166982721Y-109689011D02*
X166939102Y-110688059D01*
D15*
X166530759Y-110870421D02*
G75*
G03*
X167156359Y-110297164I26171J599429D01*
G01*
X166504587Y-111469850D02*
G75*
G03*
X167755788Y-110323335I52343J1198858D01*
G01*
X153997613Y-95308922D02*
G75*
G03*
X152746412Y-96455437I-52343J-1198858D01*
G01*
X153971441Y-95908351D02*
G75*
G03*
X153345841Y-96481608I-26171J-599429D01*
G01*
X168331564Y-97135899D02*
G75*
G03*
X167185049Y-95884698I-1198858J52343D01*
G01*
X152170636Y-109642873D02*
G75*
G03*
X153317151Y-110894074I1198858J-52343D01*
G01*
D13*
X159978629Y-106420384D02*
G75*
G03*
X162627006Y-103993597I110796J2537581D01*
G01*
X162541446Y-96783002D02*
G75*
G03*
X163019161Y-97304335I499525J-21808D01*
G01*
X163500631Y-110577972D02*
G75*
G03*
X166149007Y-108151181I110792J2537585D01*
G01*
D15*
X167732135Y-97109727D02*
G75*
G03*
X167158878Y-96484127I-599429J26171D01*
G01*
X152770065Y-109669045D02*
G75*
G03*
X153343322Y-110294645I599429J-26171D01*
G01*
D13*
X162844683Y-101300528D02*
G75*
G03*
X161411540Y-99736527I-1498573J65428D01*
G01*
D15*
%TO.C,S5*%
X161169773Y-71849144D02*
X159177384Y-71674832D01*
X159177384Y-71674832D02*
X157384233Y-71517952D01*
X153053270Y-70536750D02*
X153105564Y-69939033D01*
X166748464Y-72337216D02*
X162962924Y-72006024D01*
D13*
X160021485Y-56289856D02*
X163010069Y-56551323D01*
X160396679Y-67605616D02*
X155525287Y-67179424D01*
D15*
X157384233Y-71517952D02*
X157331940Y-72115669D01*
D13*
X159479810Y-56744375D02*
X160021485Y-56289856D01*
D15*
X162424816Y-57503940D02*
X164217967Y-57660820D01*
X162511972Y-56507745D02*
X160519582Y-56333434D01*
X162962924Y-72006024D02*
X161169773Y-71849144D01*
X164270260Y-57063103D02*
X168055800Y-57394295D01*
X160519582Y-56333434D02*
X160432427Y-57329628D01*
D13*
X155525287Y-67179424D02*
X155176664Y-71164203D01*
X168262535Y-59620786D02*
X168314828Y-59023069D01*
X166834310Y-65619133D02*
X163148389Y-65296657D01*
D15*
X152455553Y-70484456D02*
X152507847Y-69886739D01*
X153105564Y-69939033D02*
X152507847Y-69886739D01*
D13*
X163377433Y-58089193D02*
X163464589Y-57092998D01*
D15*
X153105564Y-69939033D02*
X154151433Y-57984696D01*
D13*
X159629284Y-60772732D02*
X162119771Y-60990621D01*
D15*
X164270260Y-57063103D02*
X164217967Y-57660820D01*
X166696170Y-72934933D02*
X162910630Y-72603741D01*
D13*
X163010069Y-56551323D02*
X163464589Y-57092998D01*
D15*
X158691570Y-56575031D02*
X158639276Y-57172748D01*
D13*
X158807794Y-71481886D02*
X163733977Y-71912871D01*
D15*
X162962924Y-72006024D02*
X162910630Y-72603741D01*
D13*
X154350672Y-58002128D02*
X154437827Y-57005933D01*
D15*
X168048484Y-71246369D02*
X167996191Y-71844086D01*
X164217967Y-57660820D02*
X168003506Y-57992012D01*
X154853736Y-56841556D02*
X158639276Y-57172748D01*
D13*
X168314828Y-59023069D02*
X163831952Y-58630868D01*
X158822737Y-71483193D02*
X155176664Y-71164203D01*
X167251528Y-71176644D02*
X167164373Y-72172839D01*
X163422320Y-63312983D02*
X167905197Y-63705184D01*
X154213842Y-71039814D02*
X153217647Y-70952659D01*
X163483329Y-62615647D02*
X163422320Y-63312983D01*
X167905197Y-63705184D02*
X167948774Y-63207087D01*
X153217647Y-70952659D02*
X153304803Y-69956464D01*
X166693117Y-67232969D02*
X166834310Y-65619133D01*
D15*
X154906030Y-56243839D02*
X158691570Y-56575031D01*
D13*
X159174765Y-60231057D02*
X159629284Y-60772732D01*
X166485687Y-69603912D02*
X166697475Y-67183159D01*
X168384553Y-58226113D02*
X168297397Y-59222308D01*
D15*
X168548930Y-58642022D02*
X168496636Y-59239739D01*
D13*
X167164373Y-72172839D02*
X166168178Y-72085683D01*
D15*
X154151433Y-57984696D02*
X154203726Y-57386980D01*
X157384233Y-71517952D02*
X153598694Y-71186760D01*
X167450767Y-71194076D02*
X168048484Y-71246369D01*
X168496636Y-59239739D02*
X169094353Y-59292033D01*
X168496636Y-59239739D02*
X167450767Y-71194076D01*
X169146647Y-58694316D02*
X169094353Y-59292033D01*
X153553716Y-57932403D02*
X153606009Y-57334686D01*
X167450767Y-71194076D02*
X167398474Y-71791792D01*
X162511972Y-56507745D02*
X162424816Y-57503940D01*
X158639276Y-57172748D02*
X160432427Y-57329628D01*
X154151433Y-57984696D02*
X153553716Y-57932403D01*
D13*
X167388358Y-58138958D02*
X168384553Y-58226113D01*
X154437827Y-57005933D02*
X155434022Y-57093089D01*
D15*
X160432427Y-57329628D02*
X162424816Y-57503940D01*
X157331940Y-72115669D02*
X153546400Y-71784477D01*
X166748464Y-72337216D02*
G75*
G03*
X167398474Y-71791792I52293J597717D01*
G01*
D13*
X163733977Y-71912872D02*
G75*
G03*
X166485687Y-69603912I221374J2530336D01*
G01*
D15*
X153053270Y-70536750D02*
G75*
G03*
X153598694Y-71186760I597717J-52293D01*
G01*
D13*
X163377433Y-58089193D02*
G75*
G03*
X163831952Y-58630868I498098J-43577D01*
G01*
D15*
X154906030Y-56243839D02*
G75*
G03*
X153606009Y-57334686I-104587J-1195434D01*
G01*
X154853736Y-56841556D02*
G75*
G03*
X154203726Y-57386980I-52293J-597717D01*
G01*
X152455553Y-70484456D02*
G75*
G03*
X153546400Y-71784477I1195434J-104587D01*
G01*
X166696170Y-72934933D02*
G75*
G03*
X167996191Y-71844086I104587J1195434D01*
G01*
D13*
X160396678Y-67605614D02*
G75*
G03*
X163148389Y-65296657I221378J2530332D01*
G01*
D15*
X168548930Y-58642022D02*
G75*
G03*
X168003506Y-57992012I-597717J52293D01*
G01*
D13*
X163483329Y-62615647D02*
G75*
G03*
X162119771Y-60990621I-1494293J130733D01*
G01*
D15*
X169146647Y-58694316D02*
G75*
G03*
X168055800Y-57394295I-1195434J104587D01*
G01*
D16*
%TO.C,D16*%
X129905800Y-102193600D02*
X133755800Y-102193600D01*
X129905800Y-102193600D02*
X129905800Y-100193600D01*
X129905800Y-100193600D02*
X133755800Y-100193600D01*
%TO.C,D15*%
X110982800Y-103285800D02*
X114832800Y-103285800D01*
X110982800Y-101285800D02*
X114832800Y-101285800D01*
X110982800Y-103285800D02*
X110982800Y-101285800D01*
D13*
%TO.C,S20*%
X132191908Y-121211269D02*
X133176716Y-121037621D01*
X137602162Y-123100490D02*
X138181390Y-123506070D01*
D15*
X148051098Y-132833924D02*
X144308829Y-133493787D01*
D13*
X140174397Y-134060331D02*
X136570000Y-134695883D01*
D15*
X134356562Y-134639384D02*
X134252373Y-134048499D01*
D13*
X142502647Y-124978054D02*
X146934282Y-124196637D01*
D15*
X141704106Y-118721671D02*
X141808295Y-119312555D01*
D13*
X145979217Y-118780194D02*
X146152865Y-119765002D01*
X146222324Y-120158925D02*
X146118136Y-119568041D01*
X146676561Y-127917925D02*
X146395251Y-126322536D01*
D15*
X141704106Y-118721671D02*
X145446375Y-118061808D01*
D13*
X148236643Y-131582695D02*
X148410292Y-132567503D01*
X140354397Y-118553490D02*
X140933625Y-118959070D01*
D15*
X139861993Y-118640314D02*
X137892377Y-118987611D01*
D13*
X144994409Y-118953843D02*
X145979217Y-118780194D01*
D15*
X148155287Y-133424809D02*
X144413017Y-134084672D01*
X139861993Y-118640314D02*
X140035641Y-119625122D01*
X146349827Y-119730273D02*
X148433605Y-131547966D01*
X134252373Y-134048499D02*
X133661489Y-134152688D01*
X138898094Y-135057101D02*
X135155825Y-135716964D01*
X146349827Y-119730273D02*
X146940711Y-119626084D01*
X144308829Y-133493787D02*
X142536175Y-133806354D01*
X138066025Y-119972418D02*
X140035641Y-119625122D01*
D13*
X142381093Y-124288688D02*
X142502647Y-124978054D01*
D15*
X146245638Y-119139388D02*
X146349827Y-119730273D01*
D13*
X146395251Y-126322536D02*
X142751463Y-126965034D01*
D15*
X136189183Y-119694100D02*
X136293371Y-120284985D01*
D13*
X141107273Y-119943878D02*
X140933625Y-118959070D01*
D15*
X134252373Y-134048499D02*
X132168595Y-122230806D01*
D13*
X147089844Y-130261767D02*
X146667879Y-127868684D01*
X146934282Y-124196637D02*
X146847458Y-123704233D01*
D15*
X138793905Y-134466217D02*
X135051636Y-135126080D01*
X133765677Y-134743573D02*
X133661489Y-134152688D01*
X138793905Y-134466217D02*
X138898094Y-135057101D01*
X142536175Y-133806354D02*
X140566559Y-134153650D01*
D13*
X148410292Y-132567503D02*
X147425484Y-132741151D01*
D15*
X132446913Y-120353963D02*
X136189183Y-119694100D01*
X146836523Y-119035199D02*
X146940711Y-119626084D01*
X140035641Y-119625122D02*
X141808295Y-119312555D01*
D13*
X135607791Y-134824929D02*
X134622983Y-134998578D01*
D15*
X132551102Y-120944848D02*
X136293371Y-120284985D01*
D13*
X140159624Y-134062935D02*
X145029499Y-133204245D01*
X146118136Y-119568041D02*
X141686501Y-120349457D01*
X132365557Y-122196077D02*
X132191908Y-121211269D01*
D15*
X132168595Y-122230806D02*
X132064406Y-121639922D01*
D13*
X136994394Y-119653663D02*
X137399973Y-119074435D01*
D15*
X148433605Y-131547966D02*
X149024490Y-131443777D01*
X140566559Y-134153650D02*
X138793905Y-134466217D01*
X144308829Y-133493787D02*
X144413017Y-134084672D01*
X137892377Y-118987611D02*
X138066025Y-119972418D01*
X136293371Y-120284985D02*
X138066025Y-119972418D01*
D13*
X135875407Y-130756652D02*
X136570000Y-134695883D01*
D15*
X131577710Y-122334995D02*
X131473522Y-121744111D01*
X149024490Y-131443777D02*
X149128678Y-132034661D01*
D13*
X137399973Y-119074435D02*
X140354397Y-118553490D01*
X134622983Y-134998578D02*
X134449335Y-134013770D01*
D15*
X148433605Y-131547966D02*
X148537794Y-132138850D01*
D13*
X140691117Y-129907512D02*
X135875407Y-130756652D01*
D15*
X141808295Y-119312555D02*
X145550564Y-118652692D01*
D13*
X138181390Y-123506070D02*
X140643409Y-123071949D01*
D15*
X132168595Y-122230806D02*
X131577710Y-122334995D01*
X148155287Y-133424808D02*
G75*
G03*
X149128678Y-132034661I-208378J1181769D01*
G01*
X148051098Y-132833924D02*
G75*
G03*
X148537794Y-132138850I-104189J590885D01*
G01*
D13*
X140691116Y-129907511D02*
G75*
G03*
X142751463Y-126965034I-441064J2501411D01*
G01*
D15*
X146245638Y-119139388D02*
G75*
G03*
X145550564Y-118652692I-590885J-104189D01*
G01*
X146836522Y-119035199D02*
G75*
G03*
X145446375Y-118061808I-1181769J-208378D01*
G01*
X133765678Y-134743573D02*
G75*
G03*
X135155825Y-135716964I1181769J208378D01*
G01*
X134356562Y-134639384D02*
G75*
G03*
X135051636Y-135126080I590885J104189D01*
G01*
D13*
X141107272Y-119943878D02*
G75*
G03*
X141686501Y-120349457I492405J86826D01*
G01*
D15*
X132446913Y-120353964D02*
G75*
G03*
X131473522Y-121744111I208378J-1181769D01*
G01*
D13*
X142381093Y-124288688D02*
G75*
G03*
X140643409Y-123071949I-1477212J-260474D01*
G01*
X145029499Y-133204245D02*
G75*
G03*
X147089844Y-130261767I-441068J2501412D01*
G01*
D15*
X132551102Y-120944848D02*
G75*
G03*
X132064406Y-121639922I104189J-590885D01*
G01*
D16*
%TO.C,D11*%
X148568823Y-80674084D02*
X152404172Y-81009633D01*
X148394511Y-82666473D02*
X148568823Y-80674084D01*
X148394511Y-82666473D02*
X152229861Y-83002023D01*
D13*
%TO.C,S13*%
X86551399Y-105248501D02*
X86530459Y-104648866D01*
X80964010Y-102842032D02*
X81481156Y-103324278D01*
X85503148Y-103884253D02*
X86502539Y-103849354D01*
X79717280Y-114132420D02*
X74830259Y-114303079D01*
X86502539Y-103849354D02*
X86537439Y-104848745D01*
D15*
X86737317Y-104841765D02*
X87336951Y-104820825D01*
X87156111Y-116834455D02*
X87177051Y-117434089D01*
D13*
X72511068Y-104337947D02*
X73510459Y-104303047D01*
D15*
X72346089Y-105344317D02*
X72325149Y-104744683D01*
X72346089Y-105344317D02*
X71746455Y-105365257D01*
X76680590Y-103391856D02*
X76701529Y-103991491D01*
X82298118Y-103796053D02*
X86095803Y-103663435D01*
D13*
X86991132Y-117840825D02*
X85991741Y-117875725D01*
D15*
X71746455Y-105365257D02*
X71725515Y-104765623D01*
X87156111Y-116834455D02*
X87755745Y-116813515D01*
X78465533Y-102929281D02*
X78500433Y-103928672D01*
D13*
X72545967Y-105337338D02*
X72511068Y-104337947D01*
D15*
X80464315Y-102859482D02*
X80499214Y-103858873D01*
X82800671Y-118187281D02*
X81001767Y-118250100D01*
X72764883Y-117337007D02*
X72165249Y-117357947D01*
X80499214Y-103858873D02*
X82298118Y-103796053D01*
X80464315Y-102859482D02*
X78465533Y-102929281D01*
D13*
X74830259Y-114303079D02*
X74969857Y-118300642D01*
X78122886Y-107443989D02*
X80621363Y-107356740D01*
D15*
X82277178Y-103196419D02*
X82298118Y-103796053D01*
X86737317Y-104841765D02*
X87156111Y-116834455D01*
X77204082Y-118382719D02*
X73406397Y-118515337D01*
X87316012Y-104221190D02*
X87336951Y-104820825D01*
D13*
X72999661Y-118329418D02*
X72964761Y-117330027D01*
X85921371Y-112995208D02*
X85864834Y-111376194D01*
X86956233Y-116841434D02*
X86991132Y-117840825D01*
D15*
X86619296Y-118654298D02*
X82821610Y-118786916D01*
X72903844Y-104124109D02*
X76701529Y-103991491D01*
X86598356Y-118054663D02*
X82800671Y-118187281D01*
X76701529Y-103991491D02*
X78500433Y-103928672D01*
X79002986Y-118319899D02*
X77204082Y-118382719D01*
D13*
X77965838Y-102946730D02*
X80964010Y-102842032D01*
X78627627Y-118172910D02*
X74969857Y-118300642D01*
D15*
X77225022Y-118982353D02*
X73427337Y-119114971D01*
X72186188Y-117957582D02*
X72165249Y-117357947D01*
X72764883Y-117337007D02*
X72346089Y-105344317D01*
X77204082Y-118382719D02*
X77225022Y-118982353D01*
D13*
X82197228Y-109503051D02*
X86694487Y-109346003D01*
X86694487Y-109346003D02*
X86677037Y-108846308D01*
X82172798Y-108803477D02*
X82197228Y-109503051D01*
X73999052Y-118294519D02*
X72999661Y-118329418D01*
D15*
X86716377Y-104242130D02*
X86737317Y-104841765D01*
X72882904Y-103524474D02*
X76680590Y-103391856D01*
X72785823Y-117936642D02*
X72764883Y-117337007D01*
D13*
X77483592Y-103463876D02*
X77965838Y-102946730D01*
D15*
X81001767Y-118250100D02*
X79002986Y-118319899D01*
X82277178Y-103196419D02*
X86074863Y-103063801D01*
X78500433Y-103928672D02*
X80499214Y-103858873D01*
D13*
X86530459Y-104648866D02*
X82033200Y-104805914D01*
X77605740Y-106961744D02*
X78122886Y-107443989D01*
D15*
X82800671Y-118187281D02*
X82821610Y-118786916D01*
D13*
X78612636Y-118173433D02*
X83554624Y-118000855D01*
D15*
X87755745Y-116813515D02*
X87776685Y-117413149D01*
D13*
X81516055Y-104323668D02*
X81481156Y-103324278D01*
X85864834Y-111376194D02*
X82167088Y-111505323D01*
X86004432Y-115373758D02*
X85919626Y-112945238D01*
D15*
X72882904Y-103524474D02*
G75*
G03*
X71725515Y-104765623I41880J-1199269D01*
G01*
X86716378Y-104242130D02*
G75*
G03*
X86095803Y-103663435I-599635J-20940D01*
G01*
X72785822Y-117936642D02*
G75*
G03*
X73406397Y-118515337I599635J20940D01*
G01*
X72903844Y-104124108D02*
G75*
G03*
X72325149Y-104744683I20940J-599635D01*
G01*
X72186188Y-117957582D02*
G75*
G03*
X73427337Y-119114971I1199269J41880D01*
G01*
D13*
X81516055Y-104323668D02*
G75*
G03*
X82033200Y-104805914I499696J17450D01*
G01*
X83554624Y-118000856D02*
G75*
G03*
X86004432Y-115373758I-88646J2538454D01*
G01*
X82172799Y-108803477D02*
G75*
G03*
X80621363Y-107356740I-1499088J-52351D01*
G01*
X79717279Y-114132419D02*
G75*
G03*
X82167088Y-111505323I-88643J2538452D01*
G01*
D15*
X86619296Y-118654298D02*
G75*
G03*
X87776685Y-117413149I-41880J1199269D01*
G01*
X86598356Y-118054664D02*
G75*
G03*
X87177051Y-117434089I-20940J599635D01*
G01*
X87316012Y-104221190D02*
G75*
G03*
X86074863Y-103063801I-1199269J-41880D01*
G01*
%TO.C,S16*%
X144301100Y-108489386D02*
X142501100Y-108489386D01*
X148701100Y-94689386D02*
X148701100Y-95289386D01*
X148101100Y-109089386D02*
X144301100Y-109089386D01*
D13*
X148501100Y-108289386D02*
X147501100Y-108289386D01*
D15*
X142501100Y-93089386D02*
X142501100Y-94089386D01*
X148701100Y-95289386D02*
X148701100Y-107289386D01*
X144301100Y-93489386D02*
X148101100Y-93489386D01*
D13*
X148501100Y-99789386D02*
X148501100Y-99289386D01*
D15*
X133701100Y-95289386D02*
X133701100Y-94689386D01*
X148701100Y-107289386D02*
X148701100Y-107889386D01*
D13*
X143001100Y-93089386D02*
X143501100Y-93589386D01*
D15*
X144301100Y-93489386D02*
X144301100Y-94089386D01*
X148701100Y-95289386D02*
X149301100Y-95289386D01*
D13*
X143501100Y-94589386D02*
X143501100Y-93589386D01*
D15*
X142501100Y-93089386D02*
X140501100Y-93089386D01*
D13*
X148501100Y-107289386D02*
X148501100Y-108289386D01*
D15*
X134901100Y-94089386D02*
X138701100Y-94089386D01*
X149301100Y-107289386D02*
X149301100Y-107889386D01*
D13*
X147601100Y-101789386D02*
X143901100Y-101789386D01*
X134501100Y-95289386D02*
X134501100Y-94289386D01*
D15*
X149301100Y-94689386D02*
X149301100Y-95289386D01*
X134301100Y-95289386D02*
X134301100Y-94689386D01*
D13*
X136471100Y-104329386D02*
X136471100Y-108329386D01*
X147501100Y-94289386D02*
X148501100Y-94289386D01*
X148501100Y-94289386D02*
X148501100Y-95289386D01*
X134501100Y-94289386D02*
X135501100Y-94289386D01*
D15*
X140501100Y-93089386D02*
X140501100Y-94089386D01*
D13*
X148501100Y-95689386D02*
X148501100Y-95089386D01*
D15*
X138701100Y-109089386D02*
X134901100Y-109089386D01*
D13*
X147601100Y-103409386D02*
X147601100Y-101789386D01*
D15*
X138701100Y-108489386D02*
X134901100Y-108489386D01*
X140501100Y-94089386D02*
X142501100Y-94089386D01*
D13*
X144001100Y-99089386D02*
X144001100Y-99789386D01*
X139501100Y-93589386D02*
X140001100Y-93089386D01*
X140001100Y-97589386D02*
X142501100Y-97589386D01*
X140001100Y-93089386D02*
X143001100Y-93089386D01*
D15*
X134301100Y-107289386D02*
X133701100Y-107289386D01*
X148101100Y-108489386D02*
X144301100Y-108489386D01*
X148701100Y-107289386D02*
X149301100Y-107289386D01*
D13*
X140131100Y-108329386D02*
X136471100Y-108329386D01*
X140116100Y-108329386D02*
X145061100Y-108329386D01*
D15*
X134301100Y-95289386D02*
X133701100Y-95289386D01*
X138701100Y-108489386D02*
X138701100Y-109089386D01*
X142501100Y-94089386D02*
X144301100Y-94089386D01*
X138701100Y-94089386D02*
X140501100Y-94089386D01*
X144301100Y-108489386D02*
X144301100Y-109089386D01*
X142501100Y-108489386D02*
X140501100Y-108489386D01*
X134901100Y-93489386D02*
X138701100Y-93489386D01*
D13*
X148501100Y-95089386D02*
X144001100Y-95089386D01*
D15*
X134301100Y-107889386D02*
X134301100Y-107289386D01*
X144301100Y-94089386D02*
X148101100Y-94089386D01*
D13*
X144001100Y-99789386D02*
X148501100Y-99789386D01*
X134501100Y-108289386D02*
X134501100Y-107289386D01*
D15*
X138701100Y-93489386D02*
X138701100Y-94089386D01*
X133701100Y-107889386D02*
X133701100Y-107289386D01*
D13*
X141361100Y-104329386D02*
X136471100Y-104329386D01*
D15*
X134301100Y-107289386D02*
X134301100Y-95289386D01*
D13*
X135501100Y-108289386D02*
X134501100Y-108289386D01*
X139501100Y-97089386D02*
X140001100Y-97589386D01*
X147601100Y-105789386D02*
X147601100Y-103359386D01*
D15*
X140501100Y-108489386D02*
X138701100Y-108489386D01*
D13*
X143501100Y-94589386D02*
G75*
G03*
X144001100Y-95089386I500001J1D01*
G01*
D15*
X133701100Y-107889386D02*
G75*
G03*
X134901100Y-109089386I1200000J0D01*
G01*
D13*
X141361099Y-104329385D02*
G75*
G03*
X143901100Y-101789386I2J2539999D01*
G01*
X145061100Y-108329386D02*
G75*
G03*
X147601100Y-105789386I-1J2540001D01*
G01*
X144001100Y-99089386D02*
G75*
G03*
X142501100Y-97589386I-1500001J-1D01*
G01*
D15*
X149301100Y-94689386D02*
G75*
G03*
X148101100Y-93489386I-1200000J0D01*
G01*
X148101100Y-108489386D02*
G75*
G03*
X148701100Y-107889386I0J600000D01*
G01*
X148701100Y-94689386D02*
G75*
G03*
X148101100Y-94089386I-600000J0D01*
G01*
X134901100Y-94089386D02*
G75*
G03*
X134301100Y-94689386I0J-600000D01*
G01*
X148101100Y-109089386D02*
G75*
G03*
X149301100Y-107889386I0J1200000D01*
G01*
X134901100Y-93489386D02*
G75*
G03*
X133701100Y-94689386I0J-1200000D01*
G01*
X134301100Y-107889386D02*
G75*
G03*
X134901100Y-108489386I600000J0D01*
G01*
D16*
%TO.C,D19*%
X195895000Y-108543600D02*
X199745000Y-108543600D01*
X195895000Y-108543600D02*
X195895000Y-106543600D01*
X195895000Y-106543600D02*
X199745000Y-106543600D01*
%TO.C,D6*%
X168150413Y-66113764D02*
X171985763Y-66449314D01*
X168150413Y-66113764D02*
X168324725Y-64121375D01*
X168324725Y-64121375D02*
X172160074Y-64456924D01*
%TO.C,D24*%
X190282893Y-122435525D02*
X191282893Y-120703475D01*
X190282893Y-122435525D02*
X193617091Y-124360525D01*
X191282893Y-120703475D02*
X194617091Y-122628475D01*
%TO.C,ENC1*%
X197691821Y-125083851D02*
X198875152Y-122546189D01*
X210935152Y-128390536D02*
X209836345Y-130746936D01*
X201960265Y-115930142D02*
X203016811Y-113664373D01*
X203016811Y-113664373D02*
X207367088Y-115692941D01*
X202132729Y-127154681D02*
X197691821Y-125083851D01*
X209836345Y-130746936D02*
X205395437Y-128676106D01*
X206637887Y-121752501D02*
X206215269Y-122658808D01*
X210720427Y-117256628D02*
X215161335Y-119327458D01*
X215161335Y-119327458D02*
X213048244Y-123858997D01*
X213048244Y-123858997D02*
X210935152Y-128390536D01*
X205973424Y-121994345D02*
X206789101Y-122374702D01*
X209396427Y-122205654D02*
G75*
G03*
X209396427Y-122205654I-2969849J0D01*
G01*
D15*
%TO.C,S15*%
X115197482Y-96715957D02*
X114597574Y-96726429D01*
X125426331Y-109739423D02*
X123626605Y-109770837D01*
D13*
X124962324Y-100346090D02*
X124974541Y-101045983D01*
X117524921Y-105716709D02*
X117594731Y-109716099D01*
D15*
X123357838Y-94373182D02*
X123375290Y-95373030D01*
X115406911Y-108714129D02*
X115197482Y-96715957D01*
X129595289Y-96464643D02*
X130195198Y-96454171D01*
X123375290Y-95373030D02*
X125175016Y-95341616D01*
D13*
X124383864Y-95855502D02*
X124366412Y-94855654D01*
X120858219Y-94416814D02*
X123857762Y-94364456D01*
D15*
X130404626Y-108452343D02*
X130415098Y-109052252D01*
X115776448Y-95505668D02*
X119575869Y-95439349D01*
D13*
X115397452Y-96712467D02*
X115379999Y-95712619D01*
D15*
X114597574Y-96726429D02*
X114587102Y-96126520D01*
X119565398Y-94839441D02*
X119575869Y-95439349D01*
X115765976Y-94905760D02*
X119565398Y-94839441D01*
X123626605Y-109770837D02*
X121626910Y-109805742D01*
X119575869Y-95439349D02*
X121375595Y-95407935D01*
D13*
X122414177Y-105631366D02*
X117524921Y-105716709D01*
X120428105Y-98424930D02*
X120936755Y-98916128D01*
X129391829Y-96268163D02*
X124892514Y-96346699D01*
X128637170Y-104602603D02*
X128608897Y-102982850D01*
D15*
X115197482Y-96715957D02*
X115187011Y-96116049D01*
D13*
X121254174Y-109652224D02*
X117594731Y-109716099D01*
D15*
X129595289Y-96464643D02*
X129804718Y-108462815D01*
D13*
X121239176Y-109652485D02*
X126183423Y-109566183D01*
D15*
X121358143Y-94408087D02*
X121375595Y-95407935D01*
X114817474Y-109324510D02*
X114807002Y-108724601D01*
D13*
X120936755Y-98916128D02*
X123436374Y-98872497D01*
X129473855Y-100967448D02*
X129465129Y-100467524D01*
D15*
X129225752Y-109673104D02*
X125426331Y-109739423D01*
D13*
X124974541Y-101045983D02*
X129473855Y-100967448D01*
D15*
X129236224Y-110273012D02*
X125436802Y-110339331D01*
X115406911Y-108714129D02*
X114807002Y-108724601D01*
X123357838Y-94373182D02*
X121358143Y-94408087D01*
X115417382Y-109314038D02*
X115406911Y-108714129D01*
D13*
X115379999Y-95712619D02*
X116379847Y-95695167D01*
D15*
X125164545Y-94741707D02*
X125175016Y-95341616D01*
D13*
X115624333Y-109710487D02*
X115606881Y-108710639D01*
D15*
X121375595Y-95407935D02*
X123375290Y-95373030D01*
D13*
X123857762Y-94364456D02*
X124366412Y-94855654D01*
D15*
X125164545Y-94741707D02*
X128963966Y-94675388D01*
X125426331Y-109739423D02*
X125436802Y-110339331D01*
D13*
X129402300Y-96868072D02*
X129391829Y-96268163D01*
D15*
X129584818Y-95864734D02*
X129595289Y-96464643D01*
D13*
X129377867Y-95468285D02*
X129395319Y-96468133D01*
X120367021Y-94925464D02*
X120858219Y-94416814D01*
X129622201Y-109466153D02*
X128622353Y-109483605D01*
D15*
X129804718Y-108462815D02*
X130404626Y-108452343D01*
X119837655Y-110437065D02*
X116038234Y-110503384D01*
D13*
X128678707Y-106982241D02*
X128636297Y-104552611D01*
X116624181Y-109693034D02*
X115624333Y-109710487D01*
D15*
X130184726Y-95854262D02*
X130195198Y-96454171D01*
X129804718Y-108462815D02*
X129815189Y-109062723D01*
D13*
X128378019Y-95485738D02*
X129377867Y-95468285D01*
X129604748Y-108466305D02*
X129622201Y-109466153D01*
D15*
X119827184Y-109837156D02*
X119837655Y-110437065D01*
X121626910Y-109805742D02*
X119827184Y-109837156D01*
X119827184Y-109837156D02*
X116027763Y-109903475D01*
D13*
X128608897Y-102982850D02*
X124909461Y-103047424D01*
D15*
X125175016Y-95341616D02*
X128974437Y-95275297D01*
D13*
X126183423Y-109566183D02*
G75*
G03*
X128678707Y-106982241I-44330J2539614D01*
G01*
D15*
X115765976Y-94905760D02*
G75*
G03*
X114587102Y-96126520I20943J-1199817D01*
G01*
X129225752Y-109673103D02*
G75*
G03*
X129815189Y-109062723I-10471J599908D01*
G01*
X130184726Y-95854262D02*
G75*
G03*
X128963966Y-94675388I-1199817J-20943D01*
G01*
X115776448Y-95505669D02*
G75*
G03*
X115187011Y-96116049I10471J-599908D01*
G01*
D13*
X122414176Y-105631365D02*
G75*
G03*
X124909461Y-103047424I-44327J2539612D01*
G01*
D15*
X115417383Y-109314038D02*
G75*
G03*
X116027763Y-109903475I599908J10471D01*
G01*
D13*
X124962324Y-100346090D02*
G75*
G03*
X123436374Y-98872497I-1499773J-26180D01*
G01*
D15*
X129236224Y-110273012D02*
G75*
G03*
X130415098Y-109052252I-20943J1199817D01*
G01*
D13*
X124383864Y-95855502D02*
G75*
G03*
X124892514Y-96346699I499925J8728D01*
G01*
D15*
X129584817Y-95864734D02*
G75*
G03*
X128974437Y-95275297I-599908J-10471D01*
G01*
X114817474Y-109324510D02*
G75*
G03*
X116038234Y-110503384I1199817J20943D01*
G01*
D16*
%TO.C,D7*%
X91982800Y-93456800D02*
X91982800Y-97306800D01*
X89982800Y-93456800D02*
X89982800Y-97306800D01*
X89982800Y-93456800D02*
X91982800Y-93456800D01*
D13*
%TO.C,S14*%
X101715838Y-101446730D02*
X104714010Y-101342032D01*
D15*
X100451529Y-102491491D02*
X102250433Y-102428672D01*
X110906111Y-115334455D02*
X110927051Y-115934089D01*
D13*
X96295967Y-103837338D02*
X96261068Y-102837947D01*
X109754432Y-113873758D02*
X109669626Y-111445238D01*
D15*
X100954082Y-116882719D02*
X100975022Y-117482353D01*
X95496455Y-103865257D02*
X95475515Y-103265623D01*
D13*
X110252539Y-102349354D02*
X110287439Y-103348745D01*
D15*
X96096089Y-103844317D02*
X96075149Y-103244683D01*
X96514883Y-115837007D02*
X96096089Y-103844317D01*
D13*
X110741132Y-116340825D02*
X109741741Y-116375725D01*
X109614834Y-109876194D02*
X105917088Y-110005323D01*
D15*
X110466377Y-102742130D02*
X110487317Y-103341765D01*
X96514883Y-115837007D02*
X95915249Y-115857947D01*
X102752986Y-116819899D02*
X100954082Y-116882719D01*
D13*
X105922798Y-107303477D02*
X105947228Y-108003051D01*
D15*
X96653844Y-102624109D02*
X100451529Y-102491491D01*
X100430590Y-101891856D02*
X100451529Y-102491491D01*
X104751767Y-116750100D02*
X102752986Y-116819899D01*
D13*
X96749661Y-116829418D02*
X96714761Y-115830027D01*
X102362636Y-116673433D02*
X107304624Y-116500855D01*
X101233592Y-101963876D02*
X101715838Y-101446730D01*
D15*
X95936188Y-116457582D02*
X95915249Y-115857947D01*
X110369296Y-117154298D02*
X106571610Y-117286916D01*
X100975022Y-117482353D02*
X97177337Y-117614971D01*
X106550671Y-116687281D02*
X104751767Y-116750100D01*
D13*
X109253148Y-102384253D02*
X110252539Y-102349354D01*
X109671371Y-111495208D02*
X109614834Y-109876194D01*
D15*
X106027178Y-101696419D02*
X106048118Y-102296053D01*
X102250433Y-102428672D02*
X104249214Y-102358873D01*
D13*
X103467280Y-112632420D02*
X98580259Y-112803079D01*
D15*
X111066012Y-102721190D02*
X111086951Y-103320825D01*
X106550671Y-116687281D02*
X106571610Y-117286916D01*
X106048118Y-102296053D02*
X109845803Y-102163435D01*
X102215533Y-101429281D02*
X102250433Y-102428672D01*
X96096089Y-103844317D02*
X95496455Y-103865257D01*
X96535823Y-116436642D02*
X96514883Y-115837007D01*
X110906111Y-115334455D02*
X111505745Y-115313515D01*
D13*
X105947228Y-108003051D02*
X110444487Y-107846003D01*
X97749052Y-116794519D02*
X96749661Y-116829418D01*
X110301399Y-103748501D02*
X110280459Y-103148866D01*
X102377627Y-116672910D02*
X98719857Y-116800642D01*
D15*
X110348356Y-116554663D02*
X106550671Y-116687281D01*
X104249214Y-102358873D02*
X106048118Y-102296053D01*
D13*
X96261068Y-102837947D02*
X97260459Y-102803047D01*
D15*
X106027178Y-101696419D02*
X109824863Y-101563801D01*
X104214315Y-101359482D02*
X102215533Y-101429281D01*
D13*
X110280459Y-103148866D02*
X105783200Y-103305914D01*
X110706233Y-115341434D02*
X110741132Y-116340825D01*
X98580259Y-112803079D02*
X98719857Y-116800642D01*
D15*
X104214315Y-101359482D02*
X104249214Y-102358873D01*
X111505745Y-115313515D02*
X111526685Y-115913149D01*
X110487317Y-103341765D02*
X111086951Y-103320825D01*
D13*
X105266055Y-102823668D02*
X105231156Y-101824278D01*
X104714010Y-101342032D02*
X105231156Y-101824278D01*
X110444487Y-107846003D02*
X110427037Y-107346308D01*
D15*
X110487317Y-103341765D02*
X110906111Y-115334455D01*
X96632904Y-102024474D02*
X100430590Y-101891856D01*
D13*
X101355740Y-105461744D02*
X101872886Y-105943989D01*
X101872886Y-105943989D02*
X104371363Y-105856740D01*
D15*
X100954082Y-116882719D02*
X97156397Y-117015337D01*
X110369296Y-117154298D02*
G75*
G03*
X111526685Y-115913149I-41880J1199269D01*
G01*
X96653844Y-102624108D02*
G75*
G03*
X96075149Y-103244683I20940J-599635D01*
G01*
D13*
X105922799Y-107303477D02*
G75*
G03*
X104371363Y-105856740I-1499088J-52351D01*
G01*
X105266055Y-102823668D02*
G75*
G03*
X105783200Y-103305914I499696J17450D01*
G01*
D15*
X111066012Y-102721190D02*
G75*
G03*
X109824863Y-101563801I-1199269J-41880D01*
G01*
D13*
X103467279Y-112632419D02*
G75*
G03*
X105917088Y-110005323I-88643J2538452D01*
G01*
D15*
X96535822Y-116436642D02*
G75*
G03*
X97156397Y-117015337I599635J20940D01*
G01*
X110466378Y-102742130D02*
G75*
G03*
X109845803Y-102163435I-599635J-20940D01*
G01*
X96632904Y-102024474D02*
G75*
G03*
X95475515Y-103265623I41880J-1199269D01*
G01*
X110348356Y-116554664D02*
G75*
G03*
X110927051Y-115934089I-20940J599635D01*
G01*
D13*
X107304624Y-116500856D02*
G75*
G03*
X109754432Y-113873758I-88646J2538454D01*
G01*
D15*
X95936188Y-116457582D02*
G75*
G03*
X97177337Y-117614971I1199269J41880D01*
G01*
D16*
%TO.C,SW1*%
X210800000Y-59200000D02*
X211950000Y-59200000D01*
X215200000Y-67800000D02*
X214050000Y-67800000D01*
X211950000Y-67800000D02*
X210800000Y-67800000D01*
X210800000Y-67800000D02*
X210800000Y-59200000D01*
X214050000Y-59200000D02*
X215200000Y-59200000D01*
X215200000Y-59200000D02*
X215200000Y-67800000D01*
%TO.C,D20*%
X105211023Y-125886084D02*
X109046372Y-126221633D01*
X105036711Y-127878473D02*
X105211023Y-125886084D01*
X105036711Y-127878473D02*
X108872061Y-128214023D01*
D15*
%TO.C,S2*%
X93805564Y-66239739D02*
X93753270Y-65642022D01*
X94246400Y-64394295D02*
X98031940Y-64063103D01*
X101782618Y-63333434D02*
X99790228Y-63507745D01*
D13*
X99292131Y-63551323D02*
X102280715Y-63289856D01*
D15*
X108098474Y-64386980D02*
X108150767Y-64984696D01*
D13*
X107864373Y-64005933D02*
X107951528Y-65002128D01*
D15*
X94903726Y-78791792D02*
X94851433Y-78194076D01*
X101132427Y-78849144D02*
X99339276Y-79006024D01*
X108703506Y-78186760D02*
X104917967Y-78517952D01*
X94851433Y-78194076D02*
X93805564Y-66239739D01*
D13*
X107934097Y-64802889D02*
X103451221Y-65195090D01*
X99684332Y-68034199D02*
X102174818Y-67816310D01*
X103860853Y-69877205D02*
X108343729Y-69485004D01*
D15*
X98031940Y-64063103D02*
X98084233Y-64660820D01*
X93207847Y-66292033D02*
X93155553Y-65694316D01*
X109196636Y-76939033D02*
X109248930Y-77536750D01*
D13*
X103799844Y-69179868D02*
X103860853Y-69877205D01*
X96755194Y-75056211D02*
X97103817Y-79040990D01*
D15*
X99790228Y-63507745D02*
X99877384Y-64503940D01*
X98084233Y-64660820D02*
X99877384Y-64503940D01*
D13*
X93917647Y-65226113D02*
X94913842Y-65138958D01*
D15*
X109794353Y-76886739D02*
X109846647Y-77484456D01*
D13*
X94004803Y-66222308D02*
X93917647Y-65226113D01*
D15*
X108755800Y-78784477D02*
X104970260Y-79115669D01*
X109196636Y-76939033D02*
X109794353Y-76886739D01*
D13*
X107762658Y-73169669D02*
X107621466Y-71555833D01*
D15*
X99339276Y-79006024D02*
X99391570Y-79603741D01*
X99391570Y-79603741D02*
X95606030Y-79934933D01*
X99339276Y-79006024D02*
X95553736Y-79337216D01*
X108150767Y-64984696D02*
X108748484Y-64932403D01*
X103124816Y-78674832D02*
X101132427Y-78849144D01*
X104917967Y-78517952D02*
X103124816Y-78674832D01*
D13*
X107621466Y-71555833D02*
X103935545Y-71878310D01*
D15*
X104917967Y-78517952D02*
X104970260Y-79115669D01*
D13*
X99142656Y-67579680D02*
X99684332Y-68034199D01*
D15*
X93805564Y-66239739D02*
X93207847Y-66292033D01*
X103662924Y-64172748D02*
X107448464Y-63841556D01*
X99877384Y-64503940D02*
X101869773Y-64329628D01*
X94298694Y-64992012D02*
X98084233Y-64660820D01*
D13*
X108343729Y-69485004D02*
X108300151Y-68986906D01*
D15*
X103610630Y-63575031D02*
X103662924Y-64172748D01*
X94851433Y-78194076D02*
X94253716Y-78246369D01*
X108696191Y-64334686D02*
X108748484Y-64932403D01*
D13*
X102280715Y-63289856D02*
X102822390Y-63744375D01*
X100734947Y-78723307D02*
X105661130Y-78292322D01*
X98837611Y-64092998D02*
X99292131Y-63551323D01*
D15*
X101782618Y-63333434D02*
X101869773Y-64329628D01*
X108150767Y-64984696D02*
X109196636Y-76939033D01*
D13*
X107986391Y-65400605D02*
X107934097Y-64802889D01*
X96134022Y-79085683D02*
X95137827Y-79172839D01*
D15*
X94306009Y-78844086D02*
X94253716Y-78246369D01*
D13*
X95137827Y-79172839D02*
X95050672Y-78176644D01*
X109084553Y-77952659D02*
X108088358Y-78039814D01*
X102909546Y-64740570D02*
X102822390Y-63744375D01*
D15*
X101869773Y-64329628D02*
X103662924Y-64172748D01*
D13*
X107970089Y-75540612D02*
X107758300Y-73119859D01*
D15*
X103610630Y-63575031D02*
X107396170Y-63243839D01*
D13*
X101626586Y-74630020D02*
X96755194Y-75056211D01*
X108997397Y-76956464D02*
X109084553Y-77952659D01*
X106868178Y-64093089D02*
X107864373Y-64005933D01*
X100749890Y-78722000D02*
X97103817Y-79040990D01*
D15*
X94306009Y-78844086D02*
G75*
G03*
X95606030Y-79934933I1195434J104587D01*
G01*
X108755800Y-78784477D02*
G75*
G03*
X109846647Y-77484456I-104587J1195434D01*
G01*
X94903726Y-78791792D02*
G75*
G03*
X95553736Y-79337216I597717J52293D01*
G01*
D13*
X105661130Y-78292322D02*
G75*
G03*
X107970089Y-75540612I-221377J2530335D01*
G01*
X101626585Y-74630018D02*
G75*
G03*
X103935545Y-71878310I-221373J2530333D01*
G01*
X102909545Y-64740570D02*
G75*
G03*
X103451221Y-65195090I498099J43579D01*
G01*
D15*
X94298694Y-64992012D02*
G75*
G03*
X93753270Y-65642022I52293J-597717D01*
G01*
D13*
X103799844Y-69179868D02*
G75*
G03*
X102174818Y-67816310I-1494293J-130735D01*
G01*
D15*
X94246400Y-64394295D02*
G75*
G03*
X93155553Y-65694316I104587J-1195434D01*
G01*
X108696191Y-64334686D02*
G75*
G03*
X107396170Y-63243839I-1195434J-104587D01*
G01*
X108703506Y-78186760D02*
G75*
G03*
X109248930Y-77536750I-52293J597717D01*
G01*
X108098474Y-64386980D02*
G75*
G03*
X107448464Y-63841556I-597717J-52293D01*
G01*
D16*
%TO.C,D23*%
X176296893Y-123395875D02*
X179631091Y-125320875D01*
X175296893Y-125127925D02*
X178631091Y-127052925D01*
X175296893Y-125127925D02*
X176296893Y-123395875D01*
D13*
%TO.C,S12*%
X173725287Y-88679424D02*
X173376664Y-92664203D01*
D15*
X171753716Y-79432403D02*
X171806009Y-78834686D01*
D13*
X186105197Y-85205184D02*
X186148774Y-84707087D01*
X185034310Y-87119133D02*
X181348389Y-86796657D01*
X184685687Y-91103912D02*
X184897475Y-88683159D01*
X186462535Y-81120786D02*
X186514828Y-80523069D01*
X181683329Y-84115647D02*
X181622320Y-84812983D01*
D15*
X172351433Y-79484696D02*
X172403726Y-78886980D01*
X177377384Y-93174832D02*
X175584233Y-93017952D01*
D13*
X172413842Y-92539814D02*
X171417647Y-92452659D01*
D15*
X182417967Y-79160820D02*
X186203506Y-79492012D01*
X181162924Y-93506024D02*
X179369773Y-93349144D01*
X185650767Y-92694076D02*
X185598474Y-93291792D01*
X186696636Y-80739739D02*
X185650767Y-92694076D01*
X181162924Y-93506024D02*
X181110630Y-94103741D01*
X175584233Y-93017952D02*
X175531940Y-93615669D01*
X178719582Y-77833434D02*
X178632427Y-78829628D01*
X172351433Y-79484696D02*
X171753716Y-79432403D01*
X171305564Y-91439033D02*
X170707847Y-91386739D01*
X175531940Y-93615669D02*
X171746400Y-93284477D01*
D13*
X172637827Y-78505933D02*
X173634022Y-78593089D01*
X177022737Y-92983193D02*
X173376664Y-92664203D01*
D15*
X171305564Y-91439033D02*
X172351433Y-79484696D01*
X182470260Y-78563103D02*
X182417967Y-79160820D01*
X185650767Y-92694076D02*
X186248484Y-92746369D01*
D13*
X171417647Y-92452659D02*
X171504803Y-91456464D01*
X181622320Y-84812983D02*
X186105197Y-85205184D01*
D15*
X186248484Y-92746369D02*
X186196191Y-93344086D01*
X182470260Y-78563103D02*
X186255800Y-78894295D01*
D13*
X177829284Y-82272732D02*
X180319771Y-82490621D01*
X181210069Y-78051323D02*
X181664589Y-78592998D01*
D15*
X184948464Y-93837216D02*
X181162924Y-93506024D01*
X180624816Y-79003940D02*
X182417967Y-79160820D01*
X184896170Y-94434933D02*
X181110630Y-94103741D01*
X179369773Y-93349144D02*
X177377384Y-93174832D01*
D13*
X172550672Y-79502128D02*
X172637827Y-78505933D01*
D15*
X186748930Y-80142022D02*
X186696636Y-80739739D01*
X170655553Y-91984456D02*
X170707847Y-91386739D01*
X186696636Y-80739739D02*
X187294353Y-80792033D01*
X171253270Y-92036750D02*
X171305564Y-91439033D01*
X173106030Y-77743839D02*
X176891570Y-78075031D01*
X173053736Y-78341556D02*
X176839276Y-78672748D01*
D13*
X177679810Y-78244375D02*
X178221485Y-77789856D01*
X185588358Y-79638958D02*
X186584553Y-79726113D01*
X186514828Y-80523069D02*
X182031952Y-80130868D01*
X185364373Y-93672839D02*
X184368178Y-93585683D01*
X181577433Y-79589193D02*
X181664589Y-78592998D01*
D15*
X180711972Y-78007745D02*
X178719582Y-77833434D01*
D13*
X178596679Y-89105616D02*
X173725287Y-88679424D01*
X184893117Y-88732969D02*
X185034310Y-87119133D01*
D15*
X175584233Y-93017952D02*
X171798694Y-92686760D01*
X180711972Y-78007745D02*
X180624816Y-79003940D01*
D13*
X177007794Y-92981886D02*
X181933977Y-93412871D01*
X185451528Y-92676644D02*
X185364373Y-93672839D01*
X177374765Y-81731057D02*
X177829284Y-82272732D01*
X178221485Y-77789856D02*
X181210069Y-78051323D01*
D15*
X176839276Y-78672748D02*
X178632427Y-78829628D01*
X178632427Y-78829628D02*
X180624816Y-79003940D01*
X176891570Y-78075031D02*
X176839276Y-78672748D01*
X187346647Y-80194316D02*
X187294353Y-80792033D01*
D13*
X186584553Y-79726113D02*
X186497397Y-80722308D01*
D15*
X173106030Y-77743839D02*
G75*
G03*
X171806009Y-78834686I-104587J-1195434D01*
G01*
X184896170Y-94434933D02*
G75*
G03*
X186196191Y-93344086I104587J1195434D01*
G01*
X186748930Y-80142022D02*
G75*
G03*
X186203506Y-79492012I-597717J52293D01*
G01*
D13*
X181683329Y-84115647D02*
G75*
G03*
X180319771Y-82490621I-1494293J130733D01*
G01*
D15*
X184948464Y-93837216D02*
G75*
G03*
X185598474Y-93291792I52293J597717D01*
G01*
X171253270Y-92036750D02*
G75*
G03*
X171798694Y-92686760I597717J-52293D01*
G01*
D13*
X181577433Y-79589193D02*
G75*
G03*
X182031952Y-80130868I498098J-43577D01*
G01*
X181933977Y-93412872D02*
G75*
G03*
X184685687Y-91103912I221374J2530336D01*
G01*
D15*
X170655553Y-91984456D02*
G75*
G03*
X171746400Y-93284477I1195434J-104587D01*
G01*
X187346647Y-80194316D02*
G75*
G03*
X186255800Y-78894295I-1195434J104587D01*
G01*
X173053736Y-78341556D02*
G75*
G03*
X172403726Y-78886980I-52293J-597717D01*
G01*
D13*
X178596678Y-89105614D02*
G75*
G03*
X181348389Y-86796657I221378J2530332D01*
G01*
%TO.C,S7*%
X86679008Y-90285478D02*
X86657199Y-89785954D01*
D15*
X80436089Y-84852619D02*
X82234375Y-84774105D01*
X72296236Y-86409156D02*
X71696808Y-86435328D01*
D13*
X78091136Y-88458337D02*
X80588756Y-88349288D01*
X72452427Y-85401384D02*
X73451475Y-85357765D01*
D15*
X86658878Y-98994645D02*
X82862495Y-99160399D01*
X71696808Y-86435328D02*
X71670636Y-85835899D01*
X77267825Y-99404667D02*
X73471441Y-99570421D01*
X72246412Y-99023335D02*
X72220240Y-98423907D01*
D13*
X85937767Y-93941290D02*
X85867104Y-92322832D01*
D15*
X72843322Y-85184127D02*
X76639705Y-85018373D01*
D13*
X79743836Y-95132599D02*
X74858490Y-95345898D01*
D15*
X82208204Y-84174676D02*
X86004587Y-84008922D01*
D13*
X86500169Y-86189380D02*
X86473997Y-85589951D01*
D15*
X86685049Y-99594074D02*
X82888666Y-99759828D01*
D13*
X85440054Y-84834332D02*
X86439102Y-84790713D01*
X86439102Y-84790713D02*
X86482721Y-85789761D01*
D15*
X87205964Y-97769616D02*
X87805392Y-97743444D01*
D13*
X81456947Y-85308524D02*
X81413327Y-84309476D01*
X85867104Y-92322832D02*
X82170625Y-92484224D01*
D15*
X82862495Y-99160399D02*
X81064208Y-99238914D01*
X72296236Y-86409156D02*
X72270065Y-85809727D01*
X79066111Y-99326153D02*
X77267825Y-99404667D01*
D13*
X77417134Y-84483953D02*
X77894849Y-83962620D01*
X74062146Y-99344440D02*
X73063098Y-99388059D01*
X86041581Y-96319025D02*
X85935586Y-93891338D01*
D15*
X77293996Y-100004096D02*
X73497613Y-100169850D01*
D13*
X80891993Y-83831762D02*
X81413327Y-84309476D01*
X78674499Y-99183098D02*
X83614792Y-98967400D01*
X74858490Y-95345898D02*
X75032968Y-99342091D01*
D15*
X76639705Y-85018373D02*
X78437992Y-84939858D01*
X82862495Y-99160399D02*
X82888666Y-99759828D01*
X72819669Y-98397735D02*
X72296236Y-86409156D01*
D13*
X78689484Y-99182444D02*
X75032968Y-99342091D01*
D15*
X87805392Y-97743444D02*
X87831564Y-98342873D01*
X81064208Y-99238914D02*
X79066111Y-99326153D01*
D13*
X77569802Y-87980622D02*
X78091136Y-88458337D01*
D15*
X77267825Y-99404667D02*
X77293996Y-100004096D01*
X80392469Y-83853571D02*
X78394373Y-83940810D01*
D13*
X87049773Y-98777388D02*
X86050725Y-98821007D01*
D15*
X82208204Y-84174676D02*
X82234375Y-84774105D01*
D13*
X77894849Y-83962620D02*
X80891993Y-83831762D01*
X86473997Y-85589951D02*
X81978280Y-85786239D01*
X73063098Y-99388059D02*
X73019479Y-98389011D01*
D15*
X87205964Y-97769616D02*
X87232135Y-98369045D01*
X76613534Y-84418944D02*
X76639705Y-85018373D01*
X80392469Y-83853571D02*
X80436089Y-84852619D01*
X86656359Y-85181608D02*
X86682531Y-85781037D01*
D13*
X82183291Y-90481765D02*
X86679008Y-90285478D01*
D15*
X86682531Y-85781037D02*
X87205964Y-97769616D01*
X72845841Y-98997164D02*
X72819669Y-98397735D01*
X72817151Y-84584698D02*
X76613534Y-84418944D01*
X72819669Y-98397735D02*
X72220240Y-98423907D01*
D13*
X72496046Y-86400432D02*
X72452427Y-85401384D01*
X87006154Y-97778340D02*
X87049773Y-98777388D01*
D15*
X86682531Y-85781037D02*
X87281960Y-85754865D01*
X78437992Y-84939858D02*
X80436089Y-84852619D01*
D13*
X82152758Y-89782431D02*
X82183291Y-90481765D01*
D15*
X78394373Y-83940810D02*
X78437992Y-84939858D01*
X82234375Y-84774105D02*
X86030759Y-84608351D01*
X87255788Y-85155437D02*
X87281960Y-85754865D01*
X72843322Y-85184127D02*
G75*
G03*
X72270065Y-85809727I26172J-599429D01*
G01*
X86656359Y-85181608D02*
G75*
G03*
X86030759Y-84608351I-599429J-26172D01*
G01*
D13*
X79743835Y-95132599D02*
G75*
G03*
X82170625Y-92484224I-110791J2537582D01*
G01*
X82152759Y-89782431D02*
G75*
G03*
X80588756Y-88349288I-1498574J-65431D01*
G01*
D15*
X86658878Y-98994645D02*
G75*
G03*
X87232135Y-98369045I-26172J599429D01*
G01*
D13*
X81456946Y-85308524D02*
G75*
G03*
X81978280Y-85786239I499526J21811D01*
G01*
D15*
X72246412Y-99023335D02*
G75*
G03*
X73497613Y-100169850I1198858J52343D01*
G01*
X72845841Y-98997164D02*
G75*
G03*
X73471441Y-99570421I599429J26172D01*
G01*
X86685049Y-99594074D02*
G75*
G03*
X87831564Y-98342873I-52343J1198858D01*
G01*
D13*
X83614792Y-98967399D02*
G75*
G03*
X86041581Y-96319025I-110794J2537582D01*
G01*
D15*
X87255788Y-85155437D02*
G75*
G03*
X86004587Y-84008922I-1198858J-52343D01*
G01*
X72817151Y-84584698D02*
G75*
G03*
X71670636Y-85835899I52343J-1198858D01*
G01*
%TO.C,JOY1*%
X212900000Y-89925000D02*
X210050000Y-89925000D01*
X200550000Y-89925000D02*
X198725000Y-89925000D01*
X210050000Y-89925000D02*
X200550000Y-89925000D01*
X209600000Y-108100000D02*
X209600000Y-103075000D01*
X195900000Y-91750000D02*
X195900000Y-101250000D01*
X201000000Y-103075000D02*
X209600000Y-103075000D01*
X201000000Y-108100000D02*
X209600000Y-108100000D01*
X210050000Y-89925000D02*
X210050000Y-87100000D01*
X198725000Y-103075000D02*
X201000000Y-103075000D01*
X201000000Y-103075000D02*
X201000000Y-108100000D01*
X198725000Y-89925000D02*
X198725000Y-103075000D01*
X210050000Y-87100000D02*
X200550000Y-87100000D01*
X209600000Y-103075000D02*
X212900000Y-103075000D01*
X195900000Y-101250000D02*
X198725000Y-101250000D01*
X198725000Y-91750000D02*
X195900000Y-91750000D01*
X200550000Y-87100000D02*
X200550000Y-89925000D01*
X212900000Y-103075000D02*
X212900000Y-89925000D01*
D16*
%TO.C,BAT1*%
X210480000Y-71780000D02*
X215080000Y-71780000D01*
X211380000Y-74780000D02*
X211780000Y-74780000D01*
X211580000Y-74580000D02*
X211580000Y-74980000D01*
X213980000Y-74680000D02*
X214280000Y-74680000D01*
X210480000Y-74280000D02*
X210480000Y-71780000D01*
X215080000Y-74280000D02*
X210480000Y-74280000D01*
X215080000Y-71780000D02*
X215080000Y-74280000D01*
%TO.C,S24*%
X202079052Y-138763643D02*
X202715448Y-138127247D01*
X201654788Y-136925165D02*
X201301235Y-136571612D01*
X200099153Y-135510952D02*
X196811107Y-138798998D01*
X199392047Y-141450648D02*
X200028443Y-140814252D01*
X197836412Y-140036435D02*
X198189965Y-140389988D01*
%TO.C,D9*%
X110449400Y-82312000D02*
X114299400Y-82312000D01*
X110449400Y-84312000D02*
X110449400Y-82312000D01*
X110449400Y-84312000D02*
X114299400Y-84312000D01*
%TO.C,ENC2*%
X201622800Y-104420800D02*
X199022800Y-104420800D01*
X199022800Y-95920800D02*
X199022800Y-91020800D01*
X209122800Y-91020800D02*
X211622800Y-91020800D01*
X199022800Y-91020800D02*
X201822800Y-91020800D01*
X205822800Y-97720800D02*
X204822800Y-97720800D01*
X206622800Y-104420800D02*
X204022800Y-104420800D01*
X205322800Y-97220800D02*
X205322800Y-98120800D01*
X211622800Y-99520800D02*
X211622800Y-104420800D01*
X211622800Y-104420800D02*
X209022800Y-104420800D01*
X199022800Y-104420800D02*
X199022800Y-99520800D01*
X211622800Y-91020800D02*
X211622800Y-95820800D01*
X208292648Y-97720800D02*
G75*
G03*
X208292648Y-97720800I-2969848J0D01*
G01*
%TO.C,D12*%
X167292111Y-85054073D02*
X171127461Y-85389623D01*
X167292111Y-85054073D02*
X167466423Y-83061684D01*
X167466423Y-83061684D02*
X171301772Y-83397233D01*
D15*
%TO.C,S6*%
X181662924Y-74206024D02*
X181610630Y-74803741D01*
D13*
X186088358Y-60338958D02*
X187084553Y-60426113D01*
X177522737Y-73683193D02*
X173876664Y-73364203D01*
D15*
X176031940Y-74315669D02*
X172246400Y-73984477D01*
D13*
X174225287Y-69379424D02*
X173876664Y-73364203D01*
D15*
X187196636Y-61439739D02*
X186150767Y-73394076D01*
X179132427Y-59529628D02*
X181124816Y-59703940D01*
X182970260Y-59263103D02*
X182917967Y-59860820D01*
D13*
X178329284Y-62972732D02*
X180819771Y-63190621D01*
D15*
X181211972Y-58707745D02*
X179219582Y-58533434D01*
X186150767Y-73394076D02*
X186748484Y-73446369D01*
X185448464Y-74537216D02*
X181662924Y-74206024D01*
D13*
X185534310Y-67819133D02*
X181848389Y-67496657D01*
X185864373Y-74372839D02*
X184868178Y-74285683D01*
D15*
X181211972Y-58707745D02*
X181124816Y-59703940D01*
X177391570Y-58775031D02*
X177339276Y-59372748D01*
X182917967Y-59860820D02*
X186703506Y-60192012D01*
X179219582Y-58533434D02*
X179132427Y-59529628D01*
X181124816Y-59703940D02*
X182917967Y-59860820D01*
D13*
X186962535Y-61820786D02*
X187014828Y-61223069D01*
D15*
X176084233Y-73717952D02*
X172298694Y-73386760D01*
D13*
X179096679Y-69805616D02*
X174225287Y-69379424D01*
X185185687Y-71803912D02*
X185397475Y-69383159D01*
D15*
X187846647Y-60894316D02*
X187794353Y-61492033D01*
D13*
X173137827Y-59205933D02*
X174134022Y-59293089D01*
X182122320Y-65512983D02*
X186605197Y-65905184D01*
X171917647Y-73152659D02*
X172004803Y-72156464D01*
X186605197Y-65905184D02*
X186648774Y-65407087D01*
D15*
X172851433Y-60184696D02*
X172903726Y-59586980D01*
D13*
X178721485Y-58489856D02*
X181710069Y-58751323D01*
D15*
X177339276Y-59372748D02*
X179132427Y-59529628D01*
X172851433Y-60184696D02*
X172253716Y-60132403D01*
X182970260Y-59263103D02*
X186755800Y-59594295D01*
X173553736Y-59041556D02*
X177339276Y-59372748D01*
D13*
X182183329Y-64815647D02*
X182122320Y-65512983D01*
X185951528Y-73376644D02*
X185864373Y-74372839D01*
D15*
X171805564Y-72139033D02*
X171207847Y-72086739D01*
D13*
X182077433Y-60289193D02*
X182164589Y-59292998D01*
D15*
X173606030Y-58443839D02*
X177391570Y-58775031D01*
X187248930Y-60842022D02*
X187196636Y-61439739D01*
X186748484Y-73446369D02*
X186696191Y-74044086D01*
D13*
X177874765Y-62431057D02*
X178329284Y-62972732D01*
X181710069Y-58751323D02*
X182164589Y-59292998D01*
D15*
X171753270Y-72736750D02*
X171805564Y-72139033D01*
D13*
X178179810Y-58944375D02*
X178721485Y-58489856D01*
X187014828Y-61223069D02*
X182531952Y-60830868D01*
D15*
X181662924Y-74206024D02*
X179869773Y-74049144D01*
D13*
X187084553Y-60426113D02*
X186997397Y-61422308D01*
D15*
X171155553Y-72684456D02*
X171207847Y-72086739D01*
X177877384Y-73874832D02*
X176084233Y-73717952D01*
X176084233Y-73717952D02*
X176031940Y-74315669D01*
X172253716Y-60132403D02*
X172306009Y-59534686D01*
X171805564Y-72139033D02*
X172851433Y-60184696D01*
X186150767Y-73394076D02*
X186098474Y-73991792D01*
X185396170Y-75134933D02*
X181610630Y-74803741D01*
D13*
X172913842Y-73239814D02*
X171917647Y-73152659D01*
D15*
X187196636Y-61439739D02*
X187794353Y-61492033D01*
D13*
X177507794Y-73681886D02*
X182433977Y-74112871D01*
X185393117Y-69432969D02*
X185534310Y-67819133D01*
X173050672Y-60202128D02*
X173137827Y-59205933D01*
D15*
X179869773Y-74049144D02*
X177877384Y-73874832D01*
D13*
X182183329Y-64815647D02*
G75*
G03*
X180819771Y-63190621I-1494293J130733D01*
G01*
D15*
X185448464Y-74537216D02*
G75*
G03*
X186098474Y-73991792I52293J597717D01*
G01*
D13*
X182433977Y-74112872D02*
G75*
G03*
X185185687Y-71803912I221374J2530336D01*
G01*
D15*
X187248930Y-60842022D02*
G75*
G03*
X186703506Y-60192012I-597717J52293D01*
G01*
D13*
X179096678Y-69805614D02*
G75*
G03*
X181848389Y-67496657I221378J2530332D01*
G01*
D15*
X171155553Y-72684456D02*
G75*
G03*
X172246400Y-73984477I1195434J-104587D01*
G01*
X187846647Y-60894316D02*
G75*
G03*
X186755800Y-59594295I-1195434J104587D01*
G01*
X173606030Y-58443839D02*
G75*
G03*
X172306009Y-59534686I-104587J-1195434D01*
G01*
X185396170Y-75134933D02*
G75*
G03*
X186696191Y-74044086I104587J1195434D01*
G01*
X171753270Y-72736750D02*
G75*
G03*
X172298694Y-73386760I597717J-52293D01*
G01*
D13*
X182077433Y-60289193D02*
G75*
G03*
X182531952Y-60830868I498098J-43577D01*
G01*
D15*
X173553736Y-59041556D02*
G75*
G03*
X172903726Y-59586980I-52293J-597717D01*
G01*
D13*
%TO.C,S21*%
X169101100Y-127209386D02*
X169101100Y-125589386D01*
D15*
X162001100Y-132289386D02*
X160201100Y-132289386D01*
D13*
X169001100Y-118089386D02*
X170001100Y-118089386D01*
D15*
X170201100Y-131089386D02*
X170801100Y-131089386D01*
X155201100Y-119089386D02*
X155201100Y-118489386D01*
X164001100Y-116889386D02*
X162001100Y-116889386D01*
D13*
X161001100Y-120889386D02*
X161501100Y-121389386D01*
D15*
X162001100Y-117889386D02*
X164001100Y-117889386D01*
D13*
X170001100Y-118889386D02*
X165501100Y-118889386D01*
D15*
X170201100Y-119089386D02*
X170201100Y-131089386D01*
X165801100Y-117289386D02*
X169601100Y-117289386D01*
X160201100Y-132289386D02*
X160201100Y-132889386D01*
D13*
X170001100Y-132089386D02*
X169001100Y-132089386D01*
X156001100Y-118089386D02*
X157001100Y-118089386D01*
X157971100Y-128129386D02*
X157971100Y-132129386D01*
D15*
X165801100Y-132289386D02*
X164001100Y-132289386D01*
X155801100Y-119089386D02*
X155201100Y-119089386D01*
D13*
X165501100Y-122889386D02*
X165501100Y-123589386D01*
D15*
X169601100Y-132289386D02*
X165801100Y-132289386D01*
D13*
X161616100Y-132129386D02*
X166561100Y-132129386D01*
D15*
X164001100Y-117889386D02*
X165801100Y-117889386D01*
X156401100Y-117889386D02*
X160201100Y-117889386D01*
X155801100Y-131689386D02*
X155801100Y-131089386D01*
D13*
X170001100Y-131089386D02*
X170001100Y-132089386D01*
D15*
X169601100Y-132889386D02*
X165801100Y-132889386D01*
X165801100Y-117889386D02*
X169601100Y-117889386D01*
X160201100Y-132289386D02*
X156401100Y-132289386D01*
D13*
X165501100Y-123589386D02*
X170001100Y-123589386D01*
D15*
X165801100Y-117289386D02*
X165801100Y-117889386D01*
D13*
X169101100Y-125589386D02*
X165401100Y-125589386D01*
D15*
X156401100Y-117289386D02*
X160201100Y-117289386D01*
X162001100Y-116889386D02*
X162001100Y-117889386D01*
D13*
X162861100Y-128129386D02*
X157971100Y-128129386D01*
X169101100Y-129589386D02*
X169101100Y-127159386D01*
D15*
X165801100Y-132289386D02*
X165801100Y-132889386D01*
D13*
X170001100Y-119489386D02*
X170001100Y-118889386D01*
D15*
X155801100Y-131089386D02*
X155201100Y-131089386D01*
X160201100Y-117289386D02*
X160201100Y-117889386D01*
D13*
X170001100Y-118089386D02*
X170001100Y-119089386D01*
X157001100Y-132089386D02*
X156001100Y-132089386D01*
X161001100Y-117389386D02*
X161501100Y-116889386D01*
X165001100Y-118389386D02*
X165001100Y-117389386D01*
D15*
X170801100Y-131089386D02*
X170801100Y-131689386D01*
X160201100Y-117889386D02*
X162001100Y-117889386D01*
D13*
X156001100Y-132089386D02*
X156001100Y-131089386D01*
X161631100Y-132129386D02*
X157971100Y-132129386D01*
X170001100Y-123589386D02*
X170001100Y-123089386D01*
X156001100Y-119089386D02*
X156001100Y-118089386D01*
D15*
X170801100Y-118489386D02*
X170801100Y-119089386D01*
X164001100Y-132289386D02*
X162001100Y-132289386D01*
D13*
X161501100Y-121389386D02*
X164001100Y-121389386D01*
D15*
X155201100Y-131689386D02*
X155201100Y-131089386D01*
X170201100Y-118489386D02*
X170201100Y-119089386D01*
X155801100Y-131089386D02*
X155801100Y-119089386D01*
X170201100Y-119089386D02*
X170801100Y-119089386D01*
X160201100Y-132889386D02*
X156401100Y-132889386D01*
D13*
X161501100Y-116889386D02*
X164501100Y-116889386D01*
X164501100Y-116889386D02*
X165001100Y-117389386D01*
D15*
X170201100Y-131089386D02*
X170201100Y-131689386D01*
X155801100Y-119089386D02*
X155801100Y-118489386D01*
X164001100Y-116889386D02*
X164001100Y-117889386D01*
X170201100Y-118489386D02*
G75*
G03*
X169601100Y-117889386I-600000J0D01*
G01*
X169601100Y-132889386D02*
G75*
G03*
X170801100Y-131689386I0J1200000D01*
G01*
X169601100Y-132289386D02*
G75*
G03*
X170201100Y-131689386I0J600000D01*
G01*
X170801100Y-118489386D02*
G75*
G03*
X169601100Y-117289386I-1200000J0D01*
G01*
D13*
X162861099Y-128129385D02*
G75*
G03*
X165401100Y-125589386I2J2539999D01*
G01*
X165001100Y-118389386D02*
G75*
G03*
X165501100Y-118889386I500001J1D01*
G01*
X166561100Y-132129386D02*
G75*
G03*
X169101100Y-129589386I-1J2540001D01*
G01*
D15*
X155801100Y-131689386D02*
G75*
G03*
X156401100Y-132289386I600000J0D01*
G01*
X156401100Y-117889386D02*
G75*
G03*
X155801100Y-118489386I0J-600000D01*
G01*
X156401100Y-117289386D02*
G75*
G03*
X155201100Y-118489386I0J-1200000D01*
G01*
D13*
X165501100Y-122889386D02*
G75*
G03*
X164001100Y-121389386I-1500001J-1D01*
G01*
D15*
X155201100Y-131689386D02*
G75*
G03*
X156401100Y-132889386I1200000J0D01*
G01*
%TO.C,U1*%
X194996100Y-59677386D02*
X203995100Y-59677386D01*
X208391100Y-74749386D02*
X190591100Y-74749386D01*
X207719559Y-53749386D02*
X208391100Y-54420927D01*
X203995100Y-59677386D02*
X203995100Y-52324386D01*
X194996100Y-52325386D02*
X194996100Y-59677386D01*
X190591100Y-74749386D02*
X190591100Y-53749386D01*
X208391100Y-54420927D02*
X208391100Y-74749386D01*
X190591100Y-53749386D02*
X207719559Y-53749386D01*
X203991100Y-52325386D02*
X194996100Y-52325386D01*
D17*
X209407100Y-56588386D02*
G75*
G03*
X209407100Y-56588386I-127000J0D01*
G01*
D16*
%TO.C,J2*%
X208140000Y-79610000D02*
X206540000Y-79610000D01*
X208140000Y-83890000D02*
X208140000Y-83610000D01*
X212100000Y-80450000D02*
X214360000Y-80450000D01*
X214360000Y-81250000D02*
X210000000Y-81250000D01*
X214360000Y-78690000D02*
X214360000Y-84810000D01*
X206540000Y-84810000D02*
X206540000Y-83890000D01*
X210500000Y-80450000D02*
X210500000Y-79450000D01*
X212100000Y-79450000D02*
X212100000Y-80450000D01*
X210500000Y-83050000D02*
X210500000Y-84050000D01*
X212100000Y-83050000D02*
X210500000Y-83050000D01*
X210000000Y-82250000D02*
X214360000Y-82250000D01*
X206540000Y-83890000D02*
X208140000Y-83890000D01*
X210000000Y-81250000D02*
X210000000Y-82250000D01*
X210500000Y-79450000D02*
X212100000Y-79450000D01*
X208140000Y-79890000D02*
X208140000Y-79610000D01*
X212100000Y-84050000D02*
X212100000Y-83050000D01*
X208140000Y-84810000D02*
X208140000Y-83890000D01*
X208140000Y-78690000D02*
X208140000Y-79610000D01*
X206540000Y-79610000D02*
X206540000Y-78690000D01*
X212100000Y-79950000D02*
X214360000Y-79950000D01*
X212100000Y-80450000D02*
X210500000Y-80450000D01*
X210500000Y-84050000D02*
X212100000Y-84050000D01*
X208140000Y-79890000D02*
X206925000Y-79890000D01*
X206540000Y-78690000D02*
X214360000Y-78690000D01*
X214360000Y-84810000D02*
X206540000Y-84810000D01*
%TD*%
M02*
