M48
; DRILL file {KiCad (6.0.0-0)} date Friday, October 27, 2023 at 09:44:30 PM
; FORMAT={-:-/ absolute / metric / decimal}
; #@! TF.CreationDate,2023-10-27T21:44:30-07:00
; #@! TF.GenerationSoftware,Kicad,Pcbnew,(6.0.0-0)
; #@! TF.FileFunction,Plated,1,2,PTH
FMAT,2
METRIC
; #@! TA.AperFunction,Plated,PTH,ViaDrill
T1C0.400
; #@! TA.AperFunction,Plated,PTH,ComponentDrill
T2C0.700
; #@! TA.AperFunction,Plated,PTH,ComponentDrill
T3C0.750
; #@! TA.AperFunction,Plated,PTH,ComponentDrill
T4C0.800
; #@! TA.AperFunction,Plated,PTH,ViaDrill
T5C1.000
; #@! TA.AperFunction,Plated,PTH,ComponentDrill
T6C1.000
; #@! TA.AperFunction,Plated,PTH,ComponentDrill
T7C1.200
; #@! TA.AperFunction,Plated,PTH,ComponentDrill
T8C1.300
; #@! TA.AperFunction,Plated,PTH,ComponentDrill
T9C1.500
; #@! TA.AperFunction,Plated,PTH,ComponentDrill
T10C2.000
%
G90
G05
T1
X72.365Y-86.487
X73.0Y-115.113
X73.025Y-67.488
X73.05Y-96.139
X73.355Y-77.165
X73.609Y-105.334
X85.877Y-85.954
X85.954Y-105.054
X86.512Y-66.853
X86.741Y-114.63
X86.868Y-95.606
X87.401Y-76.556
X89.261Y-80.091
X90.475Y-74.27
X90.957Y-90.78
X90.957Y-92.608
X90.983Y-97.232
X91.161Y-115.621
X91.211Y-109.245
X91.211Y-111.125
X93.066Y-71.933
X94.057Y-90.78
X94.311Y-109.245
X94.996Y-66.192
X94.996Y-75.997
X96.139Y-85.293
X96.672Y-94.971
X96.698Y-113.665
X96.901Y-103.988
X105.796Y-126.941
X107.34Y-65.507
X108.737Y-74.752
X108.885Y-127.211
X108.89Y-84.379
X109.372Y-64.287
X109.753Y-103.734
X110.134Y-131.75
X110.566Y-113.081
X110.642Y-93.777
X111.124Y-83.312
X111.658Y-102.286
X111.658Y-122.377
X112.039Y-114.097
X112.472Y-64.287
X113.614Y-68.783
X114.224Y-83.312
X114.3Y-59.055
X114.758Y-102.286
X114.808Y-87.782
X115.214Y-77.978
X115.722Y-106.528
X116.713Y-96.723
X124.003Y-127.533
X124.054Y-132.994
X124.181Y-123.368
X126.721Y-62.662
X127.483Y-68.047
X127.635Y-58.496
X127.686Y-77.368
X127.787Y-81.534
X128.626Y-100.863
X128.725Y-128.463
X128.753Y-87.02
X128.93Y-62.967
X129.515Y-106.223
X129.641Y-82.067
X130.581Y-101.194
X130.708Y-96.571
X131.778Y-127.925
X132.03Y-62.967
X132.741Y-82.067
X133.071Y-122.149
X133.198Y-66.904
X133.681Y-101.194
X133.782Y-85.877
X134.163Y-131.826
X134.214Y-57.15
X134.569Y-105.029
X134.849Y-76.098
X134.925Y-95.352
X145.745Y-119.863
X146.507Y-61.519
X146.837Y-57.302
X146.837Y-124.409
X146.888Y-80.493
X147.091Y-76.454
X147.218Y-66.878
X147.383Y-99.69
X147.422Y-85.877
X147.701Y-95.555
X147.803Y-129.438
X148.488Y-105.131
X149.154Y-81.729
X149.277Y-101.609
X149.586Y-62.781
X151.18Y-124.689
X152.242Y-81.999
X152.374Y-101.744
X152.674Y-63.051
X152.908Y-86.766
X153.162Y-106.858
X153.492Y-67.793
X153.797Y-97.282
X154.28Y-124.689
X154.432Y-77.343
X154.965Y-58.318
X155.88Y-128.88
X156.769Y-119.126
X166.04Y-82.448
X166.294Y-102.032
X166.675Y-87.96
X166.818Y-63.443
X166.98Y-107.442
X167.335Y-68.961
X168.052Y-84.117
X168.225Y-104.035
X168.681Y-97.663
X168.808Y-78.08
X168.91Y-65.176
X169.113Y-58.953
X169.824Y-128.905
X170.155Y-123.673
X171.14Y-84.387
X171.247Y-119.177
X171.323Y-104.143
X171.653Y-89.281
X171.933Y-109.093
X171.998Y-65.447
X172.136Y-69.977
X172.949Y-99.568
X173.177Y-79.883
X173.685Y-60.528
X176.381Y-124.599
X178.791Y-131.115
X179.066Y-126.149
X184.048Y-123.165
X185.598Y-61.189
X185.623Y-90.449
X185.674Y-80.62
X185.776Y-109.626
X186.131Y-71.196
X186.69Y-59.639
X187.274Y-66.319
X187.427Y-99.797
X187.858Y-79.553
X188.036Y-58.903
X188.57Y-90.627
X188.722Y-61.849
X188.747Y-97.485
X188.754Y-66.973
X189.357Y-60.427
X189.357Y-110.617
X189.89Y-80.543
X190.068Y-83.972
X190.322Y-109.855
X190.424Y-95.047
X191.008Y-138.176
X191.11Y-98.171
X191.367Y-121.907
X191.719Y-91.872
X191.745Y-74.803
X192.761Y-81.28
X193.497Y-66.777
X193.7Y-83.051
X194.052Y-123.457
X194.132Y-107.772
X195.097Y-127.711
X196.57Y-107.544
X199.67Y-107.544
X202.438Y-80.162
X205.207Y-69.342
X206.146Y-106.832
X207.239Y-110.134
X207.594Y-74.016
X208.686Y-76.124
X209.398Y-68.047
X209.455Y-65.499
X210.21Y-89.586
X210.515Y-82.931
X212.649Y-87.681
T2
X204.597Y-84.43
T3
X208.0Y-78.75
X208.0Y-80.75
X208.0Y-80.75
X208.0Y-82.75
X211.58Y-72.98
X214.12Y-72.98
T4
X213.0Y-61.5
X213.0Y-63.5
X213.0Y-65.5
T5
X176.784Y-55.22
T6
X196.57Y-94.0
X196.57Y-96.5
X196.57Y-99.0
X198.573Y-121.302
X199.179Y-138.173
X199.629Y-119.036
X200.686Y-116.77
X202.715Y-134.638
X202.8Y-87.77
X202.823Y-90.221
X202.823Y-104.721
X205.3Y-87.77
X205.323Y-90.221
X207.8Y-87.77
X207.823Y-90.221
X207.823Y-104.721
X214.03Y-94.0
X214.03Y-96.5
X214.03Y-99.0
T7
X202.05Y-102.25
X202.05Y-106.75
X208.55Y-102.25
X208.55Y-106.75
X213.0Y-59.5
X213.0Y-67.5
T8
X196.704Y-137.113
X201.654Y-132.163
T9
X198.975Y-91.5
X198.975Y-101.5
X211.625Y-91.5
X211.625Y-101.5
T6
G00X193.786Y-73.729
M15
G01X193.786Y-73.229
M16
G05
G00X195.256Y-62.049
M15
G01X195.656Y-62.049
M16
G05
G00X195.256Y-63.954
M15
G01X195.656Y-63.954
M16
G05
G00X195.691Y-73.729
M15
G01X195.691Y-73.229
M16
G05
G00X203.311Y-73.229
M15
G01X203.311Y-73.729
M16
G05
G00X203.746Y-62.049
M15
G01X203.346Y-62.049
M16
G05
G00X203.746Y-63.954
M15
G01X203.346Y-63.954
M16
G05
G00X205.216Y-73.229
M15
G01X205.216Y-73.729
M16
G05
T10
G00X199.723Y-97.471
M15
G01X199.723Y-97.971
M16
G05
G00X203.833Y-127.175
M15
G01X204.286Y-127.387
M16
G05
G00X208.567Y-117.025
M15
G01X209.02Y-117.236
M16
G05
G00X210.923Y-97.471
M15
G01X210.923Y-97.971
M16
G05
T0
M30
