%TF.GenerationSoftware,KiCad,Pcbnew,(6.0.0-0)*%
%TF.CreationDate,2023-08-01T21:22:35-07:00*%
%TF.ProjectId,xobdox_seeed,786f6264-6f78-45f7-9365-6565642e6b69,rev?*%
%TF.SameCoordinates,Original*%
%TF.FileFunction,Legend,Top*%
%TF.FilePolarity,Positive*%
%FSLAX46Y46*%
G04 Gerber Fmt 4.6, Leading zero omitted, Abs format (unit mm)*
G04 Created by KiCad (PCBNEW (6.0.0-0)) date 2023-08-01 21:22:35*
%MOMM*%
%LPD*%
G01*
G04 APERTURE LIST*
%ADD10C,0.300000*%
%ADD11C,0.381000*%
%ADD12C,0.200000*%
%ADD13C,0.150000*%
%ADD14C,0.048768*%
%ADD15C,0.120000*%
%ADD16C,0.127000*%
%ADD17C,0.254000*%
G04 APERTURE END LIST*
D10*
X211618142Y-68745361D02*
X211999095Y-68745361D01*
X212189571Y-68840600D01*
X212380047Y-69031076D01*
X212475285Y-69412028D01*
X212475285Y-70078695D01*
X212380047Y-70459647D01*
X212189571Y-70650123D01*
X211999095Y-70745361D01*
X211618142Y-70745361D01*
X211427666Y-70650123D01*
X211237190Y-70459647D01*
X211141952Y-70078695D01*
X211141952Y-69412028D01*
X211237190Y-69031076D01*
X211427666Y-68840600D01*
X211618142Y-68745361D01*
X213332428Y-70745361D02*
X213332428Y-68745361D01*
X214475285Y-70745361D01*
X214475285Y-68745361D01*
D11*
X194459678Y-67892990D02*
X195590583Y-66453657D01*
X194459678Y-66453657D02*
X195590583Y-67892990D01*
X196721488Y-67892990D02*
X196515869Y-67790180D01*
X196413059Y-67687371D01*
X196310250Y-67481752D01*
X196310250Y-66864895D01*
X196413059Y-66659276D01*
X196515869Y-66556466D01*
X196721488Y-66453657D01*
X197029916Y-66453657D01*
X197235535Y-66556466D01*
X197338345Y-66659276D01*
X197441154Y-66864895D01*
X197441154Y-67481752D01*
X197338345Y-67687371D01*
X197235535Y-67790180D01*
X197029916Y-67892990D01*
X196721488Y-67892990D01*
X198366440Y-67892990D02*
X198366440Y-65733990D01*
X198366440Y-66556466D02*
X198572059Y-66453657D01*
X198983297Y-66453657D01*
X199188916Y-66556466D01*
X199291726Y-66659276D01*
X199394535Y-66864895D01*
X199394535Y-67481752D01*
X199291726Y-67687371D01*
X199188916Y-67790180D01*
X198983297Y-67892990D01*
X198572059Y-67892990D01*
X198366440Y-67790180D01*
X201245107Y-67892990D02*
X201245107Y-65733990D01*
X201245107Y-67790180D02*
X201039488Y-67892990D01*
X200628250Y-67892990D01*
X200422630Y-67790180D01*
X200319821Y-67687371D01*
X200217011Y-67481752D01*
X200217011Y-66864895D01*
X200319821Y-66659276D01*
X200422630Y-66556466D01*
X200628250Y-66453657D01*
X201039488Y-66453657D01*
X201245107Y-66556466D01*
X202581630Y-67892990D02*
X202376011Y-67790180D01*
X202273202Y-67687371D01*
X202170392Y-67481752D01*
X202170392Y-66864895D01*
X202273202Y-66659276D01*
X202376011Y-66556466D01*
X202581630Y-66453657D01*
X202890059Y-66453657D01*
X203095678Y-66556466D01*
X203198488Y-66659276D01*
X203301297Y-66864895D01*
X203301297Y-67481752D01*
X203198488Y-67687371D01*
X203095678Y-67790180D01*
X202890059Y-67892990D01*
X202581630Y-67892990D01*
X204020964Y-67892990D02*
X205151869Y-66453657D01*
X204020964Y-66453657D02*
X205151869Y-67892990D01*
D12*
X178714514Y-54695800D02*
X178600228Y-54638657D01*
X178428800Y-54638657D01*
X178257371Y-54695800D01*
X178143085Y-54810085D01*
X178085942Y-54924371D01*
X178028800Y-55152942D01*
X178028800Y-55324371D01*
X178085942Y-55552942D01*
X178143085Y-55667228D01*
X178257371Y-55781514D01*
X178428800Y-55838657D01*
X178543085Y-55838657D01*
X178714514Y-55781514D01*
X178771657Y-55724371D01*
X178771657Y-55324371D01*
X178543085Y-55324371D01*
X179285942Y-55838657D02*
X179285942Y-54638657D01*
X179971657Y-55838657D01*
X179971657Y-54638657D01*
X180543085Y-55838657D02*
X180543085Y-54638657D01*
X180828800Y-54638657D01*
X181000228Y-54695800D01*
X181114514Y-54810085D01*
X181171657Y-54924371D01*
X181228800Y-55152942D01*
X181228800Y-55324371D01*
X181171657Y-55552942D01*
X181114514Y-55667228D01*
X181000228Y-55781514D01*
X180828800Y-55838657D01*
X180543085Y-55838657D01*
D13*
%TO.C,D1*%
X92303419Y-77065304D02*
X93303419Y-77065304D01*
X93303419Y-77303400D01*
X93255800Y-77446257D01*
X93160561Y-77541495D01*
X93065323Y-77589114D01*
X92874847Y-77636733D01*
X92731990Y-77636733D01*
X92541514Y-77589114D01*
X92446276Y-77541495D01*
X92351038Y-77446257D01*
X92303419Y-77303400D01*
X92303419Y-77065304D01*
X92303419Y-78589114D02*
X92303419Y-78017685D01*
X92303419Y-78303400D02*
X93303419Y-78303400D01*
X93160561Y-78208161D01*
X93065323Y-78112923D01*
X93017704Y-78017685D01*
%TO.C,D18*%
X167579066Y-106276927D02*
X167613965Y-105277536D01*
X167851915Y-105285845D01*
X167993024Y-105338421D01*
X168084880Y-105436925D01*
X168129146Y-105533767D01*
X168170089Y-105725789D01*
X168165103Y-105868559D01*
X168110865Y-106057257D01*
X168059952Y-106150776D01*
X167961448Y-106242632D01*
X167817016Y-106285236D01*
X167579066Y-106276927D01*
X169101947Y-106330107D02*
X168530866Y-106310165D01*
X168816407Y-106320136D02*
X168851306Y-105320745D01*
X168751140Y-105460191D01*
X168652637Y-105552048D01*
X168555795Y-105596314D01*
X169692970Y-105778969D02*
X169599452Y-105728055D01*
X169553524Y-105678803D01*
X169509257Y-105581962D01*
X169510919Y-105534371D01*
X169561833Y-105440853D01*
X169611085Y-105394925D01*
X169707927Y-105350659D01*
X169898287Y-105357306D01*
X169991805Y-105408220D01*
X170037733Y-105457472D01*
X170082000Y-105554314D01*
X170080338Y-105601904D01*
X170029424Y-105695422D01*
X169980172Y-105741350D01*
X169883330Y-105785617D01*
X169692970Y-105778969D01*
X169596128Y-105823235D01*
X169546876Y-105869164D01*
X169495962Y-105962682D01*
X169489315Y-106153042D01*
X169533581Y-106249884D01*
X169579509Y-106299136D01*
X169673027Y-106350050D01*
X169863388Y-106356697D01*
X169960229Y-106312431D01*
X170009481Y-106266503D01*
X170060395Y-106172985D01*
X170067043Y-105982624D01*
X170022776Y-105885782D01*
X169976848Y-105836531D01*
X169883330Y-105785617D01*
%TO.C,D17*%
X148957337Y-103853183D02*
X149000956Y-102854135D01*
X149238825Y-102864521D01*
X149379469Y-102918326D01*
X149470462Y-103017628D01*
X149513882Y-103114852D01*
X149553147Y-103307224D01*
X149546916Y-103449945D01*
X149491033Y-103638163D01*
X149439306Y-103731233D01*
X149340004Y-103822227D01*
X149195206Y-103863569D01*
X148957337Y-103853183D01*
X150479696Y-103919651D02*
X149908811Y-103894726D01*
X150194254Y-103907188D02*
X150237873Y-102908140D01*
X150136494Y-103046707D01*
X150037193Y-103137700D01*
X149939968Y-103181120D01*
X150856332Y-102935143D02*
X151522364Y-102964222D01*
X151050581Y-103944576D01*
%TO.C,D10*%
X129290914Y-80817980D02*
X129290914Y-79817980D01*
X129529009Y-79817980D01*
X129671866Y-79865600D01*
X129767104Y-79960838D01*
X129814723Y-80056076D01*
X129862342Y-80246552D01*
X129862342Y-80389409D01*
X129814723Y-80579885D01*
X129767104Y-80675123D01*
X129671866Y-80770361D01*
X129529009Y-80817980D01*
X129290914Y-80817980D01*
X130814723Y-80817980D02*
X130243295Y-80817980D01*
X130529009Y-80817980D02*
X130529009Y-79817980D01*
X130433771Y-79960838D01*
X130338533Y-80056076D01*
X130243295Y-80103695D01*
X131433771Y-79817980D02*
X131529009Y-79817980D01*
X131624247Y-79865600D01*
X131671866Y-79913219D01*
X131719485Y-80008457D01*
X131767104Y-80198933D01*
X131767104Y-80437028D01*
X131719485Y-80627504D01*
X131671866Y-80722742D01*
X131624247Y-80770361D01*
X131529009Y-80817980D01*
X131433771Y-80817980D01*
X131338533Y-80770361D01*
X131290914Y-80722742D01*
X131243295Y-80627504D01*
X131195676Y-80437028D01*
X131195676Y-80198933D01*
X131243295Y-80008457D01*
X131290914Y-79913219D01*
X131338533Y-79865600D01*
X131433771Y-79817980D01*
%TO.C,D14*%
X90505114Y-108046780D02*
X90505114Y-107046780D01*
X90743209Y-107046780D01*
X90886066Y-107094400D01*
X90981304Y-107189638D01*
X91028923Y-107284876D01*
X91076542Y-107475352D01*
X91076542Y-107618209D01*
X91028923Y-107808685D01*
X90981304Y-107903923D01*
X90886066Y-107999161D01*
X90743209Y-108046780D01*
X90505114Y-108046780D01*
X92028923Y-108046780D02*
X91457495Y-108046780D01*
X91743209Y-108046780D02*
X91743209Y-107046780D01*
X91647971Y-107189638D01*
X91552733Y-107284876D01*
X91457495Y-107332495D01*
X92886066Y-107380114D02*
X92886066Y-108046780D01*
X92647971Y-106999161D02*
X92409876Y-107713447D01*
X93028923Y-107713447D01*
%TO.C,D8*%
X91108304Y-89403180D02*
X91108304Y-88403180D01*
X91346400Y-88403180D01*
X91489257Y-88450800D01*
X91584495Y-88546038D01*
X91632114Y-88641276D01*
X91679733Y-88831752D01*
X91679733Y-88974609D01*
X91632114Y-89165085D01*
X91584495Y-89260323D01*
X91489257Y-89355561D01*
X91346400Y-89403180D01*
X91108304Y-89403180D01*
X92251161Y-88831752D02*
X92155923Y-88784133D01*
X92108304Y-88736514D01*
X92060685Y-88641276D01*
X92060685Y-88593657D01*
X92108304Y-88498419D01*
X92155923Y-88450800D01*
X92251161Y-88403180D01*
X92441638Y-88403180D01*
X92536876Y-88450800D01*
X92584495Y-88498419D01*
X92632114Y-88593657D01*
X92632114Y-88641276D01*
X92584495Y-88736514D01*
X92536876Y-88784133D01*
X92441638Y-88831752D01*
X92251161Y-88831752D01*
X92155923Y-88879371D01*
X92108304Y-88926990D01*
X92060685Y-89022228D01*
X92060685Y-89212704D01*
X92108304Y-89307942D01*
X92155923Y-89355561D01*
X92251161Y-89403180D01*
X92441638Y-89403180D01*
X92536876Y-89355561D01*
X92584495Y-89307942D01*
X92632114Y-89212704D01*
X92632114Y-89022228D01*
X92584495Y-88926990D01*
X92536876Y-88879371D01*
X92441638Y-88831752D01*
%TO.C,D22*%
X150652314Y-123439180D02*
X150652314Y-122439180D01*
X150890409Y-122439180D01*
X151033266Y-122486800D01*
X151128504Y-122582038D01*
X151176123Y-122677276D01*
X151223742Y-122867752D01*
X151223742Y-123010609D01*
X151176123Y-123201085D01*
X151128504Y-123296323D01*
X151033266Y-123391561D01*
X150890409Y-123439180D01*
X150652314Y-123439180D01*
X151604695Y-122534419D02*
X151652314Y-122486800D01*
X151747552Y-122439180D01*
X151985647Y-122439180D01*
X152080885Y-122486800D01*
X152128504Y-122534419D01*
X152176123Y-122629657D01*
X152176123Y-122724895D01*
X152128504Y-122867752D01*
X151557076Y-123439180D01*
X152176123Y-123439180D01*
X152557076Y-122534419D02*
X152604695Y-122486800D01*
X152699933Y-122439180D01*
X152938028Y-122439180D01*
X153033266Y-122486800D01*
X153080885Y-122534419D01*
X153128504Y-122629657D01*
X153128504Y-122724895D01*
X153080885Y-122867752D01*
X152509457Y-123439180D01*
X153128504Y-123439180D01*
%TO.C,D2*%
X90854304Y-74086980D02*
X90854304Y-73086980D01*
X91092400Y-73086980D01*
X91235257Y-73134600D01*
X91330495Y-73229838D01*
X91378114Y-73325076D01*
X91425733Y-73515552D01*
X91425733Y-73658409D01*
X91378114Y-73848885D01*
X91330495Y-73944123D01*
X91235257Y-74039361D01*
X91092400Y-74086980D01*
X90854304Y-74086980D01*
X91806685Y-73182219D02*
X91854304Y-73134600D01*
X91949542Y-73086980D01*
X92187638Y-73086980D01*
X92282876Y-73134600D01*
X92330495Y-73182219D01*
X92378114Y-73277457D01*
X92378114Y-73372695D01*
X92330495Y-73515552D01*
X91759066Y-74086980D01*
X92378114Y-74086980D01*
%TO.C,D5*%
X149720285Y-65003930D02*
X149807441Y-64007735D01*
X150044630Y-64028486D01*
X150182794Y-64088375D01*
X150269369Y-64191551D01*
X150308506Y-64290577D01*
X150339343Y-64484479D01*
X150326892Y-64626792D01*
X150262853Y-64812394D01*
X150207115Y-64903119D01*
X150103938Y-64989694D01*
X149957475Y-65024681D01*
X149720285Y-65003930D01*
X151278014Y-64136394D02*
X150803636Y-64094891D01*
X150714695Y-64565119D01*
X150766283Y-64521831D01*
X150865309Y-64482694D01*
X151102498Y-64503445D01*
X151193224Y-64559184D01*
X151236511Y-64610772D01*
X151275649Y-64709798D01*
X151254897Y-64946987D01*
X151199159Y-65037713D01*
X151147571Y-65081000D01*
X151048545Y-65120137D01*
X150811356Y-65099386D01*
X150720630Y-65043648D01*
X150677343Y-64992060D01*
%TO.C,D13*%
X92608219Y-112657114D02*
X93608219Y-112657114D01*
X93608219Y-112895209D01*
X93560600Y-113038066D01*
X93465361Y-113133304D01*
X93370123Y-113180923D01*
X93179647Y-113228542D01*
X93036790Y-113228542D01*
X92846314Y-113180923D01*
X92751076Y-113133304D01*
X92655838Y-113038066D01*
X92608219Y-112895209D01*
X92608219Y-112657114D01*
X92608219Y-114180923D02*
X92608219Y-113609495D01*
X92608219Y-113895209D02*
X93608219Y-113895209D01*
X93465361Y-113799971D01*
X93370123Y-113704733D01*
X93322504Y-113609495D01*
X93608219Y-114514257D02*
X93608219Y-115133304D01*
X93227266Y-114799971D01*
X93227266Y-114942828D01*
X93179647Y-115038066D01*
X93132028Y-115085685D01*
X93036790Y-115133304D01*
X92798695Y-115133304D01*
X92703457Y-115085685D01*
X92655838Y-115038066D01*
X92608219Y-114942828D01*
X92608219Y-114657114D01*
X92655838Y-114561876D01*
X92703457Y-114514257D01*
%TO.C,D4*%
X129005104Y-65273180D02*
X129005104Y-64273180D01*
X129243200Y-64273180D01*
X129386057Y-64320800D01*
X129481295Y-64416038D01*
X129528914Y-64511276D01*
X129576533Y-64701752D01*
X129576533Y-64844609D01*
X129528914Y-65035085D01*
X129481295Y-65130323D01*
X129386057Y-65225561D01*
X129243200Y-65273180D01*
X129005104Y-65273180D01*
X130433676Y-64606514D02*
X130433676Y-65273180D01*
X130195580Y-64225561D02*
X129957485Y-64939847D01*
X130576533Y-64939847D01*
%TO.C,D21*%
X127914717Y-127326166D02*
X127741068Y-126341359D01*
X127975547Y-126300014D01*
X128124502Y-126322102D01*
X128234831Y-126399356D01*
X128298265Y-126484878D01*
X128378236Y-126664191D01*
X128403043Y-126804878D01*
X128389224Y-127000730D01*
X128358866Y-127102790D01*
X128281613Y-127213119D01*
X128149195Y-127284821D01*
X127914717Y-127326166D01*
X128695519Y-126269771D02*
X128734145Y-126214606D01*
X128819667Y-126151172D01*
X129054145Y-126109828D01*
X129156206Y-126140185D01*
X129211370Y-126178812D01*
X129274804Y-126264334D01*
X129291342Y-126358125D01*
X129269253Y-126507081D01*
X128805733Y-127169056D01*
X129415376Y-127061560D01*
X130353288Y-126896180D02*
X129790541Y-126995408D01*
X130071915Y-126945794D02*
X129898266Y-125960986D01*
X129829282Y-126118211D01*
X129752029Y-126228540D01*
X129666507Y-126291974D01*
%TO.C,D3*%
X109624904Y-66644780D02*
X109624904Y-65644780D01*
X109863000Y-65644780D01*
X110005857Y-65692400D01*
X110101095Y-65787638D01*
X110148714Y-65882876D01*
X110196333Y-66073352D01*
X110196333Y-66216209D01*
X110148714Y-66406685D01*
X110101095Y-66501923D01*
X110005857Y-66597161D01*
X109863000Y-66644780D01*
X109624904Y-66644780D01*
X110529666Y-65644780D02*
X111148714Y-65644780D01*
X110815380Y-66025733D01*
X110958238Y-66025733D01*
X111053476Y-66073352D01*
X111101095Y-66120971D01*
X111148714Y-66216209D01*
X111148714Y-66454304D01*
X111101095Y-66549542D01*
X111053476Y-66597161D01*
X110958238Y-66644780D01*
X110672523Y-66644780D01*
X110577285Y-66597161D01*
X110529666Y-66549542D01*
%TO.C,D16*%
X129951314Y-99994980D02*
X129951314Y-98994980D01*
X130189409Y-98994980D01*
X130332266Y-99042600D01*
X130427504Y-99137838D01*
X130475123Y-99233076D01*
X130522742Y-99423552D01*
X130522742Y-99566409D01*
X130475123Y-99756885D01*
X130427504Y-99852123D01*
X130332266Y-99947361D01*
X130189409Y-99994980D01*
X129951314Y-99994980D01*
X131475123Y-99994980D02*
X130903695Y-99994980D01*
X131189409Y-99994980D02*
X131189409Y-98994980D01*
X131094171Y-99137838D01*
X130998933Y-99233076D01*
X130903695Y-99280695D01*
X132332266Y-98994980D02*
X132141790Y-98994980D01*
X132046552Y-99042600D01*
X131998933Y-99090219D01*
X131903695Y-99233076D01*
X131856076Y-99423552D01*
X131856076Y-99804504D01*
X131903695Y-99899742D01*
X131951314Y-99947361D01*
X132046552Y-99994980D01*
X132237028Y-99994980D01*
X132332266Y-99947361D01*
X132379885Y-99899742D01*
X132427504Y-99804504D01*
X132427504Y-99566409D01*
X132379885Y-99471171D01*
X132332266Y-99423552D01*
X132237028Y-99375933D01*
X132046552Y-99375933D01*
X131951314Y-99423552D01*
X131903695Y-99471171D01*
X131856076Y-99566409D01*
%TO.C,D15*%
X110037714Y-101036380D02*
X110037714Y-100036380D01*
X110275809Y-100036380D01*
X110418666Y-100084000D01*
X110513904Y-100179238D01*
X110561523Y-100274476D01*
X110609142Y-100464952D01*
X110609142Y-100607809D01*
X110561523Y-100798285D01*
X110513904Y-100893523D01*
X110418666Y-100988761D01*
X110275809Y-101036380D01*
X110037714Y-101036380D01*
X111561523Y-101036380D02*
X110990095Y-101036380D01*
X111275809Y-101036380D02*
X111275809Y-100036380D01*
X111180571Y-100179238D01*
X111085333Y-100274476D01*
X110990095Y-100322095D01*
X112466285Y-100036380D02*
X111990095Y-100036380D01*
X111942476Y-100512571D01*
X111990095Y-100464952D01*
X112085333Y-100417333D01*
X112323428Y-100417333D01*
X112418666Y-100464952D01*
X112466285Y-100512571D01*
X112513904Y-100607809D01*
X112513904Y-100845904D01*
X112466285Y-100941142D01*
X112418666Y-100988761D01*
X112323428Y-101036380D01*
X112085333Y-101036380D01*
X111990095Y-100988761D01*
X111942476Y-100941142D01*
%TO.C,D11*%
X148509307Y-83961627D02*
X148596463Y-82965432D01*
X148833652Y-82986184D01*
X148971815Y-83046072D01*
X149058390Y-83149249D01*
X149097528Y-83248275D01*
X149128364Y-83442176D01*
X149115913Y-83584490D01*
X149051875Y-83770091D01*
X148996136Y-83860816D01*
X148892960Y-83947391D01*
X148746496Y-83982378D01*
X148509307Y-83961627D01*
X150027318Y-84094436D02*
X149458064Y-84044633D01*
X149742691Y-84069534D02*
X149829847Y-83073339D01*
X149722520Y-83207352D01*
X149619344Y-83293928D01*
X149520318Y-83333065D01*
X150976075Y-84177441D02*
X150406821Y-84127638D01*
X150691448Y-84152540D02*
X150778603Y-83156345D01*
X150671277Y-83290358D01*
X150568101Y-83376933D01*
X150469075Y-83416070D01*
%TO.C,D19*%
X196705714Y-106095980D02*
X196705714Y-105095980D01*
X196943809Y-105095980D01*
X197086666Y-105143600D01*
X197181904Y-105238838D01*
X197229523Y-105334076D01*
X197277142Y-105524552D01*
X197277142Y-105667409D01*
X197229523Y-105857885D01*
X197181904Y-105953123D01*
X197086666Y-106048361D01*
X196943809Y-106095980D01*
X196705714Y-106095980D01*
X198229523Y-106095980D02*
X197658095Y-106095980D01*
X197943809Y-106095980D02*
X197943809Y-105095980D01*
X197848571Y-105238838D01*
X197753333Y-105334076D01*
X197658095Y-105381695D01*
X198705714Y-106095980D02*
X198896190Y-106095980D01*
X198991428Y-106048361D01*
X199039047Y-106000742D01*
X199134285Y-105857885D01*
X199181904Y-105667409D01*
X199181904Y-105286457D01*
X199134285Y-105191219D01*
X199086666Y-105143600D01*
X198991428Y-105095980D01*
X198800952Y-105095980D01*
X198705714Y-105143600D01*
X198658095Y-105191219D01*
X198610476Y-105286457D01*
X198610476Y-105524552D01*
X198658095Y-105619790D01*
X198705714Y-105667409D01*
X198800952Y-105715028D01*
X198991428Y-105715028D01*
X199086666Y-105667409D01*
X199134285Y-105619790D01*
X199181904Y-105524552D01*
%TO.C,D6*%
X168541685Y-67442330D02*
X168628841Y-66446135D01*
X168866030Y-66466886D01*
X169004194Y-66526775D01*
X169090769Y-66629951D01*
X169129906Y-66728977D01*
X169160743Y-66922879D01*
X169148292Y-67065192D01*
X169084253Y-67250794D01*
X169028515Y-67341519D01*
X168925338Y-67428094D01*
X168778875Y-67463081D01*
X168541685Y-67442330D01*
X170051976Y-66570643D02*
X169862225Y-66554042D01*
X169763199Y-66593179D01*
X169711611Y-66636467D01*
X169604284Y-66770480D01*
X169540245Y-66956081D01*
X169507043Y-67335584D01*
X169546181Y-67434610D01*
X169589468Y-67486198D01*
X169680194Y-67541936D01*
X169869945Y-67558537D01*
X169968971Y-67519400D01*
X170020559Y-67476113D01*
X170076297Y-67385387D01*
X170097049Y-67148198D01*
X170057911Y-67049172D01*
X170014624Y-66997584D01*
X169923898Y-66941845D01*
X169734147Y-66925244D01*
X169635121Y-66964382D01*
X169583533Y-67007669D01*
X169527795Y-67098395D01*
%TO.C,D24*%
X192208802Y-120721182D02*
X192708802Y-119855157D01*
X192914998Y-119974204D01*
X193014907Y-120086872D01*
X193049766Y-120216970D01*
X193043386Y-120323258D01*
X192989388Y-120512025D01*
X192917959Y-120635743D01*
X192781482Y-120776890D01*
X192692623Y-120835559D01*
X192562526Y-120870419D01*
X192414998Y-120840230D01*
X192208802Y-120721182D01*
X193485969Y-120413826D02*
X193551018Y-120396396D01*
X193657306Y-120402776D01*
X193863502Y-120521823D01*
X193922171Y-120610682D01*
X193939601Y-120675730D01*
X193933221Y-120782019D01*
X193885602Y-120864497D01*
X193772934Y-120964406D01*
X192992349Y-121173563D01*
X193528460Y-121483087D01*
X194604100Y-121334308D02*
X194270767Y-121911658D01*
X194588380Y-120885346D02*
X194025041Y-121384888D01*
X194561152Y-121694412D01*
%TO.C,D7*%
X92430419Y-94743704D02*
X93430419Y-94743704D01*
X93430419Y-94981800D01*
X93382800Y-95124657D01*
X93287561Y-95219895D01*
X93192323Y-95267514D01*
X93001847Y-95315133D01*
X92858990Y-95315133D01*
X92668514Y-95267514D01*
X92573276Y-95219895D01*
X92478038Y-95124657D01*
X92430419Y-94981800D01*
X92430419Y-94743704D01*
X93430419Y-95648466D02*
X93430419Y-96315133D01*
X92430419Y-95886561D01*
%TO.C,D20*%
X105303907Y-125592227D02*
X105391063Y-124596032D01*
X105628252Y-124616784D01*
X105766415Y-124676672D01*
X105852990Y-124779849D01*
X105892128Y-124878875D01*
X105922964Y-125072776D01*
X105910513Y-125215090D01*
X105846475Y-125400691D01*
X105790736Y-125491416D01*
X105687560Y-125577991D01*
X105541096Y-125612978D01*
X105303907Y-125592227D01*
X106331519Y-124773913D02*
X106383107Y-124730626D01*
X106482133Y-124691489D01*
X106719322Y-124712240D01*
X106810048Y-124767978D01*
X106853335Y-124819566D01*
X106892473Y-124918592D01*
X106884172Y-125013468D01*
X106824283Y-125151631D01*
X106205226Y-125671082D01*
X106821918Y-125725036D01*
X107525766Y-124782795D02*
X107620641Y-124791095D01*
X107711367Y-124846834D01*
X107754654Y-124898422D01*
X107793792Y-124997448D01*
X107824628Y-125191349D01*
X107803877Y-125428539D01*
X107739838Y-125614140D01*
X107684100Y-125704865D01*
X107632511Y-125748153D01*
X107533486Y-125787290D01*
X107438610Y-125778989D01*
X107347884Y-125723251D01*
X107304597Y-125671663D01*
X107265460Y-125572637D01*
X107234623Y-125378735D01*
X107255374Y-125141546D01*
X107319413Y-124955945D01*
X107375152Y-124865220D01*
X107426740Y-124821932D01*
X107525766Y-124782795D01*
%TO.C,D23*%
X176877807Y-123406430D02*
X177377807Y-122540405D01*
X177584003Y-122659452D01*
X177683912Y-122772120D01*
X177718771Y-122902218D01*
X177712391Y-123008506D01*
X177658393Y-123197273D01*
X177586964Y-123320991D01*
X177450487Y-123462138D01*
X177361628Y-123520807D01*
X177231531Y-123555667D01*
X177084003Y-123525478D01*
X176877807Y-123406430D01*
X178154974Y-123099074D02*
X178220023Y-123081644D01*
X178326311Y-123088024D01*
X178532507Y-123207071D01*
X178591176Y-123295930D01*
X178608606Y-123360978D01*
X178602226Y-123467267D01*
X178554607Y-123549745D01*
X178441939Y-123649654D01*
X177661354Y-123858811D01*
X178197465Y-124168335D01*
X178986140Y-123468976D02*
X179522251Y-123778500D01*
X179043099Y-123941748D01*
X179166817Y-124013176D01*
X179225486Y-124102035D01*
X179242916Y-124167083D01*
X179236536Y-124273372D01*
X179117489Y-124479568D01*
X179028630Y-124538237D01*
X178963582Y-124555667D01*
X178857293Y-124549287D01*
X178609858Y-124406430D01*
X178551188Y-124317572D01*
X178533759Y-124252523D01*
%TO.C,D9*%
X110793304Y-85593180D02*
X110793304Y-84593180D01*
X111031400Y-84593180D01*
X111174257Y-84640800D01*
X111269495Y-84736038D01*
X111317114Y-84831276D01*
X111364733Y-85021752D01*
X111364733Y-85164609D01*
X111317114Y-85355085D01*
X111269495Y-85450323D01*
X111174257Y-85545561D01*
X111031400Y-85593180D01*
X110793304Y-85593180D01*
X111840923Y-85593180D02*
X112031400Y-85593180D01*
X112126638Y-85545561D01*
X112174257Y-85497942D01*
X112269495Y-85355085D01*
X112317114Y-85164609D01*
X112317114Y-84783657D01*
X112269495Y-84688419D01*
X112221876Y-84640800D01*
X112126638Y-84593180D01*
X111936161Y-84593180D01*
X111840923Y-84640800D01*
X111793304Y-84688419D01*
X111745685Y-84783657D01*
X111745685Y-85021752D01*
X111793304Y-85116990D01*
X111840923Y-85164609D01*
X111936161Y-85212228D01*
X112126638Y-85212228D01*
X112221876Y-85164609D01*
X112269495Y-85116990D01*
X112317114Y-85021752D01*
%TO.C,D12*%
X167483107Y-86298427D02*
X167570263Y-85302232D01*
X167807452Y-85322984D01*
X167945615Y-85382872D01*
X168032190Y-85486049D01*
X168071328Y-85585075D01*
X168102164Y-85778976D01*
X168089713Y-85921290D01*
X168025675Y-86106891D01*
X167969936Y-86197616D01*
X167866760Y-86284191D01*
X167720296Y-86319178D01*
X167483107Y-86298427D01*
X169001118Y-86431236D02*
X168431864Y-86381433D01*
X168716491Y-86406334D02*
X168803647Y-85410139D01*
X168696320Y-85544152D01*
X168593144Y-85630728D01*
X168494118Y-85669865D01*
X169459476Y-85563119D02*
X169511064Y-85519831D01*
X169610090Y-85480694D01*
X169847279Y-85501445D01*
X169938005Y-85557184D01*
X169981292Y-85608772D01*
X170020429Y-85707798D01*
X170012129Y-85802674D01*
X169952240Y-85940837D01*
X169333183Y-86460288D01*
X169949875Y-86514241D01*
%TO.C,S9*%
X121895126Y-92295925D02*
X122040279Y-92336002D01*
X122278048Y-92323541D01*
X122370663Y-92271003D01*
X122415725Y-92220957D01*
X122458294Y-92123357D01*
X122453310Y-92028250D01*
X122400772Y-91935634D01*
X122350726Y-91890573D01*
X122253126Y-91848003D01*
X122060419Y-91810418D01*
X121962819Y-91767849D01*
X121912773Y-91722787D01*
X121860235Y-91630172D01*
X121855250Y-91535064D01*
X121897820Y-91437464D01*
X121942881Y-91387418D01*
X122035497Y-91334880D01*
X122273266Y-91322419D01*
X122418419Y-91362496D01*
X122943801Y-92288650D02*
X123134016Y-92278682D01*
X123226632Y-92226143D01*
X123271693Y-92176097D01*
X123359324Y-92028452D01*
X123396909Y-91835744D01*
X123376972Y-91455314D01*
X123324434Y-91362699D01*
X123274388Y-91317637D01*
X123176788Y-91275068D01*
X122986573Y-91285036D01*
X122893957Y-91337575D01*
X122848896Y-91387621D01*
X122806326Y-91485220D01*
X122818787Y-91722989D01*
X122871325Y-91815605D01*
X122921371Y-91860666D01*
X123018971Y-91903236D01*
X123209186Y-91893267D01*
X123301802Y-91840729D01*
X123346863Y-91790683D01*
X123389433Y-91693083D01*
%TO.C,S8*%
X103798861Y-99283850D02*
X103945325Y-99318837D01*
X104182514Y-99298085D01*
X104273240Y-99242347D01*
X104316527Y-99190759D01*
X104355665Y-99091733D01*
X104347364Y-98996857D01*
X104291626Y-98906132D01*
X104240038Y-98862844D01*
X104141012Y-98823707D01*
X103947110Y-98792870D01*
X103848084Y-98753733D01*
X103796496Y-98710445D01*
X103740758Y-98619720D01*
X103732457Y-98524844D01*
X103771594Y-98425818D01*
X103814882Y-98374230D01*
X103905607Y-98318492D01*
X104142796Y-98297740D01*
X104289260Y-98332727D01*
X104891717Y-98662427D02*
X104792691Y-98623289D01*
X104741102Y-98580002D01*
X104685364Y-98489276D01*
X104681214Y-98441839D01*
X104720351Y-98342813D01*
X104763639Y-98291225D01*
X104854364Y-98235486D01*
X105044115Y-98218885D01*
X105143141Y-98258022D01*
X105194730Y-98301310D01*
X105250468Y-98392035D01*
X105254618Y-98439473D01*
X105215481Y-98538499D01*
X105172193Y-98590087D01*
X105081468Y-98645826D01*
X104891717Y-98662427D01*
X104800991Y-98718165D01*
X104757704Y-98769753D01*
X104718566Y-98868779D01*
X104735167Y-99058531D01*
X104790906Y-99149256D01*
X104842494Y-99192544D01*
X104941520Y-99231681D01*
X105131271Y-99215080D01*
X105221997Y-99159341D01*
X105265284Y-99107753D01*
X105304421Y-99008727D01*
X105287820Y-98818976D01*
X105232082Y-98728250D01*
X105180494Y-98684963D01*
X105081468Y-98645826D01*
%TO.C,H3*%
X100304695Y-127249180D02*
X100304695Y-126249180D01*
X100304695Y-126725371D02*
X100876123Y-126725371D01*
X100876123Y-127249180D02*
X100876123Y-126249180D01*
X101257076Y-126249180D02*
X101876123Y-126249180D01*
X101542790Y-126630133D01*
X101685647Y-126630133D01*
X101780885Y-126677752D01*
X101828504Y-126725371D01*
X101876123Y-126820609D01*
X101876123Y-127058704D01*
X101828504Y-127153942D01*
X101780885Y-127201561D01*
X101685647Y-127249180D01*
X101399933Y-127249180D01*
X101304695Y-127201561D01*
X101257076Y-127153942D01*
%TO.C,S22*%
X173731397Y-132421086D02*
X173831305Y-132533754D01*
X174037502Y-132652801D01*
X174143790Y-132659181D01*
X174208838Y-132641751D01*
X174297697Y-132583082D01*
X174345316Y-132500604D01*
X174351696Y-132394316D01*
X174334266Y-132329267D01*
X174275597Y-132240408D01*
X174134449Y-132103931D01*
X174075780Y-132015073D01*
X174058350Y-131950024D01*
X174064730Y-131843736D01*
X174112349Y-131761257D01*
X174201207Y-131702588D01*
X174266256Y-131685158D01*
X174372544Y-131691538D01*
X174578741Y-131810586D01*
X174678649Y-131923253D01*
X174984754Y-132154969D02*
X175049803Y-132137539D01*
X175156091Y-132143919D01*
X175362288Y-132262967D01*
X175420957Y-132351825D01*
X175438387Y-132416874D01*
X175432007Y-132523162D01*
X175384388Y-132605640D01*
X175271720Y-132705549D01*
X174491134Y-132914706D01*
X175027245Y-133224230D01*
X175809540Y-132631159D02*
X175874589Y-132613730D01*
X175980877Y-132620109D01*
X176187074Y-132739157D01*
X176245743Y-132828015D01*
X176263173Y-132893064D01*
X176256793Y-132999352D01*
X176209174Y-133081831D01*
X176096506Y-133181739D01*
X175315920Y-133390897D01*
X175852031Y-133700421D01*
%TO.C,S19*%
X106376538Y-134305714D02*
X106514702Y-134365603D01*
X106751891Y-134386354D01*
X106850917Y-134347217D01*
X106902505Y-134303929D01*
X106958243Y-134213204D01*
X106966544Y-134118328D01*
X106927406Y-134019302D01*
X106884119Y-133967714D01*
X106793393Y-133911976D01*
X106607792Y-133847937D01*
X106517067Y-133792198D01*
X106473779Y-133740610D01*
X106434642Y-133641584D01*
X106442943Y-133546709D01*
X106498681Y-133455983D01*
X106550269Y-133412696D01*
X106649295Y-133373558D01*
X106886484Y-133394310D01*
X107024648Y-133454198D01*
X107890399Y-134485961D02*
X107321145Y-134436157D01*
X107605772Y-134461059D02*
X107692928Y-133464864D01*
X107585601Y-133598877D01*
X107482425Y-133685452D01*
X107383399Y-133724590D01*
X108364777Y-134527463D02*
X108554529Y-134544064D01*
X108653555Y-134504927D01*
X108705143Y-134461640D01*
X108812469Y-134327627D01*
X108876508Y-134142026D01*
X108909710Y-133762523D01*
X108870573Y-133663497D01*
X108827286Y-133611909D01*
X108736560Y-133556170D01*
X108546809Y-133539569D01*
X108447783Y-133578707D01*
X108396195Y-133621994D01*
X108340456Y-133712720D01*
X108319705Y-133949909D01*
X108358842Y-134048935D01*
X108402130Y-134100523D01*
X108492855Y-134156261D01*
X108682607Y-134172862D01*
X108781633Y-134133725D01*
X108833221Y-134090437D01*
X108888959Y-133999712D01*
%TO.C,U1*%
X187863795Y-53790980D02*
X187863795Y-54600504D01*
X187911414Y-54695742D01*
X187959033Y-54743361D01*
X188054271Y-54790980D01*
X188244747Y-54790980D01*
X188339985Y-54743361D01*
X188387604Y-54695742D01*
X188435223Y-54600504D01*
X188435223Y-53790980D01*
X189435223Y-54790980D02*
X188863795Y-54790980D01*
X189149509Y-54790980D02*
X189149509Y-53790980D01*
X189054271Y-53933838D01*
X188959033Y-54029076D01*
X188863795Y-54076695D01*
%TO.C,J3*%
X204263666Y-85681980D02*
X204263666Y-86396266D01*
X204216047Y-86539123D01*
X204120809Y-86634361D01*
X203977952Y-86681980D01*
X203882714Y-86681980D01*
X204644619Y-85681980D02*
X205263666Y-85681980D01*
X204930333Y-86062933D01*
X205073190Y-86062933D01*
X205168428Y-86110552D01*
X205216047Y-86158171D01*
X205263666Y-86253409D01*
X205263666Y-86491504D01*
X205216047Y-86586742D01*
X205168428Y-86634361D01*
X205073190Y-86681980D01*
X204787476Y-86681980D01*
X204692238Y-86634361D01*
X204644619Y-86586742D01*
%TO.C,S1*%
X80369137Y-81797290D02*
X80513936Y-81838632D01*
X80751804Y-81828247D01*
X80844875Y-81776519D01*
X80890371Y-81726868D01*
X80933791Y-81629643D01*
X80929636Y-81534496D01*
X80877909Y-81441426D01*
X80828258Y-81395929D01*
X80731033Y-81352510D01*
X80538661Y-81313244D01*
X80441437Y-81269825D01*
X80391786Y-81224328D01*
X80340058Y-81131258D01*
X80335904Y-81036110D01*
X80379323Y-80938886D01*
X80424820Y-80889235D01*
X80517890Y-80837507D01*
X80755759Y-80827121D01*
X80900557Y-80868464D01*
X81893574Y-81778396D02*
X81322689Y-81803321D01*
X81608131Y-81790859D02*
X81564512Y-80791811D01*
X81475596Y-80938686D01*
X81384603Y-81037988D01*
X81291532Y-81089716D01*
%TO.C,LIPO1*%
X191571428Y-76952380D02*
X191095238Y-76952380D01*
X191095238Y-75952380D01*
X191904761Y-76952380D02*
X191904761Y-75952380D01*
X192380952Y-76952380D02*
X192380952Y-75952380D01*
X192761904Y-75952380D01*
X192857142Y-76000000D01*
X192904761Y-76047619D01*
X192952380Y-76142857D01*
X192952380Y-76285714D01*
X192904761Y-76380952D01*
X192857142Y-76428571D01*
X192761904Y-76476190D01*
X192380952Y-76476190D01*
X193571428Y-75952380D02*
X193761904Y-75952380D01*
X193857142Y-76000000D01*
X193952380Y-76095238D01*
X194000000Y-76285714D01*
X194000000Y-76619047D01*
X193952380Y-76809523D01*
X193857142Y-76904761D01*
X193761904Y-76952380D01*
X193571428Y-76952380D01*
X193476190Y-76904761D01*
X193380952Y-76809523D01*
X193333333Y-76619047D01*
X193333333Y-76285714D01*
X193380952Y-76095238D01*
X193476190Y-76000000D01*
X193571428Y-75952380D01*
X194952380Y-76952380D02*
X194380952Y-76952380D01*
X194666666Y-76952380D02*
X194666666Y-75952380D01*
X194571428Y-76095238D01*
X194476190Y-76190476D01*
X194380952Y-76238095D01*
%TO.C,S23*%
X205150744Y-134892675D02*
X205285431Y-134825331D01*
X205453790Y-134656973D01*
X205487461Y-134555957D01*
X205487461Y-134488614D01*
X205453790Y-134387599D01*
X205386446Y-134320255D01*
X205285431Y-134286583D01*
X205218087Y-134286583D01*
X205117072Y-134320255D01*
X204948713Y-134421270D01*
X204847698Y-134454942D01*
X204780355Y-134454942D01*
X204679339Y-134421270D01*
X204611996Y-134353927D01*
X204578324Y-134252912D01*
X204578324Y-134185568D01*
X204611996Y-134084553D01*
X204780355Y-133916194D01*
X204915042Y-133848851D01*
X205218087Y-133613148D02*
X205218087Y-133545805D01*
X205251759Y-133444790D01*
X205420118Y-133276431D01*
X205521133Y-133242759D01*
X205588477Y-133242759D01*
X205689492Y-133276431D01*
X205756835Y-133343774D01*
X205824179Y-133478461D01*
X205824179Y-134286583D01*
X206261912Y-133848851D01*
X205790507Y-132906042D02*
X206228240Y-132468309D01*
X206261912Y-132973385D01*
X206362927Y-132872370D01*
X206463942Y-132838698D01*
X206531286Y-132838698D01*
X206632301Y-132872370D01*
X206800660Y-133040729D01*
X206834331Y-133141744D01*
X206834331Y-133209087D01*
X206800660Y-133310103D01*
X206598629Y-133512133D01*
X206497614Y-133545805D01*
X206430270Y-133545805D01*
%TO.C,S11*%
X158707143Y-92196694D02*
X158845307Y-92256583D01*
X159082496Y-92277334D01*
X159181522Y-92238197D01*
X159233110Y-92194909D01*
X159288848Y-92104184D01*
X159297149Y-92009308D01*
X159258011Y-91910282D01*
X159214724Y-91858694D01*
X159123998Y-91802956D01*
X158938397Y-91738917D01*
X158847672Y-91683178D01*
X158804384Y-91631590D01*
X158765247Y-91532564D01*
X158773548Y-91437689D01*
X158829286Y-91346963D01*
X158880874Y-91303676D01*
X158979900Y-91264538D01*
X159217089Y-91285290D01*
X159355253Y-91345178D01*
X160221004Y-92376941D02*
X159651750Y-92327137D01*
X159936377Y-92352039D02*
X160023533Y-91355844D01*
X159916206Y-91489857D01*
X159813030Y-91576432D01*
X159714004Y-91615570D01*
X161169761Y-92459946D02*
X160600507Y-92410143D01*
X160885134Y-92435044D02*
X160972290Y-91438850D01*
X160864963Y-91572863D01*
X160761787Y-91659438D01*
X160662761Y-91698575D01*
%TO.C,S3*%
X120695126Y-73295925D02*
X120840279Y-73336002D01*
X121078048Y-73323541D01*
X121170663Y-73271003D01*
X121215725Y-73220957D01*
X121258294Y-73123357D01*
X121253310Y-73028250D01*
X121200772Y-72935634D01*
X121150726Y-72890573D01*
X121053126Y-72848003D01*
X120860419Y-72810418D01*
X120762819Y-72767849D01*
X120712773Y-72722787D01*
X120660235Y-72630172D01*
X120655250Y-72535064D01*
X120697820Y-72437464D01*
X120742881Y-72387418D01*
X120835497Y-72334880D01*
X121073266Y-72322419D01*
X121218419Y-72362496D01*
X121548804Y-72297497D02*
X122167003Y-72265099D01*
X121854064Y-72662975D01*
X121996725Y-72655498D01*
X122094325Y-72698067D01*
X122144371Y-72743129D01*
X122196909Y-72835744D01*
X122209370Y-73073513D01*
X122166801Y-73171113D01*
X122121739Y-73221159D01*
X122029124Y-73273697D01*
X121743801Y-73288650D01*
X121646201Y-73246081D01*
X121596155Y-73201019D01*
%TO.C,S10*%
X139963004Y-90794147D02*
X140105861Y-90841766D01*
X140343957Y-90841766D01*
X140439195Y-90794147D01*
X140486814Y-90746528D01*
X140534433Y-90651290D01*
X140534433Y-90556052D01*
X140486814Y-90460814D01*
X140439195Y-90413195D01*
X140343957Y-90365576D01*
X140153480Y-90317957D01*
X140058242Y-90270338D01*
X140010623Y-90222719D01*
X139963004Y-90127481D01*
X139963004Y-90032243D01*
X140010623Y-89937005D01*
X140058242Y-89889386D01*
X140153480Y-89841766D01*
X140391576Y-89841766D01*
X140534433Y-89889386D01*
X141486814Y-90841766D02*
X140915385Y-90841766D01*
X141201100Y-90841766D02*
X141201100Y-89841766D01*
X141105861Y-89984624D01*
X141010623Y-90079862D01*
X140915385Y-90127481D01*
X142105861Y-89841766D02*
X142201100Y-89841766D01*
X142296338Y-89889386D01*
X142343957Y-89937005D01*
X142391576Y-90032243D01*
X142439195Y-90222719D01*
X142439195Y-90460814D01*
X142391576Y-90651290D01*
X142343957Y-90746528D01*
X142296338Y-90794147D01*
X142201100Y-90841766D01*
X142105861Y-90841766D01*
X142010623Y-90794147D01*
X141963004Y-90746528D01*
X141915385Y-90651290D01*
X141867766Y-90460814D01*
X141867766Y-90222719D01*
X141915385Y-90032243D01*
X141963004Y-89937005D01*
X142010623Y-89889386D01*
X142105861Y-89841766D01*
%TO.C,S18*%
X177959662Y-114263086D02*
X178100771Y-114315662D01*
X178338721Y-114323971D01*
X178435563Y-114279705D01*
X178484815Y-114233777D01*
X178535729Y-114140258D01*
X178539052Y-114045078D01*
X178494786Y-113948236D01*
X178448858Y-113898984D01*
X178355340Y-113848071D01*
X178166641Y-113793833D01*
X178073123Y-113742919D01*
X178027195Y-113693667D01*
X177982929Y-113596825D01*
X177986253Y-113501645D01*
X178037166Y-113408127D01*
X178086418Y-113362199D01*
X178183260Y-113317933D01*
X178421210Y-113326242D01*
X178562319Y-113378818D01*
X179480882Y-114363856D02*
X178909801Y-114343914D01*
X179195342Y-114353885D02*
X179230241Y-113354494D01*
X179130075Y-113493940D01*
X179031572Y-113585797D01*
X178934730Y-113630063D01*
X180071905Y-113812718D02*
X179978387Y-113761804D01*
X179932459Y-113712553D01*
X179888192Y-113615711D01*
X179889854Y-113568121D01*
X179940768Y-113474602D01*
X179990020Y-113428674D01*
X180086862Y-113384408D01*
X180277222Y-113391055D01*
X180370740Y-113441969D01*
X180416668Y-113491221D01*
X180460935Y-113588063D01*
X180459273Y-113635653D01*
X180408359Y-113729171D01*
X180359107Y-113775100D01*
X180262265Y-113819366D01*
X180071905Y-113812718D01*
X179975063Y-113856985D01*
X179925811Y-113902913D01*
X179874897Y-113996431D01*
X179868250Y-114186791D01*
X179912516Y-114283633D01*
X179958444Y-114332885D01*
X180051962Y-114383799D01*
X180242322Y-114390446D01*
X180339164Y-114346180D01*
X180388416Y-114300252D01*
X180439330Y-114206734D01*
X180445978Y-114016373D01*
X180401711Y-113919532D01*
X180355783Y-113870280D01*
X180262265Y-113819366D01*
%TO.C,S4*%
X140039195Y-71794147D02*
X140182052Y-71841766D01*
X140420147Y-71841766D01*
X140515385Y-71794147D01*
X140563004Y-71746528D01*
X140610623Y-71651290D01*
X140610623Y-71556052D01*
X140563004Y-71460814D01*
X140515385Y-71413195D01*
X140420147Y-71365576D01*
X140229671Y-71317957D01*
X140134433Y-71270338D01*
X140086814Y-71222719D01*
X140039195Y-71127481D01*
X140039195Y-71032243D01*
X140086814Y-70937005D01*
X140134433Y-70889386D01*
X140229671Y-70841766D01*
X140467766Y-70841766D01*
X140610623Y-70889386D01*
X141467766Y-71175100D02*
X141467766Y-71841766D01*
X141229671Y-70794147D02*
X140991576Y-71508433D01*
X141610623Y-71508433D01*
%TO.C,S17*%
X159134010Y-112053667D02*
X159274654Y-112107472D01*
X159512523Y-112117858D01*
X159609747Y-112074438D01*
X159659398Y-112028942D01*
X159711126Y-111935871D01*
X159715280Y-111840724D01*
X159671861Y-111743499D01*
X159626364Y-111693849D01*
X159533294Y-111642121D01*
X159345076Y-111586238D01*
X159252006Y-111534510D01*
X159206509Y-111484860D01*
X159163090Y-111387635D01*
X159167244Y-111292488D01*
X159218972Y-111199417D01*
X159268623Y-111153921D01*
X159365847Y-111110501D01*
X159603716Y-111120887D01*
X159744360Y-111174692D01*
X160654292Y-112167709D02*
X160083408Y-112142783D01*
X160368850Y-112155246D02*
X160412469Y-111156198D01*
X160311091Y-111294765D01*
X160211789Y-111385758D01*
X160114564Y-111429177D01*
X161030928Y-111183200D02*
X161696960Y-111212280D01*
X161225177Y-112192634D01*
%TO.C,S5*%
X159781522Y-73238197D02*
X159919685Y-73298085D01*
X160156874Y-73318837D01*
X160255900Y-73279700D01*
X160307488Y-73236412D01*
X160363227Y-73145687D01*
X160371527Y-73050811D01*
X160332390Y-72951785D01*
X160289102Y-72900197D01*
X160198377Y-72844458D01*
X160012776Y-72780419D01*
X159922050Y-72724681D01*
X159878763Y-72673093D01*
X159839626Y-72574067D01*
X159847926Y-72479191D01*
X159903664Y-72388466D01*
X159955253Y-72345178D01*
X160054279Y-72306041D01*
X160291468Y-72326792D01*
X160429631Y-72386681D01*
X161335100Y-72418098D02*
X160860722Y-72376596D01*
X160771781Y-72846824D01*
X160823369Y-72803536D01*
X160922395Y-72764399D01*
X161159585Y-72785150D01*
X161250310Y-72840889D01*
X161293598Y-72892477D01*
X161332735Y-72991503D01*
X161311983Y-73228692D01*
X161256245Y-73319417D01*
X161204657Y-73362705D01*
X161105631Y-73401842D01*
X160868442Y-73381091D01*
X160777716Y-73325353D01*
X160734429Y-73273764D01*
%TO.C,S20*%
X141085784Y-135590071D02*
X141234740Y-135612160D01*
X141469218Y-135570815D01*
X141554740Y-135507382D01*
X141593367Y-135452217D01*
X141623724Y-135350157D01*
X141607186Y-135256366D01*
X141543753Y-135170843D01*
X141488588Y-135132217D01*
X141386528Y-135101859D01*
X141190677Y-135088039D01*
X141088617Y-135057682D01*
X141033452Y-135019055D01*
X140970018Y-134933533D01*
X140953481Y-134839741D01*
X140983838Y-134737681D01*
X141022465Y-134682517D01*
X141107987Y-134619083D01*
X141342465Y-134577738D01*
X141491421Y-134599827D01*
X141874855Y-134580571D02*
X141913481Y-134525406D01*
X141999004Y-134461973D01*
X142233482Y-134420628D01*
X142335542Y-134450986D01*
X142390706Y-134489612D01*
X142454140Y-134575135D01*
X142470678Y-134668926D01*
X142448589Y-134817882D01*
X141985069Y-135479856D01*
X142594712Y-135372360D01*
X143030707Y-134280056D02*
X143124498Y-134263518D01*
X143226558Y-134293876D01*
X143281723Y-134332502D01*
X143345156Y-134418024D01*
X143425128Y-134597338D01*
X143466473Y-134831816D01*
X143452653Y-135027667D01*
X143422295Y-135129727D01*
X143383669Y-135184892D01*
X143298146Y-135248326D01*
X143204355Y-135264864D01*
X143102295Y-135234506D01*
X143047130Y-135195879D01*
X142983697Y-135110357D01*
X142903725Y-134931043D01*
X142862381Y-134696565D01*
X142876200Y-134500714D01*
X142906558Y-134398654D01*
X142945185Y-134343489D01*
X143030707Y-134280056D01*
%TO.C,H8*%
X140970095Y-116835180D02*
X140970095Y-115835180D01*
X140970095Y-116311371D02*
X141541523Y-116311371D01*
X141541523Y-116835180D02*
X141541523Y-115835180D01*
X142160571Y-116263752D02*
X142065333Y-116216133D01*
X142017714Y-116168514D01*
X141970095Y-116073276D01*
X141970095Y-116025657D01*
X142017714Y-115930419D01*
X142065333Y-115882800D01*
X142160571Y-115835180D01*
X142351047Y-115835180D01*
X142446285Y-115882800D01*
X142493904Y-115930419D01*
X142541523Y-116025657D01*
X142541523Y-116073276D01*
X142493904Y-116168514D01*
X142446285Y-116216133D01*
X142351047Y-116263752D01*
X142160571Y-116263752D01*
X142065333Y-116311371D01*
X142017714Y-116358990D01*
X141970095Y-116454228D01*
X141970095Y-116644704D01*
X142017714Y-116739942D01*
X142065333Y-116787561D01*
X142160571Y-116835180D01*
X142351047Y-116835180D01*
X142446285Y-116787561D01*
X142493904Y-116739942D01*
X142541523Y-116644704D01*
X142541523Y-116454228D01*
X142493904Y-116358990D01*
X142446285Y-116311371D01*
X142351047Y-116263752D01*
%TO.C,H5*%
X184124695Y-56484780D02*
X184124695Y-55484780D01*
X184124695Y-55960971D02*
X184696123Y-55960971D01*
X184696123Y-56484780D02*
X184696123Y-55484780D01*
X185648504Y-55484780D02*
X185172314Y-55484780D01*
X185124695Y-55960971D01*
X185172314Y-55913352D01*
X185267552Y-55865733D01*
X185505647Y-55865733D01*
X185600885Y-55913352D01*
X185648504Y-55960971D01*
X185696123Y-56056209D01*
X185696123Y-56294304D01*
X185648504Y-56389542D01*
X185600885Y-56437161D01*
X185505647Y-56484780D01*
X185267552Y-56484780D01*
X185172314Y-56437161D01*
X185124695Y-56389542D01*
%TO.C,S13*%
X87702184Y-118735524D02*
X87846616Y-118778128D01*
X88084567Y-118769819D01*
X88178085Y-118718905D01*
X88224013Y-118669653D01*
X88268279Y-118572811D01*
X88264956Y-118477631D01*
X88214042Y-118384113D01*
X88164790Y-118338185D01*
X88067948Y-118293918D01*
X87875926Y-118252976D01*
X87779084Y-118208710D01*
X87729832Y-118162781D01*
X87678918Y-118069263D01*
X87675594Y-117974083D01*
X87719861Y-117877241D01*
X87765789Y-117827989D01*
X87859307Y-117777075D01*
X88097257Y-117768766D01*
X88241689Y-117811370D01*
X89226728Y-118729934D02*
X88655647Y-118749876D01*
X88941187Y-118739905D02*
X88906288Y-117740514D01*
X88816093Y-117886608D01*
X88724237Y-117985112D01*
X88630719Y-118036026D01*
X89524958Y-117718910D02*
X90143629Y-117697305D01*
X89823794Y-118089659D01*
X89966564Y-118084673D01*
X90063406Y-118128939D01*
X90112658Y-118174867D01*
X90163571Y-118268386D01*
X90171881Y-118506336D01*
X90127615Y-118603178D01*
X90081686Y-118652430D01*
X89988168Y-118703343D01*
X89702628Y-118713315D01*
X89605786Y-118669049D01*
X89556534Y-118623120D01*
%TO.C,J1*%
X212747266Y-83297780D02*
X212747266Y-84012066D01*
X212699647Y-84154923D01*
X212604409Y-84250161D01*
X212461552Y-84297780D01*
X212366314Y-84297780D01*
X213747266Y-84297780D02*
X213175838Y-84297780D01*
X213461552Y-84297780D02*
X213461552Y-83297780D01*
X213366314Y-83440638D01*
X213271076Y-83535876D01*
X213175838Y-83583495D01*
%TO.C,H6*%
X209753295Y-56357780D02*
X209753295Y-55357780D01*
X209753295Y-55833971D02*
X210324723Y-55833971D01*
X210324723Y-56357780D02*
X210324723Y-55357780D01*
X211229485Y-55357780D02*
X211039009Y-55357780D01*
X210943771Y-55405400D01*
X210896152Y-55453019D01*
X210800914Y-55595876D01*
X210753295Y-55786352D01*
X210753295Y-56167304D01*
X210800914Y-56262542D01*
X210848533Y-56310161D01*
X210943771Y-56357780D01*
X211134247Y-56357780D01*
X211229485Y-56310161D01*
X211277104Y-56262542D01*
X211324723Y-56167304D01*
X211324723Y-55929209D01*
X211277104Y-55833971D01*
X211229485Y-55786352D01*
X211134247Y-55738733D01*
X210943771Y-55738733D01*
X210848533Y-55786352D01*
X210800914Y-55833971D01*
X210753295Y-55929209D01*
%TO.C,S16*%
X140763004Y-109994147D02*
X140905861Y-110041766D01*
X141143957Y-110041766D01*
X141239195Y-109994147D01*
X141286814Y-109946528D01*
X141334433Y-109851290D01*
X141334433Y-109756052D01*
X141286814Y-109660814D01*
X141239195Y-109613195D01*
X141143957Y-109565576D01*
X140953480Y-109517957D01*
X140858242Y-109470338D01*
X140810623Y-109422719D01*
X140763004Y-109327481D01*
X140763004Y-109232243D01*
X140810623Y-109137005D01*
X140858242Y-109089386D01*
X140953480Y-109041766D01*
X141191576Y-109041766D01*
X141334433Y-109089386D01*
X142286814Y-110041766D02*
X141715385Y-110041766D01*
X142001100Y-110041766D02*
X142001100Y-109041766D01*
X141905861Y-109184624D01*
X141810623Y-109279862D01*
X141715385Y-109327481D01*
X143143957Y-109041766D02*
X142953480Y-109041766D01*
X142858242Y-109089386D01*
X142810623Y-109137005D01*
X142715385Y-109279862D01*
X142667766Y-109470338D01*
X142667766Y-109851290D01*
X142715385Y-109946528D01*
X142763004Y-109994147D01*
X142858242Y-110041766D01*
X143048719Y-110041766D01*
X143143957Y-109994147D01*
X143191576Y-109946528D01*
X143239195Y-109851290D01*
X143239195Y-109613195D01*
X143191576Y-109517957D01*
X143143957Y-109470338D01*
X143048719Y-109422719D01*
X142858242Y-109422719D01*
X142763004Y-109470338D01*
X142715385Y-109517957D01*
X142667766Y-109613195D01*
%TO.C,ENC1*%
X197476516Y-125890775D02*
X197778619Y-126031648D01*
X197686720Y-126566754D02*
X197255145Y-126365507D01*
X197677763Y-125459200D01*
X198109338Y-125660446D01*
X198075137Y-126747876D02*
X198497756Y-125841569D01*
X198593027Y-126989372D01*
X199015646Y-126083065D01*
X199582742Y-127345800D02*
X199519460Y-127368833D01*
X199369863Y-127351617D01*
X199283548Y-127311367D01*
X199174200Y-127207836D01*
X199128134Y-127081271D01*
X199125226Y-126974832D01*
X199162567Y-126782077D01*
X199222941Y-126652604D01*
X199346597Y-126500099D01*
X199430004Y-126433909D01*
X199556569Y-126387843D01*
X199706166Y-126405060D01*
X199792481Y-126445309D01*
X199901829Y-126548840D01*
X199924862Y-126612123D01*
X200405643Y-127834609D02*
X199887753Y-127593113D01*
X200146698Y-127713861D02*
X200569316Y-126807553D01*
X200422627Y-126896776D01*
X200296063Y-126942842D01*
X200189623Y-126945750D01*
%TO.C,S15*%
X121915036Y-111305703D02*
X122058702Y-111350822D01*
X122296761Y-111346667D01*
X122391154Y-111297393D01*
X122437935Y-111248950D01*
X122483884Y-111152895D01*
X122482222Y-111057672D01*
X122432948Y-110963279D01*
X122384505Y-110916498D01*
X122288451Y-110870549D01*
X122097172Y-110826261D01*
X122001118Y-110780312D01*
X121952675Y-110733531D01*
X121903401Y-110639138D01*
X121901739Y-110543915D01*
X121947688Y-110447860D01*
X121994469Y-110399417D01*
X122088862Y-110350143D01*
X122326921Y-110345988D01*
X122470587Y-110391107D01*
X123439444Y-111326721D02*
X122868103Y-111336694D01*
X123153774Y-111331708D02*
X123136321Y-110331860D01*
X123043591Y-110476357D01*
X122950029Y-110573243D01*
X122855637Y-110622517D01*
X124326616Y-110311083D02*
X123850498Y-110319394D01*
X123811197Y-110796343D01*
X123857978Y-110747900D01*
X123952370Y-110698626D01*
X124190429Y-110694471D01*
X124286484Y-110740420D01*
X124334927Y-110787201D01*
X124384201Y-110881594D01*
X124388356Y-111119653D01*
X124342406Y-111215707D01*
X124295626Y-111264150D01*
X124201233Y-111313424D01*
X123963174Y-111317579D01*
X123867119Y-111271630D01*
X123818677Y-111224849D01*
%TO.C,S14*%
X103067245Y-118314604D02*
X103211677Y-118357208D01*
X103449628Y-118348899D01*
X103543146Y-118297985D01*
X103589074Y-118248733D01*
X103633340Y-118151891D01*
X103630017Y-118056711D01*
X103579103Y-117963193D01*
X103529851Y-117917265D01*
X103433009Y-117872998D01*
X103240987Y-117832056D01*
X103144145Y-117787790D01*
X103094893Y-117741861D01*
X103043979Y-117648343D01*
X103040655Y-117553163D01*
X103084922Y-117456321D01*
X103130850Y-117407069D01*
X103224368Y-117356155D01*
X103462318Y-117347846D01*
X103606750Y-117390450D01*
X104591789Y-118309014D02*
X104020708Y-118328956D01*
X104306248Y-118318985D02*
X104271349Y-117319594D01*
X104181154Y-117465688D01*
X104089298Y-117564192D01*
X103995780Y-117615106D01*
X105425143Y-117612839D02*
X105448409Y-118279100D01*
X105173898Y-117240428D02*
X104960876Y-117962588D01*
X105579546Y-117940984D01*
%TO.C,SW1*%
X210419961Y-61916623D02*
X210467580Y-61773766D01*
X210467580Y-61535671D01*
X210419961Y-61440433D01*
X210372342Y-61392814D01*
X210277104Y-61345195D01*
X210181866Y-61345195D01*
X210086628Y-61392814D01*
X210039009Y-61440433D01*
X209991390Y-61535671D01*
X209943771Y-61726147D01*
X209896152Y-61821385D01*
X209848533Y-61869004D01*
X209753295Y-61916623D01*
X209658057Y-61916623D01*
X209562819Y-61869004D01*
X209515200Y-61821385D01*
X209467580Y-61726147D01*
X209467580Y-61488052D01*
X209515200Y-61345195D01*
X209467580Y-61011861D02*
X210467580Y-60773766D01*
X209753295Y-60583290D01*
X210467580Y-60392814D01*
X209467580Y-60154719D01*
X210467580Y-59249957D02*
X210467580Y-59821385D01*
X210467580Y-59535671D02*
X209467580Y-59535671D01*
X209610438Y-59630909D01*
X209705676Y-59726147D01*
X209753295Y-59821385D01*
%TO.C,S2*%
X101998861Y-80283850D02*
X102145325Y-80318837D01*
X102382514Y-80298085D01*
X102473240Y-80242347D01*
X102516527Y-80190759D01*
X102555665Y-80091733D01*
X102547364Y-79996857D01*
X102491626Y-79906132D01*
X102440038Y-79862844D01*
X102341012Y-79823707D01*
X102147110Y-79792870D01*
X102048084Y-79753733D01*
X101996496Y-79710445D01*
X101940758Y-79619720D01*
X101932457Y-79524844D01*
X101971594Y-79425818D01*
X102014882Y-79374230D01*
X102105607Y-79318492D01*
X102342796Y-79297740D01*
X102489260Y-79332727D01*
X102872913Y-79346963D02*
X102916201Y-79295375D01*
X103006926Y-79239636D01*
X103244115Y-79218885D01*
X103343141Y-79258022D01*
X103394730Y-79301310D01*
X103450468Y-79392035D01*
X103458768Y-79486911D01*
X103423781Y-79633375D01*
X102904331Y-80252432D01*
X103521023Y-80198479D01*
%TO.C,S12*%
X177507143Y-94696694D02*
X177645307Y-94756583D01*
X177882496Y-94777334D01*
X177981522Y-94738197D01*
X178033110Y-94694909D01*
X178088848Y-94604184D01*
X178097149Y-94509308D01*
X178058011Y-94410282D01*
X178014724Y-94358694D01*
X177923998Y-94302956D01*
X177738397Y-94238917D01*
X177647672Y-94183178D01*
X177604384Y-94131590D01*
X177565247Y-94032564D01*
X177573548Y-93937689D01*
X177629286Y-93846963D01*
X177680874Y-93803676D01*
X177779900Y-93764538D01*
X178017089Y-93785290D01*
X178155253Y-93845178D01*
X179021004Y-94876941D02*
X178451750Y-94827137D01*
X178736377Y-94852039D02*
X178823533Y-93855844D01*
X178716206Y-93989857D01*
X178613030Y-94076432D01*
X178514004Y-94115570D01*
X179479362Y-94008824D02*
X179530950Y-93965536D01*
X179629976Y-93926399D01*
X179867165Y-93947150D01*
X179957891Y-94002889D01*
X180001178Y-94054477D01*
X180040315Y-94153503D01*
X180032015Y-94248378D01*
X179972126Y-94386542D01*
X179353069Y-94905993D01*
X179969761Y-94959946D01*
%TO.C,S7*%
X79869140Y-100797287D02*
X80013939Y-100838629D01*
X80251807Y-100828244D01*
X80344878Y-100776516D01*
X80390374Y-100726865D01*
X80433794Y-100629640D01*
X80429639Y-100534493D01*
X80377912Y-100441423D01*
X80328261Y-100395926D01*
X80231036Y-100352507D01*
X80038664Y-100313241D01*
X79941440Y-100269822D01*
X79891789Y-100224325D01*
X79840061Y-100131255D01*
X79835907Y-100036107D01*
X79879326Y-99938883D01*
X79924823Y-99889232D01*
X80017893Y-99837504D01*
X80255762Y-99827118D01*
X80400560Y-99868461D01*
X80731499Y-99806347D02*
X81397531Y-99777268D01*
X81012987Y-100795010D01*
%TO.C,JOY1*%
X203844685Y-108316780D02*
X203844685Y-109031066D01*
X203797066Y-109173923D01*
X203701828Y-109269161D01*
X203558971Y-109316780D01*
X203463733Y-109316780D01*
X204511352Y-108316780D02*
X204701828Y-108316780D01*
X204797066Y-108364400D01*
X204892304Y-108459638D01*
X204939923Y-108650114D01*
X204939923Y-108983447D01*
X204892304Y-109173923D01*
X204797066Y-109269161D01*
X204701828Y-109316780D01*
X204511352Y-109316780D01*
X204416114Y-109269161D01*
X204320876Y-109173923D01*
X204273257Y-108983447D01*
X204273257Y-108650114D01*
X204320876Y-108459638D01*
X204416114Y-108364400D01*
X204511352Y-108316780D01*
X205558971Y-108840590D02*
X205558971Y-109316780D01*
X205225638Y-108316780D02*
X205558971Y-108840590D01*
X205892304Y-108316780D01*
X206749447Y-109316780D02*
X206178019Y-109316780D01*
X206463733Y-109316780D02*
X206463733Y-108316780D01*
X206368495Y-108459638D01*
X206273257Y-108554876D01*
X206178019Y-108602495D01*
%TO.C,BAT1*%
X209732571Y-74188485D02*
X209780190Y-74045628D01*
X209827809Y-73998009D01*
X209923047Y-73950390D01*
X210065904Y-73950390D01*
X210161142Y-73998009D01*
X210208761Y-74045628D01*
X210256380Y-74140866D01*
X210256380Y-74521819D01*
X209256380Y-74521819D01*
X209256380Y-74188485D01*
X209304000Y-74093247D01*
X209351619Y-74045628D01*
X209446857Y-73998009D01*
X209542095Y-73998009D01*
X209637333Y-74045628D01*
X209684952Y-74093247D01*
X209732571Y-74188485D01*
X209732571Y-74521819D01*
X209970666Y-73569438D02*
X209970666Y-73093247D01*
X210256380Y-73664676D02*
X209256380Y-73331342D01*
X210256380Y-72998009D01*
X209256380Y-72807533D02*
X209256380Y-72236104D01*
X210256380Y-72521819D02*
X209256380Y-72521819D01*
X210256380Y-71378961D02*
X210256380Y-71950390D01*
X210256380Y-71664676D02*
X209256380Y-71664676D01*
X209399238Y-71759914D01*
X209494476Y-71855152D01*
X209542095Y-71950390D01*
%TO.C,S24*%
X198330745Y-136931675D02*
X198465432Y-136864331D01*
X198633791Y-136695973D01*
X198667462Y-136594957D01*
X198667462Y-136527614D01*
X198633791Y-136426599D01*
X198566447Y-136359255D01*
X198465432Y-136325583D01*
X198398088Y-136325583D01*
X198297073Y-136359255D01*
X198128714Y-136460270D01*
X198027699Y-136493942D01*
X197960356Y-136493942D01*
X197859340Y-136460270D01*
X197791997Y-136392927D01*
X197758325Y-136291912D01*
X197758325Y-136224568D01*
X197791997Y-136123553D01*
X197960356Y-135955194D01*
X198095043Y-135887851D01*
X198398088Y-135652148D02*
X198398088Y-135584805D01*
X198431760Y-135483790D01*
X198600119Y-135315431D01*
X198701134Y-135281759D01*
X198768478Y-135281759D01*
X198869493Y-135315431D01*
X198936836Y-135382774D01*
X199004180Y-135517461D01*
X199004180Y-136325583D01*
X199441913Y-135887851D01*
X199576600Y-134810355D02*
X200048004Y-135281759D01*
X199138867Y-134709339D02*
X199475584Y-135382774D01*
X199913317Y-134945042D01*
%TO.C,H2*%
X106680095Y-60828180D02*
X106680095Y-59828180D01*
X106680095Y-60304371D02*
X107251523Y-60304371D01*
X107251523Y-60828180D02*
X107251523Y-59828180D01*
X107680095Y-59923419D02*
X107727714Y-59875800D01*
X107822952Y-59828180D01*
X108061047Y-59828180D01*
X108156285Y-59875800D01*
X108203904Y-59923419D01*
X108251523Y-60018657D01*
X108251523Y-60113895D01*
X108203904Y-60256752D01*
X107632476Y-60828180D01*
X108251523Y-60828180D01*
%TO.C,ENC2*%
X203390714Y-92232171D02*
X203724047Y-92232171D01*
X203866904Y-92755980D02*
X203390714Y-92755980D01*
X203390714Y-91755980D01*
X203866904Y-91755980D01*
X204295476Y-92755980D02*
X204295476Y-91755980D01*
X204866904Y-92755980D01*
X204866904Y-91755980D01*
X205914523Y-92660742D02*
X205866904Y-92708361D01*
X205724047Y-92755980D01*
X205628809Y-92755980D01*
X205485952Y-92708361D01*
X205390714Y-92613123D01*
X205343095Y-92517885D01*
X205295476Y-92327409D01*
X205295476Y-92184552D01*
X205343095Y-91994076D01*
X205390714Y-91898838D01*
X205485952Y-91803600D01*
X205628809Y-91755980D01*
X205724047Y-91755980D01*
X205866904Y-91803600D01*
X205914523Y-91851219D01*
X206295476Y-91851219D02*
X206343095Y-91803600D01*
X206438333Y-91755980D01*
X206676428Y-91755980D01*
X206771666Y-91803600D01*
X206819285Y-91851219D01*
X206866904Y-91946457D01*
X206866904Y-92041695D01*
X206819285Y-92184552D01*
X206247857Y-92755980D01*
X206866904Y-92755980D01*
%TO.C,H4*%
X192201895Y-115666780D02*
X192201895Y-114666780D01*
X192201895Y-115142971D02*
X192773323Y-115142971D01*
X192773323Y-115666780D02*
X192773323Y-114666780D01*
X193678085Y-115000114D02*
X193678085Y-115666780D01*
X193439990Y-114619161D02*
X193201895Y-115333447D01*
X193820942Y-115333447D01*
%TO.C,H7*%
X211963095Y-115590580D02*
X211963095Y-114590580D01*
X211963095Y-115066771D02*
X212534523Y-115066771D01*
X212534523Y-115590580D02*
X212534523Y-114590580D01*
X212915476Y-114590580D02*
X213582142Y-114590580D01*
X213153571Y-115590580D01*
%TO.C,S6*%
X178481522Y-75438197D02*
X178619685Y-75498085D01*
X178856874Y-75518837D01*
X178955900Y-75479700D01*
X179007488Y-75436412D01*
X179063227Y-75345687D01*
X179071527Y-75250811D01*
X179032390Y-75151785D01*
X178989102Y-75100197D01*
X178898377Y-75044458D01*
X178712776Y-74980419D01*
X178622050Y-74924681D01*
X178578763Y-74873093D01*
X178539626Y-74774067D01*
X178547926Y-74679191D01*
X178603664Y-74588466D01*
X178655253Y-74545178D01*
X178754279Y-74506041D01*
X178991468Y-74526792D01*
X179129631Y-74586681D01*
X179987662Y-74613948D02*
X179797911Y-74597347D01*
X179698885Y-74636484D01*
X179647297Y-74679772D01*
X179539970Y-74813785D01*
X179475932Y-74999386D01*
X179442729Y-75378889D01*
X179481867Y-75477915D01*
X179525154Y-75529503D01*
X179615880Y-75585241D01*
X179805631Y-75601842D01*
X179904657Y-75562705D01*
X179956245Y-75519417D01*
X180011983Y-75428692D01*
X180032735Y-75191503D01*
X179993598Y-75092477D01*
X179950310Y-75040889D01*
X179859585Y-74985150D01*
X179669833Y-74968549D01*
X179570807Y-75007687D01*
X179519219Y-75050974D01*
X179463481Y-75141700D01*
%TO.C,S21*%
X162263004Y-133794147D02*
X162405861Y-133841766D01*
X162643957Y-133841766D01*
X162739195Y-133794147D01*
X162786814Y-133746528D01*
X162834433Y-133651290D01*
X162834433Y-133556052D01*
X162786814Y-133460814D01*
X162739195Y-133413195D01*
X162643957Y-133365576D01*
X162453480Y-133317957D01*
X162358242Y-133270338D01*
X162310623Y-133222719D01*
X162263004Y-133127481D01*
X162263004Y-133032243D01*
X162310623Y-132937005D01*
X162358242Y-132889386D01*
X162453480Y-132841766D01*
X162691576Y-132841766D01*
X162834433Y-132889386D01*
X163215385Y-132937005D02*
X163263004Y-132889386D01*
X163358242Y-132841766D01*
X163596338Y-132841766D01*
X163691576Y-132889386D01*
X163739195Y-132937005D01*
X163786814Y-133032243D01*
X163786814Y-133127481D01*
X163739195Y-133270338D01*
X163167766Y-133841766D01*
X163786814Y-133841766D01*
X164739195Y-133841766D02*
X164167766Y-133841766D01*
X164453480Y-133841766D02*
X164453480Y-132841766D01*
X164358242Y-132984624D01*
X164263004Y-133079862D01*
X164167766Y-133127481D01*
D14*
%TO.C,U2*%
X200367806Y-59990679D02*
X200180862Y-59723616D01*
X200047330Y-59990679D02*
X200047330Y-59429847D01*
X200260980Y-59429847D01*
X200314393Y-59456554D01*
X200341099Y-59483260D01*
X200367806Y-59536672D01*
X200367806Y-59616791D01*
X200341099Y-59670204D01*
X200314393Y-59696910D01*
X200260980Y-59723616D01*
X200047330Y-59723616D01*
X200581456Y-59963973D02*
X200661575Y-59990679D01*
X200795106Y-59990679D01*
X200848519Y-59963973D01*
X200875225Y-59937267D01*
X200901931Y-59883854D01*
X200901931Y-59830442D01*
X200875225Y-59777029D01*
X200848519Y-59750323D01*
X200795106Y-59723616D01*
X200688281Y-59696910D01*
X200634868Y-59670204D01*
X200608162Y-59643498D01*
X200581456Y-59590085D01*
X200581456Y-59536672D01*
X200608162Y-59483260D01*
X200634868Y-59456554D01*
X200688281Y-59429847D01*
X200821812Y-59429847D01*
X200901931Y-59456554D01*
X201062169Y-59429847D02*
X201382644Y-59429847D01*
X201222407Y-59990679D02*
X201222407Y-59429847D01*
X197674099Y-59456554D02*
X197620687Y-59429847D01*
X197540568Y-59429847D01*
X197460449Y-59456554D01*
X197407036Y-59509966D01*
X197380330Y-59563379D01*
X197353624Y-59670204D01*
X197353624Y-59750323D01*
X197380330Y-59857148D01*
X197407036Y-59910560D01*
X197460449Y-59963973D01*
X197540568Y-59990679D01*
X197593980Y-59990679D01*
X197674099Y-59963973D01*
X197700806Y-59937267D01*
X197700806Y-59750323D01*
X197593980Y-59750323D01*
X197941162Y-59990679D02*
X197941162Y-59429847D01*
X198261638Y-59990679D01*
X198261638Y-59429847D01*
X198528700Y-59990679D02*
X198528700Y-59429847D01*
X198662232Y-59429847D01*
X198742351Y-59456554D01*
X198795763Y-59509966D01*
X198822470Y-59563379D01*
X198849176Y-59670204D01*
X198849176Y-59750323D01*
X198822470Y-59857148D01*
X198795763Y-59910560D01*
X198742351Y-59963973D01*
X198662232Y-59990679D01*
X198528700Y-59990679D01*
X200555330Y-54529679D02*
X200555330Y-53968847D01*
X200929218Y-53968847D02*
X201036043Y-53968847D01*
X201089456Y-53995554D01*
X201142868Y-54048966D01*
X201169575Y-54155791D01*
X201169575Y-54342735D01*
X201142868Y-54449560D01*
X201089456Y-54502973D01*
X201036043Y-54529679D01*
X200929218Y-54529679D01*
X200875806Y-54502973D01*
X200822393Y-54449560D01*
X200795687Y-54342735D01*
X200795687Y-54155791D01*
X200822393Y-54048966D01*
X200875806Y-53995554D01*
X200929218Y-53968847D01*
X197827806Y-54476267D02*
X197801099Y-54502973D01*
X197720980Y-54529679D01*
X197667568Y-54529679D01*
X197587449Y-54502973D01*
X197534036Y-54449560D01*
X197507330Y-54396148D01*
X197480624Y-54289323D01*
X197480624Y-54209204D01*
X197507330Y-54102379D01*
X197534036Y-54048966D01*
X197587449Y-53995554D01*
X197667568Y-53968847D01*
X197720980Y-53968847D01*
X197801099Y-53995554D01*
X197827806Y-54022260D01*
X198335225Y-54529679D02*
X198068162Y-54529679D01*
X198068162Y-53968847D01*
X198522169Y-54529679D02*
X198522169Y-53968847D01*
X198842644Y-54529679D02*
X198602288Y-54209204D01*
X198842644Y-53968847D02*
X198522169Y-54289323D01*
D15*
%TO.C,D1*%
X89855800Y-75803400D02*
X89855800Y-79653400D01*
X91855800Y-75803400D02*
X91855800Y-79653400D01*
X91855800Y-75403400D02*
X89855800Y-75403400D01*
X91855800Y-75803400D02*
X91855800Y-75403400D01*
X89855800Y-75403400D02*
X89855800Y-75803400D01*
X91855800Y-75803400D02*
X89855800Y-75803400D01*
%TO.C,D18*%
X167540041Y-105011812D02*
X171387695Y-105146175D01*
X167609840Y-103013030D02*
X171457494Y-103147393D01*
X167210083Y-102999070D02*
X167140284Y-104997852D01*
X167609840Y-103013030D02*
X167210083Y-102999070D01*
X167140284Y-104997852D02*
X167540041Y-105011812D01*
X167609840Y-103013030D02*
X167540041Y-105011812D01*
%TO.C,D17*%
X148583675Y-102579286D02*
X152430010Y-102747220D01*
X148670913Y-100581189D02*
X152517249Y-100749124D01*
X148271294Y-100563741D02*
X148184055Y-102561838D01*
X148670913Y-100581189D02*
X148271294Y-100563741D01*
X148184055Y-102561838D02*
X148583675Y-102579286D01*
X148670913Y-100581189D02*
X148583675Y-102579286D01*
%TO.C,D10*%
X128991000Y-83067400D02*
X132841000Y-83067400D01*
X128991000Y-81067400D02*
X132841000Y-81067400D01*
X128591000Y-81067400D02*
X128591000Y-83067400D01*
X128991000Y-81067400D02*
X128591000Y-81067400D01*
X128591000Y-83067400D02*
X128991000Y-83067400D01*
X128991000Y-81067400D02*
X128991000Y-83067400D01*
%TO.C,D14*%
X90560800Y-110245400D02*
X94410800Y-110245400D01*
X90560800Y-108245400D02*
X94410800Y-108245400D01*
X90160800Y-108245400D02*
X90160800Y-110245400D01*
X90560800Y-108245400D02*
X90160800Y-108245400D01*
X90160800Y-110245400D02*
X90560800Y-110245400D01*
X90560800Y-108245400D02*
X90560800Y-110245400D01*
%TO.C,D8*%
X90306800Y-91779600D02*
X94156800Y-91779600D01*
X90306800Y-89779600D02*
X94156800Y-89779600D01*
X89906800Y-89779600D02*
X89906800Y-91779600D01*
X90306800Y-89779600D02*
X89906800Y-89779600D01*
X89906800Y-91779600D02*
X90306800Y-91779600D01*
X90306800Y-89779600D02*
X90306800Y-91779600D01*
%TO.C,D22*%
X150530200Y-125688600D02*
X154380200Y-125688600D01*
X150530200Y-123688600D02*
X154380200Y-123688600D01*
X150130200Y-123688600D02*
X150130200Y-125688600D01*
X150530200Y-123688600D02*
X150130200Y-123688600D01*
X150130200Y-125688600D02*
X150530200Y-125688600D01*
X150530200Y-123688600D02*
X150530200Y-125688600D01*
%TO.C,D2*%
X89341600Y-72907400D02*
X93191600Y-72907400D01*
X89341600Y-70907400D02*
X93191600Y-70907400D01*
X88941600Y-70907400D02*
X88941600Y-72907400D01*
X89341600Y-70907400D02*
X88941600Y-70907400D01*
X88941600Y-72907400D02*
X89341600Y-72907400D01*
X89341600Y-70907400D02*
X89341600Y-72907400D01*
%TO.C,D5*%
X148851216Y-63720252D02*
X152686566Y-64055802D01*
X149025527Y-61727863D02*
X152860877Y-62063412D01*
X148627050Y-61693000D02*
X148452738Y-63685390D01*
X149025527Y-61727863D02*
X148627050Y-61693000D01*
X148452738Y-63685390D02*
X148851216Y-63720252D01*
X149025527Y-61727863D02*
X148851216Y-63720252D01*
%TO.C,D13*%
X90160600Y-111871400D02*
X90160600Y-115721400D01*
X92160600Y-111871400D02*
X92160600Y-115721400D01*
X92160600Y-111471400D02*
X90160600Y-111471400D01*
X92160600Y-111871400D02*
X92160600Y-111471400D01*
X90160600Y-111471400D02*
X90160600Y-111871400D01*
X92160600Y-111871400D02*
X90160600Y-111871400D01*
%TO.C,D4*%
X128279800Y-63966600D02*
X132129800Y-63966600D01*
X128279800Y-61966600D02*
X132129800Y-61966600D01*
X127879800Y-61966600D02*
X127879800Y-63966600D01*
X128279800Y-61966600D02*
X127879800Y-61966600D01*
X127879800Y-63966600D02*
X128279800Y-63966600D01*
X128279800Y-61966600D02*
X128279800Y-63966600D01*
%TO.C,D21*%
X128258271Y-129560634D02*
X132049781Y-128892088D01*
X127910975Y-127591018D02*
X131702485Y-126922473D01*
X127517052Y-127660478D02*
X127864348Y-129630093D01*
X127910975Y-127591018D02*
X127517052Y-127660478D01*
X127864348Y-129630093D02*
X128258271Y-129560634D01*
X127910975Y-127591018D02*
X128258271Y-129560634D01*
%TO.C,D3*%
X108721800Y-65287400D02*
X112571800Y-65287400D01*
X108721800Y-63287400D02*
X112571800Y-63287400D01*
X108321800Y-63287400D02*
X108321800Y-65287400D01*
X108721800Y-63287400D02*
X108321800Y-63287400D01*
X108321800Y-65287400D02*
X108721800Y-65287400D01*
X108721800Y-63287400D02*
X108721800Y-65287400D01*
%TO.C,D16*%
X129930800Y-102193600D02*
X133780800Y-102193600D01*
X129930800Y-100193600D02*
X133780800Y-100193600D01*
X129530800Y-100193600D02*
X129530800Y-102193600D01*
X129930800Y-100193600D02*
X129530800Y-100193600D01*
X129530800Y-102193600D02*
X129930800Y-102193600D01*
X129930800Y-100193600D02*
X129930800Y-102193600D01*
%TO.C,D15*%
X111007800Y-103285800D02*
X114857800Y-103285800D01*
X111007800Y-101285800D02*
X114857800Y-101285800D01*
X110607800Y-101285800D02*
X110607800Y-103285800D01*
X111007800Y-101285800D02*
X110607800Y-101285800D01*
X110607800Y-103285800D02*
X111007800Y-103285800D01*
X111007800Y-101285800D02*
X111007800Y-103285800D01*
%TO.C,D11*%
X148419416Y-82668652D02*
X152254766Y-83004202D01*
X148593727Y-80676263D02*
X152429077Y-81011812D01*
X148195250Y-80641400D02*
X148020938Y-82633790D01*
X148593727Y-80676263D02*
X148195250Y-80641400D01*
X148020938Y-82633790D02*
X148419416Y-82668652D01*
X148593727Y-80676263D02*
X148419416Y-82668652D01*
%TO.C,D19*%
X195920000Y-108543600D02*
X199770000Y-108543600D01*
X195920000Y-106543600D02*
X199770000Y-106543600D01*
X195520000Y-106543600D02*
X195520000Y-108543600D01*
X195920000Y-106543600D02*
X195520000Y-106543600D01*
X195520000Y-108543600D02*
X195920000Y-108543600D01*
X195920000Y-106543600D02*
X195920000Y-108543600D01*
%TO.C,D6*%
X168175318Y-66115943D02*
X172010668Y-66451493D01*
X168349629Y-64123554D02*
X172184979Y-64459103D01*
X167951152Y-64088691D02*
X167776840Y-66081081D01*
X168349629Y-64123554D02*
X167951152Y-64088691D01*
X167776840Y-66081081D02*
X168175318Y-66115943D01*
X168349629Y-64123554D02*
X168175318Y-66115943D01*
%TO.C,D24*%
X190304544Y-122448025D02*
X193638742Y-124373025D01*
X191304544Y-120715975D02*
X194638742Y-122640975D01*
X190958134Y-120515975D02*
X189958134Y-122248025D01*
X191304544Y-120715975D02*
X190958134Y-120515975D01*
X189958134Y-122248025D02*
X190304544Y-122448025D01*
X191304544Y-120715975D02*
X190304544Y-122448025D01*
%TO.C,D7*%
X89982800Y-93481800D02*
X89982800Y-97331800D01*
X91982800Y-93481800D02*
X91982800Y-97331800D01*
X91982800Y-93081800D02*
X89982800Y-93081800D01*
X91982800Y-93481800D02*
X91982800Y-93081800D01*
X89982800Y-93081800D02*
X89982800Y-93481800D01*
X91982800Y-93481800D02*
X89982800Y-93481800D01*
%TO.C,D20*%
X105061616Y-127880652D02*
X108896966Y-128216202D01*
X105235927Y-125888263D02*
X109071277Y-126223812D01*
X104837450Y-125853400D02*
X104663138Y-127845790D01*
X105235927Y-125888263D02*
X104837450Y-125853400D01*
X104663138Y-127845790D02*
X105061616Y-127880652D01*
X105235927Y-125888263D02*
X105061616Y-127880652D01*
%TO.C,D23*%
X175318544Y-125140425D02*
X178652742Y-127065425D01*
X176318544Y-123408375D02*
X179652742Y-125333375D01*
X175972134Y-123208375D02*
X174972134Y-124940425D01*
X176318544Y-123408375D02*
X175972134Y-123208375D01*
X174972134Y-124940425D02*
X175318544Y-125140425D01*
X176318544Y-123408375D02*
X175318544Y-125140425D01*
%TO.C,D9*%
X110474400Y-84312000D02*
X114324400Y-84312000D01*
X110474400Y-82312000D02*
X114324400Y-82312000D01*
X110074400Y-82312000D02*
X110074400Y-84312000D01*
X110474400Y-82312000D02*
X110074400Y-82312000D01*
X110074400Y-84312000D02*
X110474400Y-84312000D01*
X110474400Y-82312000D02*
X110474400Y-84312000D01*
%TO.C,D12*%
X167317016Y-85056252D02*
X171152366Y-85391802D01*
X167491327Y-83063863D02*
X171326677Y-83399412D01*
X167092850Y-83029000D02*
X166918538Y-85021390D01*
X167491327Y-83063863D02*
X167092850Y-83029000D01*
X166918538Y-85021390D02*
X167317016Y-85056252D01*
X167491327Y-83063863D02*
X167317016Y-85056252D01*
D13*
%TO.C,S9*%
X128325155Y-76232628D02*
X128377491Y-77231257D01*
X122769889Y-75322120D02*
X119774001Y-75479128D01*
X119126022Y-82222282D02*
X114632189Y-82457793D01*
D16*
X129205248Y-89204344D02*
X129236650Y-89803522D01*
X113597774Y-78005829D02*
X113566372Y-77406652D01*
X128545815Y-76621612D02*
X128577217Y-77220790D01*
X120273316Y-75452960D02*
X120325652Y-76451589D01*
D13*
X123354878Y-90592431D02*
X118416654Y-90851233D01*
D16*
X118528118Y-76545794D02*
X120325652Y-76451589D01*
X114196952Y-77974428D02*
X114165550Y-77375250D01*
X119281756Y-90926059D02*
X119313158Y-91525237D01*
D13*
X114417612Y-78363412D02*
X114386210Y-77764235D01*
D16*
X124874082Y-90632978D02*
X124905483Y-91232156D01*
D13*
X114344342Y-76965331D02*
X115342971Y-76912995D01*
D16*
X114733326Y-76744671D02*
X118528118Y-76545794D01*
D13*
X114386210Y-77764235D02*
X118880043Y-77528723D01*
D16*
X114701925Y-76145493D02*
X118496717Y-75946616D01*
D13*
X115077045Y-90946144D02*
X115024709Y-89947515D01*
D16*
X123076548Y-90727183D02*
X121079289Y-90831855D01*
X124089042Y-75653535D02*
X124120444Y-76252713D01*
X129144993Y-76590211D02*
X129176395Y-77189388D01*
X114257207Y-90588561D02*
X114225805Y-89989384D01*
X118496717Y-75946616D02*
X118528118Y-76545794D01*
D13*
X114632189Y-82457793D02*
X114606021Y-81958479D01*
X123478548Y-79290470D02*
X123005401Y-79815953D01*
D16*
X128700275Y-91033279D02*
X124905483Y-91232156D01*
D13*
X123295372Y-75795267D02*
X122769889Y-75322120D01*
D16*
X114824983Y-89957982D02*
X114196952Y-77974428D01*
X119281756Y-90926059D02*
X115486964Y-91124936D01*
D13*
X129005522Y-89214812D02*
X129057858Y-90213441D01*
D16*
X121079289Y-90831855D02*
X119281756Y-90926059D01*
D13*
X121902240Y-86663072D02*
X126785538Y-86407149D01*
D16*
X128577217Y-77220790D02*
X129176395Y-77189388D01*
D13*
X116075674Y-90893808D02*
X115077045Y-90946144D01*
X119353190Y-77003240D02*
X119300854Y-76004610D01*
D16*
X114856385Y-90557160D02*
X114824983Y-89957982D01*
X122270575Y-75348288D02*
X122322911Y-76346917D01*
X129205248Y-89204344D02*
X129804426Y-89172943D01*
D13*
X119089387Y-81523241D02*
X119126022Y-82222282D01*
D16*
X124120444Y-76252713D02*
X127915236Y-76053836D01*
D13*
X127326526Y-76284964D02*
X128325155Y-76232628D01*
X126785538Y-86407149D02*
X126994882Y-90401667D01*
X114396678Y-77963960D02*
X114344342Y-76965331D01*
D16*
X120325652Y-76451589D02*
X122322911Y-76346917D01*
X114824983Y-89957982D02*
X114225805Y-89989384D01*
D13*
X119774001Y-75479128D02*
X119300854Y-76004610D01*
D16*
X119313158Y-91525237D02*
X115518366Y-91724114D01*
X122322911Y-76346917D02*
X124120444Y-76252713D01*
D13*
X123339898Y-90593216D02*
X126994882Y-90401667D01*
D16*
X124874082Y-90632978D02*
X123076548Y-90727183D01*
D13*
X129057858Y-90213441D02*
X128059229Y-90265777D01*
D16*
X129804426Y-89172943D02*
X129835828Y-89772120D01*
X128577217Y-77220790D02*
X129205248Y-89204344D01*
X128668874Y-90434101D02*
X124874082Y-90632978D01*
D13*
X115747202Y-88447647D02*
X115620026Y-86020977D01*
X115537858Y-84453129D02*
X119232788Y-84259486D01*
X115622643Y-86070909D02*
X115537858Y-84453129D01*
D16*
X124089042Y-75653535D02*
X127883834Y-75454658D01*
D13*
X123005401Y-79815953D02*
X120508827Y-79946793D01*
D16*
X122270575Y-75348288D02*
X120273316Y-75452960D01*
X114196952Y-77974428D02*
X113597774Y-78005829D01*
D13*
X118880043Y-77528723D02*
G75*
G03*
X119353190Y-77003240I-26169J499316D01*
G01*
D16*
X114733326Y-76744670D02*
G75*
G03*
X114165550Y-77375250I31402J-599178D01*
G01*
X129144994Y-76590211D02*
G75*
G03*
X127883834Y-75454658I-1198356J-62803D01*
G01*
X128668874Y-90434102D02*
G75*
G03*
X129236650Y-89803522I-31402J599178D01*
G01*
D13*
X119232789Y-84259486D02*
G75*
G03*
X121902241Y-86663070I2536517J132933D01*
G01*
D16*
X128700275Y-91033280D02*
G75*
G03*
X129835828Y-89772120I-62803J1198356D01*
G01*
X114701925Y-76145492D02*
G75*
G03*
X113566372Y-77406652I62803J-1198356D01*
G01*
D13*
X120508827Y-79946793D02*
G75*
G03*
X119089387Y-81523241I78505J-1497945D01*
G01*
X115747202Y-88447647D02*
G75*
G03*
X118416654Y-90851233I2536520J132934D01*
G01*
D16*
X114257206Y-90588561D02*
G75*
G03*
X115518366Y-91724114I1198356J62803D01*
G01*
X114856384Y-90557160D02*
G75*
G03*
X115486964Y-91124936I599178J31402D01*
G01*
X128545816Y-76621612D02*
G75*
G03*
X127915236Y-76053836I-599178J-31402D01*
G01*
D13*
%TO.C,S8*%
X110797397Y-95956464D02*
X110884553Y-96952659D01*
D16*
X111594353Y-95886739D02*
X111646647Y-96484456D01*
D13*
X109664373Y-83005933D02*
X109751528Y-84002128D01*
D16*
X103669773Y-83329628D02*
X105462924Y-83172748D01*
D13*
X104622390Y-82744375D02*
X104080715Y-82289856D01*
D16*
X96098694Y-83992012D02*
X99884233Y-83660820D01*
D13*
X108480780Y-93227988D02*
X108829403Y-97212767D01*
X110884553Y-96952659D02*
X109888358Y-97039814D01*
D16*
X110996636Y-95939033D02*
X111594353Y-95886739D01*
D13*
X97171757Y-91667697D02*
X100857677Y-91345220D01*
D16*
X99831940Y-83063103D02*
X99884233Y-83660820D01*
X101191570Y-98603741D02*
X97406030Y-98934933D01*
D13*
X96937827Y-98172839D02*
X96850672Y-97176644D01*
D16*
X95007847Y-85292033D02*
X94955553Y-84694316D01*
X95605564Y-85239739D02*
X95553270Y-84642022D01*
X109950767Y-83984696D02*
X110996636Y-95939033D01*
D13*
X100618871Y-88615647D02*
X100679880Y-89312983D01*
D16*
X109898474Y-83386980D02*
X109950767Y-83984696D01*
X103582618Y-82333434D02*
X103669773Y-83329628D01*
X101590228Y-82507745D02*
X101677384Y-83503940D01*
X110555800Y-97784477D02*
X106770260Y-98115669D01*
X110496191Y-83334686D02*
X110548484Y-83932403D01*
X101139276Y-98006024D02*
X101191570Y-98603741D01*
D13*
X101092131Y-82551323D02*
X100637611Y-83092998D01*
X105183330Y-97531757D02*
X108829403Y-97212767D01*
X104472916Y-86772732D02*
X101982429Y-86990621D01*
X105198273Y-97530449D02*
X100272090Y-97961434D01*
D16*
X103582618Y-82333434D02*
X101590228Y-82507745D01*
X96046400Y-83394295D02*
X99831940Y-83063103D01*
X106717967Y-97517952D02*
X104924816Y-97674832D01*
D13*
X97312949Y-93281532D02*
X97171757Y-91667697D01*
D16*
X99884233Y-83660820D02*
X101677384Y-83503940D01*
D13*
X104080715Y-82289856D02*
X101092131Y-82551323D01*
D16*
X96651433Y-97194076D02*
X95605564Y-85239739D01*
D13*
X95787372Y-85023069D02*
X100270248Y-84630868D01*
X104927435Y-86231057D02*
X104472916Y-86772732D01*
X95804803Y-85222308D02*
X95717647Y-84226113D01*
D16*
X105410630Y-82575031D02*
X105462924Y-83172748D01*
X104924816Y-97674832D02*
X102932427Y-97849144D01*
D13*
X108668178Y-83093089D02*
X109664373Y-83005933D01*
D16*
X102932427Y-97849144D02*
X101139276Y-98006024D01*
X96106009Y-97844086D02*
X96053716Y-97246369D01*
D13*
X96197003Y-89705184D02*
X96153426Y-89207087D01*
D16*
X95605564Y-85239739D02*
X95007847Y-85292033D01*
D13*
X95839665Y-85620786D02*
X95787372Y-85023069D01*
X95717647Y-84226113D02*
X96713842Y-84138958D01*
D16*
X105462924Y-83172748D02*
X109248464Y-82841556D01*
D13*
X103609387Y-93654179D02*
X108480780Y-93227988D01*
X97934022Y-98085683D02*
X96937827Y-98172839D01*
D16*
X96651433Y-97194076D02*
X96053716Y-97246369D01*
D13*
X100724767Y-84089193D02*
X100637611Y-83092998D01*
D16*
X101677384Y-83503940D02*
X103669773Y-83329628D01*
X96703726Y-97791792D02*
X96651433Y-97194076D01*
X101139276Y-98006024D02*
X97353736Y-98337216D01*
D13*
X100679880Y-89312983D02*
X96197003Y-89705184D01*
D16*
X109950767Y-83984696D02*
X110548484Y-83932403D01*
X110503506Y-97186760D02*
X106717967Y-97517952D01*
X105410630Y-82575031D02*
X109196170Y-82243839D01*
D13*
X97520380Y-95652476D02*
X97308591Y-93231722D01*
D16*
X110996636Y-95939033D02*
X111048930Y-96536750D01*
X106717967Y-97517952D02*
X106770260Y-98115669D01*
X96106009Y-97844086D02*
G75*
G03*
X97406030Y-98934933I1195434J104587D01*
G01*
D13*
X100857677Y-91345220D02*
G75*
G03*
X103609388Y-93654178I2530334J221375D01*
G01*
D16*
X110503506Y-97186760D02*
G75*
G03*
X111048930Y-96536750I-52293J597717D01*
G01*
X96703726Y-97791792D02*
G75*
G03*
X97353736Y-98337216I597717J52293D01*
G01*
D13*
X101982429Y-86990621D02*
G75*
G03*
X100618871Y-88615647I130735J-1494293D01*
G01*
D16*
X110496191Y-83334686D02*
G75*
G03*
X109196170Y-82243839I-1195434J-104587D01*
G01*
X110555800Y-97784477D02*
G75*
G03*
X111646647Y-96484456I-104587J1195434D01*
G01*
D13*
X100270248Y-84630868D02*
G75*
G03*
X100724767Y-84089193I-43579J498098D01*
G01*
D16*
X96046400Y-83394295D02*
G75*
G03*
X94955553Y-84694316I104587J-1195434D01*
G01*
X96098694Y-83992012D02*
G75*
G03*
X95553270Y-84642022I52293J-597717D01*
G01*
X109898474Y-83386980D02*
G75*
G03*
X109248464Y-82841556I-597717J-52293D01*
G01*
D13*
X97520381Y-95652476D02*
G75*
G03*
X100272090Y-97961434I2530334J221377D01*
G01*
D16*
%TO.C,S22*%
X192725971Y-126454003D02*
X196016868Y-128354003D01*
X177165717Y-133405154D02*
X177465717Y-132885538D01*
D13*
X177138922Y-133851564D02*
X177638922Y-132985538D01*
X189502062Y-123437978D02*
X188819049Y-123620990D01*
D16*
X196236483Y-129173618D02*
X195936483Y-129693234D01*
X177465717Y-132885538D02*
X176946102Y-132585538D01*
X193025971Y-125934388D02*
X196316868Y-127834388D01*
X193025971Y-125934388D02*
X192725971Y-126454003D01*
X183967125Y-138024769D02*
X182235075Y-137024769D01*
D13*
X192100138Y-124937978D02*
X189502062Y-123437978D01*
D16*
X183465717Y-122493234D02*
X182946102Y-122193234D01*
D13*
X184260952Y-138055846D02*
X187430605Y-139885846D01*
D16*
X189435075Y-124554003D02*
X191167125Y-125554003D01*
D13*
X189430605Y-136421744D02*
X187430605Y-139885846D01*
X189850138Y-128835092D02*
X187685075Y-127585092D01*
D16*
X184585332Y-121754003D02*
X187876229Y-123654003D01*
D13*
X183738922Y-122420028D02*
X187636036Y-124670028D01*
D16*
X191667125Y-124687978D02*
X189935075Y-123687978D01*
X180376229Y-136644384D02*
X177085332Y-134744384D01*
X185525971Y-138924769D02*
X185225971Y-139444384D01*
D13*
X178004948Y-134351564D02*
X177138922Y-133851564D01*
X184138922Y-121727208D02*
X185004948Y-122227208D01*
D16*
X195936483Y-129693234D02*
X189936483Y-140085538D01*
D13*
X183438922Y-122939644D02*
X183738922Y-122420028D01*
X179061742Y-132121141D02*
X180276742Y-130016700D01*
X192283151Y-125620990D02*
X192100138Y-124937978D01*
D16*
X180676229Y-136124769D02*
X177385332Y-134224769D01*
D13*
X184273943Y-138063346D02*
X179991447Y-135590846D01*
D16*
X190456098Y-140385538D02*
X190156098Y-140905154D01*
D13*
X181061742Y-128657040D02*
X184266036Y-130507040D01*
D16*
X182235075Y-137024769D02*
X180676229Y-136124769D01*
X182946102Y-122193234D02*
X183246102Y-121673618D01*
X176646102Y-133105154D02*
X176946102Y-132585538D01*
D13*
X185286036Y-128740348D02*
X181388922Y-126490348D01*
X185195741Y-133976744D02*
X189430605Y-136421744D01*
X190533151Y-128652079D02*
X189850138Y-128835092D01*
X180251742Y-130060001D02*
X181061742Y-128657040D01*
D16*
X183465717Y-122493234D02*
X183765717Y-121973618D01*
X196756098Y-129473618D02*
X196456098Y-129993234D01*
X184885332Y-121234388D02*
X188176229Y-123134388D01*
X188176229Y-123134388D02*
X187876229Y-123654003D01*
D13*
X185636036Y-128134130D02*
X185286036Y-128740348D01*
D16*
X177465717Y-132885538D02*
X183465717Y-122493234D01*
D13*
X189763278Y-139985538D02*
X189263278Y-140851564D01*
D16*
X191167125Y-125554003D02*
X192725971Y-126454003D01*
X185525971Y-138924769D02*
X183967125Y-138024769D01*
X188516868Y-141344384D02*
X185225971Y-139444384D01*
X180676229Y-136124769D02*
X180376229Y-136644384D01*
D13*
X195397252Y-128227208D02*
X196263278Y-128727208D01*
D16*
X188816868Y-140824769D02*
X185525971Y-138924769D01*
D13*
X196263278Y-128727208D02*
X195763278Y-129593234D01*
X183638922Y-122593234D02*
X184138922Y-121727208D01*
D16*
X191667125Y-124687978D02*
X191167125Y-125554003D01*
D13*
X188319049Y-124487016D02*
X188819049Y-123620990D01*
D16*
X187876229Y-123654003D02*
X189435075Y-124554003D01*
X189936483Y-140085538D02*
X190456098Y-140385538D01*
X189935075Y-123687978D02*
X189435075Y-124554003D01*
D13*
X181388922Y-126490348D02*
X181638922Y-126057335D01*
D16*
X195936483Y-129693234D02*
X196456098Y-129993234D01*
X189936483Y-140085538D02*
X189636483Y-140605154D01*
D13*
X189263278Y-140851564D02*
X188397252Y-140351564D01*
X187685075Y-127585092D02*
G75*
G03*
X185636036Y-128134130I-750000J-1299041D01*
G01*
D16*
X196236483Y-129173618D02*
G75*
G03*
X196016868Y-128354003I-519615J300000D01*
G01*
D13*
X187636036Y-124670028D02*
G75*
G03*
X188319049Y-124487016I250000J433014D01*
G01*
X179061742Y-132121141D02*
G75*
G03*
X179991447Y-135590846I2199706J-1270000D01*
G01*
D16*
X188816868Y-140824769D02*
G75*
G03*
X189636483Y-140605154I300000J519615D01*
G01*
X177165717Y-133405154D02*
G75*
G03*
X177385332Y-134224769I519615J-300000D01*
G01*
X196756098Y-129473618D02*
G75*
G03*
X196316868Y-127834388I-1039230J600000D01*
G01*
D13*
X184266036Y-130507040D02*
G75*
G03*
X185195742Y-133976744I2199704J-1269999D01*
G01*
D16*
X176646102Y-133105154D02*
G75*
G03*
X177085332Y-134744384I1039230J-600000D01*
G01*
X184885332Y-121234388D02*
G75*
G03*
X183246102Y-121673618I-600000J-1039230D01*
G01*
X184585332Y-121754003D02*
G75*
G03*
X183765717Y-121973618I-300000J-519615D01*
G01*
X188516868Y-141344384D02*
G75*
G03*
X190156098Y-140905154I600000J1039230D01*
G01*
D13*
%TO.C,S19*%
X111277629Y-128586966D02*
X114963549Y-128909442D01*
D16*
X109155553Y-134484456D02*
X109207847Y-133886739D01*
X119124816Y-121503940D02*
X120917967Y-121660820D01*
X114084233Y-135517952D02*
X110298694Y-135186760D01*
X123396170Y-136934933D02*
X119610630Y-136603741D01*
X119662924Y-136006024D02*
X119610630Y-136603741D01*
D13*
X119710069Y-120551323D02*
X116721485Y-120289856D01*
X119859544Y-124579680D02*
X119317868Y-125034199D01*
X111137827Y-121005933D02*
X112134022Y-121093089D01*
X117272508Y-131661152D02*
X122143900Y-132087343D01*
D16*
X124150767Y-135194076D02*
X124098474Y-135791792D01*
X111606030Y-120243839D02*
X115391570Y-120575031D01*
D13*
X120164589Y-121092998D02*
X119710069Y-120551323D01*
D16*
X111553736Y-120841556D02*
X115339276Y-121172748D01*
D13*
X110913842Y-135039814D02*
X109917647Y-134952659D01*
X118164148Y-135754440D02*
X113237965Y-135323454D01*
X119317868Y-125034199D02*
X116827382Y-124816310D01*
X122143900Y-132087343D02*
X121795277Y-136072122D01*
X111136436Y-130200801D02*
X111277629Y-128586966D01*
X111015809Y-122400605D02*
X111068103Y-121802889D01*
X116092654Y-121740570D02*
X116179810Y-120744375D01*
D16*
X119662924Y-136006024D02*
X117869773Y-135849144D01*
X124748484Y-135246369D02*
X124696191Y-135844086D01*
X115339276Y-121172748D02*
X117132427Y-121329628D01*
X109805564Y-133939033D02*
X109207847Y-133886739D01*
D13*
X111068103Y-121802889D02*
X115550979Y-122195090D01*
X124088358Y-122138958D02*
X125084553Y-122226113D01*
D16*
X115877384Y-135674832D02*
X114084233Y-135517952D01*
X120970260Y-121063103D02*
X124755800Y-121394295D01*
X114084233Y-135517952D02*
X114031940Y-136115669D01*
X115391570Y-120575031D02*
X115339276Y-121172748D01*
X125248930Y-122642022D02*
X125196636Y-123239739D01*
D13*
X111050672Y-122002128D02*
X111137827Y-121005933D01*
X123951528Y-135176644D02*
X123864373Y-136172839D01*
D16*
X109753270Y-134536750D02*
X109805564Y-133939033D01*
D13*
X125084553Y-122226113D02*
X124997397Y-123222308D01*
D16*
X125846647Y-122694316D02*
X125794353Y-123292033D01*
X117219582Y-120333434D02*
X117132427Y-121329628D01*
D13*
X110658471Y-126485004D02*
X110702049Y-125986906D01*
D16*
X125196636Y-123239739D02*
X124150767Y-135194076D01*
D13*
X110929006Y-132571744D02*
X111140794Y-130150991D01*
D16*
X120917967Y-121660820D02*
X124703506Y-121992012D01*
X123448464Y-136337216D02*
X119662924Y-136006024D01*
X119211972Y-120507745D02*
X119124816Y-121503940D01*
D13*
X115202356Y-126179868D02*
X115141347Y-126877205D01*
D16*
X110851433Y-121984696D02*
X110903726Y-121386980D01*
X117132427Y-121329628D02*
X119124816Y-121503940D01*
D13*
X109917647Y-134952659D02*
X110004803Y-133956464D01*
D16*
X120970260Y-121063103D02*
X120917967Y-121660820D01*
X125196636Y-123239739D02*
X125794353Y-123292033D01*
X110253716Y-121932403D02*
X110306009Y-121334686D01*
D13*
X123864373Y-136172839D02*
X122868178Y-136085683D01*
D16*
X114031940Y-136115669D02*
X110246400Y-135784477D01*
X110851433Y-121984696D02*
X110253716Y-121932403D01*
X124150767Y-135194076D02*
X124748484Y-135246369D01*
X117869773Y-135849144D02*
X115877384Y-135674832D01*
D13*
X118149205Y-135753132D02*
X121795277Y-136072122D01*
D16*
X109805564Y-133939033D02*
X110851433Y-121984696D01*
D13*
X116721485Y-120289856D02*
X116179810Y-120744375D01*
X115141347Y-126877205D02*
X110658471Y-126485004D01*
D16*
X119211972Y-120507745D02*
X117219582Y-120333434D01*
X109753270Y-134536750D02*
G75*
G03*
X110298694Y-135186760I597717J-52293D01*
G01*
X109155553Y-134484456D02*
G75*
G03*
X110246400Y-135784477I1195434J-104587D01*
G01*
D13*
X114963549Y-128909442D02*
G75*
G03*
X117272509Y-131661151I2530334J-221375D01*
G01*
D16*
X123448464Y-136337216D02*
G75*
G03*
X124098474Y-135791792I52293J597717D01*
G01*
X111553736Y-120841556D02*
G75*
G03*
X110903726Y-121386980I-52293J-597717D01*
G01*
D13*
X115550979Y-122195089D02*
G75*
G03*
X116092654Y-121740570I43577J498098D01*
G01*
D16*
X111606030Y-120243839D02*
G75*
G03*
X110306009Y-121334686I-104587J-1195434D01*
G01*
X125248930Y-122642022D02*
G75*
G03*
X124703506Y-121992012I-597717J52293D01*
G01*
X125846647Y-122694316D02*
G75*
G03*
X124755800Y-121394295I-1195434J104587D01*
G01*
D13*
X116827382Y-124816310D02*
G75*
G03*
X115202356Y-126179868I-130733J-1494293D01*
G01*
D16*
X123396170Y-136934933D02*
G75*
G03*
X124696191Y-135844086I104587J1195434D01*
G01*
D13*
X110929005Y-132571744D02*
G75*
G03*
X113237965Y-135323454I2530336J-221375D01*
G01*
D16*
%TO.C,U1*%
X195011100Y-52325386D02*
X204006100Y-52325386D01*
X190611100Y-54420927D02*
X190611100Y-74749386D01*
X195007100Y-59677386D02*
X195007100Y-52324386D01*
X208411100Y-53749386D02*
X191282641Y-53749386D01*
X208411100Y-74749386D02*
X208411100Y-53749386D01*
X191282641Y-53749386D02*
X190611100Y-54420927D01*
X204006100Y-59677386D02*
X195007100Y-59677386D01*
X204006100Y-52325386D02*
X204006100Y-59677386D01*
X190611100Y-74749386D02*
X208411100Y-74749386D01*
D17*
X189849100Y-56588386D02*
G75*
G03*
X189849100Y-56588386I-127000J0D01*
G01*
D15*
%TO.C,J3*%
X205497000Y-83479600D02*
X203647000Y-83479600D01*
X203647000Y-83479600D02*
X203647000Y-85379600D01*
X205497000Y-83529600D02*
X205497000Y-83479600D01*
X205497000Y-85379600D02*
X205497000Y-83529600D01*
X203647000Y-85379600D02*
X205497000Y-85379600D01*
D16*
%TO.C,S1*%
X82708201Y-65174679D02*
X86504584Y-65008925D01*
D13*
X87549770Y-79777391D02*
X86550722Y-79821010D01*
D16*
X73345838Y-79997167D02*
X73319666Y-79397738D01*
D13*
X77688047Y-71699865D02*
X73192330Y-71896152D01*
D16*
X72196805Y-67435331D02*
X72170633Y-66835902D01*
X72796233Y-67409159D02*
X72770062Y-66809730D01*
D13*
X73013491Y-67800055D02*
X72987319Y-67200626D01*
D16*
X79566108Y-80326156D02*
X77767822Y-80404670D01*
X80936086Y-65852622D02*
X82734372Y-65774108D01*
X87705961Y-78769619D02*
X88305389Y-78743447D01*
X87705961Y-78769619D02*
X87732132Y-79369048D01*
D13*
X81391990Y-64831765D02*
X78394846Y-64962623D01*
D16*
X77139702Y-66018376D02*
X78937989Y-65939861D01*
X87755785Y-66155440D02*
X87781957Y-66754868D01*
D13*
X81843699Y-80106599D02*
X76903406Y-80322297D01*
D16*
X82708201Y-65174679D02*
X82734372Y-65774108D01*
D13*
X74080552Y-73899315D02*
X77777031Y-73737924D01*
X74562143Y-80344443D02*
X73563095Y-80388062D01*
X85310752Y-75951414D02*
X85485230Y-79947607D01*
X72996043Y-67400435D02*
X72952424Y-66401387D01*
D16*
X87158875Y-79994648D02*
X83362492Y-80160402D01*
X77767822Y-80404670D02*
X73971438Y-80570424D01*
X87182528Y-66781040D02*
X87705961Y-78769619D01*
X73317148Y-65584701D02*
X77113531Y-65418947D01*
X72746409Y-80023338D02*
X72720237Y-79423910D01*
D13*
X77960751Y-66483005D02*
X77917131Y-65483956D01*
X80425407Y-76164713D02*
X85310752Y-75951414D01*
X74151216Y-75517773D02*
X74080552Y-73899315D01*
D16*
X83362492Y-80160402D02*
X81564205Y-80238917D01*
X77767822Y-80404670D02*
X77793993Y-81004099D01*
X72796233Y-67409159D02*
X72196805Y-67435331D01*
X77113531Y-65418947D02*
X77139702Y-66018376D01*
X82734372Y-65774108D02*
X86530756Y-65608354D01*
D13*
X87506151Y-78778343D02*
X87549770Y-79777391D01*
X81828714Y-80107254D02*
X85485230Y-79947607D01*
D16*
X87182528Y-66781040D02*
X87781957Y-66754868D01*
X80892466Y-64853574D02*
X78894370Y-64940813D01*
X83362492Y-80160402D02*
X83388663Y-80759831D01*
D13*
X78394846Y-64962623D02*
X77917131Y-65483956D01*
D16*
X80892466Y-64853574D02*
X80936086Y-65852622D01*
D13*
X85940051Y-65834335D02*
X86939099Y-65790716D01*
D16*
X81564205Y-80238917D02*
X79566108Y-80326156D01*
X73343319Y-66184130D02*
X77139702Y-66018376D01*
D13*
X86939099Y-65790716D02*
X86982718Y-66789764D01*
X82065992Y-68806148D02*
X81588278Y-69327481D01*
D16*
X87156356Y-66181611D02*
X87182528Y-66781040D01*
X78894370Y-64940813D02*
X78937989Y-65939861D01*
D13*
X74255030Y-77895508D02*
X74149035Y-75467821D01*
D16*
X78937989Y-65939861D02*
X80936086Y-65852622D01*
D13*
X81913324Y-65309479D02*
X81391990Y-64831765D01*
X77657514Y-71000531D02*
X77688047Y-71699865D01*
X81588278Y-69327481D02*
X79090657Y-69436530D01*
X72987319Y-67200626D02*
X77483036Y-67004338D01*
X73192330Y-71896152D02*
X73170521Y-71396628D01*
X73563095Y-80388062D02*
X73519476Y-79389014D01*
D16*
X77793993Y-81004099D02*
X73997610Y-81169853D01*
D13*
X72952424Y-66401387D02*
X73951472Y-66357768D01*
D16*
X73319666Y-79397738D02*
X72720237Y-79423910D01*
X88305389Y-78743447D02*
X88331561Y-79342876D01*
X87185046Y-80594077D02*
X83388663Y-80759831D01*
X73319666Y-79397738D02*
X72796233Y-67409159D01*
D13*
X74255030Y-77895508D02*
G75*
G03*
X76903406Y-80322297I2537583J110794D01*
G01*
D16*
X73343319Y-66184130D02*
G75*
G03*
X72770062Y-66809730I26172J-599429D01*
G01*
X87156356Y-66181611D02*
G75*
G03*
X86530756Y-65608354I-599429J-26172D01*
G01*
X73317148Y-65584701D02*
G75*
G03*
X72170633Y-66835902I52343J-1198858D01*
G01*
X87185046Y-80594077D02*
G75*
G03*
X88331561Y-79342876I-52343J1198858D01*
G01*
X87755785Y-66155440D02*
G75*
G03*
X86504584Y-65008925I-1198858J-52343D01*
G01*
D13*
X77483036Y-67004338D02*
G75*
G03*
X77960751Y-66483005I-21810J499525D01*
G01*
D16*
X72746409Y-80023338D02*
G75*
G03*
X73997610Y-81169853I1198858J52343D01*
G01*
D13*
X77777030Y-73737924D02*
G75*
G03*
X80425408Y-76164712I2537582J110794D01*
G01*
X79090657Y-69436530D02*
G75*
G03*
X77657514Y-71000531I65430J-1498573D01*
G01*
D16*
X73345838Y-79997167D02*
G75*
G03*
X73971438Y-80570424I599429J26172D01*
G01*
X87158875Y-79994648D02*
G75*
G03*
X87732132Y-79369048I-26172J599429D01*
G01*
D15*
%TO.C,LIPO1*%
X189500000Y-75500000D02*
X214500000Y-75500000D01*
X214500000Y-75500000D02*
X214500000Y-110500000D01*
X214500000Y-110500000D02*
X189500000Y-110500000D01*
X189500000Y-110500000D02*
X189500000Y-75500000D01*
%TO.C,S23*%
X200593292Y-131738540D02*
X196279940Y-136051892D01*
X197446666Y-138067146D02*
X200062962Y-140683441D01*
X205224841Y-135521562D02*
X202608546Y-132905266D01*
X200062962Y-140683441D02*
X205224841Y-135521562D01*
D16*
%TO.C,S11*%
X166850767Y-90194076D02*
X166798474Y-90791792D01*
X166148464Y-91337216D02*
X162362924Y-91006024D01*
X161911972Y-75507745D02*
X159919582Y-75333434D01*
D13*
X157902356Y-81179868D02*
X157841347Y-81877205D01*
X164843900Y-87087343D02*
X164495277Y-91072122D01*
X159972508Y-86661152D02*
X164843900Y-87087343D01*
X153715809Y-77400605D02*
X153768103Y-76802889D01*
D16*
X166850767Y-90194076D02*
X167448484Y-90246369D01*
D13*
X153358471Y-81485004D02*
X153402049Y-80986906D01*
X166788358Y-77138958D02*
X167784553Y-77226113D01*
D16*
X154306030Y-75243839D02*
X158091570Y-75575031D01*
D13*
X162017868Y-80034199D02*
X159527382Y-79816310D01*
X166564373Y-91172839D02*
X165568178Y-91085683D01*
D16*
X156731940Y-91115669D02*
X152946400Y-90784477D01*
X163617967Y-76660820D02*
X167403506Y-76992012D01*
D13*
X160849205Y-90753132D02*
X164495277Y-91072122D01*
D16*
X166096170Y-91934933D02*
X162310630Y-91603741D01*
X158039276Y-76172748D02*
X159832427Y-76329628D01*
X163670260Y-76063103D02*
X167455800Y-76394295D01*
D13*
X153613842Y-90039814D02*
X152617647Y-89952659D01*
X160864148Y-90754440D02*
X155937965Y-90323454D01*
X166651528Y-90176644D02*
X166564373Y-91172839D01*
D16*
X161824816Y-76503940D02*
X163617967Y-76660820D01*
D13*
X167784553Y-77226113D02*
X167697397Y-78222308D01*
D16*
X168546647Y-77694316D02*
X168494353Y-78292033D01*
X161911972Y-75507745D02*
X161824816Y-76503940D01*
X162362924Y-91006024D02*
X160569773Y-90849144D01*
X158577384Y-90674832D02*
X156784233Y-90517952D01*
D13*
X153837827Y-76005933D02*
X154834022Y-76093089D01*
D16*
X159919582Y-75333434D02*
X159832427Y-76329628D01*
X154253736Y-75841556D02*
X158039276Y-76172748D01*
X152505564Y-88939033D02*
X151907847Y-88886739D01*
X151855553Y-89484456D02*
X151907847Y-88886739D01*
D13*
X153977629Y-83586966D02*
X157663549Y-83909442D01*
D16*
X167896636Y-78239739D02*
X166850767Y-90194076D01*
X156784233Y-90517952D02*
X156731940Y-91115669D01*
D13*
X152617647Y-89952659D02*
X152704803Y-88956464D01*
D16*
X153551433Y-76984696D02*
X152953716Y-76932403D01*
X159832427Y-76329628D02*
X161824816Y-76503940D01*
X158091570Y-75575031D02*
X158039276Y-76172748D01*
D13*
X153768103Y-76802889D02*
X158250979Y-77195090D01*
X162559544Y-79579680D02*
X162017868Y-80034199D01*
X159421485Y-75289856D02*
X158879810Y-75744375D01*
D16*
X152453270Y-89536750D02*
X152505564Y-88939033D01*
X156784233Y-90517952D02*
X152998694Y-90186760D01*
D13*
X157841347Y-81877205D02*
X153358471Y-81485004D01*
D16*
X160569773Y-90849144D02*
X158577384Y-90674832D01*
X167448484Y-90246369D02*
X167396191Y-90844086D01*
X167896636Y-78239739D02*
X168494353Y-78292033D01*
X153551433Y-76984696D02*
X153603726Y-76386980D01*
D13*
X158792654Y-76740570D02*
X158879810Y-75744375D01*
X153629006Y-87571744D02*
X153840794Y-85150991D01*
D16*
X152953716Y-76932403D02*
X153006009Y-76334686D01*
D13*
X162864589Y-76092998D02*
X162410069Y-75551323D01*
X153836436Y-85200801D02*
X153977629Y-83586966D01*
X153750672Y-77002128D02*
X153837827Y-76005933D01*
D16*
X167948930Y-77642022D02*
X167896636Y-78239739D01*
D13*
X162410069Y-75551323D02*
X159421485Y-75289856D01*
D16*
X163670260Y-76063103D02*
X163617967Y-76660820D01*
X162362924Y-91006024D02*
X162310630Y-91603741D01*
X152505564Y-88939033D02*
X153551433Y-76984696D01*
D13*
X159527382Y-79816310D02*
G75*
G03*
X157902356Y-81179868I-130733J-1494293D01*
G01*
D16*
X168546647Y-77694316D02*
G75*
G03*
X167455800Y-76394295I-1195434J104587D01*
G01*
D13*
X153629005Y-87571744D02*
G75*
G03*
X155937965Y-90323454I2530336J-221375D01*
G01*
X157663549Y-83909442D02*
G75*
G03*
X159972509Y-86661151I2530334J-221375D01*
G01*
D16*
X166096170Y-91934933D02*
G75*
G03*
X167396191Y-90844086I104587J1195434D01*
G01*
D13*
X158250979Y-77195089D02*
G75*
G03*
X158792654Y-76740570I43577J498098D01*
G01*
D16*
X154306030Y-75243839D02*
G75*
G03*
X153006009Y-76334686I-104587J-1195434D01*
G01*
X151855553Y-89484456D02*
G75*
G03*
X152946400Y-90784477I1195434J-104587D01*
G01*
X166148464Y-91337216D02*
G75*
G03*
X166798474Y-90791792I52293J597717D01*
G01*
X167948930Y-77642022D02*
G75*
G03*
X167403506Y-76992012I-597717J52293D01*
G01*
X154253736Y-75841556D02*
G75*
G03*
X153603726Y-76386980I-52293J-597717D01*
G01*
X152453270Y-89536750D02*
G75*
G03*
X152998694Y-90186760I597717J-52293D01*
G01*
%TO.C,S3*%
X113656385Y-71557160D02*
X113624983Y-70957982D01*
X112397774Y-59005829D02*
X112366372Y-58406652D01*
X112996952Y-58974428D02*
X112397774Y-59005829D01*
D13*
X120702240Y-67663072D02*
X125585538Y-67407149D01*
X114422643Y-67070909D02*
X114337858Y-65453129D01*
X125585538Y-67407149D02*
X125794882Y-71401667D01*
X113186210Y-58764235D02*
X117680043Y-58528723D01*
X113217612Y-59363412D02*
X113186210Y-58764235D01*
X113144342Y-57965331D02*
X114142971Y-57912995D01*
X122278548Y-60290470D02*
X121805401Y-60815953D01*
D16*
X127345815Y-57621612D02*
X127377217Y-58220790D01*
D13*
X117889387Y-62523241D02*
X117926022Y-63222282D01*
D16*
X119125652Y-57451589D02*
X121122911Y-57346917D01*
X119073316Y-56452960D02*
X119125652Y-57451589D01*
D13*
X122095372Y-56795267D02*
X121569889Y-56322120D01*
D16*
X122920444Y-57252713D02*
X126715236Y-57053836D01*
D13*
X121805401Y-60815953D02*
X119308827Y-60946793D01*
D16*
X118113158Y-72525237D02*
X114318366Y-72724114D01*
X117296717Y-56946616D02*
X117328118Y-57545794D01*
X113057207Y-71588561D02*
X113025805Y-70989384D01*
D13*
X127125155Y-57232628D02*
X127177491Y-58231257D01*
X121569889Y-56322120D02*
X118574001Y-56479128D01*
X113877045Y-71946144D02*
X113824709Y-70947515D01*
X122154878Y-71592431D02*
X117216654Y-71851233D01*
D16*
X113624983Y-70957982D02*
X112996952Y-58974428D01*
D13*
X118153190Y-58003240D02*
X118100854Y-57004610D01*
D16*
X113533326Y-57744671D02*
X117328118Y-57545794D01*
D13*
X127857858Y-71213441D02*
X126859229Y-71265777D01*
D16*
X128005248Y-70204344D02*
X128604426Y-70172943D01*
X121070575Y-56348288D02*
X121122911Y-57346917D01*
X121876548Y-71727183D02*
X119879289Y-71831855D01*
X127377217Y-58220790D02*
X127976395Y-58189388D01*
X127377217Y-58220790D02*
X128005248Y-70204344D01*
D13*
X122139898Y-71593216D02*
X125794882Y-71401667D01*
X113432189Y-63457793D02*
X113406021Y-62958479D01*
D16*
X128604426Y-70172943D02*
X128635828Y-70772120D01*
X118081756Y-71926059D02*
X114286964Y-72124936D01*
X123674082Y-71632978D02*
X121876548Y-71727183D01*
X127944993Y-57590211D02*
X127976395Y-58189388D01*
D13*
X118574001Y-56479128D02*
X118100854Y-57004610D01*
D16*
X122889042Y-56653535D02*
X126683834Y-56454658D01*
X113624983Y-70957982D02*
X113025805Y-70989384D01*
D13*
X127805522Y-70214812D02*
X127857858Y-71213441D01*
X126126526Y-57284964D02*
X127125155Y-57232628D01*
D16*
X117328118Y-57545794D02*
X119125652Y-57451589D01*
X113501925Y-57145493D02*
X117296717Y-56946616D01*
X112996952Y-58974428D02*
X112965550Y-58375250D01*
X127500275Y-72033279D02*
X123705483Y-72232156D01*
X127468874Y-71434101D02*
X123674082Y-71632978D01*
X121122911Y-57346917D02*
X122920444Y-57252713D01*
X121070575Y-56348288D02*
X119073316Y-56452960D01*
X123674082Y-71632978D02*
X123705483Y-72232156D01*
D13*
X113196678Y-58963960D02*
X113144342Y-57965331D01*
X114337858Y-65453129D02*
X118032788Y-65259486D01*
D16*
X118081756Y-71926059D02*
X118113158Y-72525237D01*
D13*
X114875674Y-71893808D02*
X113877045Y-71946144D01*
D16*
X128005248Y-70204344D02*
X128036650Y-70803522D01*
X122889042Y-56653535D02*
X122920444Y-57252713D01*
X119879289Y-71831855D02*
X118081756Y-71926059D01*
D13*
X114547202Y-69447647D02*
X114420026Y-67020977D01*
X117926022Y-63222282D02*
X113432189Y-63457793D01*
D16*
X127944994Y-57590211D02*
G75*
G03*
X126683834Y-56454658I-1198356J-62803D01*
G01*
X127500275Y-72033280D02*
G75*
G03*
X128635828Y-70772120I-62803J1198356D01*
G01*
X113501925Y-57145492D02*
G75*
G03*
X112366372Y-58406652I62803J-1198356D01*
G01*
X113533326Y-57744670D02*
G75*
G03*
X112965550Y-58375250I31402J-599178D01*
G01*
D13*
X118032789Y-65259486D02*
G75*
G03*
X120702241Y-67663070I2536517J132933D01*
G01*
D16*
X127468874Y-71434102D02*
G75*
G03*
X128036650Y-70803522I-31402J599178D01*
G01*
D13*
X117680043Y-58528723D02*
G75*
G03*
X118153190Y-58003240I-26169J499316D01*
G01*
X114547202Y-69447647D02*
G75*
G03*
X117216654Y-71851233I2536520J132934D01*
G01*
X119308827Y-60946793D02*
G75*
G03*
X117889387Y-62523241I78505J-1497945D01*
G01*
D16*
X113057206Y-71588561D02*
G75*
G03*
X114318366Y-72724114I1198356J62803D01*
G01*
X127345816Y-57621612D02*
G75*
G03*
X126715236Y-57053836I-599178J-31402D01*
G01*
X113656384Y-71557160D02*
G75*
G03*
X114286964Y-72124936I599178J31402D01*
G01*
D13*
%TO.C,S10*%
X147701100Y-89089386D02*
X146701100Y-89089386D01*
D16*
X143501100Y-74889386D02*
X147301100Y-74889386D01*
X137901100Y-89289386D02*
X134101100Y-89289386D01*
X141701100Y-73889386D02*
X139701100Y-73889386D01*
D13*
X146701100Y-75089386D02*
X147701100Y-75089386D01*
D16*
X139701100Y-74889386D02*
X141701100Y-74889386D01*
D13*
X139201100Y-73889386D02*
X138701100Y-74389386D01*
D16*
X141701100Y-74889386D02*
X143501100Y-74889386D01*
X133501100Y-76089386D02*
X132901100Y-76089386D01*
D13*
X133701100Y-80589386D02*
X133701100Y-80089386D01*
X133701100Y-75889386D02*
X138201100Y-75889386D01*
X141971100Y-89169386D02*
X145631100Y-89169386D01*
D16*
X143501100Y-89289386D02*
X143501100Y-89889386D01*
X134101100Y-74289386D02*
X137901100Y-74289386D01*
D13*
X142701100Y-74389386D02*
X142201100Y-73889386D01*
D16*
X137901100Y-89889386D02*
X134101100Y-89889386D01*
X133501100Y-76089386D02*
X133501100Y-75489386D01*
X143501100Y-89289386D02*
X141701100Y-89289386D01*
D13*
X140741100Y-85169386D02*
X145631100Y-85169386D01*
D16*
X134101100Y-74889386D02*
X137901100Y-74889386D01*
D13*
X147701100Y-75089386D02*
X147701100Y-76089386D01*
D16*
X141701100Y-89289386D02*
X139701100Y-89289386D01*
D13*
X138701100Y-75389386D02*
X138701100Y-74389386D01*
D16*
X139701100Y-73889386D02*
X139701100Y-74889386D01*
X147901100Y-76089386D02*
X147901100Y-88089386D01*
X132901100Y-76089386D02*
X132901100Y-75489386D01*
D13*
X134501100Y-82629386D02*
X138201100Y-82629386D01*
X138201100Y-79889386D02*
X138201100Y-80589386D01*
X133701100Y-89089386D02*
X133701100Y-88089386D01*
D16*
X133501100Y-88089386D02*
X133501100Y-76089386D01*
X147901100Y-75489386D02*
X147901100Y-76089386D01*
D13*
X134501100Y-84249386D02*
X134501100Y-82629386D01*
X142201100Y-78389386D02*
X139701100Y-78389386D01*
D16*
X132901100Y-88689386D02*
X132901100Y-88089386D01*
X143501100Y-74289386D02*
X143501100Y-74889386D01*
D13*
X134501100Y-86629386D02*
X134501100Y-84199386D01*
D16*
X137901100Y-89289386D02*
X137901100Y-89889386D01*
X148501100Y-88089386D02*
X148501100Y-88689386D01*
X133501100Y-88689386D02*
X133501100Y-88089386D01*
D13*
X142701100Y-77889386D02*
X142201100Y-78389386D01*
X142201100Y-73889386D02*
X139201100Y-73889386D01*
X133701100Y-76489386D02*
X133701100Y-75889386D01*
X145631100Y-85169386D02*
X145631100Y-89169386D01*
D16*
X139701100Y-89289386D02*
X137901100Y-89289386D01*
X148501100Y-75489386D02*
X148501100Y-76089386D01*
X147301100Y-89889386D02*
X143501100Y-89889386D01*
D13*
X133701100Y-76089386D02*
X133701100Y-75089386D01*
X147701100Y-88089386D02*
X147701100Y-89089386D01*
D16*
X137901100Y-74889386D02*
X139701100Y-74889386D01*
X147901100Y-88089386D02*
X148501100Y-88089386D01*
X147901100Y-88089386D02*
X147901100Y-88689386D01*
D13*
X138201100Y-80589386D02*
X133701100Y-80589386D01*
X133701100Y-75089386D02*
X134701100Y-75089386D01*
D16*
X133501100Y-88089386D02*
X132901100Y-88089386D01*
X143501100Y-74289386D02*
X147301100Y-74289386D01*
X141701100Y-73889386D02*
X141701100Y-74889386D01*
X147301100Y-89289386D02*
X143501100Y-89289386D01*
D13*
X141986100Y-89169386D02*
X137041100Y-89169386D01*
D16*
X147901100Y-76089386D02*
X148501100Y-76089386D01*
X137901100Y-74289386D02*
X137901100Y-74889386D01*
D13*
X134701100Y-89089386D02*
X133701100Y-89089386D01*
D16*
X148501100Y-75489386D02*
G75*
G03*
X147301100Y-74289386I-1200000J0D01*
G01*
X133501100Y-88689386D02*
G75*
G03*
X134101100Y-89289386I600000J0D01*
G01*
X134101100Y-74889386D02*
G75*
G03*
X133501100Y-75489386I0J-600000D01*
G01*
D13*
X139701100Y-78389386D02*
G75*
G03*
X138201100Y-79889386I1J-1500001D01*
G01*
D16*
X134101100Y-74289386D02*
G75*
G03*
X132901100Y-75489386I0J-1200000D01*
G01*
X147301100Y-89289386D02*
G75*
G03*
X147901100Y-88689386I0J600000D01*
G01*
D13*
X138201100Y-82629386D02*
G75*
G03*
X140741101Y-85169385I2539999J0D01*
G01*
X134501100Y-86629386D02*
G75*
G03*
X137041100Y-89169386I2540001J1D01*
G01*
D16*
X147901100Y-75489386D02*
G75*
G03*
X147301100Y-74889386I-600000J0D01*
G01*
X132901100Y-88689386D02*
G75*
G03*
X134101100Y-89889386I1200000J0D01*
G01*
X147301100Y-89889386D02*
G75*
G03*
X148501100Y-88689386I0J1200000D01*
G01*
D13*
X138201100Y-75889386D02*
G75*
G03*
X138701100Y-75389386I-1J500001D01*
G01*
D16*
%TO.C,S18*%
X186427051Y-99244683D02*
X186406111Y-99844317D01*
D13*
X180038229Y-112709919D02*
X175096241Y-112537341D01*
X185787439Y-111830027D02*
X185752539Y-112829418D01*
D16*
X181548118Y-112882719D02*
X179749214Y-112819899D01*
X175951529Y-112687281D02*
X172153844Y-112554663D01*
D13*
X172200801Y-99748501D02*
X172221741Y-99148866D01*
X172760459Y-112375725D02*
X171761068Y-112340825D01*
D16*
X171575149Y-111934089D02*
X171596089Y-111334455D01*
X177750433Y-112750100D02*
X175951529Y-112687281D01*
D13*
X172249661Y-98349354D02*
X173249052Y-98384253D01*
D16*
X180286667Y-97429281D02*
X180251767Y-98428672D01*
X185345803Y-113015337D02*
X181548118Y-112882719D01*
D13*
X183820606Y-108839564D02*
X183681008Y-112837128D01*
D16*
X186406111Y-99844317D02*
X187005745Y-99865257D01*
D13*
X181146460Y-101461744D02*
X180629314Y-101943989D01*
X185241741Y-98803047D02*
X186241132Y-98837947D01*
X186241132Y-98837947D02*
X186206233Y-99837338D01*
D16*
X171415249Y-99320825D02*
X171436188Y-98721190D01*
D13*
X172214761Y-99348745D02*
X172249661Y-98349354D01*
D16*
X181548118Y-112882719D02*
X181527178Y-113482353D01*
D13*
X180629314Y-101943989D02*
X178130837Y-101856740D01*
D16*
X171596089Y-111334455D02*
X172014883Y-99341765D01*
D13*
X180023238Y-112709395D02*
X183681008Y-112837128D01*
D16*
X185987317Y-111837007D02*
X186586951Y-111857947D01*
X176475022Y-97696419D02*
X176454082Y-98296053D01*
X180286667Y-97429281D02*
X178287885Y-97359482D01*
X178252986Y-98358873D02*
X180251767Y-98428672D01*
X176454082Y-98296053D02*
X178252986Y-98358873D01*
X179749214Y-112819899D02*
X177750433Y-112750100D01*
X180251767Y-98428672D02*
X182050671Y-98491491D01*
X175930590Y-113286916D02*
X172132904Y-113154298D01*
X187026685Y-99265623D02*
X187005745Y-99865257D01*
D13*
X180786362Y-97446730D02*
X177788190Y-97342032D01*
D16*
X186586951Y-111857947D02*
X186566012Y-112457582D01*
X171596089Y-111334455D02*
X170996455Y-111313515D01*
D13*
X178933585Y-108668906D02*
X183820606Y-108839564D01*
D16*
X185324863Y-113614971D02*
X181527178Y-113482353D01*
D13*
X181268608Y-97963876D02*
X180786362Y-97446730D01*
X185752539Y-112829418D02*
X184753148Y-112794519D01*
X172729494Y-107531693D02*
X172786031Y-105912680D01*
D16*
X172014883Y-99341765D02*
X172035823Y-98742130D01*
X185987317Y-111837007D02*
X185966377Y-112436642D01*
X182050671Y-98491491D02*
X185848356Y-98624109D01*
X182071610Y-97891856D02*
X182050671Y-98491491D01*
D13*
X177788190Y-97342032D02*
X177271044Y-97824278D01*
X172786031Y-105912680D02*
X176483777Y-106041808D01*
D16*
X170975515Y-111913149D02*
X170996455Y-111313515D01*
X172014883Y-99341765D02*
X171415249Y-99320825D01*
X175951529Y-112687281D02*
X175930590Y-113286916D01*
D13*
X172221741Y-99148866D02*
X176719000Y-99305914D01*
D16*
X182071610Y-97891856D02*
X185869296Y-98024474D01*
X178287885Y-97359482D02*
X178252986Y-98358873D01*
X172656397Y-98163435D02*
X176454082Y-98296053D01*
D13*
X176579402Y-103303477D02*
X176554972Y-104003051D01*
X172057713Y-103846003D02*
X172075163Y-103346308D01*
D16*
X186406111Y-99844317D02*
X185987317Y-111837007D01*
D13*
X171761068Y-112340825D02*
X171795967Y-111341434D01*
X172646433Y-109910243D02*
X172731239Y-107481724D01*
X177236145Y-98823668D02*
X177271044Y-97824278D01*
X176554972Y-104003051D02*
X172057713Y-103846003D01*
D16*
X172677337Y-97563801D02*
X176475022Y-97696419D01*
D13*
X176719000Y-99305914D02*
G75*
G03*
X177236145Y-98823668I17449J499696D01*
G01*
D16*
X172677337Y-97563801D02*
G75*
G03*
X171436188Y-98721190I-41880J-1199269D01*
G01*
D13*
X178130837Y-101856741D02*
G75*
G03*
X176579402Y-103303477I-52348J-1499087D01*
G01*
D16*
X172656397Y-98163436D02*
G75*
G03*
X172035823Y-98742130I-20940J-599634D01*
G01*
D13*
X172646433Y-109910243D02*
G75*
G03*
X175096241Y-112537341I2538454J-88644D01*
G01*
D16*
X171575150Y-111934089D02*
G75*
G03*
X172153844Y-112554663I599634J-20940D01*
G01*
X187026685Y-99265623D02*
G75*
G03*
X185869296Y-98024474I-1199269J41880D01*
G01*
X185345803Y-113015336D02*
G75*
G03*
X185966377Y-112436642I20940J599634D01*
G01*
X185324863Y-113614971D02*
G75*
G03*
X186566012Y-112457582I41880J1199269D01*
G01*
X186427050Y-99244683D02*
G75*
G03*
X185848356Y-98624109I-599634J20940D01*
G01*
X170975515Y-111913149D02*
G75*
G03*
X172132904Y-113154298I1199269J-41880D01*
G01*
D13*
X176483777Y-106041808D02*
G75*
G03*
X178933586Y-108668905I2538452J-88645D01*
G01*
D16*
%TO.C,S4*%
X143101100Y-70289386D02*
X143101100Y-70889386D01*
D13*
X137801100Y-61589386D02*
X133301100Y-61589386D01*
X141801100Y-54889386D02*
X138801100Y-54889386D01*
D16*
X132501100Y-57089386D02*
X132501100Y-56489386D01*
X147501100Y-56489386D02*
X147501100Y-57089386D01*
X143101100Y-55289386D02*
X146901100Y-55289386D01*
X146901100Y-70289386D02*
X143101100Y-70289386D01*
X148101100Y-56489386D02*
X148101100Y-57089386D01*
X139301100Y-54889386D02*
X139301100Y-55889386D01*
D13*
X146301100Y-56089386D02*
X147301100Y-56089386D01*
X138801100Y-54889386D02*
X138301100Y-55389386D01*
X134101100Y-63629386D02*
X137801100Y-63629386D01*
X141586100Y-70169386D02*
X136641100Y-70169386D01*
X134301100Y-70089386D02*
X133301100Y-70089386D01*
D16*
X133101100Y-69689386D02*
X133101100Y-69089386D01*
D13*
X147301100Y-70089386D02*
X146301100Y-70089386D01*
D16*
X137501100Y-70289386D02*
X137501100Y-70889386D01*
D13*
X145231100Y-66169386D02*
X145231100Y-70169386D01*
D16*
X146901100Y-70889386D02*
X143101100Y-70889386D01*
X133101100Y-57089386D02*
X133101100Y-56489386D01*
D13*
X133301100Y-56889386D02*
X137801100Y-56889386D01*
X134101100Y-67629386D02*
X134101100Y-65199386D01*
D16*
X141301100Y-70289386D02*
X139301100Y-70289386D01*
X137501100Y-55289386D02*
X137501100Y-55889386D01*
X137501100Y-70889386D02*
X133701100Y-70889386D01*
D13*
X141801100Y-59389386D02*
X139301100Y-59389386D01*
D16*
X143101100Y-55889386D02*
X146901100Y-55889386D01*
X137501100Y-55889386D02*
X139301100Y-55889386D01*
D13*
X147301100Y-56089386D02*
X147301100Y-57089386D01*
D16*
X147501100Y-69089386D02*
X147501100Y-69689386D01*
D13*
X133301100Y-57089386D02*
X133301100Y-56089386D01*
X140341100Y-66169386D02*
X145231100Y-66169386D01*
D16*
X147501100Y-57089386D02*
X148101100Y-57089386D01*
X132501100Y-69689386D02*
X132501100Y-69089386D01*
D13*
X134101100Y-65249386D02*
X134101100Y-63629386D01*
D16*
X133701100Y-55889386D02*
X137501100Y-55889386D01*
X133101100Y-69089386D02*
X132501100Y-69089386D01*
X141301100Y-54889386D02*
X139301100Y-54889386D01*
D13*
X142301100Y-55389386D02*
X141801100Y-54889386D01*
D16*
X139301100Y-70289386D02*
X137501100Y-70289386D01*
D13*
X138301100Y-56389386D02*
X138301100Y-55389386D01*
X133301100Y-56089386D02*
X134301100Y-56089386D01*
X147301100Y-69089386D02*
X147301100Y-70089386D01*
D16*
X133701100Y-55289386D02*
X137501100Y-55289386D01*
X141301100Y-54889386D02*
X141301100Y-55889386D01*
X133101100Y-57089386D02*
X132501100Y-57089386D01*
D13*
X133301100Y-70089386D02*
X133301100Y-69089386D01*
X137801100Y-60889386D02*
X137801100Y-61589386D01*
X133301100Y-61589386D02*
X133301100Y-61089386D01*
X142301100Y-58889386D02*
X141801100Y-59389386D01*
D16*
X143101100Y-55289386D02*
X143101100Y-55889386D01*
X148101100Y-69089386D02*
X148101100Y-69689386D01*
D13*
X141571100Y-70169386D02*
X145231100Y-70169386D01*
D16*
X147501100Y-69089386D02*
X148101100Y-69089386D01*
X139301100Y-55889386D02*
X141301100Y-55889386D01*
X141301100Y-55889386D02*
X143101100Y-55889386D01*
D13*
X133301100Y-57489386D02*
X133301100Y-56889386D01*
D16*
X133101100Y-69089386D02*
X133101100Y-57089386D01*
X143101100Y-70289386D02*
X141301100Y-70289386D01*
X147501100Y-57089386D02*
X147501100Y-69089386D01*
X137501100Y-70289386D02*
X133701100Y-70289386D01*
D13*
X137801100Y-56889386D02*
G75*
G03*
X138301100Y-56389386I-1J500001D01*
G01*
D16*
X146901100Y-70289386D02*
G75*
G03*
X147501100Y-69689386I0J600000D01*
G01*
X132501100Y-69689386D02*
G75*
G03*
X133701100Y-70889386I1200000J0D01*
G01*
X133701100Y-55289386D02*
G75*
G03*
X132501100Y-56489386I0J-1200000D01*
G01*
D13*
X139301100Y-59389386D02*
G75*
G03*
X137801100Y-60889386I1J-1500001D01*
G01*
D16*
X146901100Y-70889386D02*
G75*
G03*
X148101100Y-69689386I0J1200000D01*
G01*
X133701100Y-55889386D02*
G75*
G03*
X133101100Y-56489386I0J-600000D01*
G01*
D13*
X137801100Y-63629386D02*
G75*
G03*
X140341101Y-66169385I2539999J0D01*
G01*
D16*
X148101100Y-56489386D02*
G75*
G03*
X146901100Y-55289386I-1200000J0D01*
G01*
D13*
X134101100Y-67629386D02*
G75*
G03*
X136641100Y-70169386I2540001J1D01*
G01*
D16*
X133101100Y-69689386D02*
G75*
G03*
X133701100Y-70289386I600000J0D01*
G01*
X147501100Y-56489386D02*
G75*
G03*
X146901100Y-55889386I-600000J0D01*
G01*
%TO.C,S17*%
X159609731Y-95153571D02*
X159566111Y-96152619D01*
D13*
X158545253Y-96608524D02*
X158588873Y-95609476D01*
D16*
X163362495Y-96318373D02*
X167158878Y-96484127D01*
X162734375Y-110704667D02*
X160936089Y-110626153D01*
X160936089Y-110626153D02*
X158937992Y-110538914D01*
X163388666Y-95718944D02*
X167185049Y-95884698D01*
X168331564Y-97135899D02*
X168305392Y-97735328D01*
X153319669Y-97081037D02*
X153345841Y-96481608D01*
D13*
X166939102Y-110688059D02*
X165940054Y-110644440D01*
X166982721Y-109689011D02*
X166939102Y-110688059D01*
X157849442Y-101082431D02*
X157818909Y-101781765D01*
D16*
X161607827Y-95240810D02*
X161564208Y-96239858D01*
X161564208Y-96239858D02*
X163362495Y-96318373D01*
D13*
X161226052Y-110518698D02*
X156285758Y-110303000D01*
D16*
X152720240Y-97054865D02*
X152746412Y-96455437D01*
X167732135Y-97109727D02*
X167705964Y-97709156D01*
D13*
X157818909Y-101781765D02*
X153323192Y-101585478D01*
D16*
X157139705Y-110460399D02*
X157113534Y-111059828D01*
D13*
X167549773Y-96701384D02*
X167506154Y-97700432D01*
D16*
X166530759Y-110870421D02*
X162734375Y-110704667D01*
D13*
X161211066Y-110518044D02*
X164867582Y-110677691D01*
D16*
X153319669Y-97081037D02*
X152720240Y-97054865D01*
X152170636Y-109642873D02*
X152196808Y-109043444D01*
X161607827Y-95240810D02*
X159609731Y-95153571D01*
X159566111Y-96152619D02*
X161564208Y-96239858D01*
D13*
X153519479Y-97089761D02*
X153563098Y-96090713D01*
X152952427Y-110077388D02*
X152996046Y-109078340D01*
X153951475Y-110121007D02*
X152952427Y-110077388D01*
X159110207Y-95131762D02*
X158588873Y-95609476D01*
D16*
X153971441Y-95908351D02*
X157767825Y-96074105D01*
D13*
X153323192Y-101585478D02*
X153345001Y-101085954D01*
X160156714Y-106468199D02*
X165042060Y-106681498D01*
D16*
X157793996Y-95474676D02*
X157767825Y-96074105D01*
D13*
X166550725Y-96657765D02*
X167549773Y-96701384D01*
D16*
X152770065Y-109669045D02*
X152796236Y-109069616D01*
D13*
X153962783Y-105276890D02*
X154033447Y-103658432D01*
D16*
X162734375Y-110704667D02*
X162708204Y-111304096D01*
D13*
X153528203Y-96889951D02*
X158023920Y-97086239D01*
X162432398Y-99280622D02*
X161911064Y-99758337D01*
X161911064Y-99758337D02*
X159413444Y-99649288D01*
X153563098Y-96090713D02*
X154562146Y-96134332D01*
D16*
X167781960Y-109723907D02*
X167755788Y-110323335D01*
X157767825Y-96074105D02*
X159566111Y-96152619D01*
X167182531Y-109697735D02*
X167781960Y-109723907D01*
D13*
X162107351Y-95262620D02*
X159110207Y-95131762D01*
D16*
X167182531Y-109697735D02*
X167156359Y-110297164D01*
X158937992Y-110538914D02*
X157139705Y-110460399D01*
X167705964Y-97709156D02*
X168305392Y-97735328D01*
D13*
X154033447Y-103658432D02*
X157729925Y-103819824D01*
D16*
X153997613Y-95308922D02*
X157793996Y-95474676D01*
X157139705Y-110460399D02*
X153343322Y-110294645D01*
D13*
X165042060Y-106681498D02*
X164867582Y-110677691D01*
D16*
X166504587Y-111469850D02*
X162708204Y-111304096D01*
D13*
X162585066Y-95783953D02*
X162107351Y-95262620D01*
D16*
X157113534Y-111059828D02*
X153317151Y-110894074D01*
X167705964Y-97709156D02*
X167182531Y-109697735D01*
D13*
X153858969Y-107654625D02*
X153964964Y-105226938D01*
X153502031Y-97489380D02*
X153528203Y-96889951D01*
D16*
X152796236Y-109069616D02*
X153319669Y-97081037D01*
X152796236Y-109069616D02*
X152196808Y-109043444D01*
X163388666Y-95718944D02*
X163362495Y-96318373D01*
X152770065Y-109669045D02*
G75*
G03*
X153343322Y-110294645I599429J-26171D01*
G01*
X166530759Y-110870421D02*
G75*
G03*
X167156359Y-110297164I26171J599429D01*
G01*
X167732135Y-97109727D02*
G75*
G03*
X167158878Y-96484127I-599429J26171D01*
G01*
X152170636Y-109642873D02*
G75*
G03*
X153317151Y-110894074I1198858J-52343D01*
G01*
X153971441Y-95908351D02*
G75*
G03*
X153345841Y-96481608I-26171J-599429D01*
G01*
X153997613Y-95308922D02*
G75*
G03*
X152746412Y-96455437I-52343J-1198858D01*
G01*
D13*
X153858969Y-107654625D02*
G75*
G03*
X156285758Y-110303000I2537584J-110792D01*
G01*
X157729926Y-103819824D02*
G75*
G03*
X160156715Y-106468198I2537580J-110793D01*
G01*
D16*
X168331564Y-97135899D02*
G75*
G03*
X167185049Y-95884698I-1198858J52343D01*
G01*
D13*
X159413444Y-99649289D02*
G75*
G03*
X157849442Y-101082431I-65429J-1498573D01*
G01*
X158023920Y-97086238D02*
G75*
G03*
X158545253Y-96608524I21808J499525D01*
G01*
D16*
X166504587Y-111469850D02*
G75*
G03*
X167755788Y-110323335I52343J1198858D01*
G01*
D13*
%TO.C,S5*%
X162617868Y-61034199D02*
X160127382Y-60816310D01*
X154213842Y-71039814D02*
X153217647Y-70952659D01*
X160572508Y-67661152D02*
X165443900Y-68087343D01*
D16*
X162962924Y-72006024D02*
X161169773Y-71849144D01*
X157384233Y-71517952D02*
X157331940Y-72115669D01*
D13*
X167251528Y-71176644D02*
X167164373Y-72172839D01*
D16*
X154151433Y-57984696D02*
X153553716Y-57932403D01*
X166696170Y-72934933D02*
X162910630Y-72603741D01*
X152455553Y-70484456D02*
X152507847Y-69886739D01*
D13*
X161464148Y-71754440D02*
X156537965Y-71323454D01*
D16*
X153105564Y-69939033D02*
X154151433Y-57984696D01*
X159177384Y-71674832D02*
X157384233Y-71517952D01*
X164217967Y-57660820D02*
X168003506Y-57992012D01*
X161169773Y-71849144D02*
X159177384Y-71674832D01*
D13*
X168384553Y-58226113D02*
X168297397Y-59222308D01*
D16*
X169146647Y-58694316D02*
X169094353Y-59292033D01*
X168496636Y-59239739D02*
X169094353Y-59292033D01*
D13*
X167164373Y-72172839D02*
X166168178Y-72085683D01*
X165443900Y-68087343D02*
X165095277Y-72072122D01*
D16*
X154151433Y-57984696D02*
X154203726Y-57386980D01*
X157331940Y-72115669D02*
X153546400Y-71784477D01*
X164270260Y-57063103D02*
X168055800Y-57394295D01*
X154906030Y-56243839D02*
X158691570Y-56575031D01*
D13*
X160021485Y-56289856D02*
X159479810Y-56744375D01*
X154437827Y-57005933D02*
X155434022Y-57093089D01*
D16*
X162511972Y-56507745D02*
X162424816Y-57503940D01*
X153553716Y-57932403D02*
X153606009Y-57334686D01*
X167450767Y-71194076D02*
X168048484Y-71246369D01*
X153053270Y-70536750D02*
X153105564Y-69939033D01*
X162511972Y-56507745D02*
X160519582Y-56333434D01*
X158691570Y-56575031D02*
X158639276Y-57172748D01*
D13*
X163010069Y-56551323D02*
X160021485Y-56289856D01*
X163159544Y-60579680D02*
X162617868Y-61034199D01*
X154368103Y-57802889D02*
X158850979Y-58195090D01*
D16*
X166748464Y-72337216D02*
X162962924Y-72006024D01*
X162424816Y-57503940D02*
X164217967Y-57660820D01*
D13*
X167388358Y-58138958D02*
X168384553Y-58226113D01*
D16*
X168496636Y-59239739D02*
X167450767Y-71194076D01*
D13*
X153958471Y-62485004D02*
X154002049Y-61986906D01*
X159392654Y-57740570D02*
X159479810Y-56744375D01*
D16*
X157384233Y-71517952D02*
X153598694Y-71186760D01*
D13*
X153217647Y-70952659D02*
X153304803Y-69956464D01*
D16*
X158639276Y-57172748D02*
X160432427Y-57329628D01*
D13*
X154229006Y-68571744D02*
X154440794Y-66150991D01*
D16*
X167450767Y-71194076D02*
X167398474Y-71791792D01*
D13*
X154577629Y-64586966D02*
X158263549Y-64909442D01*
D16*
X168548930Y-58642022D02*
X168496636Y-59239739D01*
D13*
X154436436Y-66200801D02*
X154577629Y-64586966D01*
D16*
X154853736Y-56841556D02*
X158639276Y-57172748D01*
X164270260Y-57063103D02*
X164217967Y-57660820D01*
D13*
X154315809Y-58400605D02*
X154368103Y-57802889D01*
X154350672Y-58002128D02*
X154437827Y-57005933D01*
X158502356Y-62179868D02*
X158441347Y-62877205D01*
X163464589Y-57092998D02*
X163010069Y-56551323D01*
X161449205Y-71753132D02*
X165095277Y-72072122D01*
X158441347Y-62877205D02*
X153958471Y-62485004D01*
D16*
X168048484Y-71246369D02*
X167996191Y-71844086D01*
X160519582Y-56333434D02*
X160432427Y-57329628D01*
X160432427Y-57329628D02*
X162424816Y-57503940D01*
X162962924Y-72006024D02*
X162910630Y-72603741D01*
X153105564Y-69939033D02*
X152507847Y-69886739D01*
X152455553Y-70484456D02*
G75*
G03*
X153546400Y-71784477I1195434J-104587D01*
G01*
X169146647Y-58694316D02*
G75*
G03*
X168055800Y-57394295I-1195434J104587D01*
G01*
D13*
X158850979Y-58195089D02*
G75*
G03*
X159392654Y-57740570I43577J498098D01*
G01*
D16*
X153053270Y-70536750D02*
G75*
G03*
X153598694Y-71186760I597717J-52293D01*
G01*
X168548930Y-58642022D02*
G75*
G03*
X168003506Y-57992012I-597717J52293D01*
G01*
D13*
X154229005Y-68571744D02*
G75*
G03*
X156537965Y-71323454I2530336J-221375D01*
G01*
D16*
X154853736Y-56841556D02*
G75*
G03*
X154203726Y-57386980I-52293J-597717D01*
G01*
D13*
X158263549Y-64909442D02*
G75*
G03*
X160572509Y-67661151I2530334J-221375D01*
G01*
D16*
X154906030Y-56243839D02*
G75*
G03*
X153606009Y-57334686I-104587J-1195434D01*
G01*
D13*
X160127382Y-60816310D02*
G75*
G03*
X158502356Y-62179868I-130733J-1494293D01*
G01*
D16*
X166748464Y-72337216D02*
G75*
G03*
X167398474Y-71791792I52293J597717D01*
G01*
X166696170Y-72934933D02*
G75*
G03*
X167996191Y-71844086I104587J1195434D01*
G01*
%TO.C,S20*%
X139861993Y-118640314D02*
X137892377Y-118987611D01*
D13*
X137399973Y-119074435D02*
X136994394Y-119653663D01*
X140875329Y-129915648D02*
X145691039Y-129066508D01*
D16*
X134252373Y-134048499D02*
X132168595Y-122230806D01*
X133765677Y-134743573D02*
X133661489Y-134152688D01*
X132551102Y-120944848D02*
X136293371Y-120284985D01*
D13*
X137457055Y-125156929D02*
X137578608Y-125846295D01*
X137578608Y-125846295D02*
X133146973Y-126627712D01*
D16*
X148051098Y-132833924D02*
X144308829Y-133493787D01*
X134252373Y-134048499D02*
X133661489Y-134152688D01*
X136293371Y-120284985D02*
X138066025Y-119972418D01*
X141808295Y-119312555D02*
X145550564Y-118652692D01*
X149024490Y-131443777D02*
X149128678Y-132034661D01*
D13*
X134622983Y-134998578D02*
X134449335Y-134013770D01*
D16*
X132168595Y-122230806D02*
X132064406Y-121639922D01*
D13*
X145979217Y-118780194D02*
X146152865Y-119765002D01*
X135607791Y-134824929D02*
X134622983Y-134998578D01*
X133146973Y-126627712D02*
X133060149Y-126135308D01*
X142781235Y-133641292D02*
X146385631Y-133005739D01*
X132330827Y-121999115D02*
X136762462Y-121217698D01*
D16*
X141704106Y-118721671D02*
X141808295Y-119312555D01*
X144308829Y-133493787D02*
X142536175Y-133806354D01*
D13*
X145691039Y-129066508D02*
X146385631Y-133005739D01*
D16*
X144308829Y-133493787D02*
X144413017Y-134084672D01*
X132168595Y-122230806D02*
X131577710Y-122334995D01*
D13*
X142796007Y-133638687D02*
X137926133Y-134497377D01*
D16*
X138898094Y-135057101D02*
X135155825Y-135716964D01*
D13*
X134983655Y-132437032D02*
X134561690Y-130043949D01*
X140933625Y-118959070D02*
X140354397Y-118553490D01*
X132191908Y-121211269D02*
X133176716Y-121037621D01*
X141541393Y-122405897D02*
X141135813Y-122985125D01*
D16*
X146836523Y-119035199D02*
X146940711Y-119626084D01*
X138793905Y-134466217D02*
X138898094Y-135057101D01*
D13*
X132365557Y-122196077D02*
X132191908Y-121211269D01*
X148410292Y-132567503D02*
X147425484Y-132741151D01*
X140354397Y-118553490D02*
X137399973Y-119074435D01*
D16*
X148433605Y-131547966D02*
X149024490Y-131443777D01*
X137892377Y-118987611D02*
X138066025Y-119972418D01*
D13*
X141135813Y-122985125D02*
X138673794Y-123419245D01*
D16*
X138793905Y-134466217D02*
X135051636Y-135126080D01*
X146245638Y-119139388D02*
X146349827Y-119730273D01*
X131577710Y-122334995D02*
X131473522Y-121744111D01*
X138066025Y-119972418D02*
X140035641Y-119625122D01*
X142536175Y-133806354D02*
X140566559Y-134153650D01*
X148433605Y-131547966D02*
X148537794Y-132138850D01*
X140566559Y-134153650D02*
X138793905Y-134466217D01*
X132446913Y-120353963D02*
X136189183Y-119694100D01*
X136189183Y-119694100D02*
X136293371Y-120284985D01*
X146349827Y-119730273D02*
X146940711Y-119626084D01*
D13*
X148236643Y-131582695D02*
X148410292Y-132567503D01*
X132435016Y-122590000D02*
X132330827Y-121999115D01*
D16*
X140035641Y-119625122D02*
X141808295Y-119312555D01*
X134356562Y-134639384D02*
X134252373Y-134048499D01*
X146349827Y-119730273D02*
X148433605Y-131547966D01*
X139861993Y-118640314D02*
X140035641Y-119625122D01*
X148155287Y-133424809D02*
X144413017Y-134084672D01*
D13*
X137168042Y-120638470D02*
X136994394Y-119653663D01*
X134289062Y-128497801D02*
X137932851Y-127855303D01*
D16*
X141704106Y-118721671D02*
X145446375Y-118061808D01*
D13*
X134570372Y-130093189D02*
X134289062Y-128497801D01*
X144994409Y-118953843D02*
X145979217Y-118780194D01*
D16*
X132446913Y-120353964D02*
G75*
G03*
X131473522Y-121744111I208378J-1181769D01*
G01*
D13*
X136762462Y-121217699D02*
G75*
G03*
X137168042Y-120638470I-86825J492405D01*
G01*
X134983655Y-132437032D02*
G75*
G03*
X137926133Y-134497377I2501412J441068D01*
G01*
D16*
X146245638Y-119139388D02*
G75*
G03*
X145550564Y-118652692I-590885J-104189D01*
G01*
X148051098Y-132833924D02*
G75*
G03*
X148537794Y-132138850I-104189J590885D01*
G01*
X133765678Y-134743573D02*
G75*
G03*
X135155825Y-135716964I1181769J208378D01*
G01*
X146836522Y-119035199D02*
G75*
G03*
X145446375Y-118061808I-1181769J-208378D01*
G01*
X132551102Y-120944848D02*
G75*
G03*
X132064406Y-121639922I104189J-590885D01*
G01*
D13*
X137932849Y-127855303D02*
G75*
G03*
X140875330Y-129915647I2501412J441067D01*
G01*
X138673794Y-123419246D02*
G75*
G03*
X137457055Y-125156929I260473J-1477212D01*
G01*
D16*
X148155287Y-133424808D02*
G75*
G03*
X149128678Y-132034661I-208378J1181769D01*
G01*
X134356562Y-134639384D02*
G75*
G03*
X135051636Y-135126080I590885J104189D01*
G01*
D13*
%TO.C,S13*%
X77965838Y-102946730D02*
X77483592Y-103463876D01*
D16*
X78500433Y-103928672D02*
X80499214Y-103858873D01*
X82277178Y-103196419D02*
X86074863Y-103063801D01*
D13*
X73999052Y-118294519D02*
X72999661Y-118329418D01*
X84785587Y-113995455D02*
X84925185Y-117993019D01*
D16*
X72903844Y-104124109D02*
X76701529Y-103991491D01*
X86737317Y-104841765D02*
X87336951Y-104820825D01*
X72764883Y-117337007D02*
X72165249Y-117357947D01*
D13*
X81267415Y-118120751D02*
X84925185Y-117993019D01*
D16*
X87316012Y-104221190D02*
X87336951Y-104820825D01*
D13*
X77518492Y-104463266D02*
X77483592Y-103463876D01*
X72511068Y-104337947D02*
X73510459Y-104303047D01*
D16*
X72346089Y-105344317D02*
X72325149Y-104744683D01*
X76680590Y-103391856D02*
X76701529Y-103991491D01*
X80464315Y-102859482D02*
X78465533Y-102929281D01*
X71746455Y-105365257D02*
X71725515Y-104765623D01*
X87156111Y-116834455D02*
X87755745Y-116813515D01*
X79002986Y-118319899D02*
X77204082Y-118382719D01*
D13*
X86502539Y-103849354D02*
X86537439Y-104848745D01*
X81282406Y-118120227D02*
X76340418Y-118292805D01*
D16*
X72186188Y-117957582D02*
X72165249Y-117357947D01*
D13*
X81481156Y-103324278D02*
X80964010Y-102842032D01*
D16*
X77204082Y-118382719D02*
X73406397Y-118515337D01*
X87156111Y-116834455D02*
X87177051Y-117434089D01*
D13*
X72538987Y-105137459D02*
X77036246Y-104980412D01*
X73713321Y-115842997D02*
X73628515Y-113414478D01*
X73630260Y-113464447D02*
X73573723Y-111845434D01*
D16*
X82277178Y-103196419D02*
X82298118Y-103796053D01*
X72785823Y-117936642D02*
X72764883Y-117337007D01*
X80499214Y-103858873D02*
X82298118Y-103796053D01*
X86737317Y-104841765D02*
X87156111Y-116834455D01*
D13*
X72703015Y-109834596D02*
X72685565Y-109334901D01*
D16*
X87755745Y-116813515D02*
X87776685Y-117413149D01*
X76701529Y-103991491D02*
X78500433Y-103928672D01*
D13*
X79898566Y-114166114D02*
X84785587Y-113995455D01*
D16*
X80464315Y-102859482D02*
X80499214Y-103858873D01*
D13*
X80964010Y-102842032D02*
X77965838Y-102946730D01*
X81603304Y-106822146D02*
X81121058Y-107339291D01*
D16*
X77204082Y-118382719D02*
X77225022Y-118982353D01*
D13*
X85503148Y-103884253D02*
X86502539Y-103849354D01*
X86956233Y-116841434D02*
X86991132Y-117840825D01*
D16*
X86598356Y-118054663D02*
X82800671Y-118187281D01*
X81001767Y-118250100D02*
X79002986Y-118319899D01*
D13*
X73573723Y-111845434D02*
X77271469Y-111716306D01*
D16*
X77225022Y-118982353D02*
X73427337Y-119114971D01*
D13*
X77200274Y-109677549D02*
X72703015Y-109834596D01*
D16*
X78465533Y-102929281D02*
X78500433Y-103928672D01*
D13*
X77175844Y-108977975D02*
X77200274Y-109677549D01*
D16*
X72764883Y-117337007D02*
X72346089Y-105344317D01*
D13*
X72999661Y-118329418D02*
X72964761Y-117330027D01*
X72559927Y-105737094D02*
X72538987Y-105137459D01*
X86991132Y-117840825D02*
X85991741Y-117875725D01*
D16*
X82800671Y-118187281D02*
X82821610Y-118786916D01*
X82298118Y-103796053D02*
X86095803Y-103663435D01*
X86619296Y-118654298D02*
X82821610Y-118786916D01*
D13*
X72545967Y-105337338D02*
X72511068Y-104337947D01*
D16*
X72882904Y-103524474D02*
X76680590Y-103391856D01*
X86716377Y-104242130D02*
X86737317Y-104841765D01*
X72346089Y-105344317D02*
X71746455Y-105365257D01*
D13*
X81121058Y-107339291D02*
X78622581Y-107426539D01*
D16*
X82800671Y-118187281D02*
X81001767Y-118250100D01*
X87316012Y-104221190D02*
G75*
G03*
X86074863Y-103063801I-1199269J-41880D01*
G01*
X86598356Y-118054664D02*
G75*
G03*
X87177051Y-117434089I-20940J599635D01*
G01*
D13*
X77271468Y-111716306D02*
G75*
G03*
X79898567Y-114166113I2538452J88645D01*
G01*
D16*
X72882904Y-103524474D02*
G75*
G03*
X71725515Y-104765623I41880J-1199269D01*
G01*
D13*
X78622581Y-107426540D02*
G75*
G03*
X77175844Y-108977975I52350J-1499087D01*
G01*
D16*
X86619296Y-118654298D02*
G75*
G03*
X87776685Y-117413149I-41880J1199269D01*
G01*
X72785822Y-117936642D02*
G75*
G03*
X73406397Y-118515337I599635J20940D01*
G01*
D13*
X73713320Y-115842997D02*
G75*
G03*
X76340418Y-118292805I2538454J88646D01*
G01*
D16*
X86716378Y-104242130D02*
G75*
G03*
X86095803Y-103663435I-599635J-20940D01*
G01*
X72186188Y-117957582D02*
G75*
G03*
X73427337Y-119114971I1199269J41880D01*
G01*
D13*
X77036246Y-104980412D02*
G75*
G03*
X77518492Y-104463266I-17451J499697D01*
G01*
D16*
X72903844Y-104124108D02*
G75*
G03*
X72325149Y-104744683I20940J-599635D01*
G01*
D15*
%TO.C,J1*%
X210500000Y-78450000D02*
X210500000Y-77450000D01*
X214360000Y-76690000D02*
X206540000Y-76690000D01*
X214360000Y-82810000D02*
X214360000Y-76690000D01*
X208140000Y-81610000D02*
X206925000Y-81610000D01*
X206540000Y-76690000D02*
X206540000Y-77610000D01*
X208140000Y-77610000D02*
X208140000Y-77890000D01*
X212100000Y-81050000D02*
X210500000Y-81050000D01*
X210500000Y-82050000D02*
X212100000Y-82050000D01*
X210500000Y-81050000D02*
X210500000Y-82050000D01*
X212100000Y-81550000D02*
X214360000Y-81550000D01*
X206540000Y-82810000D02*
X214360000Y-82810000D01*
X212100000Y-82050000D02*
X212100000Y-81050000D01*
X210500000Y-77450000D02*
X212100000Y-77450000D01*
X206540000Y-77610000D02*
X208140000Y-77610000D01*
X212100000Y-81050000D02*
X214360000Y-81050000D01*
X208140000Y-82810000D02*
X208140000Y-81890000D01*
X210000000Y-79250000D02*
X214360000Y-79250000D01*
X208140000Y-81890000D02*
X206540000Y-81890000D01*
X210000000Y-80250000D02*
X210000000Y-79250000D01*
X214360000Y-80250000D02*
X210000000Y-80250000D01*
X208140000Y-81610000D02*
X208140000Y-81890000D01*
X212100000Y-78450000D02*
X210500000Y-78450000D01*
X206540000Y-81890000D02*
X206540000Y-82810000D01*
X212100000Y-77450000D02*
X212100000Y-78450000D01*
X208140000Y-76690000D02*
X208140000Y-77610000D01*
D13*
%TO.C,S16*%
X135301100Y-105829386D02*
X135301100Y-103399386D01*
D16*
X142501100Y-93089386D02*
X140501100Y-93089386D01*
D13*
X140001100Y-93089386D02*
X139501100Y-93589386D01*
D16*
X148101100Y-108489386D02*
X144301100Y-108489386D01*
X149301100Y-107289386D02*
X149301100Y-107889386D01*
X149301100Y-94689386D02*
X149301100Y-95289386D01*
D13*
X142771100Y-108369386D02*
X146431100Y-108369386D01*
D16*
X144301100Y-108489386D02*
X142501100Y-108489386D01*
X142501100Y-108489386D02*
X140501100Y-108489386D01*
X138701100Y-108489386D02*
X134901100Y-108489386D01*
X148701100Y-107289386D02*
X149301100Y-107289386D01*
X142501100Y-94089386D02*
X144301100Y-94089386D01*
D13*
X139501100Y-94589386D02*
X139501100Y-93589386D01*
D16*
X142501100Y-93089386D02*
X142501100Y-94089386D01*
D13*
X134501100Y-99789386D02*
X134501100Y-99289386D01*
X134501100Y-95289386D02*
X134501100Y-94289386D01*
X148501100Y-108289386D02*
X147501100Y-108289386D01*
D16*
X138701100Y-108489386D02*
X138701100Y-109089386D01*
X144301100Y-93489386D02*
X144301100Y-94089386D01*
D13*
X134501100Y-95089386D02*
X139001100Y-95089386D01*
D16*
X133701100Y-107889386D02*
X133701100Y-107289386D01*
X144301100Y-94089386D02*
X148101100Y-94089386D01*
X134301100Y-95289386D02*
X134301100Y-94689386D01*
X134901100Y-93489386D02*
X138701100Y-93489386D01*
X134301100Y-107289386D02*
X134301100Y-95289386D01*
D13*
X134501100Y-108289386D02*
X134501100Y-107289386D01*
D16*
X148701100Y-94689386D02*
X148701100Y-95289386D01*
D13*
X146431100Y-104369386D02*
X146431100Y-108369386D01*
D16*
X138701100Y-93489386D02*
X138701100Y-94089386D01*
X140501100Y-108489386D02*
X138701100Y-108489386D01*
D13*
X148501100Y-107289386D02*
X148501100Y-108289386D01*
X135501100Y-108289386D02*
X134501100Y-108289386D01*
X139001100Y-99789386D02*
X134501100Y-99789386D01*
D16*
X134301100Y-107289386D02*
X133701100Y-107289386D01*
D13*
X134501100Y-94289386D02*
X135501100Y-94289386D01*
D16*
X148101100Y-109089386D02*
X144301100Y-109089386D01*
D13*
X139001100Y-99089386D02*
X139001100Y-99789386D01*
X135301100Y-101829386D02*
X139001100Y-101829386D01*
X148501100Y-94289386D02*
X148501100Y-95289386D01*
D16*
X148701100Y-107289386D02*
X148701100Y-107889386D01*
D13*
X142786100Y-108369386D02*
X137841100Y-108369386D01*
X143001100Y-97589386D02*
X140501100Y-97589386D01*
X141541100Y-104369386D02*
X146431100Y-104369386D01*
D16*
X134301100Y-107889386D02*
X134301100Y-107289386D01*
D13*
X147501100Y-94289386D02*
X148501100Y-94289386D01*
X143001100Y-93089386D02*
X140001100Y-93089386D01*
D16*
X148701100Y-95289386D02*
X149301100Y-95289386D01*
X148701100Y-95289386D02*
X148701100Y-107289386D01*
X144301100Y-93489386D02*
X148101100Y-93489386D01*
D13*
X143501100Y-97089386D02*
X143001100Y-97589386D01*
D16*
X140501100Y-94089386D02*
X142501100Y-94089386D01*
X138701100Y-94089386D02*
X140501100Y-94089386D01*
X140501100Y-93089386D02*
X140501100Y-94089386D01*
X134301100Y-95289386D02*
X133701100Y-95289386D01*
D13*
X143501100Y-93589386D02*
X143001100Y-93089386D01*
D16*
X133701100Y-95289386D02*
X133701100Y-94689386D01*
X138701100Y-109089386D02*
X134901100Y-109089386D01*
D13*
X134501100Y-95689386D02*
X134501100Y-95089386D01*
D16*
X134901100Y-94089386D02*
X138701100Y-94089386D01*
D13*
X135301100Y-103449386D02*
X135301100Y-101829386D01*
D16*
X144301100Y-108489386D02*
X144301100Y-109089386D01*
X133701100Y-107889386D02*
G75*
G03*
X134901100Y-109089386I1200000J0D01*
G01*
D13*
X140501100Y-97589386D02*
G75*
G03*
X139001100Y-99089386I1J-1500001D01*
G01*
D16*
X148101100Y-108489386D02*
G75*
G03*
X148701100Y-107889386I0J600000D01*
G01*
X134901100Y-94089386D02*
G75*
G03*
X134301100Y-94689386I0J-600000D01*
G01*
X149301100Y-94689386D02*
G75*
G03*
X148101100Y-93489386I-1200000J0D01*
G01*
X134901100Y-93489386D02*
G75*
G03*
X133701100Y-94689386I0J-1200000D01*
G01*
X134301100Y-107889386D02*
G75*
G03*
X134901100Y-108489386I600000J0D01*
G01*
D13*
X139001100Y-101829386D02*
G75*
G03*
X141541101Y-104369385I2539999J0D01*
G01*
D16*
X148701100Y-94689386D02*
G75*
G03*
X148101100Y-94089386I-600000J0D01*
G01*
D13*
X135301100Y-105829386D02*
G75*
G03*
X137841100Y-108369386I2540001J1D01*
G01*
D16*
X148101100Y-109089386D02*
G75*
G03*
X149301100Y-107889386I0J1200000D01*
G01*
D13*
X139001100Y-95089386D02*
G75*
G03*
X139501100Y-94589386I-1J500001D01*
G01*
D15*
%TO.C,ENC1*%
X201235219Y-115592048D02*
X201090112Y-115193370D01*
X201090112Y-115193370D02*
X201633897Y-115446941D01*
X203016811Y-113664373D02*
X201960265Y-115930142D01*
X209836345Y-130746936D02*
X205395437Y-128676106D01*
X201633897Y-115446941D02*
X201235219Y-115592048D01*
X206637887Y-121752501D02*
X206215269Y-122658808D01*
X197691821Y-125083851D02*
X198875152Y-122546189D01*
X207367088Y-115692941D02*
X203016811Y-113664373D01*
X202132729Y-127154681D02*
X197691821Y-125083851D01*
X210720427Y-117256628D02*
X215161335Y-119327458D01*
X215161335Y-119327458D02*
X213048244Y-123858997D01*
X210935152Y-128390536D02*
X209836345Y-130746936D01*
X213048244Y-123858997D02*
X210935152Y-128390536D01*
X205973424Y-121994345D02*
X206879732Y-122416964D01*
X209426578Y-122205654D02*
G75*
G03*
X209426578Y-122205654I-3000000J0D01*
G01*
D16*
%TO.C,S15*%
X125164545Y-94741707D02*
X128963966Y-94675388D01*
X123357838Y-94373182D02*
X121358143Y-94408087D01*
X129584818Y-95864734D02*
X129595289Y-96464643D01*
D13*
X129622201Y-109466153D02*
X128622353Y-109483605D01*
D16*
X121626910Y-109805742D02*
X119827184Y-109837156D01*
D13*
X119963085Y-100433352D02*
X119975302Y-101133245D01*
X119975302Y-101133245D02*
X115475988Y-101211781D01*
D16*
X115197482Y-96715957D02*
X114597574Y-96726429D01*
D13*
X123936298Y-98863771D02*
X121436678Y-98907402D01*
D16*
X115406911Y-108714129D02*
X115197482Y-96715957D01*
X123626605Y-109770837D02*
X121626910Y-109805742D01*
D13*
X129377867Y-95468285D02*
X129395319Y-96468133D01*
X128378019Y-95485738D02*
X129377867Y-95468285D01*
D16*
X129595289Y-96464643D02*
X130195198Y-96454171D01*
X119827184Y-109837156D02*
X119837655Y-110437065D01*
X119575869Y-95439349D02*
X121375595Y-95407935D01*
D13*
X120858219Y-94416814D02*
X120367021Y-94925464D01*
D16*
X129595289Y-96464643D02*
X129804718Y-108462815D01*
D13*
X127484103Y-105582877D02*
X127553912Y-109582267D01*
D16*
X125426331Y-109739423D02*
X123626605Y-109770837D01*
X125426331Y-109739423D02*
X125436802Y-110339331D01*
X125164545Y-94741707D02*
X125175016Y-95341616D01*
X119837655Y-110437065D02*
X116038234Y-110503384D01*
X130404626Y-108452343D02*
X130415098Y-109052252D01*
D13*
X115397452Y-96712467D02*
X115379999Y-95712619D01*
D16*
X123357838Y-94373182D02*
X123375290Y-95373030D01*
X114597574Y-96726429D02*
X114587102Y-96126520D01*
X119565398Y-94839441D02*
X119575869Y-95439349D01*
D13*
X124366412Y-94855654D02*
X123857762Y-94364456D01*
X123894470Y-109646143D02*
X127553912Y-109582267D01*
X123909467Y-109645881D02*
X118965220Y-109732183D01*
X115404433Y-97112406D02*
X115393961Y-96512497D01*
D16*
X121358143Y-94408087D02*
X121375595Y-95407935D01*
X119827184Y-109837156D02*
X116027763Y-109903475D01*
X129804718Y-108462815D02*
X129815189Y-109062723D01*
D13*
X124427495Y-98355121D02*
X123936298Y-98863771D01*
D16*
X129236224Y-110273012D02*
X125436802Y-110339331D01*
X115765976Y-94905760D02*
X119565398Y-94839441D01*
X125175016Y-95341616D02*
X128974437Y-95275297D01*
X129225752Y-109673104D02*
X125426331Y-109739423D01*
X115776448Y-95505668D02*
X119575869Y-95439349D01*
D13*
X115475988Y-101211781D02*
X115467261Y-100711857D01*
D16*
X114817474Y-109324510D02*
X114807002Y-108724601D01*
X115197482Y-96715957D02*
X115187011Y-96116049D01*
X115406911Y-108714129D02*
X114807002Y-108724601D01*
D13*
X122594847Y-105668219D02*
X127484103Y-105582877D01*
D16*
X121375595Y-95407935D02*
X123375290Y-95373030D01*
D13*
X116339741Y-104857262D02*
X116311469Y-103237509D01*
X115624333Y-109710487D02*
X115606881Y-108710639D01*
X123857762Y-94364456D02*
X120858219Y-94416814D01*
X129604748Y-108466305D02*
X129622201Y-109466153D01*
X115379999Y-95712619D02*
X116379847Y-95695167D01*
X116624181Y-109693034D02*
X115624333Y-109710487D01*
D16*
X123375290Y-95373030D02*
X125175016Y-95341616D01*
D13*
X116311469Y-103237509D02*
X120010905Y-103172935D01*
D16*
X115417382Y-109314038D02*
X115406911Y-108714129D01*
D13*
X120384473Y-95925311D02*
X120367021Y-94925464D01*
X115393961Y-96512497D02*
X119893276Y-96433961D01*
D16*
X129804718Y-108462815D02*
X130404626Y-108452343D01*
D13*
X116381278Y-107236899D02*
X116338869Y-104807270D01*
D16*
X130184726Y-95854262D02*
X130195198Y-96454171D01*
X129225752Y-109673103D02*
G75*
G03*
X129815189Y-109062723I-10471J599908D01*
G01*
X115765976Y-94905760D02*
G75*
G03*
X114587102Y-96126520I20943J-1199817D01*
G01*
X129584817Y-95864734D02*
G75*
G03*
X128974437Y-95275297I-599908J-10471D01*
G01*
D13*
X120010905Y-103172935D02*
G75*
G03*
X122594848Y-105668218I2539612J44329D01*
G01*
X119893276Y-96433960D02*
G75*
G03*
X120384473Y-95925311I-8727J499924D01*
G01*
D16*
X115417383Y-109314038D02*
G75*
G03*
X116027763Y-109903475I599908J10471D01*
G01*
X130184726Y-95854262D02*
G75*
G03*
X128963966Y-94675388I-1199817J-20943D01*
G01*
X114817474Y-109324510D02*
G75*
G03*
X116038234Y-110503384I1199817J20943D01*
G01*
X115776448Y-95505669D02*
G75*
G03*
X115187011Y-96116049I10471J-599908D01*
G01*
D13*
X116381278Y-107236899D02*
G75*
G03*
X118965220Y-109732183I2539614J44330D01*
G01*
D16*
X129236224Y-110273012D02*
G75*
G03*
X130415098Y-109052252I-20943J1199817D01*
G01*
D13*
X121436678Y-98907401D02*
G75*
G03*
X119963085Y-100433352I26180J-1499773D01*
G01*
%TO.C,S14*%
X103648566Y-112666114D02*
X108535587Y-112495455D01*
D16*
X96514883Y-115837007D02*
X95915249Y-115857947D01*
X100975022Y-117482353D02*
X97177337Y-117614971D01*
X110906111Y-115334455D02*
X111505745Y-115313515D01*
X96096089Y-103844317D02*
X96075149Y-103244683D01*
D13*
X104714010Y-101342032D02*
X101715838Y-101446730D01*
D16*
X104751767Y-116750100D02*
X102752986Y-116819899D01*
X106550671Y-116687281D02*
X106571610Y-117286916D01*
D13*
X110706233Y-115341434D02*
X110741132Y-116340825D01*
D16*
X104214315Y-101359482D02*
X102215533Y-101429281D01*
X110906111Y-115334455D02*
X110927051Y-115934089D01*
X106048118Y-102296053D02*
X109845803Y-102163435D01*
X104249214Y-102358873D02*
X106048118Y-102296053D01*
X110348356Y-116554663D02*
X106550671Y-116687281D01*
X96096089Y-103844317D02*
X95496455Y-103865257D01*
X110369296Y-117154298D02*
X106571610Y-117286916D01*
X102752986Y-116819899D02*
X100954082Y-116882719D01*
D13*
X105231156Y-101824278D02*
X104714010Y-101342032D01*
D16*
X102250433Y-102428672D02*
X104249214Y-102358873D01*
X110466377Y-102742130D02*
X110487317Y-103341765D01*
D13*
X105017415Y-116620751D02*
X108675185Y-116493019D01*
X97463321Y-114342997D02*
X97378515Y-111914478D01*
D16*
X96535823Y-116436642D02*
X96514883Y-115837007D01*
X100451529Y-102491491D02*
X102250433Y-102428672D01*
X110487317Y-103341765D02*
X111086951Y-103320825D01*
X104214315Y-101359482D02*
X104249214Y-102358873D01*
D13*
X96261068Y-102837947D02*
X97260459Y-102803047D01*
X96295967Y-103837338D02*
X96261068Y-102837947D01*
D16*
X95936188Y-116457582D02*
X95915249Y-115857947D01*
D13*
X96749661Y-116829418D02*
X96714761Y-115830027D01*
X97749052Y-116794519D02*
X96749661Y-116829418D01*
X96309927Y-104237094D02*
X96288987Y-103637459D01*
X100925844Y-107477975D02*
X100950274Y-108177549D01*
X97380260Y-111964447D02*
X97323723Y-110345434D01*
D16*
X111066012Y-102721190D02*
X111086951Y-103320825D01*
D13*
X100950274Y-108177549D02*
X96453015Y-108334596D01*
D16*
X106027178Y-101696419D02*
X106048118Y-102296053D01*
D13*
X101268492Y-102963266D02*
X101233592Y-101963876D01*
D16*
X95496455Y-103865257D02*
X95475515Y-103265623D01*
D13*
X110252539Y-102349354D02*
X110287439Y-103348745D01*
X105353304Y-105322146D02*
X104871058Y-105839291D01*
X101715838Y-101446730D02*
X101233592Y-101963876D01*
X104871058Y-105839291D02*
X102372581Y-105926539D01*
D16*
X106027178Y-101696419D02*
X109824863Y-101563801D01*
D13*
X97323723Y-110345434D02*
X101021469Y-110216306D01*
D16*
X100430590Y-101891856D02*
X100451529Y-102491491D01*
X100954082Y-116882719D02*
X100975022Y-117482353D01*
D13*
X105032406Y-116620227D02*
X100090418Y-116792805D01*
X96288987Y-103637459D02*
X100786246Y-103480412D01*
D16*
X100954082Y-116882719D02*
X97156397Y-117015337D01*
X96632904Y-102024474D02*
X100430590Y-101891856D01*
D13*
X109253148Y-102384253D02*
X110252539Y-102349354D01*
X110741132Y-116340825D02*
X109741741Y-116375725D01*
D16*
X111505745Y-115313515D02*
X111526685Y-115913149D01*
X96653844Y-102624109D02*
X100451529Y-102491491D01*
X110487317Y-103341765D02*
X110906111Y-115334455D01*
X96514883Y-115837007D02*
X96096089Y-103844317D01*
D13*
X108535587Y-112495455D02*
X108675185Y-116493019D01*
D16*
X106550671Y-116687281D02*
X104751767Y-116750100D01*
D13*
X96453015Y-108334596D02*
X96435565Y-107834901D01*
D16*
X102215533Y-101429281D02*
X102250433Y-102428672D01*
X96632904Y-102024474D02*
G75*
G03*
X95475515Y-103265623I41880J-1199269D01*
G01*
X95936188Y-116457582D02*
G75*
G03*
X97177337Y-117614971I1199269J41880D01*
G01*
X110348356Y-116554664D02*
G75*
G03*
X110927051Y-115934089I-20940J599635D01*
G01*
X110369296Y-117154298D02*
G75*
G03*
X111526685Y-115913149I-41880J1199269D01*
G01*
X110466378Y-102742130D02*
G75*
G03*
X109845803Y-102163435I-599635J-20940D01*
G01*
X111066012Y-102721190D02*
G75*
G03*
X109824863Y-101563801I-1199269J-41880D01*
G01*
D13*
X100786246Y-103480412D02*
G75*
G03*
X101268492Y-102963266I-17451J499697D01*
G01*
X101021468Y-110216306D02*
G75*
G03*
X103648567Y-112666113I2538452J88645D01*
G01*
X97463320Y-114342997D02*
G75*
G03*
X100090418Y-116792805I2538454J88646D01*
G01*
D16*
X96535822Y-116436642D02*
G75*
G03*
X97156397Y-117015337I599635J20940D01*
G01*
X96653844Y-102624108D02*
G75*
G03*
X96075149Y-103244683I20940J-599635D01*
G01*
D13*
X102372581Y-105926540D02*
G75*
G03*
X100925844Y-107477975I52350J-1499087D01*
G01*
D16*
%TO.C,SW1*%
X210800000Y-67800000D02*
X215200000Y-67800000D01*
X215200000Y-67800000D02*
X215200000Y-59200000D01*
X210800000Y-59200000D02*
X210800000Y-67800000D01*
X215200000Y-59200000D02*
X210800000Y-59200000D01*
%TO.C,S2*%
X108696191Y-64334686D02*
X108748484Y-64932403D01*
X108755800Y-78784477D02*
X104970260Y-79115669D01*
X94306009Y-78844086D02*
X94253716Y-78246369D01*
D13*
X95371757Y-72667697D02*
X99057677Y-72345220D01*
D16*
X93207847Y-66292033D02*
X93155553Y-65694316D01*
X103610630Y-63575031D02*
X107396170Y-63243839D01*
X108150767Y-64984696D02*
X108748484Y-64932403D01*
X103662924Y-64172748D02*
X107448464Y-63841556D01*
D13*
X98818871Y-69615647D02*
X98879880Y-70312983D01*
X98879880Y-70312983D02*
X94397003Y-70705184D01*
D16*
X99339276Y-79006024D02*
X95553736Y-79337216D01*
D13*
X96134022Y-79085683D02*
X95137827Y-79172839D01*
X103127435Y-67231057D02*
X102672916Y-67772732D01*
D16*
X101869773Y-64329628D02*
X103662924Y-64172748D01*
X93805564Y-66239739D02*
X93207847Y-66292033D01*
D13*
X108997397Y-76956464D02*
X109084553Y-77952659D01*
X102822390Y-63744375D02*
X102280715Y-63289856D01*
D16*
X104917967Y-78517952D02*
X103124816Y-78674832D01*
D13*
X95137827Y-79172839D02*
X95050672Y-78176644D01*
X103398273Y-78530449D02*
X98472090Y-78961434D01*
X107864373Y-64005933D02*
X107951528Y-65002128D01*
X95512949Y-74281532D02*
X95371757Y-72667697D01*
D16*
X109196636Y-76939033D02*
X109794353Y-76886739D01*
X103610630Y-63575031D02*
X103662924Y-64172748D01*
X108098474Y-64386980D02*
X108150767Y-64984696D01*
X99877384Y-64503940D02*
X101869773Y-64329628D01*
X101132427Y-78849144D02*
X99339276Y-79006024D01*
D13*
X103383330Y-78531757D02*
X107029403Y-78212767D01*
D16*
X109794353Y-76886739D02*
X109846647Y-77484456D01*
X108703506Y-78186760D02*
X104917967Y-78517952D01*
X101782618Y-63333434D02*
X101869773Y-64329628D01*
D13*
X101809387Y-74654179D02*
X106680780Y-74227988D01*
D16*
X94851433Y-78194076D02*
X93805564Y-66239739D01*
X94851433Y-78194076D02*
X94253716Y-78246369D01*
D13*
X94004803Y-66222308D02*
X93917647Y-65226113D01*
X106680780Y-74227988D02*
X107029403Y-78212767D01*
D16*
X98031940Y-64063103D02*
X98084233Y-64660820D01*
D13*
X94039665Y-66620786D02*
X93987372Y-66023069D01*
X93987372Y-66023069D02*
X98470248Y-65630868D01*
D16*
X94246400Y-64394295D02*
X98031940Y-64063103D01*
X93805564Y-66239739D02*
X93753270Y-65642022D01*
D13*
X98924767Y-65089193D02*
X98837611Y-64092998D01*
D16*
X94298694Y-64992012D02*
X98084233Y-64660820D01*
X98084233Y-64660820D02*
X99877384Y-64503940D01*
X104917967Y-78517952D02*
X104970260Y-79115669D01*
D13*
X106868178Y-64093089D02*
X107864373Y-64005933D01*
D16*
X94903726Y-78791792D02*
X94851433Y-78194076D01*
D13*
X99292131Y-63551323D02*
X98837611Y-64092998D01*
X102672916Y-67772732D02*
X100182429Y-67990621D01*
X109084553Y-77952659D02*
X108088358Y-78039814D01*
X102280715Y-63289856D02*
X99292131Y-63551323D01*
X95720380Y-76652476D02*
X95508591Y-74231722D01*
D16*
X99391570Y-79603741D02*
X95606030Y-79934933D01*
X101782618Y-63333434D02*
X99790228Y-63507745D01*
X108150767Y-64984696D02*
X109196636Y-76939033D01*
X99339276Y-79006024D02*
X99391570Y-79603741D01*
X109196636Y-76939033D02*
X109248930Y-77536750D01*
X103124816Y-78674832D02*
X101132427Y-78849144D01*
D13*
X93917647Y-65226113D02*
X94913842Y-65138958D01*
D16*
X99790228Y-63507745D02*
X99877384Y-64503940D01*
D13*
X94397003Y-70705184D02*
X94353426Y-70207087D01*
D16*
X108755800Y-78784477D02*
G75*
G03*
X109846647Y-77484456I-104587J1195434D01*
G01*
D13*
X98470248Y-65630868D02*
G75*
G03*
X98924767Y-65089193I-43579J498098D01*
G01*
D16*
X94298694Y-64992012D02*
G75*
G03*
X93753270Y-65642022I52293J-597717D01*
G01*
X108696191Y-64334686D02*
G75*
G03*
X107396170Y-63243839I-1195434J-104587D01*
G01*
X108098474Y-64386980D02*
G75*
G03*
X107448464Y-63841556I-597717J-52293D01*
G01*
X94306009Y-78844086D02*
G75*
G03*
X95606030Y-79934933I1195434J104587D01*
G01*
D13*
X100182429Y-67990621D02*
G75*
G03*
X98818871Y-69615647I130735J-1494293D01*
G01*
X95720381Y-76652476D02*
G75*
G03*
X98472090Y-78961434I2530334J221377D01*
G01*
D16*
X94246400Y-64394295D02*
G75*
G03*
X93155553Y-65694316I104587J-1195434D01*
G01*
X94903726Y-78791792D02*
G75*
G03*
X95553736Y-79337216I597717J52293D01*
G01*
X108703506Y-78186760D02*
G75*
G03*
X109248930Y-77536750I-52293J597717D01*
G01*
D13*
X99057677Y-72345220D02*
G75*
G03*
X101809388Y-74654178I2530334J221375D01*
G01*
%TO.C,S12*%
X181359544Y-82079680D02*
X180817868Y-82534199D01*
D16*
X171305564Y-91439033D02*
X170707847Y-91386739D01*
D13*
X185451528Y-92676644D02*
X185364373Y-93672839D01*
X178221485Y-77789856D02*
X177679810Y-78244375D01*
X178772508Y-89161152D02*
X183643900Y-89587343D01*
X181664589Y-78592998D02*
X181210069Y-78051323D01*
X179664148Y-93254440D02*
X174737965Y-92823454D01*
D16*
X176891570Y-78075031D02*
X176839276Y-78672748D01*
X175584233Y-93017952D02*
X175531940Y-93615669D01*
X182417967Y-79160820D02*
X186203506Y-79492012D01*
X181162924Y-93506024D02*
X181110630Y-94103741D01*
D13*
X180817868Y-82534199D02*
X178327382Y-82316310D01*
D16*
X175584233Y-93017952D02*
X171798694Y-92686760D01*
D13*
X172515809Y-79900605D02*
X172568103Y-79302889D01*
X186584553Y-79726113D02*
X186497397Y-80722308D01*
X172637827Y-78505933D02*
X173634022Y-78593089D01*
X183643900Y-89587343D02*
X183295277Y-93572122D01*
X172636436Y-87700801D02*
X172777629Y-86086966D01*
X185588358Y-79638958D02*
X186584553Y-79726113D01*
D16*
X173106030Y-77743839D02*
X176891570Y-78075031D01*
X182470260Y-78563103D02*
X186255800Y-78894295D01*
X186696636Y-80739739D02*
X185650767Y-92694076D01*
X180711972Y-78007745D02*
X178719582Y-77833434D01*
X187346647Y-80194316D02*
X187294353Y-80792033D01*
X171253270Y-92036750D02*
X171305564Y-91439033D01*
D13*
X172777629Y-86086966D02*
X176463549Y-86409442D01*
D16*
X172351433Y-79484696D02*
X171753716Y-79432403D01*
D13*
X172158471Y-83985004D02*
X172202049Y-83486906D01*
X176702356Y-83679868D02*
X176641347Y-84377205D01*
D16*
X186748930Y-80142022D02*
X186696636Y-80739739D01*
X175531940Y-93615669D02*
X171746400Y-93284477D01*
X180624816Y-79003940D02*
X182417967Y-79160820D01*
D13*
X181210069Y-78051323D02*
X178221485Y-77789856D01*
D16*
X184896170Y-94434933D02*
X181110630Y-94103741D01*
X176839276Y-78672748D02*
X178632427Y-78829628D01*
X185650767Y-92694076D02*
X185598474Y-93291792D01*
X172351433Y-79484696D02*
X172403726Y-78886980D01*
X171305564Y-91439033D02*
X172351433Y-79484696D01*
X186696636Y-80739739D02*
X187294353Y-80792033D01*
D13*
X172429006Y-90071744D02*
X172640794Y-87650991D01*
X171417647Y-92452659D02*
X171504803Y-91456464D01*
D16*
X182470260Y-78563103D02*
X182417967Y-79160820D01*
X173053736Y-78341556D02*
X176839276Y-78672748D01*
D13*
X172550672Y-79502128D02*
X172637827Y-78505933D01*
D16*
X185650767Y-92694076D02*
X186248484Y-92746369D01*
X179369773Y-93349144D02*
X177377384Y-93174832D01*
D13*
X177592654Y-79240570D02*
X177679810Y-78244375D01*
D16*
X180711972Y-78007745D02*
X180624816Y-79003940D01*
X184948464Y-93837216D02*
X181162924Y-93506024D01*
X177377384Y-93174832D02*
X175584233Y-93017952D01*
X171753716Y-79432403D02*
X171806009Y-78834686D01*
X178719582Y-77833434D02*
X178632427Y-78829628D01*
X178632427Y-78829628D02*
X180624816Y-79003940D01*
X181162924Y-93506024D02*
X179369773Y-93349144D01*
D13*
X176641347Y-84377205D02*
X172158471Y-83985004D01*
D16*
X186248484Y-92746369D02*
X186196191Y-93344086D01*
D13*
X179649205Y-93253132D02*
X183295277Y-93572122D01*
D16*
X170655553Y-91984456D02*
X170707847Y-91386739D01*
D13*
X172568103Y-79302889D02*
X177050979Y-79695090D01*
X172413842Y-92539814D02*
X171417647Y-92452659D01*
X185364373Y-93672839D02*
X184368178Y-93585683D01*
D16*
X184948464Y-93837216D02*
G75*
G03*
X185598474Y-93291792I52293J597717D01*
G01*
X173106030Y-77743839D02*
G75*
G03*
X171806009Y-78834686I-104587J-1195434D01*
G01*
D13*
X177050979Y-79695089D02*
G75*
G03*
X177592654Y-79240570I43577J498098D01*
G01*
D16*
X186748930Y-80142022D02*
G75*
G03*
X186203506Y-79492012I-597717J52293D01*
G01*
X170655553Y-91984456D02*
G75*
G03*
X171746400Y-93284477I1195434J-104587D01*
G01*
X184896170Y-94434933D02*
G75*
G03*
X186196191Y-93344086I104587J1195434D01*
G01*
D13*
X176463549Y-86409442D02*
G75*
G03*
X178772509Y-89161151I2530334J-221375D01*
G01*
D16*
X171253270Y-92036750D02*
G75*
G03*
X171798694Y-92686760I597717J-52293D01*
G01*
X173053736Y-78341556D02*
G75*
G03*
X172403726Y-78886980I-52293J-597717D01*
G01*
D13*
X178327382Y-82316310D02*
G75*
G03*
X176702356Y-83679868I-130733J-1494293D01*
G01*
X172429005Y-90071744D02*
G75*
G03*
X174737965Y-92823454I2530336J-221375D01*
G01*
D16*
X187346647Y-80194316D02*
G75*
G03*
X186255800Y-78894295I-1195434J104587D01*
G01*
%TO.C,S7*%
X72819669Y-98397735D02*
X72220240Y-98423907D01*
D13*
X77894849Y-83962620D02*
X77417134Y-84483953D01*
X80891993Y-83831762D02*
X77894849Y-83962620D01*
D16*
X86658878Y-98994645D02*
X82862495Y-99160399D01*
X72845841Y-98997164D02*
X72819669Y-98397735D01*
X81064208Y-99238914D02*
X79066111Y-99326153D01*
X72819669Y-98397735D02*
X72296236Y-86409156D01*
X86685049Y-99594074D02*
X82888666Y-99759828D01*
D13*
X72513494Y-86800052D02*
X72487322Y-86200623D01*
D16*
X80436089Y-84852619D02*
X82234375Y-84774105D01*
X76613534Y-84418944D02*
X76639705Y-85018373D01*
X87255788Y-85155437D02*
X87281960Y-85754865D01*
D13*
X73063098Y-99388059D02*
X73019479Y-98389011D01*
D16*
X78437992Y-84939858D02*
X80436089Y-84852619D01*
D13*
X72487322Y-86200623D02*
X76983039Y-86004335D01*
D16*
X77267825Y-99404667D02*
X73471441Y-99570421D01*
X77267825Y-99404667D02*
X77293996Y-100004096D01*
X79066111Y-99326153D02*
X77267825Y-99404667D01*
X72843322Y-85184127D02*
X76639705Y-85018373D01*
X72296236Y-86409156D02*
X72270065Y-85809727D01*
X87205964Y-97769616D02*
X87805392Y-97743444D01*
X80392469Y-83853571D02*
X80436089Y-84852619D01*
D13*
X77188050Y-90699862D02*
X72692333Y-90896149D01*
D16*
X86682531Y-85781037D02*
X87281960Y-85754865D01*
D13*
X72692333Y-90896149D02*
X72670524Y-90396625D01*
X77460754Y-85483002D02*
X77417134Y-84483953D01*
X81413327Y-84309476D02*
X80891993Y-83831762D01*
X87049773Y-98777388D02*
X86050725Y-98821007D01*
D16*
X82862495Y-99160399D02*
X82888666Y-99759828D01*
D13*
X81088281Y-88327478D02*
X78590660Y-88436527D01*
D16*
X78394373Y-83940810D02*
X78437992Y-84939858D01*
X77293996Y-100004096D02*
X73497613Y-100169850D01*
D13*
X87006154Y-97778340D02*
X87049773Y-98777388D01*
X86439102Y-84790713D02*
X86482721Y-85789761D01*
D16*
X76639705Y-85018373D02*
X78437992Y-84939858D01*
X82208204Y-84174676D02*
X82234375Y-84774105D01*
X87205964Y-97769616D02*
X87232135Y-98369045D01*
D13*
X72496046Y-86400432D02*
X72452427Y-85401384D01*
X74062146Y-99344440D02*
X73063098Y-99388059D01*
D16*
X86656359Y-85181608D02*
X86682531Y-85781037D01*
X82862495Y-99160399D02*
X81064208Y-99238914D01*
D13*
X72452427Y-85401384D02*
X73451475Y-85357765D01*
X85440054Y-84834332D02*
X86439102Y-84790713D01*
D16*
X72246412Y-99023335D02*
X72220240Y-98423907D01*
D13*
X79925410Y-95164710D02*
X84810755Y-94951411D01*
X73580555Y-92899312D02*
X77277034Y-92737921D01*
D16*
X86682531Y-85781037D02*
X87205964Y-97769616D01*
D13*
X81343702Y-99106596D02*
X76403409Y-99322294D01*
X77157517Y-90000528D02*
X77188050Y-90699862D01*
D16*
X87805392Y-97743444D02*
X87831564Y-98342873D01*
D13*
X81328717Y-99107251D02*
X84985233Y-98947604D01*
D16*
X80392469Y-83853571D02*
X78394373Y-83940810D01*
D13*
X81565995Y-87806145D02*
X81088281Y-88327478D01*
D16*
X72817151Y-84584698D02*
X76613534Y-84418944D01*
X82208204Y-84174676D02*
X86004587Y-84008922D01*
D13*
X73755033Y-96895505D02*
X73649038Y-94467818D01*
X73651219Y-94517770D02*
X73580555Y-92899312D01*
D16*
X72296236Y-86409156D02*
X71696808Y-86435328D01*
X71696808Y-86435328D02*
X71670636Y-85835899D01*
D13*
X84810755Y-94951411D02*
X84985233Y-98947604D01*
D16*
X82234375Y-84774105D02*
X86030759Y-84608351D01*
D13*
X78590660Y-88436527D02*
G75*
G03*
X77157517Y-90000528I65430J-1498573D01*
G01*
D16*
X86656359Y-85181608D02*
G75*
G03*
X86030759Y-84608351I-599429J-26172D01*
G01*
X72843322Y-85184127D02*
G75*
G03*
X72270065Y-85809727I26172J-599429D01*
G01*
X72246412Y-99023335D02*
G75*
G03*
X73497613Y-100169850I1198858J52343D01*
G01*
X72845841Y-98997164D02*
G75*
G03*
X73471441Y-99570421I599429J26172D01*
G01*
X86685049Y-99594074D02*
G75*
G03*
X87831564Y-98342873I-52343J1198858D01*
G01*
D13*
X77277033Y-92737921D02*
G75*
G03*
X79925411Y-95164709I2537582J110794D01*
G01*
X76983039Y-86004335D02*
G75*
G03*
X77460754Y-85483002I-21810J499525D01*
G01*
D16*
X72817151Y-84584698D02*
G75*
G03*
X71670636Y-85835899I52343J-1198858D01*
G01*
D13*
X73755033Y-96895505D02*
G75*
G03*
X76403409Y-99322294I2537583J110794D01*
G01*
D16*
X87255788Y-85155437D02*
G75*
G03*
X86004587Y-84008922I-1198858J-52343D01*
G01*
X86658878Y-98994645D02*
G75*
G03*
X87232135Y-98369045I-26172J599429D01*
G01*
%TO.C,JOY1*%
X209600000Y-108100000D02*
X201000000Y-108100000D01*
X200550000Y-89925000D02*
X210050000Y-89925000D01*
X197700000Y-103075000D02*
X197700000Y-89925000D01*
X214700000Y-91750000D02*
X214700000Y-101250000D01*
X200550000Y-87100000D02*
X210050000Y-87100000D01*
X211875000Y-89925000D02*
X211875000Y-103075000D01*
X209600000Y-103075000D02*
X201000000Y-103075000D01*
X200550000Y-89925000D02*
X200550000Y-87100000D01*
X211875000Y-103075000D02*
X209600000Y-103075000D01*
X214700000Y-101250000D02*
X211875000Y-101250000D01*
X201000000Y-108100000D02*
X201000000Y-103075000D01*
X209600000Y-103075000D02*
X209600000Y-108100000D01*
X197700000Y-89925000D02*
X200550000Y-89925000D01*
X210050000Y-87100000D02*
X210050000Y-89925000D01*
X210050000Y-89925000D02*
X211875000Y-89925000D01*
X201000000Y-103075000D02*
X197700000Y-103075000D01*
X211875000Y-91750000D02*
X214700000Y-91750000D01*
D15*
%TO.C,BAT1*%
X211580000Y-74980000D02*
X211580000Y-74580000D01*
X212080000Y-71780000D02*
X210480000Y-71780000D01*
X210480000Y-74280000D02*
X210480000Y-71780000D01*
X215080000Y-74280000D02*
X210480000Y-74280000D01*
X211380000Y-74780000D02*
X211780000Y-74780000D01*
X212080000Y-71780000D02*
X215080000Y-71780000D01*
X215080000Y-71780000D02*
X215080000Y-74280000D01*
X213980000Y-74680000D02*
X214280000Y-74680000D01*
%TO.C,S24*%
X199392047Y-141450648D02*
X200046120Y-140796575D01*
X197818734Y-140018757D02*
X198207643Y-140407666D01*
X202061375Y-138781320D02*
X202715448Y-138127247D01*
X201283557Y-136553934D02*
X201672466Y-136942843D01*
X196775752Y-138834353D02*
X200099153Y-135510952D01*
%TO.C,ENC2*%
X211622800Y-95820800D02*
X211622800Y-91020800D01*
X206622800Y-104420800D02*
X204022800Y-104420800D01*
X205822800Y-97720800D02*
X204822800Y-97720800D01*
X209122800Y-90220800D02*
X209422800Y-89920800D01*
X211622800Y-91020800D02*
X209122800Y-91020800D01*
X211622800Y-99520800D02*
X211622800Y-104420800D01*
X209422800Y-90520800D02*
X209122800Y-90220800D01*
X201622800Y-104420800D02*
X199022800Y-104420800D01*
X199022800Y-91020800D02*
X201822800Y-91020800D01*
X199022800Y-95920800D02*
X199022800Y-91020800D01*
X205322800Y-97220800D02*
X205322800Y-98220800D01*
X199022800Y-104420800D02*
X199022800Y-99520800D01*
X209422800Y-89920800D02*
X209422800Y-90520800D01*
X211622800Y-104420800D02*
X209022800Y-104420800D01*
X208322800Y-97720800D02*
G75*
G03*
X208322800Y-97720800I-3000000J0D01*
G01*
D16*
%TO.C,S6*%
X177391570Y-58775031D02*
X177339276Y-59372748D01*
X186150767Y-73394076D02*
X186098474Y-73991792D01*
D13*
X172658471Y-64685004D02*
X172702049Y-64186906D01*
D16*
X185448464Y-74537216D02*
X181662924Y-74206024D01*
X171155553Y-72684456D02*
X171207847Y-72086739D01*
D13*
X172913842Y-73239814D02*
X171917647Y-73152659D01*
D16*
X173553736Y-59041556D02*
X177339276Y-59372748D01*
D13*
X178721485Y-58489856D02*
X178179810Y-58944375D01*
D16*
X177339276Y-59372748D02*
X179132427Y-59529628D01*
X181211972Y-58707745D02*
X181124816Y-59703940D01*
X187248930Y-60842022D02*
X187196636Y-61439739D01*
D13*
X173015809Y-60600605D02*
X173068103Y-60002889D01*
D16*
X181211972Y-58707745D02*
X179219582Y-58533434D01*
X179869773Y-74049144D02*
X177877384Y-73874832D01*
X181662924Y-74206024D02*
X179869773Y-74049144D01*
D13*
X182164589Y-59292998D02*
X181710069Y-58751323D01*
X172929006Y-70771744D02*
X173140794Y-68350991D01*
X173277629Y-66786966D02*
X176963549Y-67109442D01*
D16*
X187196636Y-61439739D02*
X186150767Y-73394076D01*
X181124816Y-59703940D02*
X182917967Y-59860820D01*
D13*
X180164148Y-73954440D02*
X175237965Y-73523454D01*
D16*
X172851433Y-60184696D02*
X172253716Y-60132403D01*
D13*
X187084553Y-60426113D02*
X186997397Y-61422308D01*
X173136436Y-68400801D02*
X173277629Y-66786966D01*
X184143900Y-70287343D02*
X183795277Y-74272122D01*
D16*
X182970260Y-59263103D02*
X182917967Y-59860820D01*
X176084233Y-73717952D02*
X172298694Y-73386760D01*
X182917967Y-59860820D02*
X186703506Y-60192012D01*
D13*
X186088358Y-60338958D02*
X187084553Y-60426113D01*
X181710069Y-58751323D02*
X178721485Y-58489856D01*
X173068103Y-60002889D02*
X177550979Y-60395090D01*
D16*
X187846647Y-60894316D02*
X187794353Y-61492033D01*
X182970260Y-59263103D02*
X186755800Y-59594295D01*
X176084233Y-73717952D02*
X176031940Y-74315669D01*
D13*
X171917647Y-73152659D02*
X172004803Y-72156464D01*
D16*
X185396170Y-75134933D02*
X181610630Y-74803741D01*
X179219582Y-58533434D02*
X179132427Y-59529628D01*
D13*
X185864373Y-74372839D02*
X184868178Y-74285683D01*
X173050672Y-60202128D02*
X173137827Y-59205933D01*
D16*
X186150767Y-73394076D02*
X186748484Y-73446369D01*
X171805564Y-72139033D02*
X171207847Y-72086739D01*
D13*
X185951528Y-73376644D02*
X185864373Y-74372839D01*
D16*
X181662924Y-74206024D02*
X181610630Y-74803741D01*
D13*
X177141347Y-65077205D02*
X172658471Y-64685004D01*
D16*
X171805564Y-72139033D02*
X172851433Y-60184696D01*
X177877384Y-73874832D02*
X176084233Y-73717952D01*
X186748484Y-73446369D02*
X186696191Y-74044086D01*
X176031940Y-74315669D02*
X172246400Y-73984477D01*
X172253716Y-60132403D02*
X172306009Y-59534686D01*
X171753270Y-72736750D02*
X171805564Y-72139033D01*
X173606030Y-58443839D02*
X177391570Y-58775031D01*
D13*
X179272508Y-69861152D02*
X184143900Y-70287343D01*
X180149205Y-73953132D02*
X183795277Y-74272122D01*
X181317868Y-63234199D02*
X178827382Y-63016310D01*
X181859544Y-62779680D02*
X181317868Y-63234199D01*
D16*
X187196636Y-61439739D02*
X187794353Y-61492033D01*
X172851433Y-60184696D02*
X172903726Y-59586980D01*
D13*
X178092654Y-59940570D02*
X178179810Y-58944375D01*
X177202356Y-64379868D02*
X177141347Y-65077205D01*
X173137827Y-59205933D02*
X174134022Y-59293089D01*
D16*
X179132427Y-59529628D02*
X181124816Y-59703940D01*
X173553736Y-59041556D02*
G75*
G03*
X172903726Y-59586980I-52293J-597717D01*
G01*
D13*
X177550979Y-60395089D02*
G75*
G03*
X178092654Y-59940570I43577J498098D01*
G01*
D16*
X185448464Y-74537216D02*
G75*
G03*
X186098474Y-73991792I52293J597717D01*
G01*
X173606030Y-58443839D02*
G75*
G03*
X172306009Y-59534686I-104587J-1195434D01*
G01*
X171155553Y-72684456D02*
G75*
G03*
X172246400Y-73984477I1195434J-104587D01*
G01*
D13*
X178827382Y-63016310D02*
G75*
G03*
X177202356Y-64379868I-130733J-1494293D01*
G01*
D16*
X171753270Y-72736750D02*
G75*
G03*
X172298694Y-73386760I597717J-52293D01*
G01*
X187248930Y-60842022D02*
G75*
G03*
X186703506Y-60192012I-597717J52293D01*
G01*
X185396170Y-75134933D02*
G75*
G03*
X186696191Y-74044086I104587J1195434D01*
G01*
X187846647Y-60894316D02*
G75*
G03*
X186755800Y-59594295I-1195434J104587D01*
G01*
D13*
X176963549Y-67109442D02*
G75*
G03*
X179272509Y-69861151I2530334J-221375D01*
G01*
X172929005Y-70771744D02*
G75*
G03*
X175237965Y-73523454I2530336J-221375D01*
G01*
%TO.C,S21*%
X156001100Y-118089386D02*
X157001100Y-118089386D01*
D16*
X155801100Y-131689386D02*
X155801100Y-131089386D01*
D13*
X156001100Y-118889386D02*
X160501100Y-118889386D01*
X165001100Y-120889386D02*
X164501100Y-121389386D01*
D16*
X165801100Y-132289386D02*
X165801100Y-132889386D01*
D13*
X156001100Y-119089386D02*
X156001100Y-118089386D01*
X170001100Y-118089386D02*
X170001100Y-119089386D01*
D16*
X170201100Y-119089386D02*
X170801100Y-119089386D01*
X165801100Y-117889386D02*
X169601100Y-117889386D01*
D13*
X169001100Y-118089386D02*
X170001100Y-118089386D01*
X160501100Y-122889386D02*
X160501100Y-123589386D01*
D16*
X155201100Y-131689386D02*
X155201100Y-131089386D01*
X170201100Y-131089386D02*
X170201100Y-131689386D01*
X162001100Y-117889386D02*
X164001100Y-117889386D01*
D13*
X157001100Y-132089386D02*
X156001100Y-132089386D01*
X164271100Y-132169386D02*
X167931100Y-132169386D01*
D16*
X170801100Y-118489386D02*
X170801100Y-119089386D01*
D13*
X160501100Y-123589386D02*
X156001100Y-123589386D01*
D16*
X160201100Y-117289386D02*
X160201100Y-117889386D01*
X164001100Y-116889386D02*
X162001100Y-116889386D01*
X164001100Y-117889386D02*
X165801100Y-117889386D01*
X160201100Y-132889386D02*
X156401100Y-132889386D01*
X160201100Y-132289386D02*
X156401100Y-132289386D01*
X164001100Y-116889386D02*
X164001100Y-117889386D01*
D13*
X161501100Y-116889386D02*
X161001100Y-117389386D01*
D16*
X155801100Y-119089386D02*
X155201100Y-119089386D01*
X170801100Y-131089386D02*
X170801100Y-131689386D01*
X165801100Y-117289386D02*
X169601100Y-117289386D01*
D13*
X170001100Y-132089386D02*
X169001100Y-132089386D01*
X164501100Y-116889386D02*
X161501100Y-116889386D01*
X161001100Y-118389386D02*
X161001100Y-117389386D01*
D16*
X169601100Y-132889386D02*
X165801100Y-132889386D01*
X170201100Y-131089386D02*
X170801100Y-131089386D01*
X165801100Y-117289386D02*
X165801100Y-117889386D01*
X155201100Y-119089386D02*
X155201100Y-118489386D01*
X165801100Y-132289386D02*
X164001100Y-132289386D01*
X160201100Y-132289386D02*
X160201100Y-132889386D01*
D13*
X170001100Y-131089386D02*
X170001100Y-132089386D01*
X156001100Y-119489386D02*
X156001100Y-118889386D01*
D16*
X156401100Y-117289386D02*
X160201100Y-117289386D01*
D13*
X156801100Y-129629386D02*
X156801100Y-127199386D01*
X156801100Y-127249386D02*
X156801100Y-125629386D01*
D16*
X170201100Y-119089386D02*
X170201100Y-131089386D01*
D13*
X164286100Y-132169386D02*
X159341100Y-132169386D01*
D16*
X162001100Y-116889386D02*
X162001100Y-117889386D01*
X156401100Y-117889386D02*
X160201100Y-117889386D01*
D13*
X156801100Y-125629386D02*
X160501100Y-125629386D01*
X163041100Y-128169386D02*
X167931100Y-128169386D01*
X167931100Y-128169386D02*
X167931100Y-132169386D01*
X156001100Y-123589386D02*
X156001100Y-123089386D01*
D16*
X169601100Y-132289386D02*
X165801100Y-132289386D01*
X164001100Y-132289386D02*
X162001100Y-132289386D01*
X160201100Y-117889386D02*
X162001100Y-117889386D01*
D13*
X156001100Y-132089386D02*
X156001100Y-131089386D01*
X165001100Y-117389386D02*
X164501100Y-116889386D01*
D16*
X155801100Y-131089386D02*
X155801100Y-119089386D01*
X162001100Y-132289386D02*
X160201100Y-132289386D01*
X155801100Y-119089386D02*
X155801100Y-118489386D01*
X170201100Y-118489386D02*
X170201100Y-119089386D01*
D13*
X164501100Y-121389386D02*
X162001100Y-121389386D01*
D16*
X155801100Y-131089386D02*
X155201100Y-131089386D01*
X169601100Y-132889386D02*
G75*
G03*
X170801100Y-131689386I0J1200000D01*
G01*
D13*
X156801100Y-129629386D02*
G75*
G03*
X159341100Y-132169386I2540001J1D01*
G01*
X160501100Y-125629386D02*
G75*
G03*
X163041101Y-128169385I2539999J0D01*
G01*
D16*
X169601100Y-132289386D02*
G75*
G03*
X170201100Y-131689386I0J600000D01*
G01*
D13*
X162001100Y-121389386D02*
G75*
G03*
X160501100Y-122889386I1J-1500001D01*
G01*
X160501100Y-118889386D02*
G75*
G03*
X161001100Y-118389386I-1J500001D01*
G01*
D16*
X155801100Y-131689386D02*
G75*
G03*
X156401100Y-132289386I600000J0D01*
G01*
X156401100Y-117289386D02*
G75*
G03*
X155201100Y-118489386I0J-1200000D01*
G01*
X156401100Y-117889386D02*
G75*
G03*
X155801100Y-118489386I0J-600000D01*
G01*
X155201100Y-131689386D02*
G75*
G03*
X156401100Y-132889386I1200000J0D01*
G01*
X170801100Y-118489386D02*
G75*
G03*
X169601100Y-117289386I-1200000J0D01*
G01*
X170201100Y-118489386D02*
G75*
G03*
X169601100Y-117889386I-600000J0D01*
G01*
%TD*%
M02*
