%TF.GenerationSoftware,KiCad,Pcbnew,(6.0.0-0)*%
%TF.CreationDate,2023-08-01T21:22:35-07:00*%
%TF.ProjectId,xobdox_seeed,786f6264-6f78-45f7-9365-6565642e6b69,rev?*%
%TF.SameCoordinates,Original*%
%TF.FileFunction,Profile,NP*%
%FSLAX46Y46*%
G04 Gerber Fmt 4.6, Leading zero omitted, Abs format (unit mm)*
G04 Created by KiCad (PCBNEW (6.0.0-0)) date 2023-08-01 21:22:35*
%MOMM*%
%LPD*%
G01*
G04 APERTURE LIST*
%TA.AperFunction,Profile*%
%ADD10C,0.050000*%
%TD*%
G04 APERTURE END LIST*
D10*
X151388633Y-72976295D02*
G75*
G03*
X153190000Y-73710000I1805317J1854171D01*
G01*
X119888000Y-93470000D02*
X129840000Y-93470000D01*
X173405800Y-95961200D02*
X187000000Y-95970000D01*
X105333800Y-99695000D02*
G75*
G03*
X112400000Y-95980000I-803800J10106599D01*
G01*
X152120600Y-111328200D02*
G75*
G03*
X148971000Y-110280000I-3322269J-4726644D01*
G01*
X215210614Y-55000000D02*
X215200000Y-75600000D01*
X95657340Y-100570000D02*
G75*
G03*
X93760000Y-101420000I164366J-2909479D01*
G01*
X89501100Y-121589386D02*
X100501100Y-132589386D01*
X120751600Y-74396600D02*
X129840000Y-74400000D01*
X154457400Y-112395000D02*
X163880800Y-112369600D01*
X107940000Y-118780000D02*
G75*
G03*
X113131600Y-116179600I-721406J7922876D01*
G01*
X114000000Y-53589386D02*
X213800000Y-53589386D01*
X119888000Y-93470000D02*
G75*
G03*
X112880000Y-96630000I803328J-11132454D01*
G01*
X151388633Y-92046295D02*
G75*
G03*
X153190000Y-92780000I1805317J1854171D01*
G01*
X133140000Y-73000000D02*
G75*
G03*
X131710000Y-73650000I-7590J-1881302D01*
G01*
X95657340Y-100570000D02*
X105511600Y-100584000D01*
X215200000Y-86400000D02*
X214200000Y-85400000D01*
X86900000Y-83000000D02*
X91910000Y-83000000D01*
X107780000Y-119680000D02*
G75*
G03*
X113538000Y-116941600I-676538J8845385D01*
G01*
X153190000Y-92780000D02*
X168190000Y-92770000D01*
X120954800Y-92570000D02*
G75*
G03*
X112400000Y-95980000I35815J-12525730D01*
G01*
X172821600Y-75700000D02*
X187000000Y-75700000D01*
X187000000Y-76600000D02*
G75*
G03*
X187000000Y-75700000I0J450000D01*
G01*
X175180000Y-116580000D02*
X187560000Y-116580000D01*
X187560000Y-116580000D02*
G75*
G03*
X187560000Y-115680000I0J450000D01*
G01*
X151388633Y-72976295D02*
G75*
G03*
X149280000Y-72100000I-2030837J-1911658D01*
G01*
X133140000Y-92070000D02*
G75*
G03*
X131710000Y-92720000I-7590J-1881302D01*
G01*
X96217340Y-118780000D02*
G75*
G03*
X96217340Y-119680000I-61J-450000D01*
G01*
X106501100Y-136589386D02*
X131501100Y-136589386D01*
X154533600Y-113284000D02*
X164058600Y-113284000D01*
X215200000Y-119270000D02*
X209700000Y-131100000D01*
X95657340Y-80600000D02*
X104444800Y-80600000D01*
X151765000Y-112166400D02*
G75*
G03*
X148717000Y-111175800I-3532673J-5685231D01*
G01*
X85000000Y-64089386D02*
X72501100Y-64089386D01*
X133959600Y-111175800D02*
G75*
G03*
X132270000Y-111830000I147480J-2889857D01*
G01*
X133959600Y-111175800D02*
X148717000Y-111175800D01*
X170410000Y-75520000D02*
G75*
G03*
X168250000Y-74600000I-2543261J-2975482D01*
G01*
X214200000Y-85400000D02*
X214200000Y-76600000D01*
X151388633Y-92046295D02*
G75*
G03*
X149280000Y-91170000I-2030837J-1911658D01*
G01*
X182501100Y-138589386D02*
G75*
G03*
X170501100Y-134589386I-17364830J-32094490D01*
G01*
X96217340Y-119680000D02*
X107780000Y-119680000D01*
X215210614Y-55000000D02*
G75*
G03*
X213800000Y-53589386I-1410613J1D01*
G01*
X209700000Y-131100000D02*
X196190000Y-144691573D01*
X169392600Y-114808000D02*
G75*
G03*
X175180000Y-116580000I5827309J8695247D01*
G01*
X193200000Y-145300000D02*
X191270000Y-143850000D01*
X151270000Y-73820000D02*
G75*
G03*
X153190000Y-74610000I1924060J1948032D01*
G01*
X170410000Y-75520000D02*
G75*
G03*
X172821600Y-76606400I2591337J2532427D01*
G01*
X133140000Y-72100000D02*
X149280000Y-72100000D01*
X72501100Y-64089386D02*
G75*
G03*
X68490000Y-67870000I314820J-4352139D01*
G01*
X91910000Y-102070000D02*
G75*
G03*
X93760000Y-101420000I103080J2664311D01*
G01*
X131501100Y-136589386D02*
G75*
G03*
X151501100Y-134589386I-6007211J161072112D01*
G01*
X86900000Y-101170000D02*
X91910000Y-101170000D01*
X121843800Y-112580000D02*
G75*
G03*
X113538000Y-116941600I1644319J-13220451D01*
G01*
X95657340Y-81500000D02*
X104775000Y-81483200D01*
X133140000Y-91170000D02*
G75*
G03*
X131490000Y-91880000I22063J-2323527D01*
G01*
X170570000Y-74690000D02*
G75*
G03*
X168190000Y-73700000I-2383942J-2375285D01*
G01*
X191270000Y-143850000D02*
G75*
G03*
X182501100Y-138589386I-33298886J-45567071D01*
G01*
X133140000Y-73000000D02*
X149400000Y-73000000D01*
X170501100Y-134589386D02*
G75*
G03*
X151501100Y-134589386I-9500000J-133993069D01*
G01*
X100501100Y-132589386D02*
G75*
G03*
X106501099Y-136589386I8999998J6999996D01*
G01*
X85000000Y-64089386D02*
G75*
G03*
X104020000Y-57040000I-1281602J32641592D01*
G01*
X151270000Y-92890000D02*
G75*
G03*
X153190000Y-93680000I1924060J1948032D01*
G01*
X193200000Y-145300000D02*
G75*
G03*
X196190000Y-144691573I1035350J2563078D01*
G01*
X120980200Y-73500001D02*
G75*
G03*
X110261400Y-78308200I-340793J-13591955D01*
G01*
X187000000Y-95970000D02*
G75*
G03*
X187000000Y-95070000I0J450000D01*
G01*
X86900000Y-101170000D02*
G75*
G03*
X86900000Y-102070000I-61J-450000D01*
G01*
X172821600Y-76606400D02*
X187000000Y-76600000D01*
X89501100Y-121589387D02*
G75*
G03*
X84501100Y-119589386I-4833333J-4833329D01*
G01*
X133140000Y-91170000D02*
X149280000Y-91170000D01*
X122555000Y-111683800D02*
G75*
G03*
X113131600Y-116179600I505830J-13184079D01*
G01*
X151270000Y-92890000D02*
G75*
G03*
X149400000Y-92070000I-1906699J-1805948D01*
G01*
X95657340Y-81500000D02*
G75*
G03*
X93760000Y-82350000I164366J-2909479D01*
G01*
X170383200Y-94640400D02*
G75*
G03*
X168250000Y-93670000I-2270876J-2162121D01*
G01*
X80201100Y-119589386D02*
X84501100Y-119589386D01*
X153190000Y-73710000D02*
X168190000Y-73700000D01*
X91910000Y-83000000D02*
G75*
G03*
X93760000Y-82350000I103080J2664311D01*
G01*
X129840000Y-92570000D02*
G75*
G03*
X131490000Y-91880000I-38528J2409959D01*
G01*
X151270000Y-73820000D02*
G75*
G03*
X149400000Y-73000000I-1906699J-1805948D01*
G01*
X74501100Y-119589386D02*
X75201100Y-119589386D01*
X129840000Y-93470001D02*
G75*
G03*
X131710000Y-92720000I-45082J2818672D01*
G01*
X133140000Y-92070000D02*
X149400000Y-92070000D01*
X75201100Y-119589386D02*
X80201100Y-119589386D01*
X95657340Y-80600000D02*
G75*
G03*
X93747340Y-81390000I-48726J-2586119D01*
G01*
X91910000Y-82100000D02*
G75*
G03*
X93747340Y-81390000I95549J2485074D01*
G01*
X104775000Y-81483200D02*
G75*
G03*
X111226600Y-78486000I-225721J8928145D01*
G01*
X170570000Y-74690000D02*
G75*
G03*
X172821600Y-75700000I2417689J2375017D01*
G01*
X170570000Y-93760000D02*
G75*
G03*
X173786800Y-95072200I3076142J2942004D01*
G01*
X169392600Y-114808000D02*
G75*
G03*
X164058600Y-113284000I-6364306J-12178572D01*
G01*
X120980200Y-73500000D02*
X129840000Y-73500000D01*
X215200000Y-119270000D02*
X215210614Y-102300000D01*
X120751600Y-74396600D02*
G75*
G03*
X111226600Y-78486000I242777J-13702955D01*
G01*
X170383200Y-94640400D02*
G75*
G03*
X173405800Y-95961200I3318341J3474944D01*
G01*
X86900000Y-102070000D02*
X91910000Y-102070000D01*
X68490000Y-114589386D02*
G75*
G03*
X74501100Y-119589386I5510089J511007D01*
G01*
X129840000Y-74400001D02*
G75*
G03*
X131710000Y-73650000I-45082J2818672D01*
G01*
X152120600Y-111328200D02*
G75*
G03*
X154457400Y-112395000I3012175J3505346D01*
G01*
X121843800Y-112580000D02*
X130400000Y-112580000D01*
X104444800Y-80600001D02*
G75*
G03*
X110261400Y-78308200I10431J8500706D01*
G01*
X175360000Y-115680000D02*
X187560000Y-115680000D01*
X86900000Y-82100000D02*
G75*
G03*
X86900000Y-83000000I-61J-450000D01*
G01*
X170129200Y-114046000D02*
G75*
G03*
X163880800Y-112369600I-6757480J-12704025D01*
G01*
X129840000Y-73500000D02*
G75*
G03*
X131490000Y-72810000I-38528J2409959D01*
G01*
X151765000Y-112166400D02*
G75*
G03*
X154533600Y-113284000I3366645J4352009D01*
G01*
X95657340Y-99670000D02*
X105333800Y-99695000D01*
X153190000Y-93680000D02*
X168250000Y-93670000D01*
X114000000Y-53589386D02*
G75*
G03*
X104020000Y-57040000I-158318J-15699686D01*
G01*
X68490000Y-67870000D02*
X68490000Y-114589386D01*
X86900000Y-82100000D02*
X91910000Y-82100000D01*
X214200000Y-76600000D02*
X215200000Y-75600000D01*
X133700000Y-110280000D02*
X148971000Y-110280000D01*
X120954800Y-92570000D02*
X129840000Y-92570000D01*
X170570000Y-93760000D02*
G75*
G03*
X168190000Y-92770000I-2401781J-2418170D01*
G01*
X91910000Y-101170000D02*
G75*
G03*
X93747340Y-100460000I95549J2485074D01*
G01*
X133700000Y-110280000D02*
G75*
G03*
X132050000Y-110990000I294891J-2957563D01*
G01*
X95657340Y-99670000D02*
G75*
G03*
X93747340Y-100460000I-48726J-2586119D01*
G01*
X153190000Y-74610000D02*
X168250000Y-74600000D01*
X133140000Y-72100000D02*
G75*
G03*
X131490000Y-72810000I22063J-2323527D01*
G01*
X170129200Y-114046000D02*
G75*
G03*
X175360000Y-115680000I5217200J7511946D01*
G01*
X130400000Y-111680000D02*
G75*
G03*
X132050000Y-110990000I-411422J3301661D01*
G01*
X173786800Y-95072200D02*
X187000000Y-95070000D01*
X215210614Y-102300000D02*
X215200000Y-86400000D01*
X122555000Y-111683800D02*
X130400000Y-111680000D01*
X130400000Y-112580001D02*
G75*
G03*
X132270000Y-111830000I-45082J2818672D01*
G01*
X96217340Y-118780000D02*
X107940000Y-118780000D01*
X105511600Y-100584000D02*
G75*
G03*
X112880000Y-96630000I-879470J10481539D01*
G01*
M02*
